                                                                        S      1
,,27HUtility Blade (Stanley).ipt,27HNo Iges File Name specified,22HAutodG      1
esk Inventor 2012,37HAutoDesk Inventor Iges Exporter R2012,32,38,6,99,  G      2
15,27HUtility Blade (Stanley).ipt,1.0D0,2,2HMM,1,.08D0,15H20151005.20325G      3
3,.01D0,10000.0D0,6HLainey,,11,0,,;                                     G      4
     406       1       0       0       1       0       0       000000000D      1
     406       0       0       1       3                               0D      2
     116       2       0       0       0       0       0       000010000D      3
     116       0       0       1       0                               0D      4
     123       3       0       0       0       0       0       000010200D      5
     123       0       0       1       0                               0D      6
     190       4       0       0       0       0       0       000010000D      7
     190       0       0       1       1                               0D      8
     123       5       0       0       0       0       0       000010200D      9
     123       0       0       1       0                               0D     10
     504       6       0       0       0       0       0       000010001D     11
     504       0       0      10       1                               0D     12
     502      16       0       0       0       0       0       000010000D     13
     502       0       0      12       1                               0D     14
     110      28       0       0       0       0       0       000010000D     15
     110       0       0       2       0                               0D     16
     110      30       0       0       0       0       0       000010000D     17
     110       0       0       2       0                               0D     18
     110      32       0       0       0       0       0       000010000D     19
     110       0       0       2       0                               0D     20
     110      34       0       0       0       0       0       000010000D     21
     110       0       0       2       0                               0D     22
     508      36       0       0       0       0       0       000010000D     23
     508       0       0       1       1                               0D     24
     510      37       0       0       0       0       0       000010000D     25
     510       0    -273       1       1                               0D     26
     116      38       0       0       0       0       0       000010000D     27
     116       0       0       1       0                               0D     28
     123      39       0       0       0       0       0       000010200D     29
     123       0       0       1       0                               0D     30
     190      40       0       0       0       0       0       000010000D     31
     190       0       0       1       1                               0D     32
     123      41       0       0       0       0       0       000010200D     33
     123       0       0       1       0                               0D     34
     110      42       0       0       0       0       0       000010000D     35
     110       0       0       1       0                               0D     36
     110      43       0       0       0       0       0       000010000D     37
     110       0       0       1       0                               0D     38
     110      44       0       0       0       0       0       000010000D     39
     110       0       0       1       0                               0D     40
     110      45       0       0       0       0       0       000010000D     41
     110       0       0       2       0                               0D     42
     508      47       0       0       0       0       0       000010000D     43
     508       0       0       1       1                               0D     44
     510      48       0       0       0       0       0       000010000D     45
     510       0    -275       1       1                               0D     46
     116      49       0       0       0       0       0       000010000D     47
     116       0       0       1       0                               0D     48
     123      50       0       0       0       0       0       000010200D     49
     123       0       0       1       0                               0D     50
     190      51       0       0       0       0       0       000010000D     51
     190       0       0       1       1                               0D     52
     123      52       0       0       0       0       0       000010200D     53
     123       0       0       1       0                               0D     54
     110      53       0       0       0       0       0       000010000D     55
     110       0       0       2       0                               0D     56
     110      55       0       0       0       0       0       000010000D     57
     110       0       0       2       0                               0D     58
     508      57       0       0       0       0       0       000010000D     59
     508       0       0       1       1                               0D     60
     510      58       0       0       0       0       0       000010000D     61
     510       0    -273       1       1                               0D     62
     116      59       0       0       0       0       0       000010000D     63
     116       0       0       1       0                               0D     64
     123      60       0       0       0       0       0       000010200D     65
     123       0       0       1       0                               0D     66
     190      61       0       0       0       0       0       000010000D     67
     190       0       0       1       1                               0D     68
     123      62       0       0       0       0       0       000010200D     69
     123       0       0       1       0                               0D     70
     110      63       0       0       0       0       0       000010000D     71
     110       0       0       1       0                               0D     72
     110      64       0       0       0       0       0       000010000D     73
     110       0       0       1       0                               0D     74
     110      65       0       0       0       0       0       000010000D     75
     110       0       0       1       0                               0D     76
     508      66       0       0       0       0       0       000010000D     77
     508       0       0       1       1                               0D     78
     510      67       0       0       0       0       0       000010000D     79
     510       0    -275       1       1                               0D     80
     116      68       0       0       0       0       0       000010000D     81
     116       0       0       1       0                               0D     82
     123      69       0       0       0       0       0       000010200D     83
     123       0       0       1       0                               0D     84
     190      70       0       0       0       0       0       000010000D     85
     190       0       0       1       1                               0D     86
     123      71       0       0       0       0       0       000010200D     87
     123       0       0       1       0                               0D     88
     110      72       0       0       0       0       0       000010000D     89
     110       0       0       1       0                               0D     90
     110      73       0       0       0       0       0       000010000D     91
     110       0       0       1       0                               0D     92
     110      74       0       0       0       0       0       000010000D     93
     110       0       0       1       0                               0D     94
     508      75       0       0       0       0       0       000010000D     95
     508       0       0       1       1                               0D     96
     510      76       0       0       0       0       0       000010000D     97
     510       0    -275       1       1                               0D     98
     116      77       0       0       0       0       0       000010000D     99
     116       0       0       1       0                               0D    100
     123      78       0       0       0       0       0       000010200D    101
     123       0       0       1       0                               0D    102
     190      79       0       0       0       0       0       000010000D    103
     190       0       0       1       1                               0D    104
     123      80       0       0       0       0       0       000010200D    105
     123       0       0       1       0                               0D    106
     110      81       0       0       0       0       0       000010000D    107
     110       0       0       1       0                               0D    108
     110      82       0       0       0       0       0       000010000D    109
     110       0       0       1       0                               0D    110
     110      83       0       0       0       0       0       000010000D    111
     110       0       0       1       0                               0D    112
     508      84       0       0       0       0       0       000010000D    113
     508       0       0       1       1                               0D    114
     510      85       0       0       0       0       0       000010000D    115
     510       0    -275       1       1                               0D    116
     120      86       0       0       0       0       0       000010000D    117
     120       0       0       1       0                               0D    118
     110      87       0       0       0       0       0       000010000D    119
     110       0       0       1       0                               0D    120
     110      88       0       0       0       0       0       001010000D    121
     110       0       0       1       0                               0D    122
     100      89       0       0       0       0     125       000010000D    123
     100       0       0       2       0                               0D    124
     124      91       0       0       0       0       0       000000000D    125
     124       0       0       2       0                               0D    126
     110      93       0       0       0       0       0       000010000D    127
     110       0       0       1       0                               0D    128
     100      94       0       0       0       0     131       000010000D    129
     100       0       0       1       0                               0D    130
     124      95       0       0       0       0       0       000000000D    131
     124       0       0       2       0                               0D    132
     508      97       0       0       0       0       0       000010000D    133
     508       0       0       1       1                               0D    134
     510      98       0       0       0       0       0       000010000D    135
     510       0    -275       1       1                               0D    136
     116      99       0       0       0       0       0       000010000D    137
     116       0       0       1       0                               0D    138
     123     100       0       0       0       0       0       000010200D    139
     123       0       0       1       0                               0D    140
     190     101       0       0       0       0       0       000010000D    141
     190       0       0       1       1                               0D    142
     123     102       0       0       0       0       0       000010200D    143
     123       0       0       1       0                               0D    144
     110     103       0       0       0       0       0       000010000D    145
     110       0       0       1       0                               0D    146
     110     104       0       0       0       0       0       000010000D    147
     110       0       0       1       0                               0D    148
     110     105       0       0       0       0       0       000010000D    149
     110       0       0       1       0                               0D    150
     508     106       0       0       0       0       0       000010000D    151
     508       0       0       1       1                               0D    152
     510     107       0       0       0       0       0       000010000D    153
     510       0    -275       1       1                               0D    154
     116     108       0       0       0       0       0       000010000D    155
     116       0       0       1       0                               0D    156
     123     109       0       0       0       0       0       000010200D    157
     123       0       0       1       0                               0D    158
     190     110       0       0       0       0       0       000010000D    159
     190       0       0       1       1                               0D    160
     123     111       0       0       0       0       0       000010200D    161
     123       0       0       1       0                               0D    162
     110     112       0       0       0       0       0       000010000D    163
     110       0       0       1       0                               0D    164
     110     113       0       0       0       0       0       000010000D    165
     110       0       0       2       0                               0D    166
     110     115       0       0       0       0       0       000010000D    167
     110       0       0       1       0                               0D    168
     508     116       0       0       0       0       0       000010000D    169
     508       0       0       1       1                               0D    170
     510     117       0       0       0       0       0       000010000D    171
     510       0    -275       1       1                               0D    172
     116     118       0       0       0       0       0       000010000D    173
     116       0       0       1       0                               0D    174
     123     119       0       0       0       0       0       000010200D    175
     123       0       0       1       0                               0D    176
     190     120       0       0       0       0       0       000010000D    177
     190       0       0       1       1                               0D    178
     123     121       0       0       0       0       0       000010200D    179
     123       0       0       1       0                               0D    180
     110     122       0       0       0       0       0       000010000D    181
     110       0       0       2       0                               0D    182
     110     124       0       0       0       0       0       000010000D    183
     110       0       0       2       0                               0D    184
     110     126       0       0       0       0       0       000010000D    185
     110       0       0       2       0                               0D    186
     508     128       0       0       0       0       0       000010000D    187
     508       0       0       1       1                               0D    188
     510     129       0       0       0       0       0       000010000D    189
     510       0    -275       1       1                               0D    190
     120     130       0       0       0       0       0       000010000D    191
     120       0       0       1       0                               0D    192
     110     131       0       0       0       0       0       000010000D    193
     110       0       0       2       0                               0D    194
     110     133       0       0       0       0       0       001010000D    195
     110       0       0       2       0                               0D    196
     100     135       0       0       0       0     199       000010000D    197
     100       0       0       2       0                               0D    198
     124     137       0       0       0       0       0       000000000D    199
     124       0       0       2       0                               0D    200
     110     139       0       0       0       0       0       000010000D    201
     110       0       0       2       0                               0D    202
     100     141       0       0       0       0     205       000010000D    203
     100       0       0       1       0                               0D    204
     124     142       0       0       0       0       0       000000000D    205
     124       0       0       2       0                               0D    206
     508     144       0       0       0       0       0       000010000D    207
     508       0       0       1       1                               0D    208
     510     145       0       0       0       0       0       000010000D    209
     510       0    -275       1       1                               0D    210
     116     146       0       0       0       0       0       000010000D    211
     116       0       0       1       0                               0D    212
     123     147       0       0       0       0       0       000010200D    213
     123       0       0       1       0                               0D    214
     190     148       0       0       0       0       0       000010000D    215
     190       0       0       1       1                               0D    216
     123     149       0       0       0       0       0       000010200D    217
     123       0       0       1       0                               0D    218
     110     150       0       0       0       0       0       000010000D    219
     110       0       0       2       0                               0D    220
     110     152       0       0       0       0       0       000010000D    221
     110       0       0       2       0                               0D    222
     110     154       0       0       0       0       0       000010000D    223
     110       0       0       2       0                               0D    224
     508     156       0       0       0       0       0       000010000D    225
     508       0       0       1       1                               0D    226
     510     157       0       0       0       0       0       000010000D    227
     510       0    -275       1       1                               0D    228
     116     158       0       0       0       0       0       000010000D    229
     116       0       0       1       0                               0D    230
     123     159       0       0       0       0       0       000010200D    231
     123       0       0       1       0                               0D    232
     190     160       0       0       0       0       0       000010000D    233
     190       0       0       1       1                               0D    234
     123     161       0       0       0       0       0       000010200D    235
     123       0       0       1       0                               0D    236
     110     162       0       0       0       0       0       000010000D    237
     110       0       0       1       0                               0D    238
     110     163       0       0       0       0       0       000010000D    239
     110       0       0       1       0                               0D    240
     508     164       0       0       0       0       0       000010000D    241
     508       0       0       1       1                               0D    242
     510     165       0       0       0       0       0       000010000D    243
     510       0    -275       1       1                               0D    244
     116     166       0       0       0       0       0       000010000D    245
     116       0       0       1       0                               0D    246
     123     167       0       0       0       0       0       000010200D    247
     123       0       0       1       0                               0D    248
     190     168       0       0       0       0       0       000010000D    249
     190       0       0       1       1                               0D    250
     123     169       0       0       0       0       0       000010200D    251
     123       0       0       1       0                               0D    252
     508     170       0       0       0       0       0       000010000D    253
     508       0       0       3       1                               0D    254
     510     173       0       0       0       0       0       000010000D    255
     510       0    -277       1       1                               0D    256
     116     174       0       0       0       0       0       000010000D    257
     116       0       0       1       0                               0D    258
     123     175       0       0       0       0       0       000010200D    259
     123       0       0       1       0                               0D    260
     190     176       0       0       0       0       0       000010000D    261
     190       0       0       1       1                               0D    262
     123     177       0       0       0       0       0       000010200D    263
     123       0       0       1       0                               0D    264
     508     178       0       0       0       0       0       000010000D    265
     508       0       0       3       1                               0D    266
     510     181       0       0       0       0       0       000010000D    267
     510       0    -277       1       1                               0D    268
     514     182       0       0       0       0       0       000010000D    269
     514       0       0       2       1                               0D    270
     186     184       0       0       1       0       0       000000000D    271
     186       0       0       1       0                  Solid1       0D    272
     314     185       0       0       0       0       0       000000000D    273
     314       0       8       1       0                               0D    274
     314     186       0       0       0       0       0       000000000D    275
     314       0       8       1       0                               0D    276
     314     187       0       0       0       0       0       000000000D    277
     314       0       8       1       0                               0D    278
406,2,0,;                                                              1P      1
116,15.0625D0,1.0D0,.15D0,0;                                           3P      2
123,1.6400762123799D-17,-.148340452930245D0,-.988936352868298D0;       5P      3
190,3,5,9;                                                             7P      4
123,-1.0D0,0.0D0,0.0D0;                                                9P      5
504,39,15,13,1,13,2,17,13,3,13,2,19,13,3,13,4,21,13,4,13,1,35,        11P      6
13,1,13,5,37,13,5,13,6,39,13,6,13,7,41,13,2,13,7,55,13,8,13,3,        11P      7
57,13,7,13,8,71,13,8,13,9,73,13,10,13,9,75,13,10,13,4,89,13,9,        11P      8
13,11,91,13,12,13,11,93,13,12,13,10,107,13,11,13,13,109,13,14,        11P      9
13,13,111,13,14,13,12,123,13,13,13,15,127,13,16,13,15,129,13,16,      11P     10
13,14,145,13,15,13,17,147,13,18,13,17,149,13,18,13,16,163,13,17,      11P     11
13,19,165,13,20,13,19,167,13,20,13,18,181,13,19,13,21,183,13,22,      11P     12
13,21,185,13,22,13,20,197,13,21,13,23,201,13,24,13,23,203,13,24,      11P     13
13,22,219,13,23,13,25,221,13,26,13,25,223,13,26,13,24,237,13,25,      11P     14
13,6,239,13,5,13,26;                                                  11P     15
502,26,28.6143048128342D0,2.0D0,0.0D0,30.125D0,                       13P     16
4.44089209850063D-15,.3D0,-30.125D0,-2.22044604925031D-15,.3D0,       13P     17
-28.6143048128342D0,2.0D0,0.0D0,16.0D0,18.7D0,0.0D0,16.0D0,           13P     18
18.7D0,.6D0,28.6143048128342D0,2.0D0,.6D0,-28.6143048128342D0,        13P     19
2.0D0,.6D0,-16.0D0,18.7D0,.6D0,-16.0D0,18.7D0,0.0D0,-4.5D0,           13P     20
18.7D0,.6D0,-4.5D0,18.7D0,0.0D0,-4.5D0,16.7D0,.6D0,-4.5D0,            13P     21
16.7D0,0.0D0,-1.5D0,16.7D0,.6D0,-1.5D0,16.7D0,0.0D0,-1.5D0,           13P     22
18.7D0,.6D0,-1.5D0,18.7D0,0.0D0,1.50000000000001D0,18.7D0,.6D0,       13P     23
1.50000000000001D0,18.7D0,0.0D0,1.50000000000001D0,16.7D0,.6D0,       13P     24
1.50000000000001D0,16.7D0,0.0D0,4.50000000000001D0,16.7D0,.6D0,       13P     25
4.50000000000001D0,16.7D0,0.0D0,4.50000000000001D0,18.7D0,.6D0,       13P     26
4.50000000000001D0,18.7D0,0.0D0;                                      13P     27
110,28.6143048128342D0,2.0D0,0.0D0,30.125D0,                          15P     28
5.32907051820075D-15,.3D0;                                            15P     29
110,-30.125D0,-2.22044604925031D-15,.3D0,30.125D0,                    17P     30
4.44089209850063D-15,.3D0;                                            17P     31
110,-30.125D0,-3.5527136788005D-15,.3D0,-28.6143048128342D0,          19P     32
1.99999999999999D0,8.88178419700125D-16;                              19P     33
110,-28.6143048128342D0,2.0D0,0.0D0,28.6143048128342D0,2.0D0,         21P     34
0.0D0;                                                                21P     35
508,4,0,11,1,1,0,0,11,2,0,0,0,11,3,1,0,0,11,4,1,0;                    23P     36
510,7,1,1,23;                                                         25P     37
116,16.0D0,18.7D0,0.0D0,0;                                            27P     38
123,.797947132166139D0,.602727446088059D0,0.0D0;                      29P     39
190,27,29,33;                                                         31P     40
123,0.0D0,0.0D0,-1.0D0;                                               33P     41
110,28.6143048128342D0,2.0D0,0.0D0,16.0D0,18.7D0,0.0D0;               35P     42
110,16.0D0,18.7D0,0.0D0,16.0D0,18.7D0,.6D0;                           37P     43
110,16.0D0,18.7D0,.6D0,28.6143048128342D0,2.0D0,.6D0;                 39P     44
110,30.125D0,3.5527136788005D-15,.3D0,28.6143048128342D0,2.0D0,       41P     45
.6D0;                                                                 41P     46
508,5,0,11,1,0,0,0,11,5,1,0,0,11,6,1,0,0,11,7,1,0,0,11,8,0,0;         43P     47
510,31,1,1,43;                                                        45P     48
116,15.0625D0,1.0D0,.45D0,0;                                          47P     49
123,1.6400762123799D-17,-.148340452930245D0,.988936352868298D0;       49P     50
190,47,49,53;                                                         51P     51
123,1.0D0,0.0D0,0.0D0;                                                53P     52
110,-28.6143048128342D0,1.99999999999999D0,.6D0,-30.125D0,            55P     53
-5.32907051820075D-15,.3D0;                                           55P     54
110,28.6143048128342D0,2.0D0,.6D0,-28.6143048128342D0,2.0D0,          57P     55
.6D0;                                                                 57P     56
508,4,0,11,9,1,0,0,11,2,1,0,0,11,8,1,0,0,11,10,1,0;                   59P     57
510,51,1,1,59;                                                        61P     58
116,-30.125D0,-2.22044604925031D-15,0.0D0,0;                          63P     59
123,-.797947132166139D0,.602727446088059D0,0.0D0;                     65P     60
190,63,65,69;                                                         67P     61
123,0.0D0,0.0D0,1.0D0;                                                69P     62
110,-28.6143048128342D0,2.0D0,.6D0,-16.0D0,18.7D0,.6D0;               71P     63
110,-16.0D0,18.7D0,0.0D0,-16.0D0,18.7D0,.6D0;                         73P     64
110,-16.0D0,18.7D0,0.0D0,-28.6143048128342D0,2.0D0,0.0D0;             75P     65
508,5,0,11,3,0,0,0,11,9,0,0,0,11,11,1,0,0,11,12,0,0,0,11,13,1,0;      77P     66
510,67,1,1,77;                                                        79P     67
116,-16.0D0,18.7D0,0.0D0,0;                                           81P     68
123,0.0D0,1.0D0,0.0D0;                                                83P     69
190,81,83,87;                                                         85P     70
123,0.0D0,0.0D0,1.0D0;                                                87P     71
110,-16.0D0,18.7D0,.6D0,-4.5D0,18.7D0,.6D0;                           89P     72
110,-4.5D0,18.7D0,0.0D0,-4.5D0,18.7D0,.6D0;                           91P     73
110,-4.5D0,18.7D0,0.0D0,-16.0D0,18.7D0,0.0D0;                         93P     74
508,4,0,11,14,1,0,0,11,15,0,0,0,11,16,1,0,0,11,12,1,0;                95P     75
510,85,1,1,95;                                                        97P     76
116,-4.5D0,18.7D0,0.0D0,0;                                            99P     77
123,1.0D0,0.0D0,0.0D0;                                               101P     78
190,99,101,105;                                                      103P     79
123,0.0D0,0.0D0,-1.0D0;                                              105P     80
110,-4.5D0,18.7D0,.6D0,-4.5D0,16.7D0,.6D0;                           107P     81
110,-4.5D0,16.7D0,0.0D0,-4.5D0,16.7D0,.6D0;                          109P     82
110,-4.5D0,16.7D0,0.0D0,-4.5D0,18.7D0,0.0D0;                         111P     83
508,4,0,11,17,1,0,0,11,18,0,0,0,11,19,1,0,0,11,15,1,0;               113P     84
510,103,1,1,113;                                                     115P     85
120,121,119,0.0D0,6.28318530717959D0;                                117P     86
110,-1.5D0,16.7D0,-.03D0,-1.5D0,16.7D0,.63D0;                        119P     87
110,-3.0D0,16.7D0,-.03D0,-3.0D0,16.7D0,.97D0;                        121P     88
100,0.0D0,0.0D0,0.0D0,-1.5D0,1.83697019872103D-16,1.5D0,             123P     89
-3.67394039744206D-16;                                               123P     90
124,1.0D0,0.0D0,0.0D0,-3.0D0,0.0D0,1.0D0,0.0D0,16.7D0,0.0D0,         125P     91
0.0D0,1.0D0,.6D0;                                                    125P     92
110,-1.5D0,16.7D0,0.0D0,-1.5D0,16.7D0,.6D0;                          127P     93
100,0.0D0,0.0D0,0.0D0,1.5D0,0.0D0,-1.5D0,1.83697019872103D-16;       129P     94
124,1.0D0,0.0D0,0.0D0,-3.0D0,0.0D0,-1.0D0,0.0D0,16.7D0,0.0D0,        131P     95
0.0D0,-1.0D0,0.0D0;                                                  131P     96
508,4,0,11,20,1,0,0,11,21,0,0,0,11,22,1,0,0,11,18,1,0;               133P     97
510,117,1,1,133;                                                     135P     98
116,-1.5D0,16.7D0,0.0D0,0;                                           137P     99
123,-1.0D0,0.0D0,0.0D0;                                              139P    100
190,137,139,143;                                                     141P    101
123,0.0D0,0.0D0,1.0D0;                                               143P    102
110,-1.5D0,16.7D0,.6D0,-1.5D0,18.7D0,.6D0;                           145P    103
110,-1.5D0,18.7D0,0.0D0,-1.5D0,18.7D0,.6D0;                          147P    104
110,-1.5D0,18.7D0,0.0D0,-1.5D0,16.7D0,0.0D0;                         149P    105
508,4,0,11,23,1,0,0,11,24,0,0,0,11,25,1,0,0,11,21,1,0;               151P    106
510,141,1,1,151;                                                     153P    107
116,-1.5D0,18.7D0,0.0D0,0;                                           155P    108
123,0.0D0,1.0D0,0.0D0;                                               157P    109
190,155,157,161;                                                     159P    110
123,0.0D0,0.0D0,1.0D0;                                               161P    111
110,-1.5D0,18.7D0,.6D0,1.50000000000001D0,18.7D0,.6D0;               163P    112
110,1.50000000000001D0,18.7D0,0.0D0,1.50000000000001D0,18.7D0,       165P    113
.6D0;                                                                165P    114
110,1.50000000000001D0,18.7D0,0.0D0,-1.5D0,18.7D0,0.0D0;             167P    115
508,4,0,11,26,1,0,0,11,27,0,0,0,11,28,1,0,0,11,24,1,0;               169P    116
510,159,1,1,169;                                                     171P    117
116,1.50000000000001D0,18.7D0,0.0D0,0;                               173P    118
123,1.0D0,0.0D0,0.0D0;                                               175P    119
190,173,175,179;                                                     177P    120
123,0.0D0,0.0D0,-1.0D0;                                              179P    121
110,1.50000000000001D0,18.7D0,.6D0,1.50000000000001D0,16.7D0,        181P    122
.6D0;                                                                181P    123
110,1.50000000000001D0,16.7D0,0.0D0,1.50000000000001D0,16.7D0,       183P    124
.6D0;                                                                183P    125
110,1.50000000000001D0,16.7D0,0.0D0,1.50000000000001D0,18.7D0,       185P    126
0.0D0;                                                               185P    127
508,4,0,11,29,1,0,0,11,30,0,0,0,11,31,1,0,0,11,27,1,0;               187P    128
510,177,1,1,187;                                                     189P    129
120,195,193,0.0D0,6.28318530717959D0;                                191P    130
110,4.50000000000001D0,16.7D0,-.03D0,4.50000000000001D0,16.7D0,      193P    131
.63D0;                                                               193P    132
110,3.00000000000001D0,16.7D0,-.03D0,3.00000000000001D0,16.7D0,      195P    133
.97D0;                                                               195P    134
100,0.0D0,0.0D0,0.0D0,-1.5D0,1.83697019872103D-16,1.5D0,             197P    135
-3.67394039744206D-16;                                               197P    136
124,1.0D0,0.0D0,0.0D0,3.00000000000001D0,0.0D0,1.0D0,0.0D0,          199P    137
16.7D0,0.0D0,0.0D0,1.0D0,.6D0;                                       199P    138
110,4.50000000000001D0,16.7D0,0.0D0,4.50000000000001D0,16.7D0,       201P    139
.6D0;                                                                201P    140
100,0.0D0,0.0D0,0.0D0,1.5D0,0.0D0,-1.5D0,1.83697019872103D-16;       203P    141
124,1.0D0,0.0D0,0.0D0,3.00000000000001D0,0.0D0,-1.0D0,0.0D0,         205P    142
16.7D0,0.0D0,0.0D0,-1.0D0,0.0D0;                                     205P    143
508,4,0,11,32,1,0,0,11,33,0,0,0,11,34,1,0,0,11,30,1,0;               207P    144
510,191,1,1,207;                                                     209P    145
116,4.50000000000001D0,16.7D0,0.0D0,0;                               211P    146
123,-1.0D0,0.0D0,0.0D0;                                              213P    147
190,211,213,217;                                                     215P    148
123,0.0D0,0.0D0,1.0D0;                                               217P    149
110,4.50000000000001D0,16.7D0,.6D0,4.50000000000001D0,18.7D0,        219P    150
.6D0;                                                                219P    151
110,4.50000000000001D0,18.7D0,0.0D0,4.50000000000001D0,18.7D0,       221P    152
.6D0;                                                                221P    153
110,4.50000000000001D0,18.7D0,0.0D0,4.50000000000001D0,16.7D0,       223P    154
0.0D0;                                                               223P    155
508,4,0,11,35,1,0,0,11,36,0,0,0,11,37,1,0,0,11,33,1,0;               225P    156
510,215,1,1,225;                                                     227P    157
116,4.50000000000001D0,18.7D0,0.0D0,0;                               229P    158
123,0.0D0,1.0D0,0.0D0;                                               231P    159
190,229,231,235;                                                     233P    160
123,0.0D0,0.0D0,1.0D0;                                               235P    161
110,4.50000000000001D0,18.7D0,.6D0,16.0D0,18.7D0,.6D0;               237P    162
110,16.0D0,18.7D0,0.0D0,4.50000000000001D0,18.7D0,0.0D0;             239P    163
508,4,0,11,38,1,0,0,11,6,0,0,0,11,39,1,0,0,11,36,1,0;                241P    164
510,233,1,1,241;                                                     243P    165
116,-3.60822483003176D-15,8.07277570659734D0,0.0D0,0;                245P    166
123,0.0D0,0.0D0,-1.0D0;                                              247P    167
190,245,247,251;                                                     249P    168
123,-1.0D0,0.0D0,0.0D0;                                              251P    169
508,12,0,11,4,0,0,0,11,13,0,0,0,11,16,0,0,0,11,19,0,0,0,11,22,0,     253P    170
0,0,11,25,0,0,0,11,28,0,0,0,11,31,0,0,0,11,34,0,0,0,11,37,0,0,0,     253P    171
11,39,0,0,0,11,5,0,0;                                                253P    172
510,249,1,1,253;                                                     255P    173
116,-2.86673703006422D-15,8.07277570659734D0,.6D0,0;                 257P    174
123,0.0D0,0.0D0,1.0D0;                                               259P    175
190,257,259,263;                                                     261P    176
123,1.0D0,0.0D0,0.0D0;                                               263P    177
508,12,0,11,10,0,0,0,11,7,0,0,0,11,38,0,0,0,11,35,0,0,0,11,32,0,     265P    178
0,0,11,29,0,0,0,11,26,0,0,0,11,23,0,0,0,11,20,0,0,0,11,17,0,0,0,     265P    179
11,14,0,0,0,11,11,0,0;                                               265P    180
510,261,1,1,265;                                                     267P    181
514,15,25,1,45,1,61,1,79,1,97,1,115,1,135,1,153,1,171,1,189,1,       269P    182
209,1,227,1,243,1,255,1,267,1;                                       269P    183
186,269,1,0;                                                         271P    184
314,63.9216005802155D0,63.9216005802155D0,68.6275005340576D0,;       273P    185
314,75.2941012382507D0,75.2941012382507D0,75.2941012382507D0,;       275P    186
314,54.9019992351532D0,54.9019992351532D0,60.7842981815338D0,;       277P    187
S      1G      4D    278P    187                                        T      1
