<svg version="1.2" xmlns="http://www.w3.org/2000/svg" viewBox="0 0 800 300" width="800" height="300">
	<title>666</title>
	<style>
		.s0 { fill: #000000 } 
	</style>
	<path id="666" class="s0" aria-label="666"  d="m499.8 180.4c0 0 4.9 8.8 9.8 17.5 4.9 8.9 9.8 17.9 9.8 17.9 1.1 3.4 1.4 6.5 1.1 9.4-0.9 2.7-3.1 5.5-6.6 8.4-0.3 0.2-0.6 0.5-0.8 0.8-0.7 0.3-0.6 0.4 0.2 0.4 14.9-1.7 32.7-1.9 53.8-0.9 21.7 0.3 39.2 1.8 52.4 4.9 1.1 0.2 2.2 0.1 3.5-0.1 1.1-0.4 1.8-1 2.2-1.7 2.4-8 10.5-17.4 24.1-28.4 12.3-11.3 25.2-20.9 38.9-29 0.6-0.5 0.6-0.6 0.1-0.6-1 0.2-1.7 0.3-2.2 0.3-9.3 0.6-16.5-0.1-21.6-2.2-5.3-1.9-11.6-5.3-18.9-10.2 0 0-9.6-6.5-19.4-12.9-9.9-6.4-19.8-12.7-19.8-12.7-7.7-4.9-12.3-9.4-13.9-13.6-7.8-1.7-15.4-4.9-23.2-9.8 0 0-10.8-6.9-10.8-6.9-7.5-4.7-12.7-8.6-15.8-11.4-3.3-2.8-5.2-5.9-5.8-9.3 0-0.2 0.1-0.4 0.3-0.6-0.2-0.3-0.5-0.4-1-0.3-8.5 2-19.1 2.4-31.4 1.2-12-1.7-21.5-4.9-28.9-9.3-0.7-0.4-1.1-0.5-1.4-0.3-0.4 0.1-0.6 0.4-0.5 0.8 1.5 6 0.3 12.1-3.9 18.2-5.1 6-11.2 9.9-17.8 11.4-0.3 0.2-0.2 0.4 0.3 0.6 0.2 0.1 0.5 0.2 0.7 0.3 4 2.1 7.3 4.6 9.9 7.4 2.5 2.8 5.2 6.5 8.2 11.3 3.7 6.6 5.5 11.1 5.3 13.6 0 0-0.1 1.2-0.1 1.2 0.2 0.4 1.2 0.2 2.9-0.6 9.5-4.5 15.7-8.7 18.9-12.6 3-3.9 3.1-7.3 0.6-10.3 0 0-7.9-9.3-7.9-9.3-2.5-3-3.5-5.6-2.8-7.7 0.3-2.1 1.7-3.5 4.3-4.2 2.6-0.7 5.8-0.5 9.7 0.6 3.7 1 7.3 3 10.5 6 0 0 24.7 21.9 24.7 21.9-6.5 0.3-11.4 0.9-14.6 1.8-3.6 1-6.9 2.6-10 4.8-3.2 2.2-6.9 5.1-11.2 8.7-5.3 3.7-9.5 6.4-12.6 8.2-3.1 1.7-6.5 3-10.3 3.8-0.4 0.2-0.3 0.4 0.3 0.6 0.4 0.1 0.7 0.2 1 0.3 4 2 7.4 4.7 10.1 8.1 2.8 3.5 6 8.3 9.6 14.5zm56.3-34.5c0 0 3.7 3.3 9.3 8.3 5.6 4.9 13 11.6 20.4 18.3 7.4 6.7 14.7 13.5 20.1 18.6 5.4 5.2 9 8.6 9 8.6 3.2 3.2 3.6 6.4 1.2 9.6-2.8 3.3-7 5.9-12.6 7.6-5.3 1.7-10.5 2.2-15.7 1.7-5.6-0.6-9.7-2.3-12.4-5.3 0 0-2.9-3.7-7.3-9.2-4.4-5.6-10.4-12.9-16.4-20.1-6.1-7.2-12.1-14.4-16.7-19.7-4.5-5.4-7.6-8.9-7.6-8.9-2.4-3.2-2.7-5.9-1.1-8.4 1.3-2.4 3.8-4 7.5-5.1 3.5-1 7.4-1.2 11.8-0.6 4.1 0.6 7.6 2.1 10.5 4.6zm-215.2 34.9c0 0-2.6 8.7-5.3 17.5-2.6 8.9-5.2 17.9-5.2 17.9-1.7 3.2-3.7 5.9-6.1 8.2-2.8 2-6.8 3.7-12 5-0.4 0-0.8 0.2-1.3 0.4-0.7 0-0.8 0.1-0.1 0.4 14.1 3.3 29.6 8.8 46.7 16.4 17.9 7.2 31.4 14.2 40.3 21.3 0.7 0.5 1.7 0.8 2.9 1 1.2 0.1 2.2-0.2 2.9-0.7 7.2-6.3 19.9-11.9 37.9-17.2 17-6 33.1-10.4 48.7-13.2 0.7-0.2 0.8-0.4 0.4-0.5-0.8-0.2-1.4-0.3-1.8-0.4-7.5-2.6-12.4-5.6-14.9-9-2.8-3.5-5.3-8.5-7.4-15.2 0 0-2.7-8.7-5.5-17.4-2.8-8.6-5.6-17.1-5.6-17.1-2.2-6.6-2.3-11.9-0.4-16.1-4.5-3.6-7.8-8.7-9.9-15.1 0 0-3-9.1-3-9.1-2.1-6.3-3.2-11.1-3.3-14.5-0.4-3.3 0.5-6.6 2.5-9.8 0.2-0.1 0.4-0.3 0.7-0.4 0-0.3-0.1-0.5-0.5-0.6-8.1-0.5-16.7-2.9-25.6-7.2-8.4-4.6-13.9-9.9-16.8-15.7-0.3-0.5-0.6-0.7-1.1-0.6-0.4 0-0.7 0.2-1 0.6-3.3 5.7-9 10.7-17.3 14.9-9.2 3.8-17.6 5.5-24.7 5.1-0.4 0-0.5 0.2-0.2 0.5 0.1 0.2 0.2 0.3 0.4 0.5 1.8 2.8 2.8 5.8 2.7 8.9 0.1 2.9-0.5 6.9-1.8 11.7-2.1 6.6-4.2 10.9-6.4 12.9 0 0-1.1 1-1.1 1-0.1 0.4 0.9 0.5 3.1 0.3 11.7-1.1 20.4-3 26.2-5.4 5.5-2.5 8.4-5.4 8.6-8.6 0 0 0.8-10.1 0.8-10.1 0.2-3.3 1.5-5.8 3.6-7.5 2-1.8 4.3-2.6 6.9-2.5 2.7 0.1 5.2 1.1 7.5 3 2.3 2 3.6 4.7 3.9 8.1 0 0 2.7 25.8 2.7 25.8-5.4-1.5-9.8-2.3-13-2.4-3.7-0.2-7.7 0.3-11.9 1.3-4.3 1-9.7 2.4-16.2 4.3-7.4 1.6-13.1 2.7-17.2 3.3-4.1 0.6-8.1 0.7-12 0.3-0.5 0.1-0.6 0.2-0.2 0.6 0.2 0.1 0.4 0.3 0.6 0.5 1.8 2.8 2.6 6 2.2 9.7-0.3 3.7-1.4 8.6-3.4 14.9zm73.1-13.1c0 0 0.4 3.9 1 9.8 0.6 6 1.4 13.9 2.2 21.9 0.8 8.1 1.6 16.2 2.2 22.4 0.6 6.1 1 10.3 1 10.3 0.4 3.8-1.5 6.7-5.6 8.7-4.5 2.1-9.6 3-15.4 2.7-5.4-0.2-10-1.4-13.9-3.5-4.1-2.3-6.3-5.1-6.4-8.4 0 0 0.3-4.1 0.8-10.3 0.4-6.1 1-14.1 1.6-22.1 0.6-8 1.2-15.9 1.6-21.8 0.5-5.8 0.7-9.7 0.7-9.7 0.6-3.4 2.4-5.9 5.7-7.5 2.9-1.6 6.2-2.4 10-2.2 3.6 0.1 6.8 1 9.8 2.8 2.8 1.6 4.4 3.9 4.7 6.9zm-224.7-37c0 0-9.7 5.8-19.3 11.6-9.6 5.8-19 11.7-19 11.7-4 1.9-8.1 3.2-12.2 4-4.3 0.5-9.6 0.3-15.8-0.7-0.5-0.1-1-0.2-1.6-0.2-0.7-0.3-0.9-0.2-0.4 0.2 12.2 7.9 23.9 17.9 35.7 30 12.6 12 20.8 22.3 24.5 31.1 0.4 0.6 1.1 1.2 2.1 1.8 1.1 0.5 2.2 0.6 3.3 0.5 11.1-2.5 27-2.6 47.7-0.7 20 0.8 38 2.5 54.1 5.3 0.8 0 1-0.1 0.7-0.3-0.6-0.4-1-0.7-1.3-0.9-4.8-4.5-7-8.6-6.6-12.2 0.1-3.7 1.7-8.6 5-14.7 0 0 4.4-8 8.7-15.9 4.4-7.8 8.7-15.6 8.7-15.6 3.4-6 7.7-10.4 12.8-13.2-1.1-4.3 0.1-9.4 3.4-15.3 0 0 4.7-8.3 4.7-8.3 3.3-5.8 6.2-10 8.8-12.9 2.4-2.9 5.8-5.3 10.2-7.4 0.3-0.1 0.6-0.2 1-0.2 0.3-0.2 0.3-0.4 0-0.6-7-2.6-13.1-6.9-18-12.9-4.3-6.1-5.5-11.8-3.7-17.3 0.1-0.5-0.1-0.7-0.6-0.7-0.3-0.2-0.8-0.1-1.4 0.1-7.7 3.7-17.3 6.2-28.9 7.1-12.4 0.3-22.4-0.9-29.4-3.5-0.5 0-0.7 0.1-0.7 0.4 0 0.1 0.1 0.3 0.1 0.4-0.4 2.9-1.9 5.5-4.5 7.9-2.4 2.3-6.3 5.1-11.6 8.5-7.6 4.4-13.4 7-17.4 7.8 0 0-1.9 0.5-1.9 0.5-0.5 0.2 0.5 0.6 2.9 1.2 13.2 3 23.6 4.3 31.5 4.3 7.7-0.3 12.9-1.7 15.8-4.2 0 0 9.1-7.7 9.1-7.7 2.9-2.6 6.2-4.2 9.7-4.9 3.4-0.9 6.3-0.9 8.8 0 2.6 0.8 4.2 2.3 4.8 4.5 0.6 2.2-0.3 4.8-2.8 7.7 0 0-18.7 21.5-18.7 21.5-4-2.9-7.5-4.8-10.6-5.9-3.5-1.3-7.8-2.1-12.9-2.6-5.1-0.6-11.7-1.2-19.8-1.8-9-1.1-15.8-2.2-20.6-3.1-4.7-0.9-9-2.2-12.8-3.8-0.6-0.2-0.8 0-0.7 0.3 0.1 0.2 0.1 0.4 0.2 0.6-0.4 2.8-2.2 5.6-5.6 8.3-3.3 2.7-8.5 6.1-15.5 10.2zm84.1 13.9c0 0-2.8 3.3-7.1 8.1-4.2 5-9.9 11.5-15.6 18.2-5.6 6.6-11.2 13.3-15.4 18.4-4.2 5.1-7 8.5-7 8.5-2.4 3.2-6.4 4.9-11.8 5.1-5.8 0.1-11.4-1-16.8-3.2-5-2-8.6-4.6-10.9-7.6-2.4-3.2-2.4-6.1 0-8.8 0 0 3.3-3.1 8.4-7.7 5.1-4.6 11.9-10.7 18.8-16.7 7-6 13.9-12 19.2-16.4 5.2-4.5 8.7-7.4 8.7-7.4 3.3-2.5 7.2-3.9 11.8-4.1 4.3-0.4 8.2 0.1 11.8 1.4 3.3 1.2 5.7 2.9 7.2 5.2 1.3 2.2 0.9 4.5-1.3 7z"/>
</svg>