  0
SECTION
  2
HEADER
  9
$ACADVER
  1
AC1006
  9
$EXTMIN
 10
0.000000
 20
0.000000
 30
0.000000
  9
$EXTMAX
 10
2500.000000
 20
938.000000
 30
0.000000
  0
ENDSEC
  0
SECTION
  2
ENTITIES
  0
POLYLINE
  8
0
 66
1
 70
1
  0
VERTEX
  8
0
 10
997.000000
 20
694.825868
 42
-0.026610
  0
VERTEX
  8
0
 10
984.488329
 20
689.792453
 42
-0.014935
  0
VERTEX
  8
0
 10
968.825917
 20
684.957648
 42
-0.014018
  0
VERTEX
  8
0
 10
951.414703
 20
680.669043
 42
-0.013338
  0
VERTEX
  8
0
 10
933.500000
 20
677.283157
 42
-0.030542
  0
VERTEX
  8
0
 10
920.190411
 20
675.960404
 42
-0.008001
  0
VERTEX
  8
0
 10
898.735833
 20
675.488504
 42
-0.008324
  0
VERTEX
  8
0
 10
876.999159
 20
675.720179
 42
-0.024103
  0
VERTEX
  8
0
 10
862.000000
 20
676.854820
 42
-0.009584
  0
VERTEX
  8
0
 10
852.097662
 20
678.279244
 42
-0.009441
  0
VERTEX
  8
0
 10
842.207134
 20
680.088370
 42
-0.009936
  0
VERTEX
  8
0
 10
833.244644
 20
682.089432
 42
-0.019924
  0
VERTEX
  8
0
 10
826.273678
 20
684.089309
 42
0.015839
  0
VERTEX
  8
0
 10
821.734805
 20
685.431667
 42
0.120932
  0
VERTEX
  8
0
 10
819.525980
 20
685.465197
 42
0.256146
  0
VERTEX
  8
0
 10
818.390901
 20
684.455456
 42
0.085701
  0
VERTEX
  8
0
 10
817.999211
 20
682.190983
 42
-0.095710
  0
VERTEX
  8
0
 10
817.216627
 20
678.146479
 42
-0.027582
  0
VERTEX
  8
0
 10
814.507917
 20
672.349565
 42
-0.028036
  0
VERTEX
  8
0
 10
810.858991
 20
666.375625
 42
-0.038305
  0
VERTEX
  8
0
 10
806.890506
 20
661.477743
 42
-0.048037
  0
VERTEX
  8
0
 10
790.674744
 20
647.333596
 42
-0.021224
  0
VERTEX
  8
0
 10
766.849642
 20
631.764017
 42
-0.021281
  0
VERTEX
  8
0
 10
741.318393
 20
618.020074
 42
-0.039856
  0
VERTEX
  8
0
 10
719.478823
 20
609.508969
 42
0.000704
  0
VERTEX
  8
0
 10
715.930480
 20
608.437164
 42
0.000927
  0
VERTEX
  8
0
 10
712.696904
 20
607.448910
 42
0.000670
  0
VERTEX
  8
0
 10
709.988765
 20
606.611775
 42
0.008957
  0
VERTEX
  8
0
 10
709.000000
 20
606.285147
 42
0.665859
  0
VERTEX
  8
0
 10
708.941179
 20
605.288363
 42
0.042579
  0
VERTEX
  8
0
 10
712.699117
 20
603.831902
 42
0.017291
  0
VERTEX
  8
0
 10
720.490767
 20
601.841889
 42
0.004079
  0
VERTEX
  8
0
 10
733.638707
 20
599.076316
 42
0.009755
  0
VERTEX
  8
0
 10
762.157235
 20
593.897028
 42
0.014998
  0
VERTEX
  8
0
 10
787.032330
 20
590.641130
 42
0.017437
  0
VERTEX
  8
0
 10
808.260138
 20
589.253287
 42
0.032333
  0
VERTEX
  8
0
 10
825.509927
 20
589.843957
 42
0.014254
  0
VERTEX
  8
0
 10
834.777675
 20
591.030897
 42
0.018877
  0
VERTEX
  8
0
 10
843.124020
 20
592.667537
 42
0.020973
  0
VERTEX
  8
0
 10
850.461882
 20
594.724618
 42
0.031046
  0
VERTEX
  8
0
 10
856.671821
 20
597.185769
 42
0.049368
  0
VERTEX
  8
0
 10
859.373927
 20
598.798380
 42
0.005231
  0
VERTEX
  8
0
 10
865.231715
 20
603.225472
 42
0.006420
  0
VERTEX
  8
0
 10
872.102055
 20
608.673894
 42
0.005114
  0
VERTEX
  8
0
 10
879.377088
 20
614.721747
 42
-0.004703
  0
VERTEX
  8
0
 10
886.792152
 20
620.896331
 42
-0.005186
  0
VERTEX
  8
0
 10
894.085770
 20
626.729439
 42
-0.004842
  0
VERTEX
  8
0
 10
900.412255
 20
631.584293
 42
-0.026257
  0
VERTEX
  8
0
 10
904.000000
 20
633.998720
 42
-0.052322
  0
VERTEX
  8
0
 10
915.233387
 20
639.222812
 42
-0.042444
  0
VERTEX
  8
0
 10
928.125535
 20
642.458634
 42
-0.043988
  0
VERTEX
  8
0
 10
940.685107
 20
643.379074
 42
-0.079032
  0
VERTEX
  8
0
 10
950.841259
 20
641.609560
 42
-0.087302
  0
VERTEX
  8
0
 10
959.662808
 20
636.739826
 42
-0.128906
  0
VERTEX
  8
0
 10
964.887009
 20
629.661844
 42
-0.131595
  0
VERTEX
  8
0
 10
965.906388
 20
621.044817
 42
-0.092970
  0
VERTEX
  8
0
 10
962.738077
 20
611.775109
 42
-0.041656
  0
VERTEX
  8
0
 10
960.242259
 20
608.111397
 42
-0.002353
  0
VERTEX
  8
0
 10
951.542884
 20
597.484359
 42
-0.003598
  0
VERTEX
  8
0
 10
941.026261
 20
584.944882
 42
-0.002629
  0
VERTEX
  8
0
 10
929.173869
 20
571.164956
 42
0.000000
  0
VERTEX
  8
0
 10
898.847737
 20
536.279695
 42
0.000000
  0
VERTEX
  8
0
 10
892.177609
 20
540.752503
 42
0.017755
  0
VERTEX
  8
0
 10
885.295760
 20
545.021152
 42
0.013467
  0
VERTEX
  8
0
 10
877.469714
 20
549.223211
 42
0.013615
  0
VERTEX
  8
0
 10
869.575505
 20
552.926099
 42
0.020584
  0
VERTEX
  8
0
 10
862.500000
 20
555.672073
 42
0.036130
  0
VERTEX
  8
0
 10
850.500699
 20
558.823207
 42
0.011635
  0
VERTEX
  8
0
 10
832.332570
 20
561.779657
 42
0.009915
  0
VERTEX
  8
0
 10
809.215164
 20
564.525293
 42
0.005545
  0
VERTEX
  8
0
 10
781.000000
 20
566.994662
 42
-0.011369
  0
VERTEX
  8
0
 10
757.354698
 20
569.341895
 42
-0.006834
  0
VERTEX
  8
0
 10
729.410867
 20
573.147348
 42
-0.006672
  0
VERTEX
  8
0
 10
702.929621
 20
577.485073
 42
-0.019640
  0
VERTEX
  8
0
 10
684.897073
 20
581.422599
 42
-0.007256
  0
VERTEX
  8
0
 10
680.694723
 20
582.580072
 42
-0.004563
  0
VERTEX
  8
0
 10
675.816913
 20
584.048475
 42
-0.004580
  0
VERTEX
  8
0
 10
671.043137
 20
585.581297
 42
-0.008365
  0
VERTEX
  8
0
 10
667.181781
 20
586.932368
 42
0.003383
  0
VERTEX
  8
0
 10
663.927044
 20
588.107711
 42
0.004889
  0
VERTEX
  8
0
 10
661.033328
 20
589.098883
 42
0.002617
  0
VERTEX
  8
0
 10
658.576880
 20
589.899283
 42
0.077594
  0
VERTEX
  8
0
 10
657.931781
 20
590.000000
 42
0.276598
  0
VERTEX
  8
0
 10
657.571768
 20
589.784343
 42
0.052399
  0
VERTEX
  8
0
 10
657.270841
 20
589.045313
 42
0.042660
  0
VERTEX
  8
0
 10
657.061577
 20
587.995304
 42
0.027118
  0
VERTEX
  8
0
 10
656.990231
 20
586.750000
 42
-0.084765
  0
VERTEX
  8
0
 10
656.189066
 20
582.141705
 42
-0.045454
  0
VERTEX
  8
0
 10
653.764096
 20
576.883405
 42
-0.039709
  0
VERTEX
  8
0
 10
649.961333
 20
571.352571
 42
-0.029899
  0
VERTEX
  8
0
 10
644.975177
 20
565.908064
 42
-0.034770
  0
VERTEX
  8
0
 10
635.583140
 20
557.996945
 42
-0.012562
  0
VERTEX
  8
0
 10
621.226580
 20
548.061185
 42
-0.007722
  0
VERTEX
  8
0
 10
599.199287
 20
534.102918
 42
-0.001826
  0
VERTEX
  8
0
 10
562.000000
 20
511.514316
 42
0.000488
  0
VERTEX
  8
0
 10
541.521722
 20
499.154157
 42
0.000478
  0
VERTEX
  8
0
 10
520.924381
 20
486.667810
 42
0.000470
  0
VERTEX
  8
0
 10
502.871159
 20
475.676901
 42
0.001807
  0
VERTEX
  8
0
 10
491.678744
 20
468.792831
 42
-0.026314
  0
VERTEX
  8
0
 10
464.034620
 20
453.603732
 42
-0.056843
  0
VERTEX
  8
0
 10
441.156140
 20
445.607387
 42
-0.060038
  0
VERTEX
  8
0
 10
417.870140
 20
443.206372
 42
-0.032568
  0
VERTEX
  8
0
 10
389.144656
 20
445.575733
 42
0.003880
  0
VERTEX
  8
0
 10
385.144377
 20
446.138029
 42
0.006173
  0
VERTEX
  8
0
 10
381.713130
 20
446.550176
 42
0.001887
  0
VERTEX
  8
0
 10
378.750550
 20
446.857670
 42
0.224944
  0
VERTEX
  8
0
 10
378.398754
 20
446.732087
 42
0.452295
  0
VERTEX
  8
0
 10
378.416187
 20
446.460591
 42
0.002587
  0
VERTEX
  8
0
 10
380.694403
 20
444.721556
 42
0.007975
  0
VERTEX
  8
0
 10
383.428769
 20
442.724303
 42
0.004720
  0
VERTEX
  8
0
 10
386.750812
 20
440.424809
 42
-0.014682
  0
VERTEX
  8
0
 10
411.877946
 20
422.281083
 42
-0.013919
  0
VERTEX
  8
0
 10
436.358633
 20
402.379466
 42
-0.012044
  0
VERTEX
  8
0
 10
462.673374
 20
378.615230
 42
-0.006760
  0
VERTEX
  8
0
 10
493.542385
 20
348.555364
 42
-0.008862
  0
VERTEX
  8
0
 10
518.818417
 20
322.354563
 42
-0.017823
  0
VERTEX
  8
0
 10
537.628297
 20
300.649989
 42
-0.022177
  0
VERTEX
  8
0
 10
551.764504
 20
281.427141
 42
-0.031086
  0
VERTEX
  8
0
 10
562.490495
 20
263.018925
 42
0.022836
  0
VERTEX
  8
0
 10
566.020515
 20
256.724278
 42
0.053683
  0
VERTEX
  8
0
 10
569.337024
 20
252.486307
 42
0.071575
  0
VERTEX
  8
0
 10
572.794976
 20
249.821329
 42
0.082248
  0
VERTEX
  8
0
 10
576.707191
 20
248.395153
 42
0.056465
  0
VERTEX
  8
0
 10
578.987934
 20
248.229200
 42
0.011359
  0
VERTEX
  8
0
 10
583.056097
 20
248.485395
 42
0.010969
  0
VERTEX
  8
0
 10
588.111490
 20
249.031188
 42
0.007126
  0
VERTEX
  8
0
 10
593.927754
 20
249.872998
 42
-0.005033
  0
VERTEX
  8
0
 10
599.961947
 20
250.772159
 42
-0.003355
  0
VERTEX
  8
0
 10
606.891278
 20
251.686161
 42
-0.003378
  0
VERTEX
  8
0
 10
613.624906
 20
252.482253
 42
-0.006612
  0
VERTEX
  8
0
 10
619.000000
 20
253.009083
 42
-0.016756
  0
VERTEX
  8
0
 10
634.461212
 20
253.797794
 42
-0.005965
  0
VERTEX
  8
0
 10
656.582163
 20
253.920089
 42
-0.006063
  0
VERTEX
  8
0
 10
679.932189
 20
253.487402
 42
-0.009489
  0
VERTEX
  8
0
 10
700.000000
 20
252.490548
 42
0.001076
  0
VERTEX
  8
0
 10
710.124453
 20
251.816683
 42
0.000534
  0
VERTEX
  8
0
 10
722.968750
 20
251.003315
 42
0.000530
  0
VERTEX
  8
0
 10
736.286182
 20
250.188420
 42
0.000777
  0
VERTEX
  8
0
 10
748.000000
 20
249.502378
 42
-0.003787
  0
VERTEX
  8
0
 10
785.377263
 20
247.087436
 42
-0.005419
  0
VERTEX
  8
0
 10
818.483824
 20
244.335535
 42
-0.006009
  0
VERTEX
  8
0
 10
848.498837
 20
241.148461
 42
-0.007328
  0
VERTEX
  8
0
 10
876.500000
 20
237.417616
 42
0.000621
  0
VERTEX
  8
0
 10
883.365587
 20
236.408959
 42
0.000710
  0
VERTEX
  8
0
 10
889.936486
 20
235.461458
 42
0.000641
  0
VERTEX
  8
0
 10
895.515849
 20
234.672305
 42
0.004022
  0
VERTEX
  8
0
 10
898.368889
 20
234.295867
 42
0.000000
  0
VERTEX
  8
0
 10
903.237778
 20
233.693257
 42
0.000000
  0
VERTEX
  8
0
 10
896.145636
 20
240.785399
 42
-0.019770
  0
VERTEX
  8
0
 10
890.820853
 20
246.548788
 42
-0.023641
  0
VERTEX
  8
0
 10
886.294518
 20
252.392302
 42
-0.025867
  0
VERTEX
  8
0
 10
882.757571
 20
258.033062
 42
-0.042313
  0
VERTEX
  8
0
 10
880.438877
 20
263.173240
 42
-0.079948
  0
VERTEX
  8
0
 10
878.991241
 20
271.145411
 42
-0.040510
  0
VERTEX
  8
0
 10
879.613795
 20
281.354754
 42
-0.035936
  0
VERTEX
  8
0
 10
882.115192
 20
292.880081
 42
-0.028395
  0
VERTEX
  8
0
 10
886.399353
 20
304.901820
 42
-0.024497
  0
VERTEX
  8
0
 10
893.624891
 20
319.932834
 42
-0.001310
  0
VERTEX
  8
0
 10
919.001019
 20
366.416618
 42
-0.001574
  0
VERTEX
  8
0
 10
944.281679
 20
412.096966
 42
-0.018434
  0
VERTEX
  8
0
 10
954.843661
 20
429.500000
 42
-0.031379
  0
VERTEX
  8
0
 10
960.217695
 20
436.641835
 42
-0.017903
  0
VERTEX
  8
0
 10
967.530968
 20
444.593185
 42
-0.017913
  0
VERTEX
  8
0
 10
975.259413
 20
451.873511
 42
-0.037011
  0
VERTEX
  8
0
 10
981.883294
 20
456.864624
 42
0.000000
  0
VERTEX
  8
0
 10
988.266589
 20
460.971895
 42
0.000000
  0
VERTEX
  8
0
 10
988.102846
 20
470.235947
 42
-0.046635
  0
VERTEX
  8
0
 10
988.990365
 20
481.964129
 42
-0.050165
  0
VERTEX
  8
0
 10
992.040321
 20
493.028351
 42
-0.031108
  0
VERTEX
  8
0
 10
998.450052
 20
506.952180
 42
-0.006998
  0
VERTEX
  8
0
 10
1011.138086
 20
529.762945
 42
-0.014203
  0
VERTEX
  8
0
 10
1028.046312
 20
557.340129
 42
-0.037895
  0
VERTEX
  8
0
 10
1042.076344
 20
575.636779
 42
-0.051439
  0
VERTEX
  8
0
 10
1055.803664
 20
588.122842
 42
-0.056712
  0
VERTEX
  8
0
 10
1071.368966
 20
597.076134
 42
0.007157
  0
VERTEX
  8
0
 10
1073.513034
 20
598.041350
 42
0.011374
  0
VERTEX
  8
0
 10
1075.316182
 20
598.934864
 42
0.005401
  0
VERTEX
  8
0
 10
1076.794449
 20
599.730234
 42
0.283352
  0
VERTEX
  8
0
 10
1076.946818
 20
600.000000
 42
0.266803
  0
VERTEX
  8
0
 10
1076.766461
 20
600.287970
 42
0.001023
  0
VERTEX
  8
0
 10
1073.198661
 20
602.180702
 42
0.004739
  0
VERTEX
  8
0
 10
1069.089595
 20
604.300273
 42
0.002915
  0
VERTEX
  8
0
 10
1064.213885
 20
606.721539
 42
-0.016610
  0
VERTEX
  8
0
 10
1053.932899
 20
612.182980
 42
-0.025255
  0
VERTEX
  8
0
 10
1045.429869
 20
617.657488
 42
-0.025064
  0
VERTEX
  8
0
 10
1037.475842
 20
623.993374
 42
-0.016030
  0
VERTEX
  8
0
 10
1028.867543
 20
632.090604
 42
-0.047892
  0
VERTEX
  8
0
 10
1017.657672
 20
645.722310
 42
-0.058352
  0
VERTEX
  8
0
 10
1010.092260
 20
660.399607
 42
-0.063622
  0
VERTEX
  8
0
 10
1006.573730
 20
675.273507
 42
-0.078287
  0
VERTEX
  8
0
 10
1007.300479
 20
689.500000
 42
0.029649
  0
VERTEX
  8
0
 10
1008.211509
 20
695.610015
 42
0.304504
  0
VERTEX
  8
0
 10
1007.042660
 20
697.737254
 42
0.214836
  0
VERTEX
  8
0
 10
1004.199314
 20
697.890821
 42
0.016605
  0
SEQEND
  0
POLYLINE
  8
0
 66
1
 70
1
  0
VERTEX
  8
0
 10
827.701655
 20
526.423458
 42
-0.041693
  0
VERTEX
  8
0
 10
840.058057
 20
522.224715
 42
-0.057998
  0
VERTEX
  8
0
 10
850.150233
 20
516.355304
 42
-0.069055
  0
VERTEX
  8
0
 10
857.200643
 20
509.373295
 42
-0.118787
  0
VERTEX
  8
0
 10
860.522490
 20
501.852384
 42
-0.098423
  0
VERTEX
  8
0
 10
860.452863
 20
497.699680
 42
-0.064034
  0
VERTEX
  8
0
 10
858.843868
 20
493.163685
 42
-0.044474
  0
VERTEX
  8
0
 10
855.482578
 20
487.774268
 42
-0.016832
  0
VERTEX
  8
0
 10
849.896285
 20
480.869029
 42
0.001192
  0
VERTEX
  8
0
 10
813.778146
 20
438.973545
 42
0.001537
  0
VERTEX
  8
0
 10
780.816910
 20
400.315241
 42
0.001633
  0
VERTEX
  8
0
 10
749.863221
 20
363.541681
 42
0.001740
  0
VERTEX
  8
0
 10
719.802077
 20
327.335426
 42
-0.004201
  0
VERTEX
  8
0
 10
712.611529
 20
318.761203
 42
-0.028218
  0
VERTEX
  8
0
 10
708.774543
 20
314.745757
 42
-0.047641
  0
VERTEX
  8
0
 10
705.383795
 20
312.133194
 42
-0.026323
  0
VERTEX
  8
0
 10
700.812319
 20
309.584215
 42
-0.027324
  0
VERTEX
  8
0
 10
694.278089
 20
306.810962
 42
-0.038855
  0
VERTEX
  8
0
 10
688.198687
 20
305.134493
 42
-0.033425
  0
VERTEX
  8
0
 10
681.281253
 20
304.268243
 42
-0.014439
  0
VERTEX
  8
0
 10
671.994501
 20
304.000000
 42
-0.066805
  0
VERTEX
  8
0
 10
639.217605
 20
308.398976
 42
-0.068784
  0
VERTEX
  8
0
 10
609.110492
 20
321.276578
 42
-0.085101
  0
VERTEX
  8
0
 10
588.925693
 20
338.672470
 42
-0.241208
  0
VERTEX
  8
0
 10
585.052942
 20
356.296339
 42
-0.058388
  0
VERTEX
  8
0
 10
586.020430
 20
358.763554
 42
-0.039631
  0
VERTEX
  8
0
 10
587.649440
 20
361.307421
 42
-0.027238
  0
VERTEX
  8
0
 10
590.234517
 20
364.356318
 42
-0.009111
  0
VERTEX
  8
0
 10
594.329008
 20
368.528981
 42
-0.013352
  0
VERTEX
  8
0
 10
626.139073
 20
398.158935
 42
-0.002287
  0
VERTEX
  8
0
 10
688.313396
 20
452.541980
 42
-0.001005
  0
VERTEX
  8
0
 10
754.462762
 20
509.637463
 42
-0.048284
  0
VERTEX
  8
0
 10
768.805653
 20
519.738263
 42
-0.026108
  0
VERTEX
  8
0
 10
774.576051
 20
522.632270
 42
-0.023045
  0
VERTEX
  8
0
 10
780.859177
 20
525.044586
 42
-0.022996
  0
VERTEX
  8
0
 10
787.353017
 20
526.873415
 42
-0.025664
  0
VERTEX
  8
0
 10
793.754661
 20
528.019910
 42
-0.027688
  0
VERTEX
  8
0
 10
801.631338
 20
528.576436
 42
-0.015544
  0
VERTEX
  8
0
 10
811.227072
 20
528.423769
 42
-0.015520
  0
VERTEX
  8
0
 10
820.602551
 20
527.690701
 42
-0.033802
  0
SEQEND
  0
POLYLINE
  8
0
 66
1
 70
1
  0
VERTEX
  8
0
 10
1481.539587
 20
684.064054
 42
0.140015
  0
VERTEX
  8
0
 10
1481.368977
 20
683.460188
 42
0.019079
  0
VERTEX
  8
0
 10
1481.423336
 20
682.135788
 42
0.020729
  0
VERTEX
  8
0
 10
1481.617437
 20
680.534487
 42
0.016150
  0
VERTEX
  8
0
 10
1481.956124
 20
678.814054
 42
-0.071600
  0
VERTEX
  8
0
 10
1483.072610
 20
665.508934
 42
-0.050086
  0
VERTEX
  8
0
 10
1480.681483
 20
650.628439
 42
-0.048669
  0
VERTEX
  8
0
 10
1475.239971
 20
636.024821
 42
-0.056533
  0
VERTEX
  8
0
 10
1467.282570
 20
623.524625
 42
-0.041706
  0
VERTEX
  8
0
 10
1458.159468
 20
613.987114
 42
-0.030299
  0
VERTEX
  8
0
 10
1446.584161
 20
604.935397
 42
-0.030386
  0
VERTEX
  8
0
 10
1434.053225
 20
597.384308
 42
-0.043134
  0
VERTEX
  8
0
 10
1422.052235
 20
592.375933
 42
0.005860
  0
VERTEX
  8
0
 10
1418.598501
 20
591.228102
 42
0.009423
  0
VERTEX
  8
0
 10
1415.685672
 20
590.160131
 42
0.003721
  0
VERTEX
  8
0
 10
1413.249899
 20
589.193707
 42
0.295114
  0
VERTEX
  8
0
 10
1413.023757
 20
588.871320
 42
0.247532
  0
VERTEX
  8
0
 10
1413.173764
 20
588.558821
 42
0.021108
  0
VERTEX
  8
0
 10
1413.934474
 20
588.043134
 42
0.024063
  0
VERTEX
  8
0
 10
1414.949371
 20
587.481536
 42
0.016151
  0
VERTEX
  8
0
 10
1416.157430
 20
586.934790
 42
-0.038993
  0
VERTEX
  8
0
 10
1420.448717
 20
584.751481
 42
-0.010204
  0
VERTEX
  8
0
 10
1426.961203
 20
580.586394
 42
-0.010763
  0
VERTEX
  8
0
 10
1433.813875
 20
575.787453
 42
-0.015649
  0
VERTEX
  8
0
 10
1439.626602
 20
571.241148
 42
-0.058885
  0
VERTEX
  8
0
 10
1455.185510
 20
554.809351
 42
-0.025798
  0
VERTEX
  8
0
 10
1471.869772
 20
529.831632
 42
-0.024054
  0
VERTEX
  8
0
 10
1485.455692
 20
504.312591
 42
-0.104936
  0
VERTEX
  8
0
 10
1489.368333
 20
487.752234
 42
0.009119
  0
VERTEX
  8
0
 10
1489.506261
 20
484.401510
 42
0.078822
  0
VERTEX
  8
0
 10
1489.826689
 20
482.946035
 42
0.193458
  0
VERTEX
  8
0
 10
1490.478879
 20
482.254619
 42
0.108254
  0
VERTEX
  8
0
 10
1491.625156
 20
482.002234
 42
0.111978
  0
VERTEX
  8
0
 10
1496.898693
 20
483.192441
 42
0.008844
  0
VERTEX
  8
0
 10
1509.829723
 20
489.642460
 42
0.012811
  0
VERTEX
  8
0
 10
1523.747307
 20
497.354386
 42
0.016311
  0
VERTEX
  8
0
 10
1536.149585
 20
505.203370
 42
0.025852
  0
VERTEX
  8
0
 10
1548.887100
 20
514.857308
 42
0.052202
  0
VERTEX
  8
0
 10
1557.609631
 20
523.920453
 42
0.068154
  0
VERTEX
  8
0
 10
1562.710018
 20
532.708956
 42
0.098439
  0
VERTEX
  8
0
 10
1564.432643
 20
541.500000
 42
0.020949
  0
VERTEX
  8
0
 10
1564.314453
 20
544.146078
 42
0.023399
  0
VERTEX
  8
0
 10
1563.975152
 20
546.676059
 42
0.025337
  0
VERTEX
  8
0
 10
1563.457572
 20
548.878943
 42
0.053620
  0
VERTEX
  8
0
 10
1562.793934
 20
550.500000
 42
0.042796
  0
VERTEX
  8
0
 10
1561.537907
 20
552.411892
 42
0.002522
  0
VERTEX
  8
0
 10
1557.212490
 20
557.851010
 42
0.003794
  0
VERTEX
  8
0
 10
1551.973646
 20
564.270573
 42
0.002786
  0
VERTEX
  8
0
 10
1546.071304
 20
571.311950
 42
-0.008953
  0
VERTEX
  8
0
 10
1533.830433
 20
586.286405
 42
-0.045115
  0
VERTEX
  8
0
 10
1527.938253
 20
595.334620
 42
-0.084779
  0
VERTEX
  8
0
 10
1525.646451
 20
602.299442
 42
-0.102151
  0
VERTEX
  8
0
 10
1526.023520
 20
609.166321
 42
-0.106391
  0
VERTEX
  8
0
 10
1529.283233
 20
615.576563
 42
-0.107793
  0
VERTEX
  8
0
 10
1534.878421
 20
620.042405
 42
-0.085997
  0
VERTEX
  8
0
 10
1542.926247
 20
622.420224
 42
-0.045096
  0
VERTEX
  8
0
 10
1553.393912
 20
622.688090
 42
-0.034144
  0
VERTEX
  8
0
 10
1564.054585
 20
621.263891
 42
-0.033790
  0
VERTEX
  8
0
 10
1574.460379
 20
618.399421
 42
-0.034205
  0
VERTEX
  8
0
 10
1584.261156
 20
614.202910
 42
-0.037147
  0
VERTEX
  8
0
 10
1593.117746
 20
608.806878
 42
-0.025449
  0
VERTEX
  8
0
 10
1600.391153
 20
603.016593
 42
-0.000446
  0
VERTEX
  8
0
 10
1638.097209
 20
569.669303
 42
-0.000048
  0
VERTEX
  8
0
 10
1678.474056
 20
533.888835
 42
-0.431953
  0
VERTEX
  8
0
 10
1678.495917
 20
533.162583
 42
-0.170839
  0
VERTEX
  8
0
 10
1678.162887
 20
533.002947
 42
-0.001041
  0
VERTEX
  8
0
 10
1674.771747
 20
532.640443
 42
-0.004115
  0
VERTEX
  8
0
 10
1670.875943
 20
532.264585
 42
-0.002591
  0
VERTEX
  8
0
 10
1666.319393
 20
531.886586
 42
0.027097
  0
VERTEX
  8
0
 10
1640.765203
 20
528.499773
 42
0.057466
  0
VERTEX
  8
0
 10
1621.724713
 20
522.594168
 42
0.049533
  0
VERTEX
  8
0
 10
1602.839321
 20
511.917538
 42
0.015779
  0
VERTEX
  8
0
 10
1577.000000
 20
492.474063
 42
-0.014984
  0
VERTEX
  8
0
 10
1564.530512
 20
483.060004
 42
-0.008184
  0
VERTEX
  8
0
 10
1548.715117
 20
472.232231
 42
-0.007898
  0
VERTEX
  8
0
 10
1533.244411
 20
462.355756
 42
-0.025160
  0
VERTEX
  8
0
 10
1522.500000
 20
456.457141
 42
-0.011750
  0
VERTEX
  8
0
 10
1518.469898
 20
454.617323
 42
-0.007908
  0
VERTEX
  8
0
 10
1513.788421
 20
452.698738
 42
-0.007967
  0
VERTEX
  8
0
 10
1509.196892
 20
450.985150
 42
-0.015623
  0
VERTEX
  8
0
 10
1505.481860
 20
449.795042
 42
0.012312
  0
VERTEX
  8
0
 10
1500.299682
 20
448.172677
 42
0.073451
  0
VERTEX
  8
0
 10
1497.787179
 20
446.881642
 42
0.400363
  0
VERTEX
  8
0
 10
1497.593436
 20
445.862475
 42
0.187117
  0
VERTEX
  8
0
 10
1498.783682
 20
445.000000
 42
-0.069096
  0
VERTEX
  8
0
 10
1503.703153
 20
442.948584
 42
-0.022421
  0
VERTEX
  8
0
 10
1510.319745
 20
438.633604
 42
-0.021233
  0
VERTEX
  8
0
 10
1517.538304
 20
432.971138
 42
-0.018911
  0
VERTEX
  8
0
 10
1524.545328
 20
426.502680
 42
-0.030027
  0
VERTEX
  8
0
 10
1535.525946
 20
414.170519
 42
-0.021957
  0
VERTEX
  8
0
 10
1546.234635
 20
399.282319
 42
-0.013969
  0
VERTEX
  8
0
 10
1559.365249
 20
377.947271
 42
-0.003657
  0
VERTEX
  8
0
 10
1579.210353
 20
343.000000
 42
-0.001147
  0
VERTEX
  8
0
 10
1599.629621
 20
306.223114
 42
-0.003690
  0
VERTEX
  8
0
 10
1612.982529
 20
281.615386
 42
-0.003347
  0
VERTEX
  8
0
 10
1622.136672
 20
264.163978
 42
-0.052310
  0
VERTEX
  8
0
 10
1624.583255
 20
257.891051
 42
-0.021370
  0
VERTEX
  8
0
 10
1625.193577
 20
255.219723
 42
-0.008625
  0
VERTEX
  8
0
 10
1625.806642
 20
251.529570
 42
-0.008516
  0
VERTEX
  8
0
 10
1626.331067
 20
247.529140
 42
-0.010690
  0
VERTEX
  8
0
 10
1626.674386
 20
243.805358
 42
-0.008989
  0
VERTEX
  8
0
 10
1626.949060
 20
238.586202
 42
-0.043867
  0
VERTEX
  8
0
 10
1626.792258
 20
235.634634
 42
-0.056898
  0
VERTEX
  8
0
 10
1626.138369
 20
233.120276
 42
-0.021827
  0
VERTEX
  8
0
 10
1624.690720
 20
229.805358
 42
-0.035058
  0
VERTEX
  8
0
 10
1621.944540
 20
225.069406
 42
-0.023278
  0
VERTEX
  8
0
 10
1618.181798
 20
220.037859
 42
-0.020682
  0
VERTEX
  8
0
 10
1613.452649
 20
214.753570
 42
-0.014930
  0
VERTEX
  8
0
 10
1607.771986
 20
209.250000
 42
0.010468
  0
VERTEX
  8
0
 10
1605.653838
 20
207.234205
 42
0.021067
  0
VERTEX
  8
0
 10
1604.086735
 20
205.542187
 42
0.026009
  0
VERTEX
  8
0
 10
1603.142873
 20
204.308184
 42
0.603428
  0
VERTEX
  8
0
 10
1603.305251
 20
204.000000
 42
0.020073
  0
VERTEX
  8
0
 10
1604.258035
 20
204.038267
 42
0.000360
  0
VERTEX
  8
0
 10
1609.340908
 20
204.450901
 42
0.000899
  0
VERTEX
  8
0
 10
1615.263923
 20
204.946756
 42
0.000600
  0
VERTEX
  8
0
 10
1622.045801
 20
205.534983
 42
-0.010596
  0
VERTEX
  8
0
 10
1640.947571
 20
206.794305
 42
-0.003479
  0
VERTEX
  8
0
 10
1668.817098
 20
207.864400
 42
-0.003387
  0
VERTEX
  8
0
 10
1696.467765
 20
208.546062
 42
-0.012385
  0
VERTEX
  8
0
 10
1714.000000
 20
208.425195
 42
0.000689
  0
VERTEX
  8
0
 10
1721.121455
 20
208.209453
 42
0.000130
  0
VERTEX
  8
0
 10
1734.137500
 20
207.836458
 42
0.000139
  0
VERTEX
  8
0
 10
1749.343607
 20
207.408870
 42
0.000127
  0
VERTEX
  8
0
 10
1765.000000
 20
206.976948
 42
-0.004033
  0
VERTEX
  8
0
 10
1819.893639
 20
205.033317
 42
-0.009643
  0
VERTEX
  8
0
 10
1860.574557
 20
202.477519
 42
-0.012590
  0
VERTEX
  8
0
 10
1893.447988
 20
198.939725
 42
-0.016458
  0
VERTEX
  8
0
 10
1923.265445
 20
193.965598
 42
0.013709
  0
VERTEX
  8
0
 10
1939.204128
 20
191.216597
 42
0.105283
  0
VERTEX
  8
0
 10
1946.731408
 20
191.717274
 42
0.172296
  0
VERTEX
  8
0
 10
1951.636293
 20
195.200089
 42
0.052523
  0
VERTEX
  8
0
 10
1956.125723
 20
203.280043
 42
-0.048000
  0
VERTEX
  8
0
 10
1965.271454
 20
220.095851
 42
-0.027145
  0
VERTEX
  8
0
 10
1979.292683
 20
238.603818
 42
-0.024359
  0
VERTEX
  8
0
 10
1997.275482
 20
257.856053
 42
-0.019087
  0
VERTEX
  8
0
 10
2018.526255
 20
276.973408
 42
0.002865
  0
VERTEX
  8
0
 10
2022.577916
 20
280.387173
 42
0.001710
  0
VERTEX
  8
0
 10
2027.360837
 20
284.492483
 42
0.001711
  0
VERTEX
  8
0
 10
2032.097156
 20
288.614413
 42
0.002966
  0
VERTEX
  8
0
 10
2036.000000
 20
292.075684
 42
-0.012593
  0
VERTEX
  8
0
 10
2061.137941
 20
313.519274
 42
-0.010311
  0
VERTEX
  8
0
 10
2089.033427
 20
335.189123
 42
-0.010455
  0
VERTEX
  8
0
 10
2117.230584
 20
355.273251
 42
-0.014710
  0
VERTEX
  8
0
 10
2143.250000
 20
371.899104
 42
0.001440
  0
VERTEX
  8
0
 10
2146.604909
 20
373.919498
 42
0.002369
  0
VERTEX
  8
0
 10
2149.429760
 20
375.650141
 42
0.000264
  0
VERTEX
  8
0
 10
2151.937687
 20
377.204842
 42
0.259069
  0
VERTEX
  8
0
 10
2152.000247
 20
377.317121
 42
0.412336
  0
VERTEX
  8
0
 10
2151.925720
 20
377.392331
 42
0.000056
  0
VERTEX
  8
0
 10
2144.876911
 20
377.446279
 42
0.001179
  0
VERTEX
  8
0
 10
2137.049004
 20
377.486859
 42
0.000707
  0
VERTEX
  8
0
 10
2127.750247
 20
377.500000
 42
-0.006556
  0
VERTEX
  8
0
 10
2109.913253
 20
377.733873
 42
-0.024795
  0
VERTEX
  8
0
 10
2098.785549
 20
378.578980
 42
-0.032843
  0
VERTEX
  8
0
 10
2089.451325
 20
380.384231
 42
-0.018964
  0
VERTEX
  8
0
 10
2078.500000
 20
383.707538
 42
-0.028642
  0
VERTEX
  8
0
 10
2063.589617
 20
389.833414
 42
-0.017804
  0
VERTEX
  8
0
 10
2046.833107
 20
398.614492
 42
-0.012321
  0
VERTEX
  8
0
 10
2025.292290
 20
411.612892
 42
-0.004087
  0
VERTEX
  8
0
 10
1994.341632
 20
431.703403
 42
0.000565
  0
VERTEX
  8
0
 10
1976.199915
 20
443.661908
 42
0.000557
  0
VERTEX
  8
0
 10
1957.944105
 20
455.636961
 42
0.000546
  0
VERTEX
  8
0
 10
1941.927499
 20
466.092714
 42
0.002138
  0
VERTEX
  8
0
 10
1932.000000
 20
472.497704
 42
-0.002088
  0
VERTEX
  8
0
 10
1900.631479
 20
492.731494
 42
-0.009981
  0
VERTEX
  8
0
 10
1883.011252
 20
504.709079
 42
-0.017455
  0
VERTEX
  8
0
 10
1871.653811
 20
513.376853
 42
-0.035126
  0
VERTEX
  8
0
 10
1863.465523
 20
521.112989
 42
-0.017549
  0
VERTEX
  8
0
 10
1859.941131
 20
525.226105
 42
-0.015770
  0
VERTEX
  8
0
 10
1856.580619
 20
529.722361
 42
-0.015315
  0
VERTEX
  8
0
 10
1853.856917
 20
533.882583
 42
-0.061538
  0
VERTEX
  8
0
 10
1852.602902
 20
536.645105
 42
0.092032
  0
VERTEX
  8
0
 10
1852.072675
 20
537.647010
 42
0.081645
  0
VERTEX
  8
0
 10
1851.198645
 20
538.441194
 42
0.064651
  0
VERTEX
  8
0
 10
1849.930841
 20
539.046624
 42
0.032845
  0
VERTEX
  8
0
 10
1848.215905
 20
539.485856
 42
-0.032565
  0
VERTEX
  8
0
 10
1839.318899
 20
541.759269
 42
-0.010701
  0
VERTEX
  8
0
 10
1826.557069
 20
546.225996
 42
-0.010932
  0
VERTEX
  8
0
 10
1813.150839
 20
551.579773
 42
-0.016310
  0
VERTEX
  8
0
 10
1801.700607
 20
556.892559
 42
-0.019845
  0
VERTEX
  8
0
 10
1781.614077
 20
568.042011
 42
-0.006253
  0
VERTEX
  8
0
 10
1752.490293
 20
586.257299
 42
-0.006282
  0
VERTEX
  8
0
 10
1723.778809
 20
605.232156
 42
-0.019237
  0
VERTEX
  8
0
 10
1705.000000
 20
619.068948
 42
-0.022606
  0
VERTEX
  8
0
 10
1693.914428
 20
628.766139
 42
-0.039626
  0
VERTEX
  8
0
 10
1685.811551
 20
637.862689
 42
-0.049402
  0
VERTEX
  8
0
 10
1680.674688
 20
646.245741
 42
-0.098408
  0
VERTEX
  8
0
 10
1678.720384
 20
653.747534
 42
0.018493
  0
VERTEX
  8
0
 10
1678.578447
 20
655.226989
 42
0.023916
  0
VERTEX
  8
0
 10
1678.333698
 20
656.568554
 42
0.022796
  0
VERTEX
  8
0
 10
1678.032361
 20
657.641249
 42
0.154882
  0
VERTEX
  8
0
 10
1677.713483
 20
658.081586
 42
0.184604
  0
VERTEX
  8
0
 10
1677.092475
 20
658.254535
 42
0.006031
  0
VERTEX
  8
0
 10
1674.479169
 20
657.977687
 42
0.010821
  0
VERTEX
  8
0
 10
1671.359113
 20
657.540403
 42
0.007229
  0
VERTEX
  8
0
 10
1667.807526
 20
656.911192
 42
-0.016422
  0
VERTEX
  8
0
 10
1654.913678
 20
654.870573
 42
-0.015793
  0
VERTEX
  8
0
 10
1641.744742
 20
653.648477
 42
-0.013468
  0
VERTEX
  8
0
 10
1626.757791
 20
653.138440
 42
-0.007156
  0
VERTEX
  8
0
 10
1608.187028
 20
653.272658
 42
-0.003391
  0
VERTEX
  8
0
 10
1593.967999
 20
653.675469
 42
-0.010671
  0
VERTEX
  8
0
 10
1584.438007
 20
654.213952
 42
-0.013768
  0
VERTEX
  8
0
 10
1576.332293
 20
655.070801
 42
-0.009571
  0
VERTEX
  8
0
 10
1567.231466
 20
656.464813
 42
-0.015355
  0
VERTEX
  8
0
 10
1547.248164
 20
660.553973
 42
-0.018843
  0
VERTEX
  8
0
 10
1528.890518
 20
665.639176
 42
-0.019935
  0
VERTEX
  8
0
 10
1511.908232
 20
671.795453
 42
-0.022094
  0
VERTEX
  8
0
 10
1496.056513
 20
679.100394
 42
0.004046
  0
VERTEX
  8
0
 10
1488.441056
 20
682.948816
 42
0.032602
  0
VERTEX
  8
0
 10
1484.823439
 20
684.455521
 42
0.089644
  0
VERTEX
  8
0
 10
1482.762154
 20
684.768424
 42
0.252431
  0
SEQEND
  0
POLYLINE
  8
0
 66
1
 70
1
  0
VERTEX
  8
0
 10
1713.437049
 20
494.485180
 42
-0.027663
  0
VERTEX
  8
0
 10
1719.519981
 20
492.431209
 42
-0.023200
  0
VERTEX
  8
0
 10
1725.717003
 20
489.609018
 42
-0.023457
  0
VERTEX
  8
0
 10
1731.541135
 20
486.269367
 42
-0.030736
  0
VERTEX
  8
0
 10
1736.500000
 20
482.661360
 42
-0.010155
  0
VERTEX
  8
0
 10
1753.712090
 20
467.844227
 42
-0.000726
  0
VERTEX
  8
0
 10
1800.619375
 20
425.652375
 42
-0.001100
  0
VERTEX
  8
0
 10
1847.390654
 20
383.272789
 42
-0.003471
  0
VERTEX
  8
0
 10
1878.484587
 20
354.576481
 42
-0.002265
  0
VERTEX
  8
0
 10
1909.075217
 20
325.687877
 42
-0.020558
  0
VERTEX
  8
0
 10
1921.834376
 20
312.486518
 42
-0.050325
  0
VERTEX
  8
0
 10
1928.003362
 20
303.966512
 42
-0.130819
  0
VERTEX
  8
0
 10
1929.978038
 20
296.717881
 42
-0.159828
  0
VERTEX
  8
0
 10
1926.444933
 20
285.732450
 42
-0.072222
  0
VERTEX
  8
0
 10
1915.766738
 20
274.771644
 42
-0.058379
  0
VERTEX
  8
0
 10
1899.592109
 20
265.127940
 42
-0.041234
  0
VERTEX
  8
0
 10
1879.618019
 20
258.094008
 42
-0.045289
  0
VERTEX
  8
0
 10
1857.450693
 20
254.387947
 42
-0.048229
  0
VERTEX
  8
0
 10
1835.450384
 20
254.855435
 42
-0.052914
  0
VERTEX
  8
0
 10
1816.208490
 20
259.226209
 42
-0.098175
  0
VERTEX
  8
0
 10
1802.403574
 20
267.218807
 42
-0.037655
  0
VERTEX
  8
0
 10
1800.035298
 20
269.636905
 42
-0.001625
  0
VERTEX
  8
0
 10
1792.408942
 20
278.756458
 42
-0.002765
  0
VERTEX
  8
0
 10
1783.454294
 20
289.657477
 42
-0.001967
  0
VERTEX
  8
0
 10
1773.533273
 20
301.970667
 42
0.002454
  0
VERTEX
  8
0
 10
1752.173117
 20
328.428356
 42
0.002222
  0
VERTEX
  8
0
 10
1729.836905
 20
355.571746
 42
0.001964
  0
VERTEX
  8
0
 10
1704.786618
 20
385.499144
 42
0.001213
  0
VERTEX
  8
0
 10
1675.109358
 20
420.500000
 42
-0.002801
  0
VERTEX
  8
0
 10
1664.155945
 20
433.501722
 42
-0.003911
  0
VERTEX
  8
0
 10
1654.517543
 20
445.259239
 42
-0.002389
  0
VERTEX
  8
0
 10
1646.538165
 20
455.247045
 42
-0.050561
  0
VERTEX
  8
0
 10
1644.495347
 20
458.446344
 42
-0.118063
  0
VERTEX
  8
0
 10
1642.136452
 20
468.422448
 42
-0.124448
  0
VERTEX
  8
0
 10
1644.630854
 20
478.172161
 42
-0.108389
  0
VERTEX
  8
0
 10
1651.892514
 20
486.552034
 42
-0.073738
  0
VERTEX
  8
0
 10
1663.042692
 20
492.551378
 42
-0.021769
  0
VERTEX
  8
0
 10
1670.217135
 20
494.793366
 42
-0.032201
  0
VERTEX
  8
0
 10
1676.682338
 20
496.070117
 42
-0.028047
  0
VERTEX
  8
0
 10
1683.882738
 20
496.607636
 42
-0.012129
  0
VERTEX
  8
0
 10
1693.500000
 20
496.551638
 42
-0.007845
  0
VERTEX
  8
0
 10
1699.711083
 20
496.267172
 42
-0.010456
  0
VERTEX
  8
0
 10
1705.339842
 20
495.802487
 42
-0.011547
  0
VERTEX
  8
0
 10
1710.081130
 20
495.200108
 42
-0.030225
  0
SEQEND
  0
POLYLINE
  8
0
 66
1
 70
1
  0
VERTEX
  8
0
 10
1236.726257
 20
651.250000
 42
-0.047605
  0
VERTEX
  8
0
 10
1224.446804
 20
636.882050
 42
-0.039739
  0
VERTEX
  8
0
 10
1208.946103
 20
624.113807
 42
-0.037882
  0
VERTEX
  8
0
 10
1190.821127
 20
613.399540
 42
-0.034488
  0
VERTEX
  8
0
 10
1170.718765
 20
605.155233
 42
-0.011034
  0
VERTEX
  8
0
 10
1156.875158
 20
600.900474
 42
-0.018989
  0
VERTEX
  8
0
 10
1145.155143
 20
598.055455
 42
-0.020864
  0
VERTEX
  8
0
 10
1134.067735
 20
596.283822
 42
-0.017575
  0
VERTEX
  8
0
 10
1122.217054
 20
595.314890
 42
0.004327
  0
VERTEX
  8
0
 10
1117.145945
 20
595.035256
 42
0.007458
  0
VERTEX
  8
0
 10
1112.931472
 20
594.703075
 42
0.002474
  0
VERTEX
  8
0
 10
1109.393331
 20
594.353361
 42
0.534896
  0
VERTEX
  8
0
 10
1109.259209
 20
594.098839
 42
-0.013386
  0
VERTEX
  8
0
 10
1112.281964
 20
588.156893
 42
-0.013803
  0
VERTEX
  8
0
 10
1114.949911
 20
582.121471
 42
-0.014523
  0
VERTEX
  8
0
 10
1117.012767
 20
576.633926
 42
-0.036392
  0
VERTEX
  8
0
 10
1118.102646
 20
572.500000
 42
-0.082050
  0
VERTEX
  8
0
 10
1118.498454
 20
553.912759
 42
-0.032917
  0
VERTEX
  8
0
 10
1113.224326
 20
528.954441
 42
-0.032891
  0
VERTEX
  8
0
 10
1104.734386
 20
504.940140
 42
-0.083465
  0
VERTEX
  8
0
 10
1094.750000
 20
489.435655
 42
0.006763
  0
VERTEX
  8
0
 10
1092.929888
 20
487.381826
 42
0.010010
  0
VERTEX
  8
0
 10
1091.395313
 20
485.528521
 42
0.005622
  0
VERTEX
  8
0
 10
1090.161716
 20
483.940139
 42
0.163712
  0
VERTEX
  8
0
 10
1090.000000
 20
483.459471
 42
0.443983
  0
VERTEX
  8
0
 10
1091.235548
 20
482.342317
 42
0.002400
  0
VERTEX
  8
0
 10
1109.094867
 20
484.230982
 42
0.008908
  0
VERTEX
  8
0
 10
1127.597005
 20
486.611837
 42
0.010685
  0
VERTEX
  8
0
 10
1144.908055
 20
489.532814
 42
0.027635
  0
VERTEX
  8
0
 10
1166.775750
 20
494.972014
 42
0.040602
  0
VERTEX
  8
0
 10
1185.160231
 20
502.319311
 42
0.048182
  0
VERTEX
  8
0
 10
1198.873602
 20
510.872106
 42
0.121100
  0
VERTEX
  8
0
 10
1206.192227
 20
520.000000
 42
0.063886
  0
VERTEX
  8
0
 10
1207.009635
 20
522.576557
 42
0.010702
  0
VERTEX
  8
0
 10
1207.827958
 20
527.705923
 42
0.009604
  0
VERTEX
  8
0
 10
1208.651077
 20
534.673290
 42
0.004234
  0
VERTEX
  8
0
 10
1209.484229
 20
543.913826
 42
-0.008390
  0
VERTEX
  8
0
 10
1211.006342
 20
559.359226
 42
-0.040374
  0
VERTEX
  8
0
 10
1212.723114
 20
568.018775
 42
-0.067068
  0
VERTEX
  8
0
 10
1215.343181
 20
574.041197
 42
-0.056774
  0
VERTEX
  8
0
 10
1219.590653
 20
579.539882
 42
-0.060478
  0
VERTEX
  8
0
 10
1226.138134
 20
584.822072
 42
-0.065688
  0
VERTEX
  8
0
 10
1233.585036
 20
588.209013
 42
-0.066475
  0
VERTEX
  8
0
 10
1241.576259
 20
589.522473
 42
-0.064386
  0
VERTEX
  8
0
 10
1249.722993
 20
588.717873
 42
-0.060680
  0
VERTEX
  8
0
 10
1259.059987
 20
585.328112
 42
-0.066152
  0
VERTEX
  8
0
 10
1267.013944
 20
579.868152
 42
-0.067938
  0
VERTEX
  8
0
 10
1273.098626
 20
572.665353
 42
-0.069927
  0
VERTEX
  8
0
 10
1276.958339
 20
564.163301
 42
-0.042890
  0
VERTEX
  8
0
 10
1278.806588
 20
555.082892
 42
-0.001359
  0
VERTEX
  8
0
 10
1283.032346
 20
517.629780
 42
-0.000330
  0
VERTEX
  8
0
 10
1287.434066
 20
477.397383
 42
-0.227222
  0
VERTEX
  8
0
 10
1286.729411
 20
475.396078
 42
-0.239017
  0
VERTEX
  8
0
 10
1286.211089
 20
475.226513
 42
-0.003626
  0
VERTEX
  8
0
 10
1282.991407
 20
475.747142
 42
-0.008849
  0
VERTEX
  8
0
 10
1279.205508
 20
476.456664
 42
-0.005625
  0
VERTEX
  8
0
 10
1274.823145
 20
477.410041
 42
0.013726
  0
VERTEX
  8
0
 10
1259.953451
 20
480.393507
 42
0.027505
  0
VERTEX
  8
0
 10
1248.055416
 20
481.774678
 42
0.030451
  0
VERTEX
  8
0
 10
1236.893302
 20
481.771207
 42
0.021557
  0
VERTEX
  8
0
 10
1224.427742
 20
480.466301
 42
0.017268
  0
VERTEX
  8
0
 10
1214.677345
 20
478.672455
 42
0.005003
  0
VERTEX
  8
0
 10
1199.768368
 20
475.236898
 42
0.005132
  0
VERTEX
  8
0
 10
1183.453802
 20
471.127494
 42
0.006431
  0
VERTEX
  8
0
 10
1168.415349
 20
466.967447
 42
-0.015433
  0
VERTEX
  8
0
 10
1157.870654
 20
464.253851
 42
-0.003996
  0
VERTEX
  8
0
 10
1140.725730
 20
460.545354
 42
-0.004272
  0
VERTEX
  8
0
 10
1122.667670
 20
456.950857
 42
-0.008010
  0
VERTEX
  8
0
 10
1108.000000
 20
454.404053
 42
-0.014781
  0
VERTEX
  8
0
 10
1102.784339
 20
453.741581
 42
-0.007394
  0
VERTEX
  8
0
 10
1096.156889
 20
453.196968
 42
-0.007164
  0
VERTEX
  8
0
 10
1089.039383
 20
452.820275
 42
-0.008281
  0
VERTEX
  8
0
 10
1082.250000
 20
452.670974
 42
0.004128
  0
VERTEX
  8
0
 10
1076.402494
 20
452.590970
 42
0.006873
  0
VERTEX
  8
0
 10
1071.479687
 20
452.415236
 42
0.001890
  0
VERTEX
  8
0
 10
1067.258684
 20
452.190425
 42
0.397618
  0
VERTEX
  8
0
 10
1067.000000
 20
451.916562
 42
0.130522
  0
VERTEX
  8
0
 10
1067.088412
 20
451.583645
 42
0.032287
  0
VERTEX
  8
0
 10
1067.402423
 20
451.108212
 42
0.030831
  0
VERTEX
  8
0
 10
1067.845578
 20
450.592524
 42
0.026640
  0
VERTEX
  8
0
 10
1068.369949
 20
450.107933
 42
-0.077918
  0
VERTEX
  8
0
 10
1069.062600
 20
449.322250
 42
-0.011023
  0
VERTEX
  8
0
 10
1070.183490
 20
447.473282
 42
-0.012340
  0
VERTEX
  8
0
 10
1071.416861
 20
445.206253
 42
-0.010224
  0
VERTEX
  8
0
 10
1072.619949
 20
442.735488
 42
-0.021942
  0
VERTEX
  8
0
 10
1074.271371
 20
438.704353
 42
-0.049677
  0
VERTEX
  8
0
 10
1075.072204
 20
435.510298
 42
-0.032380
  0
VERTEX
  8
0
 10
1075.402100
 20
431.478965
 42
-0.005072
  0
VERTEX
  8
0
 10
1075.456105
 20
423.500000
 42
-0.027745
  0
VERTEX
  8
0
 10
1074.764379
 20
411.759773
 42
-0.027472
  0
VERTEX
  8
0
 10
1072.776771
 20
400.128894
 42
-0.015027
  0
VERTEX
  8
0
 10
1068.574237
 20
383.956638
 42
-0.002534
  0
VERTEX
  8
0
 10
1059.455408
 20
353.327058
 42
0.000869
  0
VERTEX
  8
0
 10
1055.175844
 20
339.125366
 42
0.000519
  0
VERTEX
  8
0
 10
1050.134275
 20
322.225267
 42
0.000520
  0
VERTEX
  8
0
 10
1045.149414
 20
305.387589
 42
0.000903
  0
VERTEX
  8
0
 10
1041.050759
 20
291.397154
 42
-0.001960
  0
VERTEX
  8
0
 10
1035.678098
 20
273.200717
 42
-0.013951
  0
VERTEX
  8
0
 10
1032.795739
 20
264.471412
 42
-0.028165
  0
VERTEX
  8
0
 10
1030.369807
 20
258.783350
 42
-0.031676
  0
VERTEX
  8
0
 10
1027.401261
 20
253.631965
 42
-0.014351
  0
VERTEX
  8
0
 10
1020.994273
 20
244.558270
 42
-0.044459
  0
VERTEX
  8
0
 10
1015.985871
 20
238.988404
 42
-0.050780
  0
VERTEX
  8
0
 10
1010.448468
 20
234.795476
 42
-0.023364
  0
VERTEX
  8
0
 10
1002.500000
 20
230.454221
 42
-0.011835
  0
VERTEX
  8
0
 10
997.595529
 20
228.207815
 42
-0.008150
  0
VERTEX
  8
0
 10
991.940625
 20
225.886339
 42
-0.008221
  0
VERTEX
  8
0
 10
986.423897
 20
223.829925
 42
-0.016571
  0
VERTEX
  8
0
 10
982.000000
 20
222.426357
 42
0.002610
  0
VERTEX
  8
0
 10
978.292419
 20
221.363015
 42
0.003735
  0
VERTEX
  8
0
 10
975.016203
 20
220.378229
 42
0.002056
  0
VERTEX
  8
0
 10
972.259381
 20
219.514627
 42
0.056266
  0
VERTEX
  8
0
 10
971.565797
 20
219.204806
 42
0.630524
  0
VERTEX
  8
0
 10
971.593914
 20
218.881848
 42
0.007868
  0
VERTEX
  8
0
 10
974.117938
 20
217.980213
 42
0.011812
  0
VERTEX
  8
0
 10
977.436648
 20
216.940018
 42
0.006386
  0
VERTEX
  8
0
 10
981.565797
 20
215.809059
 42
-0.011060
  0
VERTEX
  8
0
 10
1012.168056
 20
207.118901
 42
-0.011393
  0
VERTEX
  8
0
 10
1042.052860
 20
197.162572
 42
-0.009520
  0
VERTEX
  8
0
 10
1075.738331
 20
184.351732
 42
-0.004565
  0
VERTEX
  8
0
 10
1118.500000
 20
166.695081
 42
-0.006274
  0
VERTEX
  8
0
 10
1160.620940
 20
148.224454
 42
-0.013745
  0
VERTEX
  8
0
 10
1192.274417
 20
132.805163
 42
-0.017537
  0
VERTEX
  8
0
 10
1217.346029
 20
118.587738
 42
-0.024268
  0
VERTEX
  8
0
 10
1238.688766
 20
104.003519
 42
0.026605
  0
VERTEX
  8
0
 10
1243.814393
 20
100.536018
 42
0.047163
  0
VERTEX
  8
0
 10
1248.410260
 20
98.331085
 42
0.057620
  0
VERTEX
  8
0
 10
1252.604718
 20
97.313695
 42
0.077226
  0
VERTEX
  8
0
 10
1256.510434
 20
97.435980
 42
0.070755
  0
VERTEX
  8
0
 10
1258.175423
 20
98.000183
 42
0.016167
  0
VERTEX
  8
0
 10
1260.791290
 20
99.430341
 42
0.016410
  0
VERTEX
  8
0
 10
1263.725833
 20
101.292601
 42
0.015325
  0
VERTEX
  8
0
 10
1266.601207
 20
103.384399
 42
-0.030293
  0
VERTEX
  8
0
 10
1281.230402
 20
113.371679
 42
-0.020144
  0
VERTEX
  8
0
 10
1299.077437
 20
123.079107
 42
-0.018005
  0
VERTEX
  8
0
 10
1319.904807
 20
132.426945
 42
-0.013252
  0
VERTEX
  8
0
 10
1343.584969
 20
141.323137
 42
-0.004808
  0
VERTEX
  8
0
 10
1393.353672
 20
157.995674
 42
-0.007330
  0
VERTEX
  8
0
 10
1436.895285
 20
171.415794
 42
-0.008382
  0
VERTEX
  8
0
 10
1475.520338
 20
182.003892
 42
-0.011830
  0
VERTEX
  8
0
 10
1510.289094
 20
190.039601
 42
0.000376
  0
VERTEX
  8
0
 10
1517.830252
 20
191.601454
 42
0.000520
  0
VERTEX
  8
0
 10
1524.591171
 20
193.014345
 42
0.000322
  0
VERTEX
  8
0
 10
1530.279195
 20
194.213019
 42
0.006514
  0
VERTEX
  8
0
 10
1532.000000
 20
194.600298
 42
0.237129
  0
VERTEX
  8
0
 10
1532.566726
 20
195.077698
 42
0.378768
  0
VERTEX
  8
0
 10
1532.380702
 20
195.640823
 42
0.045151
  0
VERTEX
  8
0
 10
1530.542588
 20
196.500249
 42
0.004602
  0
VERTEX
  8
0
 10
1526.000000
 20
198.096481
 42
-0.028345
  0
VERTEX
  8
0
 10
1508.610133
 20
205.151029
 42
-0.045730
  0
VERTEX
  8
0
 10
1494.860781
 20
213.270951
 42
-0.050696
  0
VERTEX
  8
0
 10
1483.840146
 20
223.057492
 42
-0.047001
  0
VERTEX
  8
0
 10
1474.697870
 20
235.098528
 42
-0.025494
  0
VERTEX
  8
0
 10
1469.484169
 20
244.541085
 42
-0.019414
  0
VERTEX
  8
0
 10
1464.723249
 20
255.355946
 42
-0.013076
  0
VERTEX
  8
0
 10
1459.366866
 20
270.042723
 42
-0.003897
  0
VERTEX
  8
0
 10
1451.955035
 20
292.729433
 42
0.000636
  0
VERTEX
  8
0
 10
1447.334036
 20
307.192636
 42
0.000372
  0
VERTEX
  8
0
 10
1441.765105
 20
324.502272
 42
0.000372
  0
VERTEX
  8
0
 10
1436.167628
 20
341.812170
 42
0.000633
  0
VERTEX
  8
0
 10
1431.457583
 20
356.278302
 42
-0.006402
  0
VERTEX
  8
0
 10
1422.715830
 20
384.218180
 42
-0.030619
  0
VERTEX
  8
0
 10
1418.921645
 20
400.480998
 42
-0.052088
  0
VERTEX
  8
0
 10
1418.149534
 20
412.546964
 42
-0.053749
  0
VERTEX
  8
0
 10
1419.908621
 20
424.380506
 42
0.000000
  0
VERTEX
  8
0
 10
1421.701950
 20
431.261013
 42
0.000000
  0
VERTEX
  8
0
 10
1415.506272
 20
437.456691
 42
-0.021941
  0
VERTEX
  8
0
 10
1410.259908
 20
443.184876
 42
-0.021711
  0
VERTEX
  8
0
 10
1405.516204
 20
449.370391
 42
-0.021337
  0
VERTEX
  8
0
 10
1401.251971
 20
456.050340
 42
-0.019592
  0
VERTEX
  8
0
 10
1397.441136
 20
463.258957
 42
-0.027296
  0
VERTEX
  8
0
 10
1393.626903
 20
472.471303
 42
-0.003327
  0
VERTEX
  8
0
 10
1386.511802
 20
493.155079
 42
-0.004131
  0
VERTEX
  8
0
 10
1379.634534
 20
514.160945
 42
-0.013775
  0
VERTEX
  8
0
 10
1375.615995
 20
528.104838
 42
-0.028372
  0
VERTEX
  8
0
 10
1372.293994
 20
544.808806
 42
-0.048676
  0
VERTEX
  8
0
 10
1371.693910
 20
558.983530
 42
-0.058426
  0
VERTEX
  8
0
 10
1373.779230
 20
571.010226
 42
-0.073889
  0
VERTEX
  8
0
 10
1378.538892
 20
581.228560
 42
0.004324
  0
VERTEX
  8
0
 10
1379.482027
 20
582.684636
 42
0.006498
  0
VERTEX
  8
0
 10
1380.277049
 20
583.972289
 42
0.002968
  0
VERTEX
  8
0
 10
1380.930902
 20
585.077571
 42
0.132839
  0
VERTEX
  8
0
 10
1381.000000
 20
585.333065
 42
0.369498
  0
VERTEX
  8
0
 10
1380.854523
 20
585.503045
 42
0.001159
  0
VERTEX
  8
0
 10
1377.842187
 20
585.966713
 42
0.005355
  0
VERTEX
  8
0
 10
1374.371891
 20
586.454680
 42
0.003233
  0
VERTEX
  8
0
 10
1370.250000
 20
586.962242
 42
-0.024329
  0
VERTEX
  8
0
 10
1354.867095
 20
589.519019
 42
-0.018120
  0
VERTEX
  8
0
 10
1338.189387
 20
593.770207
 42
-0.017630
  0
VERTEX
  8
0
 10
1321.297951
 20
599.388109
 42
-0.018966
  0
VERTEX
  8
0
 10
1305.258428
 20
606.061339
 42
-0.037547
  0
VERTEX
  8
0
 10
1288.198089
 20
615.542745
 42
-0.032116
  0
VERTEX
  8
0
 10
1271.782069
 20
627.932445
 42
-0.033404
  0
VERTEX
  8
0
 10
1258.089220
 20
641.411147
 42
-0.064457
  0
VERTEX
  8
0
 10
1249.447442
 20
654.103718
 42
0.056114
  0
VERTEX
  8
0
 10
1246.744187
 20
658.219581
 42
0.281670
  0
VERTEX
  8
0
 10
1244.246578
 20
659.070721
 42
0.165908
  0
VERTEX
  8
0
 10
1241.340027
 20
657.290715
 42
0.020112
  0
SEQEND
  0
POLYLINE
  8
0
 66
1
 70
1
  0
VERTEX
  8
0
 10
1260.076889
 20
442.571085
 42
-0.043723
  0
VERTEX
  8
0
 10
1270.014263
 20
439.537546
 42
-0.045881
  0
VERTEX
  8
0
 10
1279.104135
 20
434.858638
 42
-0.049692
  0
VERTEX
  8
0
 10
1286.436689
 20
429.092607
 42
-0.083539
  0
VERTEX
  8
0
 10
1291.092154
 20
422.819364
 42
-0.075218
  0
VERTEX
  8
0
 10
1292.675592
 20
418.066516
 42
-0.012356
  0
VERTEX
  8
0
 10
1294.095576
 20
408.458326
 42
-0.005207
  0
VERTEX
  8
0
 10
1296.082750
 20
390.726473
 42
-0.000391
  0
VERTEX
  8
0
 10
1300.941338
 20
342.500000
 42
-0.000330
  0
VERTEX
  8
0
 10
1307.888543
 20
272.530249
 42
-0.001813
  0
VERTEX
  8
0
 10
1311.475459
 20
234.758527
 42
-0.001153
  0
VERTEX
  8
0
 10
1313.711167
 20
209.632764
 42
-0.066854
  0
VERTEX
  8
0
 10
1313.493964
 20
205.021655
 42
-0.150090
  0
VERTEX
  8
0
 10
1307.593356
 20
193.647013
 42
-0.087648
  0
VERTEX
  8
0
 10
1294.980886
 20
184.653206
 42
-0.068192
  0
VERTEX
  8
0
 10
1276.778012
 20
178.853715
 42
-0.043092
  0
VERTEX
  8
0
 10
1254.537173
 20
176.933333
 42
-0.020833
  0
VERTEX
  8
0
 10
1240.030025
 20
177.538065
 42
-0.031251
  0
VERTEX
  8
0
 10
1227.494499
 20
179.378850
 42
-0.034308
  0
VERTEX
  8
0
 10
1216.215528
 20
182.584038
 42
-0.034609
  0
VERTEX
  8
0
 10
1205.514933
 20
187.294191
 42
-0.044544
  0
VERTEX
  8
0
 10
1199.504516
 20
191.171091
 42
-0.031102
  0
VERTEX
  8
0
 10
1193.458394
 20
196.517822
 42
-0.031240
  0
VERTEX
  8
0
 10
1188.488846
 20
202.160362
 42
-0.087018
  0
VERTEX
  8
0
 10
1186.031910
 20
206.811272
 42
-0.083427
  0
VERTEX
  8
0
 10
1185.211736
 20
212.391321
 42
-0.009858
  0
VERTEX
  8
0
 10
1185.717908
 20
224.961176
 42
-0.003374
  0
VERTEX
  8
0
 10
1187.360006
 20
249.539445
 42
-0.000135
  0
VERTEX
  8
0
 10
1193.967894
 20
339.000000
 42
-0.000961
  0
VERTEX
  8
0
 10
1198.405464
 20
397.337410
 42
-0.020168
  0
VERTEX
  8
0
 10
1200.463728
 20
414.673527
 42
-0.073416
  0
VERTEX
  8
0
 10
1203.373352
 20
423.913267
 42
-0.093885
  0
VERTEX
  8
0
 10
1208.683662
 20
431.062529
 42
-0.044347
  0
VERTEX
  8
0
 10
1213.098554
 20
434.461274
 42
-0.024577
  0
VERTEX
  8
0
 10
1219.009738
 20
437.832427
 42
-0.024210
  0
VERTEX
  8
0
 10
1225.433603
 20
440.706852
 42
-0.033519
  0
VERTEX
  8
0
 10
1231.451605
 20
442.603554
 42
-0.040778
  0
VERTEX
  8
0
 10
1237.471000
 20
443.555170
 42
-0.019107
  0
VERTEX
  8
0
 10
1245.357740
 20
443.847704
 42
-0.019097
  0
VERTEX
  8
0
 10
1253.424206
 20
443.530332
 42
-0.032856
  0
SEQEND
  0
ENDSEC
  0
EOF
