  0
SECTION
  2
HEADER
  9
$ACADVER
  1
AC1006
  9
$EXTMIN
 10
0.000000
 20
0.000000
 30
0.000000
  9
$EXTMAX
 10
2500.000000
 20
938.000000
 30
0.000000
  0
ENDSEC
  0
SECTION
  2
ENTITIES
  0
POLYLINE
  8
0
 66
1
 70
1
  0
VERTEX
  8
0
 10
1239.500000
 20
846.934487
 42
-0.027601
  0
VERTEX
  8
0
 10
1230.957151
 20
841.612988
 42
-0.007034
  0
VERTEX
  8
0
 10
1216.541352
 20
833.963652
 42
-0.007495
  0
VERTEX
  8
0
 10
1200.825246
 20
826.200886
 42
-0.011583
  0
VERTEX
  8
0
 10
1187.000000
 20
820.016450
 42
0.003536
  0
VERTEX
  8
0
 10
1180.917007
 20
817.412003
 42
0.001470
  0
VERTEX
  8
0
 10
1172.737500
 20
813.812608
 42
0.001454
  0
VERTEX
  8
0
 10
1163.997992
 20
809.905625
 42
0.001879
  0
VERTEX
  8
0
 10
1156.000000
 20
806.265976
 42
-0.004018
  0
VERTEX
  8
0
 10
1139.580838
 20
798.878747
 42
-0.004397
  0
VERTEX
  8
0
 10
1123.529088
 20
791.979274
 42
-0.004644
  0
VERTEX
  8
0
 10
1108.318286
 20
785.764647
 42
-0.006271
  0
VERTEX
  8
0
 10
1094.441915
 20
780.445640
 42
0.003155
  0
VERTEX
  8
0
 10
1085.169645
 20
776.957566
 42
0.033263
  0
VERTEX
  8
0
 10
1081.496097
 20
775.261144
 42
0.510001
  0
VERTEX
  8
0
 10
1081.395916
 20
774.485489
 42
0.191286
  0
VERTEX
  8
0
 10
1082.618499
 20
774.000000
 42
-0.063666
  0
VERTEX
  8
0
 10
1088.588937
 20
773.236676
 42
-0.035455
  0
VERTEX
  8
0
 10
1095.548972
 20
770.889952
 42
-0.035417
  0
VERTEX
  8
0
 10
1102.128767
 20
767.573389
 42
-0.061947
  0
VERTEX
  8
0
 10
1106.937611
 20
763.830225
 42
-0.063611
  0
VERTEX
  8
0
 10
1110.130043
 20
759.704776
 42
-0.019896
  0
VERTEX
  8
0
 10
1113.829597
 20
752.797931
 42
-0.020523
  0
VERTEX
  8
0
 10
1117.074122
 20
745.351721
 42
-0.041084
  0
VERTEX
  8
0
 10
1118.894651
 20
739.200779
 42
-0.034555
  0
VERTEX
  8
0
 10
1119.774847
 20
732.795186
 42
-0.020859
  0
VERTEX
  8
0
 10
1119.972293
 20
725.132026
 42
-0.019803
  0
VERTEX
  8
0
 10
1119.573491
 20
717.960755
 42
-0.075298
  0
VERTEX
  8
0
 10
1118.486580
 20
713.622124
 42
0.020689
  0
VERTEX
  8
0
 10
1117.972399
 20
712.232557
 42
0.038360
  0
VERTEX
  8
0
 10
1117.690948
 20
711.063999
 42
0.052931
  0
VERTEX
  8
0
 10
1117.646683
 20
710.243619
 42
0.399105
  0
VERTEX
  8
0
 10
1117.903275
 20
710.000000
 42
0.104280
  0
VERTEX
  8
0
 10
1120.497135
 20
710.546921
 42
0.000695
  0
VERTEX
  8
0
 10
1141.710780
 20
719.944279
 42
0.003159
  0
VERTEX
  8
0
 10
1162.155657
 20
729.190242
 42
0.005972
  0
VERTEX
  8
0
 10
1178.500000
 20
736.944348
 42
0.005651
  0
VERTEX
  8
0
 10
1186.529990
 20
740.985223
 42
0.006447
  0
VERTEX
  8
0
 10
1194.118814
 20
745.037097
 42
0.005885
  0
VERTEX
  8
0
 10
1200.468734
 20
748.631475
 42
0.035822
  0
VERTEX
  8
0
 10
1203.585324
 20
750.756639
 42
0.041074
  0
VERTEX
  8
0
 10
1208.225178
 20
755.098052
 42
0.107976
  0
VERTEX
  8
0
 10
1210.482349
 20
759.027549
 42
0.078283
  0
VERTEX
  8
0
 10
1211.276709
 20
764.282417
 42
0.014918
  0
VERTEX
  8
0
 10
1210.927182
 20
773.973535
 42
-0.018184
  0
VERTEX
  8
0
 10
1210.620110
 20
784.371964
 42
-0.084659
  0
VERTEX
  8
0
 10
1211.665554
 20
790.258825
 42
-0.115468
  0
VERTEX
  8
0
 10
1214.432684
 20
794.532630
 42
-0.048162
  0
VERTEX
  8
0
 10
1219.848447
 20
798.823650
 42
-0.037104
  0
VERTEX
  8
0
 10
1226.268635
 20
802.327823
 42
-0.043260
  0
VERTEX
  8
0
 10
1232.820513
 20
804.637924
 42
-0.039435
  0
VERTEX
  8
0
 10
1240.161858
 20
805.925955
 42
-0.023725
  0
VERTEX
  8
0
 10
1249.000000
 20
806.345293
 42
-0.043627
  0
VERTEX
  8
0
 10
1263.440271
 20
805.082492
 42
-0.062883
  0
VERTEX
  8
0
 10
1275.677997
 20
801.296560
 42
-0.077792
  0
VERTEX
  8
0
 10
1284.509630
 20
795.498996
 42
-0.145839
  0
VERTEX
  8
0
 10
1288.899881
 20
788.257131
 42
-0.076280
  0
VERTEX
  8
0
 10
1289.443007
 20
783.007320
 42
-0.001975
  0
VERTEX
  8
0
 10
1288.184477
 20
759.339907
 42
-0.000959
  0
VERTEX
  8
0
 10
1286.725319
 20
734.635061
 42
-0.183128
  0
VERTEX
  8
0
 10
1285.706765
 20
732.373431
 42
-0.229981
  0
VERTEX
  8
0
 10
1285.135429
 20
732.175627
 42
-0.005328
  0
VERTEX
  8
0
 10
1282.223624
 20
732.554704
 42
-0.010764
  0
VERTEX
  8
0
 10
1278.759458
 20
733.119586
 42
-0.006956
  0
VERTEX
  8
0
 10
1274.774089
 20
733.915355
 42
0.029448
  0
VERTEX
  8
0
 10
1259.080045
 20
736.321227
 42
0.037821
  0
VERTEX
  8
0
 10
1244.483005
 20
736.578594
 42
0.037019
  0
VERTEX
  8
0
 10
1229.766814
 20
734.624983
 42
0.026457
  0
VERTEX
  8
0
 10
1213.702521
 20
730.370676
 42
0.010632
  0
VERTEX
  8
0
 10
1202.062022
 20
726.343775
 42
0.012062
  0
VERTEX
  8
0
 10
1191.087952
 20
721.980450
 42
0.007683
  0
VERTEX
  8
0
 10
1176.941490
 20
715.698173
 42
0.001716
  0
VERTEX
  8
0
 10
1153.000000
 20
704.522635
 42
-0.001070
  0
VERTEX
  8
0
 10
1140.276078
 20
698.563259
 42
-0.001524
  0
VERTEX
  8
0
 10
1128.945312
 20
693.327870
 42
-0.000839
  0
VERTEX
  8
0
 10
1119.345574
 20
688.947232
 42
-0.022655
  0
VERTEX
  8
0
 10
1116.750000
 20
687.907140
 42
0.016365
  0
VERTEX
  8
0
 10
1113.888475
 20
686.802029
 42
0.228246
  0
VERTEX
  8
0
 10
1113.178718
 20
685.993958
 42
0.400387
  0
VERTEX
  8
0
 10
1113.555976
 20
685.286276
 42
0.030498
  0
VERTEX
  8
0
 10
1115.850204
 20
684.679959
 42
-0.087204
  0
VERTEX
  8
0
 10
1119.985932
 20
683.069375
 42
-0.054679
  0
VERTEX
  8
0
 10
1124.115297
 20
679.900271
 42
-0.048389
  0
VERTEX
  8
0
 10
1127.950579
 20
675.440587
 42
-0.038252
  0
VERTEX
  8
0
 10
1131.207486
 20
669.971281
 42
-0.031234
  0
VERTEX
  8
0
 10
1134.343838
 20
662.515330
 42
-0.018595
  0
VERTEX
  8
0
 10
1137.177753
 20
653.306739
 42
-0.009091
  0
VERTEX
  8
0
 10
1140.791528
 20
638.740496
 42
-0.001328
  0
VERTEX
  8
0
 10
1147.510760
 20
609.020376
 42
-0.001424
  0
VERTEX
  8
0
 10
1152.258098
 20
587.471503
 42
-0.012915
  0
VERTEX
  8
0
 10
1154.060019
 20
578.008485
 42
-0.027651
  0
VERTEX
  8
0
 10
1154.761342
 20
571.481940
 42
-0.023193
  0
VERTEX
  8
0
 10
1154.798797
 20
564.520376
 42
-0.025849
  0
VERTEX
  8
0
 10
1154.138163
 20
557.413006
 42
-0.046209
  0
VERTEX
  8
0
 10
1152.763218
 20
551.713678
 42
-0.047600
  0
VERTEX
  8
0
 10
1150.398560
 20
546.477783
 42
-0.029335
  0
VERTEX
  8
0
 10
1146.702265
 20
540.811161
 42
0.016170
  0
VERTEX
  8
0
 10
1145.943682
 20
539.712515
 42
0.025469
  0
VERTEX
  8
0
 10
1145.373260
 20
538.718642
 42
0.022879
  0
VERTEX
  8
0
 10
1145.006798
 20
537.907548
 42
0.301136
  0
VERTEX
  8
0
 10
1145.071034
 20
537.600738
 42
0.216057
  0
VERTEX
  8
0
 10
1145.432433
 20
537.467242
 42
0.007231
  0
VERTEX
  8
0
 10
1146.989616
 20
537.601798
 42
0.012531
  0
VERTEX
  8
0
 10
1148.861203
 20
537.838338
 42
0.008266
  0
VERTEX
  8
0
 10
1151.000000
 20
538.199557
 42
-0.052258
  0
VERTEX
  8
0
 10
1162.569863
 20
539.120381
 42
-0.021626
  0
VERTEX
  8
0
 10
1178.252127
 20
538.048462
 42
-0.021738
  0
VERTEX
  8
0
 10
1194.220756
 20
535.553946
 42
-0.039394
  0
VERTEX
  8
0
 10
1206.931769
 20
531.937657
 42
-0.029693
  0
VERTEX
  8
0
 10
1217.517146
 20
527.270156
 42
-0.024595
  0
VERTEX
  8
0
 10
1228.186287
 20
521.106865
 42
-0.025316
  0
VERTEX
  8
0
 10
1237.712104
 20
514.253772
 42
-0.043714
  0
VERTEX
  8
0
 10
1244.772129
 20
507.521535
 42
0.022232
  0
VERTEX
  8
0
 10
1246.438040
 20
505.790549
 42
0.026927
  0
VERTEX
  8
0
 10
1248.152323
 20
504.328201
 42
0.027192
  0
VERTEX
  8
0
 10
1249.694564
 20
503.277524
 42
0.136761
  0
VERTEX
  8
0
 10
1250.690217
 20
503.000000
 42
0.139818
  0
VERTEX
  8
0
 10
1251.682400
 20
503.282982
 42
0.036822
  0
VERTEX
  8
0
 10
1253.030726
 20
504.264581
 42
0.032914
  0
VERTEX
  8
0
 10
1254.518685
 20
505.703642
 42
0.023321
  0
VERTEX
  8
0
 10
1255.997266
 20
507.496351
 42
-0.050806
  0
VERTEX
  8
0
 10
1261.562676
 20
513.535987
 42
-0.031239
  0
VERTEX
  8
0
 10
1269.196693
 20
519.488455
 42
-0.028464
  0
VERTEX
  8
0
 10
1278.409009
 20
525.046838
 42
-0.023729
  0
VERTEX
  8
0
 10
1288.761457
 20
529.901982
 42
-0.038436
  0
VERTEX
  8
0
 10
1301.348427
 20
533.992938
 42
-0.023863
  0
VERTEX
  8
0
 10
1316.612171
 20
536.923611
 42
-0.023734
  0
VERTEX
  8
0
 10
1332.259955
 20
538.407041
 42
-0.035050
  0
VERTEX
  8
0
 10
1346.043631
 20
538.089817
 42
0.003272
  0
VERTEX
  8
0
 10
1349.691963
 20
537.773312
 42
0.005207
  0
VERTEX
  8
0
 10
1352.817264
 20
537.555507
 42
0.001444
  0
VERTEX
  8
0
 10
1355.528416
 20
537.402773
 42
0.204427
  0
VERTEX
  8
0
 10
1355.823652
 20
537.510512
 42
0.346497
  0
VERTEX
  8
0
 10
1355.861307
 20
537.758843
 42
0.006625
  0
VERTEX
  8
0
 10
1355.158892
 20
538.958049
 42
0.012993
  0
VERTEX
  8
0
 10
1354.248778
 20
540.380779
 42
0.007958
  0
VERTEX
  8
0
 10
1353.106149
 20
542.012163
 42
-0.070850
  0
VERTEX
  8
0
 10
1348.113044
 20
551.476749
 42
-0.069030
  0
VERTEX
  8
0
 10
1345.903310
 20
562.043843
 42
-0.049759
  0
VERTEX
  8
0
 10
1346.323627
 20
575.539513
 42
-0.017810
  0
VERTEX
  8
0
 10
1349.512177
 20
594.548976
 42
-0.002989
  0
VERTEX
  8
0
 10
1358.684570
 20
638.056052
 42
-0.020514
  0
VERTEX
  8
0
 10
1364.197225
 20
659.222460
 42
-0.043444
  0
VERTEX
  8
0
 10
1369.212017
 20
671.682292
 42
-0.095170
  0
VERTEX
  8
0
 10
1375.485636
 20
679.778441
 42
0.000000
  0
VERTEX
  8
0
 10
1379.926585
 20
683.687521
 42
0.000000
  0
VERTEX
  8
0
 10
1377.861311
 20
689.093761
 42
-0.047290
  0
VERTEX
  8
0
 10
1375.851741
 20
696.343651
 42
-0.044535
  0
VERTEX
  8
0
 10
1375.185692
 20
703.991100
 42
-0.035394
  0
VERTEX
  8
0
 10
1375.848624
 20
713.069271
 42
-0.015861
  0
VERTEX
  8
0
 10
1377.937735
 20
724.859310
 42
-0.011787
  0
VERTEX
  8
0
 10
1381.595571
 20
740.434889
 42
-0.033661
  0
VERTEX
  8
0
 10
1385.111244
 20
750.989495
 42
-0.047817
  0
VERTEX
  8
0
 10
1389.125395
 20
758.617945
 42
-0.061610
  0
VERTEX
  8
0
 10
1394.241694
 20
764.655137
 42
-0.050515
  0
VERTEX
  8
0
 10
1398.421389
 20
767.791647
 42
-0.034056
  0
VERTEX
  8
0
 10
1403.730003
 20
770.519951
 42
-0.033187
  0
VERTEX
  8
0
 10
1409.554067
 20
772.582104
 42
-0.039036
  0
VERTEX
  8
0
 10
1415.293417
 20
773.721157
 42
0.016276
  0
VERTEX
  8
0
 10
1417.085766
 20
773.992843
 42
0.033631
  0
VERTEX
  8
0
 10
1418.457855
 20
774.343521
 42
0.054266
  0
VERTEX
  8
0
 10
1419.269008
 20
774.711502
 42
0.501191
  0
VERTEX
  8
0
 10
1419.304280
 20
775.039021
 42
0.089533
  0
VERTEX
  8
0
 10
1418.608426
 20
775.485326
 42
0.000834
  0
VERTEX
  8
0
 10
1412.945709
 20
777.813214
 42
0.002786
  0
VERTEX
  8
0
 10
1406.401134
 20
780.448398
 42
0.001794
  0
VERTEX
  8
0
 10
1398.787493
 20
783.433286
 42
-0.004031
  0
VERTEX
  8
0
 10
1389.775523
 20
787.012969
 42
-0.002278
  0
VERTEX
  8
0
 10
1378.906085
 20
791.490053
 42
-0.002273
  0
VERTEX
  8
0
 10
1367.984389
 20
796.105375
 42
-0.003732
  0
VERTEX
  8
0
 10
1358.787493
 20
800.122681
 42
0.000800
  0
VERTEX
  8
0
 10
1345.845142
 20
805.866650
 42
0.001585
  0
VERTEX
  8
0
 10
1335.556989
 20
810.374047
 42
0.001377
  0
VERTEX
  8
0
 10
1324.356904
 20
815.202115
 42
0.000464
  0
VERTEX
  8
0
 10
1308.000000
 20
822.181873
 42
-0.012119
  0
VERTEX
  8
0
 10
1295.906557
 20
827.678959
 42
-0.009494
  0
VERTEX
  8
0
 10
1283.055364
 20
834.204597
 42
-0.009591
  0
VERTEX
  8
0
 10
1271.365212
 20
840.713299
 42
-0.024107
  0
VERTEX
  8
0
 10
1263.185644
 20
846.018802
 42
0.027438
  0
VERTEX
  8
0
 10
1255.902053
 20
850.674554
 42
0.119375
  0
VERTEX
  8
0
 10
1251.009929
 20
852.061547
 42
0.129085
  0
VERTEX
  8
0
 10
1246.231904
 20
851.002570
 42
0.034371
  0
SEQEND
  0
POLYLINE
  8
0
 66
1
 70
1
  0
VERTEX
  8
0
 10
1262.131071
 20
711.559748
 42
-0.037904
  0
VERTEX
  8
0
 10
1270.111545
 20
709.224774
 42
-0.055276
  0
VERTEX
  8
0
 10
1276.635927
 20
705.903613
 42
-0.066734
  0
VERTEX
  8
0
 10
1281.269450
 20
701.884066
 42
-0.119833
  0
VERTEX
  8
0
 10
1283.600980
 20
697.453688
 42
-0.074399
  0
VERTEX
  8
0
 10
1283.920232
 20
694.185641
 42
-0.000887
  0
VERTEX
  8
0
 10
1282.782310
 20
672.702330
 42
-0.002141
  0
VERTEX
  8
0
 10
1281.107861
 20
644.342280
 42
-0.000726
  0
VERTEX
  8
0
 10
1278.435177
 20
603.095556
 42
-0.002710
  0
VERTEX
  8
0
 10
1276.494135
 20
576.024323
 42
-0.029850
  0
VERTEX
  8
0
 10
1275.012503
 20
565.251958
 42
-0.080421
  0
VERTEX
  8
0
 10
1272.747965
 20
559.177963
 42
-0.100798
  0
VERTEX
  8
0
 10
1268.800167
 20
554.661151
 42
-0.111333
  0
VERTEX
  8
0
 10
1257.403899
 20
549.436650
 42
-0.093448
  0
VERTEX
  8
0
 10
1244.087945
 20
549.147080
 42
-0.100147
  0
VERTEX
  8
0
 10
1232.340866
 20
553.625664
 42
-0.151915
  0
VERTEX
  8
0
 10
1225.306561
 20
561.886081
 42
-0.080228
  0
VERTEX
  8
0
 10
1224.246878
 20
566.146787
 42
-0.002841
  0
VERTEX
  8
0
 10
1222.924538
 20
583.072345
 42
-0.002558
  0
VERTEX
  8
0
 10
1221.019156
 20
611.396273
 42
-0.000283
  0
VERTEX
  8
0
 10
1217.032967
 20
676.143899
 42
-0.015586
  0
VERTEX
  8
0
 10
1216.622071
 20
689.951112
 42
-0.084453
  0
VERTEX
  8
0
 10
1217.885034
 20
697.311896
 42
-0.129132
  0
VERTEX
  8
0
 10
1221.256635
 20
702.290484
 42
-0.057310
  0
VERTEX
  8
0
 10
1227.833931
 20
706.830802
 42
-0.041465
  0
VERTEX
  8
0
 10
1236.069534
 20
710.379078
 42
-0.046762
  0
VERTEX
  8
0
 10
1244.454541
 20
712.346563
 42
-0.046468
  0
VERTEX
  8
0
 10
1253.105096
 20
712.728720
 42
-0.040058
  0
SEQEND
  0
POLYLINE
  8
0
 66
1
 70
1
  0
VERTEX
  8
0
 10
1021.500000
 20
754.395686
 42
-0.003388
  0
VERTEX
  8
0
 10
1012.645885
 20
751.456888
 42
-0.001788
  0
VERTEX
  8
0
 10
1001.618750
 20
747.923141
 42
-0.001779
  0
VERTEX
  8
0
 10
990.305655
 20
744.386558
 42
-0.002747
  0
VERTEX
  8
0
 10
980.500000
 20
741.418373
 42
0.001648
  0
VERTEX
  8
0
 10
970.281483
 20
738.349720
 42
0.000870
  0
VERTEX
  8
0
 10
957.618750
 20
734.477445
 42
0.000865
  0
VERTEX
  8
0
 10
944.672311
 20
730.469221
 42
0.001337
  0
VERTEX
  8
0
 10
933.500000
 20
726.956258
 42
-0.004389
  0
VERTEX
  8
0
 10
913.350378
 20
720.755416
 42
-0.012345
  0
VERTEX
  8
0
 10
899.116986
 20
716.891562
 42
-0.017081
  0
VERTEX
  8
0
 10
887.771347
 20
714.518009
 42
-0.021980
  0
VERTEX
  8
0
 10
877.205185
 20
713.156832
 42
0.027307
  0
VERTEX
  8
0
 10
868.934794
 20
712.001760
 42
0.116837
  0
VERTEX
  8
0
 10
864.430729
 20
709.957947
 42
0.119569
  0
VERTEX
  8
0
 10
861.377230
 20
706.136717
 42
0.029216
  0
VERTEX
  8
0
 10
858.382854
 20
698.590788
 42
-0.018562
  0
VERTEX
  8
0
 10
853.558004
 20
685.633853
 42
-0.010373
  0
VERTEX
  8
0
 10
846.783554
 20
670.230181
 42
-0.007338
  0
VERTEX
  8
0
 10
837.065405
 20
650.099592
 42
-0.002583
  0
VERTEX
  8
0
 10
822.552221
 20
621.500000
 42
0.005483
  0
VERTEX
  8
0
 10
820.398867
 20
617.194926
 42
0.000674
  0
VERTEX
  8
0
 10
815.811462
 20
607.734175
 42
0.000798
  0
VERTEX
  8
0
 10
810.395058
 20
596.479464
 42
0.000659
  0
VERTEX
  8
0
 10
804.657217
 20
584.467404
 42
-0.002209
  0
VERTEX
  8
0
 10
798.583557
 20
571.852976
 42
-0.001963
  0
VERTEX
  8
0
 10
792.156951
 20
558.785548
 42
-0.001969
  0
VERTEX
  8
0
 10
786.282137
 20
547.073595
 42
-0.006061
  0
VERTEX
  8
0
 10
782.180016
 20
539.213242
 42
0.001267
  0
VERTEX
  8
0
 10
779.044121
 20
533.342272
 42
0.002034
  0
VERTEX
  8
0
 10
776.402880
 20
528.317846
 42
0.000352
  0
VERTEX
  8
0
 10
774.090069
 20
523.866750
 42
0.120200
  0
VERTEX
  8
0
 10
774.000000
 20
523.497500
 42
0.578637
  0
VERTEX
  8
0
 10
774.152765
 20
523.409694
 42
0.006267
  0
VERTEX
  8
0
 10
775.425376
 20
524.172520
 42
0.011307
  0
VERTEX
  8
0
 10
776.990838
 20
525.187321
 42
0.006309
  0
VERTEX
  8
0
 10
778.852342
 20
526.489387
 42
-0.015876
  0
VERTEX
  8
0
 10
781.123962
 20
528.014437
 42
-0.008992
  0
VERTEX
  8
0
 10
783.964286
 20
529.722825
 42
-0.008970
  0
VERTEX
  8
0
 10
786.892092
 20
531.343573
 42
-0.014578
  0
VERTEX
  8
0
 10
789.440778
 20
532.601518
 42
-0.091115
  0
VERTEX
  8
0
 10
798.020485
 20
534.770405
 42
-0.089088
  0
VERTEX
  8
0
 10
806.882868
 20
533.775180
 42
-0.076394
  0
VERTEX
  8
0
 10
815.928065
 20
529.494466
 42
-0.047094
  0
VERTEX
  8
0
 10
825.037452
 20
521.997031
 42
-0.029684
  0
VERTEX
  8
0
 10
829.612422
 20
516.871379
 42
-0.030877
  0
VERTEX
  8
0
 10
833.483449
 20
511.304455
 42
-0.032449
  0
VERTEX
  8
0
 10
836.197839
 20
506.103269
 42
-0.104408
  0
VERTEX
  8
0
 10
837.000000
 20
502.303656
 42
0.031801
  0
VERTEX
  8
0
 10
837.056184
 20
501.421171
 42
0.049091
  0
VERTEX
  8
0
 10
837.226781
 20
500.676699
 42
0.063077
  0
VERTEX
  8
0
 10
837.475397
 20
500.161172
 42
0.254132
  0
VERTEX
  8
0
 10
837.772021
 20
500.000000
 42
0.290412
  0
VERTEX
  8
0
 10
839.980577
 20
501.400936
 42
0.000535
  0
VERTEX
  8
0
 10
859.156037
 20
542.219252
 42
0.002763
  0
VERTEX
  8
0
 10
876.306373
 20
579.361269
 42
0.033786
  0
VERTEX
  8
0
 10
881.808264
 20
594.000000
 42
0.021033
  0
VERTEX
  8
0
 10
882.941308
 20
598.439126
 42
0.030419
  0
VERTEX
  8
0
 10
883.534271
 20
602.443121
 42
0.035267
  0
VERTEX
  8
0
 10
883.587524
 20
605.834892
 42
0.077282
  0
VERTEX
  8
0
 10
883.049971
 20
608.368567
 42
0.049829
  0
VERTEX
  8
0
 10
882.278592
 20
609.914228
 42
0.008051
  0
VERTEX
  8
0
 10
880.437626
 20
612.732906
 42
0.008820
  0
VERTEX
  8
0
 10
878.150233
 20
615.989585
 42
0.007651
  0
VERTEX
  8
0
 10
875.640494
 20
619.323700
 42
-0.003862
  0
VERTEX
  8
0
 10
873.124189
 20
622.614345
 42
-0.004683
  0
VERTEX
  8
0
 10
870.817731
 20
625.739838
 42
-0.003982
  0
VERTEX
  8
0
 10
868.923981
 20
628.401396
 42
-0.032029
  0
VERTEX
  8
0
 10
868.143764
 20
629.684259
 42
-0.162045
  0
VERTEX
  8
0
 10
866.886695
 20
637.420497
 42
-0.061077
  0
VERTEX
  8
0
 10
869.979608
 20
648.087374
 42
-0.053632
  0
VERTEX
  8
0
 10
876.391136
 20
659.512643
 42
-0.049010
  0
VERTEX
  8
0
 10
885.260046
 20
669.696678
 42
-0.045057
  0
VERTEX
  8
0
 10
897.443458
 20
679.276235
 42
-0.061938
  0
VERTEX
  8
0
 10
909.961546
 20
685.362541
 42
-0.077719
  0
VERTEX
  8
0
 10
920.989460
 20
687.297637
 42
-0.181475
  0
VERTEX
  8
0
 10
928.767473
 20
684.542205
 42
-0.071833
  0
VERTEX
  8
0
 10
931.187903
 20
681.825949
 42
-0.007110
  0
VERTEX
  8
0
 10
935.916609
 20
674.452276
 42
-0.005314
  0
VERTEX
  8
0
 10
943.155172
 20
662.522675
 42
-0.000973
  0
VERTEX
  8
0
 10
956.259002
 20
640.301501
 42
0.000000
  0
VERTEX
  8
0
 10
958.136779
 20
637.103003
 42
0.000000
  0
VERTEX
  8
0
 10
952.818389
 20
634.428396
 42
0.033392
  0
VERTEX
  8
0
 10
940.732760
 20
627.302968
 42
0.024975
  0
VERTEX
  8
0
 10
928.416011
 20
617.951019
 42
0.025085
  0
VERTEX
  8
0
 10
917.170309
 20
607.484698
 42
0.035146
  0
VERTEX
  8
0
 10
908.323809
 20
597.000000
 42
0.024290
  0
VERTEX
  8
0
 10
899.174981
 20
583.097357
 42
0.011635
  0
VERTEX
  8
0
 10
888.736073
 20
564.443102
 42
0.010629
  0
VERTEX
  8
0
 10
877.793211
 20
542.666839
 42
0.008757
  0
VERTEX
  8
0
 10
867.028205
 20
519.000000
 42
-0.002488
  0
VERTEX
  8
0
 10
863.853924
 20
511.782591
 42
-0.001771
  0
VERTEX
  8
0
 10
860.228822
 20
503.727043
 42
-0.001788
  0
VERTEX
  8
0
 10
856.715952
 20
496.067083
 42
-0.003813
  0
VERTEX
  8
0
 10
853.934558
 20
490.177168
 42
0.001117
  0
VERTEX
  8
0
 10
851.659473
 20
485.425950
 42
0.001794
  0
VERTEX
  8
0
 10
849.743276
 20
481.363677
 42
0.000299
  0
VERTEX
  8
0
 10
848.062978
 20
477.762510
 42
0.109427
  0
VERTEX
  8
0
 10
848.000000
 20
477.478195
 42
0.492741
  0
VERTEX
  8
0
 10
848.126141
 20
477.381273
 42
0.009882
  0
VERTEX
  8
0
 10
849.018690
 20
477.638181
 42
0.015265
  0
VERTEX
  8
0
 10
850.137701
 20
478.022158
 42
0.008676
  0
VERTEX
  8
0
 10
851.467881
 20
478.551027
 42
-0.042703
  0
VERTEX
  8
0
 10
853.204851
 20
479.108241
 42
-0.017645
  0
VERTEX
  8
0
 10
855.631331
 20
479.574364
 42
-0.017305
  0
VERTEX
  8
0
 10
858.283031
 20
479.893818
 42
-0.021325
  0
VERTEX
  8
0
 10
860.771537
 20
480.000000
 42
-0.092942
  0
VERTEX
  8
0
 10
868.986072
 20
478.459737
 42
-0.061109
  0
VERTEX
  8
0
 10
877.484993
 20
473.896208
 42
-0.025922
  0
VERTEX
  8
0
 10
889.869077
 20
464.151769
 42
-0.003064
  0
VERTEX
  8
0
 10
916.097437
 20
440.931823
 42
-0.002793
  0
VERTEX
  8
0
 10
932.255839
 20
426.285599
 42
-0.017762
  0
VERTEX
  8
0
 10
940.150630
 20
418.515247
 42
-0.034095
  0
VERTEX
  8
0
 10
944.989412
 20
412.648354
 42
-0.037455
  0
VERTEX
  8
0
 10
948.819976
 20
406.352876
 42
-0.059172
  0
VERTEX
  8
0
 10
950.398790
 20
402.074747
 42
-0.020299
  0
VERTEX
  8
0
 10
951.679018
 20
395.584000
 42
-0.020452
  0
VERTEX
  8
0
 10
952.430771
 20
388.974308
 42
-0.054898
  0
VERTEX
  8
0
 10
952.254300
 20
384.250000
 42
0.024407
  0
VERTEX
  8
0
 10
952.131908
 20
383.007888
 42
0.042144
  0
VERTEX
  8
0
 10
952.168036
 20
381.970865
 42
0.055640
  0
VERTEX
  8
0
 10
952.336295
 20
381.252986
 42
0.335027
  0
VERTEX
  8
0
 10
952.636501
 20
381.055073
 42
0.192888
  0
VERTEX
  8
0
 10
953.152184
 20
381.300869
 42
0.005664
  0
VERTEX
  8
0
 10
954.795710
 20
383.124180
 42
0.010587
  0
VERTEX
  8
0
 10
956.690619
 20
385.368948
 42
0.007011
  0
VERTEX
  8
0
 10
958.774426
 20
388.021505
 42
-0.037705
  0
VERTEX
  8
0
 10
966.944839
 20
397.202166
 42
-0.023353
  0
VERTEX
  8
0
 10
977.789798
 20
406.742476
 42
-0.023255
  0
VERTEX
  8
0
 10
989.581477
 20
415.309073
 42
-0.034992
  0
VERTEX
  8
0
 10
1000.657265
 20
421.531072
 42
-0.032342
  0
VERTEX
  8
0
 10
1011.991744
 20
426.021667
 42
-0.029573
  0
VERTEX
  8
0
 10
1024.152574
 20
429.171266
 42
-0.031007
  0
VERTEX
  8
0
 10
1035.704954
 20
430.708679
 42
-0.058116
  0
VERTEX
  8
0
 10
1045.106789
 20
430.277863
 42
0.024216
  0
VERTEX
  8
0
 10
1050.682888
 20
429.642412
 42
0.177876
  0
VERTEX
  8
0
 10
1053.213652
 20
430.389423
 42
0.184139
  0
VERTEX
  8
0
 10
1054.611042
 20
432.581557
 42
0.026278
  0
VERTEX
  8
0
 10
1055.426066
 20
437.946464
 42
-0.057777
  0
VERTEX
  8
0
 10
1059.328521
 20
455.933725
 42
-0.044181
  0
VERTEX
  8
0
 10
1067.495744
 20
474.352056
 42
-0.041118
  0
VERTEX
  8
0
 10
1079.495468
 20
492.356787
 42
-0.035585
  0
VERTEX
  8
0
 10
1094.829415
 20
509.109848
 42
-0.010028
  0
VERTEX
  8
0
 10
1099.141809
 20
513.034825
 42
-0.008190
  0
VERTEX
  8
0
 10
1103.905792
 20
517.063518
 42
-0.008290
  0
VERTEX
  8
0
 10
1108.412923
 20
520.627039
 42
-0.021429
  0
VERTEX
  8
0
 10
1111.811176
 20
523.000000
 42
0.006523
  0
VERTEX
  8
0
 10
1114.525628
 20
524.777535
 42
0.010033
  0
VERTEX
  8
0
 10
1116.822652
 20
526.392841
 42
0.004872
  0
VERTEX
  8
0
 10
1118.709315
 20
527.805451
 42
0.212692
  0
VERTEX
  8
0
 10
1118.941336
 20
528.230948
 42
0.258590
  0
VERTEX
  8
0
 10
1118.794207
 20
528.555164
 42
0.040222
  0
VERTEX
  8
0
 10
1118.174955
 20
528.941932
 42
0.036257
  0
VERTEX
  8
0
 10
1117.299299
 20
529.317750
 42
0.024093
  0
VERTEX
  8
0
 10
1116.250000
 20
529.624883
 42
-0.047894
  0
VERTEX
  8
0
 10
1111.722360
 20
531.187293
 42
-0.027637
  0
VERTEX
  8
0
 10
1106.613552
 20
533.868214
 42
-0.027704
  0
VERTEX
  8
0
 10
1101.889703
 20
537.057950
 42
-0.053436
  0
VERTEX
  8
0
 10
1098.573412
 20
540.185269
 42
-0.033311
  0
VERTEX
  8
0
 10
1094.707170
 20
545.363440
 42
-0.023014
  0
VERTEX
  8
0
 10
1091.016233
 20
551.681200
 42
-0.018058
  0
VERTEX
  8
0
 10
1087.144418
 20
559.766513
 42
-0.008421
  0
VERTEX
  8
0
 10
1082.686531
 20
570.500000
 42
-0.001340
  0
VERTEX
  8
0
 10
1064.970173
 20
615.623775
 42
-0.016512
  0
VERTEX
  8
0
 10
1058.835436
 20
633.053770
 42
-0.045617
  0
VERTEX
  8
0
 10
1056.549390
 20
643.560876
 42
-0.075072
  0
VERTEX
  8
0
 10
1056.792596
 20
652.633674
 42
-0.004907
  0
VERTEX
  8
0
 10
1057.237282
 20
654.990660
 42
-0.005713
  0
VERTEX
  8
0
 10
1057.707431
 20
657.221443
 42
-0.005107
  0
VERTEX
  8
0
 10
1058.145607
 20
659.098296
 42
-0.033948
  0
VERTEX
  8
0
 10
1058.436284
 20
660.013792
 42
0.167898
  0
VERTEX
  8
0
 10
1058.469922
 20
660.802624
 42
0.105171
  0
VERTEX
  8
0
 10
1058.022821
 20
661.621727
 42
0.066303
  0
VERTEX
  8
0
 10
1057.052460
 20
662.488668
 42
0.025695
  0
VERTEX
  8
0
 10
1055.508457
 20
663.425512
 42
-0.060911
  0
VERTEX
  8
0
 10
1051.177880
 20
666.488932
 42
-0.028879
  0
VERTEX
  8
0
 10
1046.383354
 20
671.377246
 42
-0.028668
  0
VERTEX
  8
0
 10
1042.038512
 20
676.967998
 42
-0.045094
  0
VERTEX
  8
0
 10
1039.054738
 20
682.262393
 42
-0.012149
  0
VERTEX
  8
0
 10
1035.535591
 20
690.614335
 42
-0.007174
  0
VERTEX
  8
0
 10
1031.721826
 20
700.742274
 42
-0.006914
  0
VERTEX
  8
0
 10
1028.376572
 20
710.446642
 42
-0.022454
  0
VERTEX
  8
0
 10
1026.540058
 20
717.000000
 42
-0.051052
  0
VERTEX
  8
0
 10
1025.124392
 20
728.147710
 42
-0.078394
  0
VERTEX
  8
0
 10
1026.404226
 20
737.774687
 42
-0.073790
  0
VERTEX
  8
0
 10
1030.676227
 20
746.945222
 42
-0.040204
  0
VERTEX
  8
0
 10
1038.342883
 20
756.750000
 42
0.009655
  0
VERTEX
  8
0
 10
1039.782685
 20
758.376188
 42
0.019153
  0
VERTEX
  8
0
 10
1040.847894
 20
759.728839
 42
0.021603
  0
VERTEX
  8
0
 10
1041.504523
 20
760.718993
 42
0.613488
  0
VERTEX
  8
0
 10
1041.377360
 20
760.922642
 42
0.057002
  0
VERTEX
  8
0
 10
1040.713627
 20
760.786835
 42
0.000391
  0
VERTEX
  8
0
 10
1035.176475
 20
758.973439
 42
0.001522
  0
VERTEX
  8
0
 10
1028.846136
 20
756.873428
 42
0.000972
  0
SEQEND
  0
POLYLINE
  8
0
 66
1
 70
1
  0
VERTEX
  8
0
 10
974.588827
 20
607.824691
 42
-0.055746
  0
VERTEX
  8
0
 10
976.054349
 20
605.956214
 42
-0.001203
  0
VERTEX
  8
0
 10
982.147066
 20
596.048503
 42
-0.002747
  0
VERTEX
  8
0
 10
989.190848
 20
584.388794
 42
-0.001848
  0
VERTEX
  8
0
 10
997.112156
 20
571.000000
 42
0.000194
  0
VERTEX
  8
0
 10
1005.556939
 20
556.618020
 42
0.000182
  0
VERTEX
  8
0
 10
1014.193691
 20
541.934375
 42
0.000181
  0
VERTEX
  8
0
 10
1021.864344
 20
528.914847
 42
0.000627
  0
VERTEX
  8
0
 10
1026.840406
 20
520.500000
 42
-0.001673
  0
VERTEX
  8
0
 10
1036.400842
 20
504.255199
 42
-0.025291
  0
VERTEX
  8
0
 10
1039.412412
 20
498.442453
 42
-0.070093
  0
VERTEX
  8
0
 10
1040.590768
 20
494.457265
 42
-0.053773
  0
VERTEX
  8
0
 10
1040.772975
 20
489.915114
 42
-0.078916
  0
VERTEX
  8
0
 10
1038.901462
 20
481.732645
 42
-0.054801
  0
VERTEX
  8
0
 10
1034.414304
 20
473.357486
 42
-0.054044
  0
VERTEX
  8
0
 10
1028.121547
 20
466.026370
 42
-0.070138
  0
VERTEX
  8
0
 10
1020.888705
 20
460.934099
 42
-0.064243
  0
VERTEX
  8
0
 10
1015.980231
 20
459.169669
 42
-0.049692
  0
VERTEX
  8
0
 10
1010.330821
 20
458.502960
 42
-0.051867
  0
VERTEX
  8
0
 10
1005.052064
 20
458.955259
 42
-0.111557
  0
VERTEX
  8
0
 10
1001.330135
 20
460.578729
 42
-0.057826
  0
VERTEX
  8
0
 10
997.862055
 20
463.803300
 42
-0.006471
  0
VERTEX
  8
0
 10
990.963273
 20
472.106073
 42
-0.003818
  0
VERTEX
  8
0
 10
979.425534
 20
486.588051
 42
-0.000451
  0
VERTEX
  8
0
 10
954.052381
 20
519.000000
 42
-0.002157
  0
VERTEX
  8
0
 10
941.321534
 20
535.438484
 42
-0.004588
  0
VERTEX
  8
0
 10
931.643921
 20
548.288944
 42
-0.002725
  0
VERTEX
  8
0
 10
924.217773
 20
558.455873
 42
-0.082587
  0
VERTEX
  8
0
 10
922.818738
 20
561.275377
 42
-0.120222
  0
VERTEX
  8
0
 10
922.413085
 20
568.446530
 42
-0.055689
  0
VERTEX
  8
0
 10
925.135312
 20
577.435807
 42
-0.049701
  0
VERTEX
  8
0
 10
930.349243
 20
586.875573
 42
-0.044682
  0
VERTEX
  8
0
 10
937.491683
 20
595.472297
 42
-0.049305
  0
VERTEX
  8
0
 10
947.790876
 20
603.967415
 42
-0.067538
  0
VERTEX
  8
0
 10
958.565278
 20
609.256005
 42
-0.086826
  0
VERTEX
  8
0
 10
968.036052
 20
610.670037
 42
-0.194730
  0
SEQEND
  0
POLYLINE
  8
0
 66
1
 70
1
  0
VERTEX
  8
0
 10
1459.000000
 20
760.353748
 42
0.167047
  0
VERTEX
  8
0
 10
1459.124837
 20
759.990517
 42
0.003904
  0
VERTEX
  8
0
 10
1460.262949
 20
758.553623
 42
0.008222
  0
VERTEX
  8
0
 10
1461.651752
 20
756.885014
 42
0.005433
  0
VERTEX
  8
0
 10
1463.299402
 20
755.011890
 42
-0.033277
  0
VERTEX
  8
0
 10
1467.739414
 20
749.358758
 42
-0.036168
  0
VERTEX
  8
0
 10
1471.254962
 20
743.316431
 42
-0.038634
  0
VERTEX
  8
0
 10
1473.653023
 20
737.267039
 42
-0.055076
  0
VERTEX
  8
0
 10
1474.744255
 20
731.597267
 42
-0.070440
  0
VERTEX
  8
0
 10
1473.976783
 20
718.937530
 42
-0.048539
  0
VERTEX
  8
0
 10
1469.749249
 20
705.183305
 42
-0.049853
  0
VERTEX
  8
0
 10
1463.268528
 20
693.173055
 42
-0.107908
  0
VERTEX
  8
0
 10
1455.711324
 20
685.970640
 42
0.000000
  0
VERTEX
  8
0
 10
1452.922586
 20
684.274707
 42
0.000000
  0
VERTEX
  8
0
 10
1455.711293
 20
683.200719
 42
0.019877
  0
VERTEX
  8
0
 10
1462.107421
 20
681.025134
 42
0.000766
  0
VERTEX
  8
0
 10
1486.108947
 20
673.951965
 42
0.001340
  0
VERTEX
  8
0
 10
1509.309386
 20
667.220954
 42
0.007444
  0
VERTEX
  8
0
 10
1521.833674
 20
663.824713
 42
0.011669
  0
VERTEX
  8
0
 10
1527.170320
 20
662.594413
 42
0.009715
  0
VERTEX
  8
0
 10
1532.894417
 20
661.530240
 42
0.009974
  0
VERTEX
  8
0
 10
1538.389267
 20
660.731029
 42
0.017107
  0
VERTEX
  8
0
 10
1543.000000
 20
660.313653
 42
0.028687
  0
VERTEX
  8
0
 10
1550.610622
 20
660.323487
 42
0.133585
  0
VERTEX
  8
0
 10
1554.733537
 20
661.709242
 42
0.103117
  0
VERTEX
  8
0
 10
1558.128707
 20
665.172683
 42
0.013685
  0
VERTEX
  8
0
 10
1563.453039
 20
674.003502
 42
-0.015826
  0
VERTEX
  8
0
 10
1568.017778
 20
681.501715
 42
-0.077685
  0
VERTEX
  8
0
 10
1571.326853
 20
685.173000
 42
-0.116883
  0
VERTEX
  8
0
 10
1574.913359
 20
686.903154
 42
-0.058251
  0
VERTEX
  8
0
 10
1579.959636
 20
687.411478
 42
-0.085011
  0
VERTEX
  8
0
 10
1590.712020
 20
685.392710
 42
-0.052311
  0
VERTEX
  8
0
 10
1602.283997
 20
679.663281
 42
-0.048667
  0
VERTEX
  8
0
 10
1613.339694
 20
671.056049
 42
-0.048019
  0
VERTEX
  8
0
 10
1622.578436
 20
660.438293
 42
-0.031660
  0
VERTEX
  8
0
 10
1628.813839
 20
650.421553
 42
-0.062007
  0
VERTEX
  8
0
 10
1632.203295
 20
641.673546
 42
-0.082102
  0
VERTEX
  8
0
 10
1632.819540
 20
634.170866
 42
-0.119007
  0
VERTEX
  8
0
 10
1630.744877
 20
627.884804
 42
-0.027346
  0
VERTEX
  8
0
 10
1626.682710
 20
622.077239
 42
-0.001811
  0
VERTEX
  8
0
 10
1614.036773
 20
606.071382
 42
-0.000314
  0
VERTEX
  8
0
 10
1600.029933
 20
588.497043
 42
-0.228154
  0
VERTEX
  8
0
 10
1598.997362
 20
588.000000
 42
-0.219012
  0
VERTEX
  8
0
 10
1598.579683
 20
588.192171
 42
-0.005792
  0
VERTEX
  8
0
 10
1597.238897
 20
589.794452
 42
-0.011120
  0
VERTEX
  8
0
 10
1595.698167
 20
591.767589
 42
-0.007253
  0
VERTEX
  8
0
 10
1594.004721
 20
594.108774
 42
0.027966
  0
VERTEX
  8
0
 10
1587.812737
 20
601.962726
 42
0.015825
  0
VERTEX
  8
0
 10
1579.504024
 20
610.789292
 42
0.015819
  0
VERTEX
  8
0
 10
1570.814917
 20
618.921911
 42
0.033409
  0
VERTEX
  8
0
 10
1563.492054
 20
624.534000
 42
0.034857
  0
VERTEX
  8
0
 10
1547.247855
 20
633.779337
 42
0.024842
  0
VERTEX
  8
0
 10
1527.943453
 20
641.897130
 42
0.018410
  0
VERTEX
  8
0
 10
1502.746645
 20
650.012161
 42
0.007241
  0
VERTEX
  8
0
 10
1467.500000
 20
659.399025
 42
-0.002641
  0
VERTEX
  8
0
 10
1460.175569
 20
661.277674
 42
-0.002846
  0
VERTEX
  8
0
 10
1453.052451
 20
663.188236
 42
-0.002687
  0
VERTEX
  8
0
 10
1446.958418
 20
664.895289
 42
-0.013616
  0
VERTEX
  8
0
 10
1443.593450
 20
665.957339
 42
0.001531
  0
VERTEX
  8
0
 10
1438.566243
 20
667.678683
 42
0.092816
  0
VERTEX
  8
0
 10
1437.626474
 20
667.812776
 42
0.555354
  0
VERTEX
  8
0
 10
1437.415908
 20
667.439438
 42
0.019924
  0
VERTEX
  8
0
 10
1438.438876
 20
665.733631
 42
-0.068934
  0
VERTEX
  8
0
 10
1441.441119
 20
659.395805
 42
-0.055418
  0
VERTEX
  8
0
 10
1442.896808
 20
651.987226
 42
-0.048985
  0
VERTEX
  8
0
 10
1442.774043
 20
643.578775
 42
-0.034386
  0
VERTEX
  8
0
 10
1441.066455
 20
634.260280
 42
-0.027974
  0
VERTEX
  8
0
 10
1436.723682
 20
620.509881
 42
-0.002646
  0
VERTEX
  8
0
 10
1424.038655
 20
587.525517
 42
-0.001762
  0
VERTEX
  8
0
 10
1410.643770
 20
553.591432
 42
-0.051118
  0
VERTEX
  8
0
 10
1406.321073
 20
545.321226
 42
-0.030445
  0
VERTEX
  8
0
 10
1402.627349
 20
540.408013
 42
-0.040375
  0
VERTEX
  8
0
 10
1398.670602
 20
536.457814
 42
-0.043043
  0
VERTEX
  8
0
 10
1394.355669
 20
533.391456
 42
-0.043471
  0
VERTEX
  8
0
 10
1389.593316
 20
531.120798
 42
-0.005157
  0
VERTEX
  8
0
 10
1387.352008
 20
530.308470
 42
-0.006960
  0
VERTEX
  8
0
 10
1385.307319
 20
529.622984
 42
-0.004906
  0
VERTEX
  8
0
 10
1383.586163
 20
529.091050
 42
-0.072610
  0
VERTEX
  8
0
 10
1382.962487
 20
529.000000
 42
0.378961
  0
VERTEX
  8
0
 10
1382.385249
 20
528.489132
 42
0.234655
  0
VERTEX
  8
0
 10
1382.707107
 20
527.576723
 42
0.043121
  0
VERTEX
  8
0
 10
1384.877348
 20
525.805481
 42
0.008201
  0
VERTEX
  8
0
 10
1389.141529
 20
523.000000
 42
-0.030209
  0
VERTEX
  8
0
 10
1396.397352
 20
517.754895
 42
-0.016172
  0
VERTEX
  8
0
 10
1404.723977
 20
510.471617
 42
-0.015789
  0
VERTEX
  8
0
 10
1412.980437
 20
502.261638
 42
-0.019753
  0
VERTEX
  8
0
 10
1420.080860
 20
494.119200
 42
-0.036225
  0
VERTEX
  8
0
 10
1428.642739
 20
481.743517
 42
-0.028038
  0
VERTEX
  8
0
 10
1436.167782
 20
467.173539
 42
-0.028436
  0
VERTEX
  8
0
 10
1441.879007
 20
452.174530
 42
-0.042785
  0
VERTEX
  8
0
 10
1444.951076
 20
438.529379
 42
0.009128
  0
VERTEX
  8
0
 10
1445.436069
 20
435.408807
 42
0.012591
  0
VERTEX
  8
0
 10
1445.992814
 20
432.628320
 42
0.009242
  0
VERTEX
  8
0
 10
1446.553188
 20
430.351092
 42
0.132169
  0
VERTEX
  8
0
 10
1446.966544
 20
429.633456
 42
0.186530
  0
VERTEX
  8
0
 10
1447.723968
 20
429.298316
 42
0.020342
  0
VERTEX
  8
0
 10
1449.665318
 20
429.284576
 42
0.020727
  0
VERTEX
  8
0
 10
1452.221360
 20
429.476766
 42
0.010861
  0
VERTEX
  8
0
 10
1455.381134
 20
429.916307
 42
-0.098769
  0
VERTEX
  8
0
 10
1476.195958
 20
429.146631
 42
-0.057903
  0
VERTEX
  8
0
 10
1499.705655
 20
420.577263
 42
-0.053399
  0
VERTEX
  8
0
 10
1522.739712
 20
405.751024
 42
-0.052834
  0
VERTEX
  8
0
 10
1542.202815
 20
386.335445
 42
0.000000
  0
VERTEX
  8
0
 10
1547.500000
 20
379.798947
 42
0.000000
  0
VERTEX
  8
0
 10
1548.151231
 20
388.649473
 42
-0.028295
  0
VERTEX
  8
0
 10
1549.152514
 20
396.306870
 42
-0.040204
  0
VERTEX
  8
0
 10
1550.962844
 20
402.926241
 42
-0.041447
  0
VERTEX
  8
0
 10
1553.757706
 20
409.017530
 42
-0.032907
  0
VERTEX
  8
0
 10
1557.718884
 20
415.079335
 42
-0.036218
  0
VERTEX
  8
0
 10
1560.897458
 20
418.725430
 42
-0.003381
  0
VERTEX
  8
0
 10
1569.421964
 20
427.068303
 42
-0.004330
  0
VERTEX
  8
0
 10
1579.752520
 20
436.871426
 42
-0.003389
  0
VERTEX
  8
0
 10
1591.127098
 20
447.336311
 42
-0.004034
  0
VERTEX
  8
0
 10
1612.747602
 20
466.642986
 42
-0.030239
  0
VERTEX
  8
0
 10
1623.592360
 20
475.066559
 42
-0.066351
  0
VERTEX
  8
0
 10
1631.432377
 20
479.023715
 42
-0.083927
  0
VERTEX
  8
0
 10
1639.426014
 20
480.375000
 42
0.000000
  0
VERTEX
  8
0
 10
1645.799206
 20
480.375000
 42
0.000000
  0
VERTEX
  8
0
 10
1646.878853
 20
485.750962
 42
-0.035264
  0
VERTEX
  8
0
 10
1648.191996
 20
490.519977
 42
-0.025072
  0
VERTEX
  8
0
 10
1650.297319
 20
495.651615
 42
-0.025219
  0
VERTEX
  8
0
 10
1652.880824
 20
500.496546
 42
-0.038232
  0
VERTEX
  8
0
 10
1655.641568
 20
504.390419
 42
-0.026765
  0
VERTEX
  8
0
 10
1657.282368
 20
506.163447
 42
-0.003767
  0
VERTEX
  8
0
 10
1660.884416
 20
509.608058
 42
-0.004290
  0
VERTEX
  8
0
 10
1665.217216
 20
513.619829
 42
-0.003637
  0
VERTEX
  8
0
 10
1669.862307
 20
517.785949
 42
-0.031565
  0
VERTEX
  8
0
 10
1685.411382
 20
529.871347
 42
-0.108419
  0
VERTEX
  8
0
 10
1697.208659
 20
534.605298
 42
-0.135911
  0
VERTEX
  8
0
 10
1708.349597
 20
533.436185
 42
-0.062146
  0
VERTEX
  8
0
 10
1721.296208
 20
526.382664
 42
0.007156
  0
VERTEX
  8
0
 10
1723.160928
 20
525.083050
 42
0.014634
  0
VERTEX
  8
0
 10
1724.666594
 20
524.128347
 42
0.017044
  0
VERTEX
  8
0
 10
1725.725374
 20
523.547528
 42
0.701922
  0
VERTEX
  8
0
 10
1725.858845
 20
523.673466
 42
0.012714
  0
VERTEX
  8
0
 10
1724.900589
 20
525.735475
 42
0.000012
  0
VERTEX
  8
0
 10
1701.487710
 20
572.934703
 42
0.000027
  0
VERTEX
  8
0
 10
1678.643891
 20
618.977738
 42
0.005500
  0
VERTEX
  8
0
 10
1676.337572
 20
623.500000
 42
-0.003731
  0
VERTEX
  8
0
 10
1662.764538
 20
649.883113
 42
-0.009478
  0
VERTEX
  8
0
 10
1653.419411
 20
669.291863
 42
-0.012881
  0
VERTEX
  8
0
 10
1646.948223
 20
684.427979
 42
-0.024691
  0
VERTEX
  8
0
 10
1642.683164
 20
696.925350
 42
0.034814
  0
VERTEX
  8
0
 10
1639.820775
 20
704.788586
 42
0.133636
  0
VERTEX
  8
0
 10
1636.558803
 20
708.786195
 42
0.104621
  0
VERTEX
  8
0
 10
1631.273289
 20
711.097317
 42
0.017175
  0
VERTEX
  8
0
 10
1620.215932
 20
712.988280
 42
-0.019634
  0
VERTEX
  8
0
 10
1609.873169
 20
714.809420
 42
-0.009047
  0
VERTEX
  8
0
 10
1596.564918
 20
717.948625
 42
-0.008357
  0
VERTEX
  8
0
 10
1581.596056
 20
722.034353
 42
-0.007193
  0
VERTEX
  8
0
 10
1566.000000
 20
726.817082
 42
0.002626
  0
VERTEX
  8
0
 10
1557.373897
 20
729.548825
 42
0.001378
  0
VERTEX
  8
0
 10
1546.618750
 20
732.860259
 42
0.001371
  0
VERTEX
  8
0
 10
1535.578104
 20
736.193247
 42
0.002107
  0
VERTEX
  8
0
 10
1526.000000
 20
739.012181
 42
-0.002860
  0
VERTEX
  8
0
 10
1509.029801
 20
744.034471
 42
-0.004016
  0
VERTEX
  8
0
 10
1493.945749
 20
748.725083
 42
-0.004498
  0
VERTEX
  8
0
 10
1480.559541
 20
753.139040
 42
-0.006395
  0
VERTEX
  8
0
 10
1468.750000
 20
757.320461
 42
0.004743
  0
VERTEX
  8
0
 10
1465.010745
 20
758.658346
 42
0.008126
  0
VERTEX
  8
0
 10
1461.864063
 20
759.693675
 42
0.002812
  0
VERTEX
  8
0
 10
1459.203193
 20
760.505103
 42
0.502055
  0
SEQEND
  0
POLYLINE
  8
0
 66
1
 70
1
  0
VERTEX
  8
0
 10
1549.740891
 20
604.478395
 42
-0.072131
  0
VERTEX
  8
0
 10
1562.534768
 20
595.668592
 42
-0.063338
  0
VERTEX
  8
0
 10
1572.958099
 20
583.224206
 42
-0.071198
  0
VERTEX
  8
0
 10
1578.811640
 20
570.413023
 42
-0.194502
  0
VERTEX
  8
0
 10
1577.857337
 20
560.684259
 42
-0.036597
  0
VERTEX
  8
0
 10
1577.014949
 20
559.326020
 42
-0.002902
  0
VERTEX
  8
0
 10
1574.502994
 20
555.910376
 42
-0.003924
  0
VERTEX
  8
0
 10
1571.447509
 20
551.872340
 42
-0.002996
  0
VERTEX
  8
0
 10
1568.042885
 20
547.500000
 42
0.001030
  0
VERTEX
  8
0
 10
1563.100715
 20
541.204319
 42
0.000191
  0
VERTEX
  8
0
 10
1554.034475
 20
529.596875
 42
0.000205
  0
VERTEX
  8
0
 10
1543.443342
 20
516.014997
 42
0.000187
  0
VERTEX
  8
0
 10
1532.532085
 20
502.000000
 42
-0.001055
  0
VERTEX
  8
0
 10
1521.992974
 20
488.511388
 42
-0.001488
  0
VERTEX
  8
0
 10
1512.538847
 20
476.537395
 42
-0.000856
  0
VERTEX
  8
0
 10
1504.513880
 20
466.470855
 42
-0.020786
  0
VERTEX
  8
0
 10
1502.158823
 20
463.765601
 42
-0.078404
  0
VERTEX
  8
0
 10
1497.297458
 20
460.020334
 42
-0.101296
  0
VERTEX
  8
0
 10
1491.925044
 20
458.369940
 42
-0.090545
  0
VERTEX
  8
0
 10
1485.875077
 20
458.882107
 42
-0.051472
  0
VERTEX
  8
0
 10
1479.000000
 20
461.532148
 42
-0.078527
  0
VERTEX
  8
0
 10
1468.889168
 20
468.865320
 42
-0.085076
  0
VERTEX
  8
0
 10
1461.858889
 20
478.779207
 42
-0.095434
  0
VERTEX
  8
0
 10
1459.054277
 20
489.459667
 42
-0.134626
  0
VERTEX
  8
0
 10
1461.010223
 20
499.052541
 42
-0.014706
  0
VERTEX
  8
0
 10
1464.452177
 20
505.380163
 42
-0.000149
  0
VERTEX
  8
0
 10
1490.132293
 20
549.420830
 42
-0.000219
  0
VERTEX
  8
0
 10
1515.217268
 20
592.368190
 42
-0.009586
  0
VERTEX
  8
0
 10
1520.665175
 20
601.289037
 42
-0.103198
  0
VERTEX
  8
0
 10
1525.724532
 20
606.474553
 42
-0.121287
  0
VERTEX
  8
0
 10
1532.156460
 20
608.827126
 42
-0.096133
  0
VERTEX
  8
0
 10
1540.128861
 20
608.168537
 42
-0.046263
  0
SEQEND
  0
ENDSEC
  0
EOF
