  0
SECTION
  2
HEADER
  9
$ACADVER
  1
AC1006
  9
$EXTMIN
 10
0.000000
 20
0.000000
 30
0.000000
  9
$EXTMAX
 10
325.000000
 20
280.000000
 30
0.000000
  0
ENDSEC
  0
SECTION
  2
ENTITIES
  0
POLYLINE
  8
0
 66
1
 70
1
  0
VERTEX
  8
0
 10
146.729109
 20
213.317771
 42
0.000766
  0
VERTEX
  8
0
 10
140.785192
 20
203.020775
 42
0.001274
  0
VERTEX
  8
0
 10
135.810307
 20
194.320702
 42
0.000068
  0
VERTEX
  8
0
 10
131.354098
 20
186.478923
 42
0.327476
  0
VERTEX
  8
0
 10
131.374316
 20
186.305897
 42
0.267184
  0
VERTEX
  8
0
 10
131.546451
 20
186.252769
 42
0.000983
  0
VERTEX
  8
0
 10
133.677033
 20
186.739892
 42
0.004646
  0
VERTEX
  8
0
 10
136.107839
 20
187.324529
 42
0.002857
  0
VERTEX
  8
0
 10
138.959807
 20
188.055897
 42
-0.005474
  0
VERTEX
  8
0
 10
141.927096
 20
188.800308
 42
-0.006686
  0
VERTEX
  8
0
 10
144.718778
 20
189.428920
 42
-0.005680
  0
VERTEX
  8
0
 10
147.074678
 20
189.898513
 42
-0.046380
  0
VERTEX
  8
0
 10
148.166394
 20
190.000000
 42
0.208091
  0
VERTEX
  8
0
 10
149.281449
 20
190.485069
 42
0.025880
  0
VERTEX
  8
0
 10
151.020875
 20
192.556923
 42
0.021776
  0
VERTEX
  8
0
 10
153.229640
 20
195.764070
 42
0.007869
  0
VERTEX
  8
0
 10
156.093138
 20
200.500000
 42
-0.001989
  0
VERTEX
  8
0
 10
158.463039
 20
204.525743
 42
-0.003256
  0
VERTEX
  8
0
 10
160.506799
 20
207.915625
 42
-0.000494
  0
VERTEX
  8
0
 10
162.335891
 20
210.898625
 42
-0.260611
  0
VERTEX
  8
0
 10
162.517176
 20
211.000000
 42
-0.260386
  0
VERTEX
  8
0
 10
162.698550
 20
210.898676
 42
-0.000493
  0
VERTEX
  8
0
 10
164.531132
 20
207.915625
 42
-0.003252
  0
VERTEX
  8
0
 10
166.578825
 20
204.525742
 42
-0.001987
  0
VERTEX
  8
0
 10
168.953397
 20
200.500000
 42
0.008007
  0
VERTEX
  8
0
 10
171.789757
 20
195.821016
 42
0.021161
  0
VERTEX
  8
0
 10
174.011125
 20
192.596856
 42
0.024053
  0
VERTEX
  8
0
 10
175.771123
 20
190.480400
 42
0.210269
  0
VERTEX
  8
0
 10
176.862964
 20
190.000000
 42
-0.046643
  0
VERTEX
  8
0
 10
177.940673
 20
189.899245
 42
-0.005579
  0
VERTEX
  8
0
 10
180.289846
 20
189.428920
 42
-0.006611
  0
VERTEX
  8
0
 10
183.075039
 20
188.800317
 42
-0.005388
  0
VERTEX
  8
0
 10
186.040193
 20
188.055897
 42
0.002991
  0
VERTEX
  8
0
 10
188.893528
 20
187.324998
 42
0.004848
  0
VERTEX
  8
0
 10
191.328776
 20
186.741723
 42
0.001091
  0
VERTEX
  8
0
 10
193.459229
 20
186.258135
 42
0.257053
  0
VERTEX
  8
0
 10
193.645462
 20
186.312129
 42
0.339370
  0
VERTEX
  8
0
 10
193.702508
 20
186.744927
 42
0.000041
  0
VERTEX
  8
0
 10
178.833251
 20
212.512387
 42
0.000164
  0
VERTEX
  8
0
 10
164.330927
 20
237.620101
 42
0.060754
  0
VERTEX
  8
0
 10
163.052423
 20
239.317771
 42
0.485805
  0
VERTEX
  8
0
 10
162.507514
 20
239.262824
 42
0.001305
  0
VERTEX
  8
0
 10
157.932414
 20
232.017601
 42
0.005590
  0
VERTEX
  8
0
 10
152.743235
 20
223.543282
 42
0.003303
  0
SEQEND
  0
POLYLINE
  8
0
 66
1
 70
1
  0
VERTEX
  8
0
 10
148.500000
 20
176.586843
 42
0.029567
  0
VERTEX
  8
0
 10
137.892441
 20
173.465588
 42
0.029079
  0
VERTEX
  8
0
 10
127.666226
 20
169.100610
 42
0.027564
  0
VERTEX
  8
0
 10
117.529881
 20
163.341437
 42
0.021545
  0
VERTEX
  8
0
 10
107.188234
 20
156.038032
 42
0.022578
  0
VERTEX
  8
0
 10
99.665572
 20
149.661625
 42
0.011144
  0
VERTEX
  8
0
 10
90.672572
 20
140.931809
 42
0.004793
  0
VERTEX
  8
0
 10
81.995526
 20
131.954182
 42
0.192006
  0
VERTEX
  8
0
 10
81.000000
 20
129.457316
 42
0.208555
  0
VERTEX
  8
0
 10
82.030887
 20
127.093319
 42
0.006150
  0
VERTEX
  8
0
 10
90.254441
 20
119.643623
 42
0.013065
  0
VERTEX
  8
0
 10
99.090874
 20
112.236440
 42
0.020769
  0
VERTEX
  8
0
 10
107.063142
 20
106.424042
 42
0.015877
  0
VERTEX
  8
0
 10
115.450722
 20
101.204027
 42
0.019914
  0
VERTEX
  8
0
 10
123.552662
 20
96.933212
 42
0.020415
  0
VERTEX
  8
0
 10
131.794529
 20
93.405068
 42
0.018305
  0
VERTEX
  8
0
 10
140.599613
 20
90.418163
 42
0.014670
  0
VERTEX
  8
0
 10
145.881254
 20
89.006909
 42
0.027484
  0
VERTEX
  8
0
 10
150.232607
 20
88.229438
 42
0.022839
  0
VERTEX
  8
0
 10
155.142935
 20
87.854629
 42
0.007211
  0
VERTEX
  8
0
 10
162.500000
 20
87.736242
 42
0.007076
  0
VERTEX
  8
0
 10
169.921024
 20
87.828896
 42
0.023565
  0
VERTEX
  8
0
 10
174.781981
 20
88.188079
 42
0.028483
  0
VERTEX
  8
0
 10
179.087200
 20
88.961842
 42
0.014475
  0
VERTEX
  8
0
 10
184.400387
 20
90.396483
 42
0.018036
  0
VERTEX
  8
0
 10
193.229724
 20
93.408340
 42
0.020256
  0
VERTEX
  8
0
 10
201.476847
 20
96.946971
 42
0.019804
  0
VERTEX
  8
0
 10
209.569367
 20
101.216007
 42
0.015854
  0
VERTEX
  8
0
 10
217.936858
 20
106.424042
 42
0.020767
  0
VERTEX
  8
0
 10
225.940653
 20
112.259368
 42
0.013235
  0
VERTEX
  8
0
 10
234.770216
 20
119.665764
 42
0.006311
  0
VERTEX
  8
0
 10
242.960285
 20
127.099925
 42
0.208213
  0
VERTEX
  8
0
 10
244.000000
 20
129.488445
 42
0.192041
  0
VERTEX
  8
0
 10
243.053306
 20
131.862365
 42
0.003832
  0
VERTEX
  8
0
 10
233.875545
 20
141.392050
 42
0.009738
  0
VERTEX
  8
0
 10
224.694756
 20
150.421153
 42
0.025998
  0
VERTEX
  8
0
 10
217.707192
 20
156.374007
 42
0.029594
  0
VERTEX
  8
0
 10
204.447822
 20
165.337679
 42
0.038101
  0
VERTEX
  8
0
 10
191.266119
 20
171.854070
 42
0.041031
  0
VERTEX
  8
0
 10
178.128158
 20
175.931594
 42
0.046040
  0
VERTEX
  8
0
 10
165.000000
 20
177.606606
 42
0.010736
  0
VERTEX
  8
0
 10
160.163400
 20
177.671501
 42
0.013418
  0
VERTEX
  8
0
 10
155.676394
 20
177.514886
 42
0.014806
  0
VERTEX
  8
0
 10
151.716094
 20
177.152162
 42
0.026534
  0
SEQEND
  0
POLYLINE
  8
0
 66
1
 70
1
  0
VERTEX
  8
0
 10
178.644665
 20
160.885209
 42
-0.030991
  0
VERTEX
  8
0
 10
188.343491
 20
157.221378
 42
-0.029407
  0
VERTEX
  8
0
 10
197.692979
 20
152.330769
 42
-0.026913
  0
VERTEX
  8
0
 10
207.124977
 20
145.953102
 42
-0.018694
  0
VERTEX
  8
0
 10
217.083024
 20
137.805261
 42
0.000000
  0
VERTEX
  8
0
 10
225.096873
 20
130.732019
 42
0.000000
  0
VERTEX
  8
0
 10
222.976402
 20
128.474881
 42
-0.030598
  0
VERTEX
  8
0
 10
221.696361
 20
127.269350
 42
-0.005783
  0
VERTEX
  8
0
 10
219.205320
 20
125.243845
 42
-0.006159
  0
VERTEX
  8
0
 10
216.234928
 20
122.944202
 42
-0.005614
  0
VERTEX
  8
0
 10
213.116359
 20
120.645208
 42
-0.041276
  0
VERTEX
  8
0
 10
196.342979
 20
110.556039
 42
-0.052692
  0
VERTEX
  8
0
 10
179.429442
 20
104.310570
 42
-0.057274
  0
VERTEX
  8
0
 10
162.822942
 20
102.071575
 42
-0.066011
  0
VERTEX
  8
0
 10
146.951461
 20
103.860417
 42
-0.033227
  0
VERTEX
  8
0
 10
138.330846
 20
106.626540
 42
-0.020228
  0
VERTEX
  8
0
 10
128.547261
 20
110.964847
 42
-0.019876
  0
VERTEX
  8
0
 10
118.841247
 20
116.236689
 42
-0.025784
  0
VERTEX
  8
0
 10
110.422633
 20
121.859695
 42
-0.006908
  0
VERTEX
  8
0
 10
102.489097
 20
127.944139
 42
-0.193955
  0
VERTEX
  8
0
 10
101.222555
 20
130.158354
 42
-0.241572
  0
VERTEX
  8
0
 10
102.007884
 20
132.395270
 42
-0.010997
  0
VERTEX
  8
0
 10
108.204100
 20
138.020182
 42
-0.015950
  0
VERTEX
  8
0
 10
118.201082
 20
146.157648
 42
-0.026629
  0
VERTEX
  8
0
 10
127.164072
 20
152.264210
 42
-0.029640
  0
VERTEX
  8
0
 10
135.982075
 20
156.917491
 42
-0.027581
  0
VERTEX
  8
0
 10
145.500000
 20
160.621780
 42
-0.044759
  0
VERTEX
  8
0
 10
153.222364
 20
162.401826
 42
-0.032297
  0
VERTEX
  8
0
 10
162.043092
 20
163.042621
 42
-0.032283
  0
VERTEX
  8
0
 10
170.878296
 20
162.542043
 42
-0.044551
  0
SEQEND
  0
POLYLINE
  8
0
 66
1
 70
1
  0
VERTEX
  8
0
 10
79.183637
 20
97.250000
 42
0.000296
  0
VERTEX
  8
0
 10
68.572261
 20
78.880616
 42
0.001651
  0
VERTEX
  8
0
 10
62.918345
 20
69.004506
 42
0.001584
  0
VERTEX
  8
0
 10
59.322080
 20
62.627291
 42
0.037222
  0
VERTEX
  8
0
 10
58.447691
 20
60.750000
 42
0.514510
  0
VERTEX
  8
0
 10
59.225683
 20
59.585263
 42
0.003673
  0
VERTEX
  8
0
 10
72.980861
 20
59.252601
 42
0.003920
  0
VERTEX
  8
0
 10
96.867381
 20
59.037771
 42
0.000288
  0
VERTEX
  8
0
 10
162.393011
 20
59.000000
 42
0.000768
  0
VERTEX
  8
0
 10
202.528590
 20
59.061647
 42
0.001284
  0
VERTEX
  8
0
 10
236.290167
 20
59.252052
 42
0.000067
  0
VERTEX
  8
0
 10
266.649688
 20
59.505272
 42
0.411734
  0
VERTEX
  8
0
 10
267.000000
 20
59.858565
 42
0.130884
  0
VERTEX
  8
0
 10
266.651743
 20
61.166182
 42
0.000223
  0
VERTEX
  8
0
 10
255.002247
 20
81.464314
 42
0.000441
  0
VERTEX
  8
0
 10
243.619117
 20
101.237428
 42
0.062468
  0
VERTEX
  8
0
 10
241.994193
 20
103.383779
 42
0.309364
  0
VERTEX
  8
0
 10
241.103874
 20
103.562371
 42
0.033204
  0
VERTEX
  8
0
 10
239.124401
 20
102.560677
 42
0.019533
  0
VERTEX
  8
0
 10
235.944668
 20
100.504962
 42
0.003392
  0
VERTEX
  8
0
 10
230.120684
 20
96.349265
 42
0.374759
  0
VERTEX
  8
0
 10
230.058844
 20
96.081696
 42
0.001457
  0
VERTEX
  8
0
 10
231.653279
 20
93.113219
 42
0.006017
  0
VERTEX
  8
0
 10
233.547781
 20
89.709141
 42
0.003630
  0
VERTEX
  8
0
 10
235.870684
 20
85.718495
 42
-0.002693
  0
VERTEX
  8
0
 10
238.219944
 20
81.699911
 42
-0.004177
  0
VERTEX
  8
0
 10
240.199513
 20
78.204338
 42
-0.001358
  0
VERTEX
  8
0
 10
241.875647
 20
75.166638
 42
-0.126034
  0
VERTEX
  8
0
 10
242.000000
 20
74.681144
 42
-0.411622
  0
VERTEX
  8
0
 10
241.722458
 20
74.401134
 42
-0.000072
  0
VERTEX
  8
0
 10
218.646875
 20
74.200086
 42
-0.001339
  0
VERTEX
  8
0
 10
192.984326
 20
74.048946
 42
-0.000803
  0
VERTEX
  8
0
 10
162.500000
 20
74.000000
 42
-0.000681
  0
VERTEX
  8
0
 10
132.015668
 20
74.041503
 42
-0.001135
  0
VERTEX
  8
0
 10
106.353125
 20
74.169659
 42
-0.000052
  0
VERTEX
  8
0
 10
83.235783
 20
74.340010
 42
-0.412026
  0
VERTEX
  8
0
 10
83.000000
 20
74.577562
 42
-0.126149
  0
VERTEX
  8
0
 10
83.106941
 20
74.994687
 42
-0.000981
  0
VERTEX
  8
0
 10
84.797604
 20
78.060910
 42
-0.003524
  0
VERTEX
  8
0
 10
86.773855
 20
81.569944
 42
-0.002247
  0
VERTEX
  8
0
 10
89.119504
 20
85.624724
 42
0.003497
  0
VERTEX
  8
0
 10
91.439356
 20
89.658151
 42
0.005797
  0
VERTEX
  8
0
 10
93.332863
 20
93.096650
 42
0.001353
  0
VERTEX
  8
0
 10
94.930741
 20
96.099137
 42
0.375100
  0
VERTEX
  8
0
 10
94.869504
 20
96.359076
 42
-0.000282
  0
VERTEX
  8
0
 10
94.594888
 20
96.556075
 42
-0.000005
  0
VERTEX
  8
0
 10
93.100436
 20
97.629432
 42
-0.000012
  0
VERTEX
  8
0
 10
91.360217
 20
98.879398
 42
-0.000008
  0
VERTEX
  8
0
 10
89.366023
 20
100.311914
 42
0.004922
  0
VERTEX
  8
0
 10
87.357213
 20
101.725207
 42
0.007361
  0
VERTEX
  8
0
 10
85.572152
 20
102.916625
 42
0.003573
  0
VERTEX
  8
0
 10
84.041821
 20
103.890343
 42
0.140800
  0
VERTEX
  8
0
 10
83.660133
 20
104.000000
 42
0.247204
  0
VERTEX
  8
0
 10
83.329457
 20
103.825870
 42
0.003957
  0
VERTEX
  8
0
 10
82.109248
 20
102.017188
 42
0.009352
  0
VERTEX
  8
0
 10
80.721599
 20
99.837343
 42
0.005938
  0
SEQEND
  0
POLYLINE
  8
0
 66
1
 70
1
  0
VERTEX
  8
0
 10
90.272364
 20
9.000000
 42
0.008087
  0
VERTEX
  8
0
 10
90.298431
 20
7.388510
 42
0.039503
  0
VERTEX
  8
0
 10
90.399666
 20
6.482812
 42
0.611425
  0
VERTEX
  8
0
 10
90.546986
 20
6.439977
 42
0.142433
  0
VERTEX
  8
0
 10
90.705733
 20
6.750000
 42
0.029693
  0
VERTEX
  8
0
 10
90.840649
 20
7.774707
 42
0.017887
  0
VERTEX
  8
0
 10
90.884498
 20
9.000000
 42
0.017887
  0
VERTEX
  8
0
 10
90.840649
 20
10.225293
 42
0.029693
  0
VERTEX
  8
0
 10
90.705733
 20
11.250000
 42
0.142433
  0
VERTEX
  8
0
 10
90.546986
 20
11.560023
 42
0.611425
  0
VERTEX
  8
0
 10
90.399666
 20
11.517188
 42
0.039503
  0
VERTEX
  8
0
 10
90.298431
 20
10.611490
 42
0.008087
  0
SEQEND
  0
POLYLINE
  8
0
 66
1
 70
1
  0
VERTEX
  8
0
 10
140.151495
 20
9.000000
 42
0.010788
  0
VERTEX
  8
0
 10
140.141042
 20
7.019932
 42
0.058889
  0
VERTEX
  8
0
 10
140.283840
 20
5.960161
 42
0.341260
  0
VERTEX
  8
0
 10
140.573033
 20
5.735031
 42
0.258106
  0
VERTEX
  8
0
 10
140.939097
 20
5.935698
 42
-0.050353
  0
VERTEX
  8
0
 10
141.504660
 20
6.657253
 42
-0.204112
  0
VERTEX
  8
0
 10
142.007377
 20
6.871396
 42
-0.145323
  0
VERTEX
  8
0
 10
142.623071
 20
6.688587
 42
-0.022253
  0
VERTEX
  8
0
 10
143.673785
 20
5.935698
 42
0.001433
  0
VERTEX
  8
0
 10
144.858565
 20
5.009754
 42
0.299722
  0
VERTEX
  8
0
 10
144.997912
 20
4.998847
 42
0.459755
  0
VERTEX
  8
0
 10
145.019944
 20
5.105012
 42
0.001773
  0
VERTEX
  8
0
 10
144.163910
 20
6.206195
 42
-0.048977
  0
VERTEX
  8
0
 10
143.700139
 20
6.935407
 42
-0.054805
  0
VERTEX
  8
0
 10
143.407717
 20
7.714448
 42
-0.062379
  0
VERTEX
  8
0
 10
143.318400
 20
8.425314
 42
-0.139384
  0
VERTEX
  8
0
 10
143.465848
 20
8.944741
 42
0.089504
  0
VERTEX
  8
0
 10
143.610918
 20
9.313244
 42
0.324940
  0
VERTEX
  8
0
 10
143.511584
 20
9.528788
 42
0.182551
  0
VERTEX
  8
0
 10
143.187889
 20
9.577535
 42
0.038708
  0
VERTEX
  8
0
 10
142.631508
 20
9.412091
 42
-0.117760
  0
VERTEX
  8
0
 10
141.964451
 20
9.323546
 42
-0.161633
  0
VERTEX
  8
0
 10
141.416476
 20
9.570209
 42
-0.115183
  0
VERTEX
  8
0
 10
140.998876
 20
10.183267
 42
-0.045105
  0
VERTEX
  8
0
 10
140.715752
 20
11.173545
 42
0.133457
  0
VERTEX
  8
0
 10
140.539267
 20
11.535496
 42
0.602349
  0
VERTEX
  8
0
 10
140.367104
 20
11.494729
 42
0.047451
  0
VERTEX
  8
0
 10
140.224899
 20
10.608840
 42
0.009370
  0
SEQEND
  0
POLYLINE
  8
0
 66
1
 70
1
  0
VERTEX
  8
0
 10
178.507079
 20
12.011454
 42
0.114400
  0
VERTEX
  8
0
 10
178.393111
 20
11.674071
 42
0.329480
  0
VERTEX
  8
0
 10
178.512472
 20
11.474315
 42
0.155351
  0
VERTEX
  8
0
 10
178.868281
 20
11.443138
 42
0.036408
  0
VERTEX
  8
0
 10
179.448062
 20
11.618443
 42
-0.204141
  0
VERTEX
  8
0
 10
180.526451
 20
11.579236
 42
-0.330090
  0
VERTEX
  8
0
 10
180.942153
 20
10.807416
 42
-0.111547
  0
VERTEX
  8
0
 10
180.329887
 20
9.208900
 42
-0.041581
  0
VERTEX
  8
0
 10
178.825686
 20
7.314451
 42
0.000000
  0
VERTEX
  8
0
 10
176.651372
 20
5.000000
 42
0.000000
  0
VERTEX
  8
0
 10
179.575686
 20
5.116001
 42
0.010095
  0
VERTEX
  8
0
 10
180.768991
 20
5.187489
 42
0.103168
  0
VERTEX
  8
0
 10
181.241618
 20
5.326281
 42
0.614976
  0
VERTEX
  8
0
 10
181.237617
 20
5.498996
 42
0.048029
  0
VERTEX
  8
0
 10
180.674524
 20
5.703861
 42
-0.026955
  0
VERTEX
  8
0
 10
179.615834
 20
6.039309
 42
-0.297123
  0
VERTEX
  8
0
 10
179.365196
 20
6.381320
 42
-0.188232
  0
VERTEX
  8
0
 10
179.525551
 20
6.869593
 42
-0.011535
  0
VERTEX
  8
0
 10
180.545805
 20
8.050614
 42
0.053192
  0
VERTEX
  8
0
 10
181.150976
 20
8.881879
 42
0.052377
  0
VERTEX
  8
0
 10
181.570858
 20
9.826325
 42
0.057091
  0
VERTEX
  8
0
 10
181.755191
 20
10.737440
 42
0.113476
  0
VERTEX
  8
0
 10
181.652666
 20
11.462755
 42
0.094425
  0
VERTEX
  8
0
 10
181.025488
 20
12.475003
 42
0.165257
  0
VERTEX
  8
0
 10
180.169422
 20
12.942954
 42
0.182717
  0
VERTEX
  8
0
 10
179.269181
 20
12.770987
 42
0.117290
  0
SEQEND
  0
POLYLINE
  8
0
 66
1
 70
1
  0
VERTEX
  8
0
 10
184.591857
 20
12.148627
 42
0.179821
  0
VERTEX
  8
0
 10
184.527097
 20
11.825399
 42
0.266493
  0
VERTEX
  8
0
 10
184.704096
 20
11.606063
 42
0.118812
  0
VERTEX
  8
0
 10
185.158860
 20
11.544563
 42
0.038440
  0
VERTEX
  8
0
 10
185.831953
 20
11.666306
 42
-0.081271
  0
VERTEX
  8
0
 10
186.758436
 20
11.753271
 42
-0.228744
  0
VERTEX
  8
0
 10
187.308999
 20
11.439248
 42
-0.129737
  0
VERTEX
  8
0
 10
187.595534
 20
10.641098
 42
-0.021662
  0
VERTEX
  8
0
 10
187.666667
 20
9.000000
 42
-0.020852
  0
VERTEX
  8
0
 10
187.596034
 20
7.307091
 42
-0.141298
  0
VERTEX
  8
0
 10
187.300627
 20
6.532011
 42
-0.234128
  0
VERTEX
  8
0
 10
186.722507
 20
6.241282
 42
-0.065534
  0
VERTEX
  8
0
 10
185.689283
 20
6.371003
 42
0.015417
  0
VERTEX
  8
0
 10
184.768619
 20
6.581670
 42
0.189788
  0
VERTEX
  8
0
 10
184.420973
 20
6.518050
 42
0.434996
  0
VERTEX
  8
0
 10
184.376983
 20
6.294231
 42
0.039734
  0
VERTEX
  8
0
 10
184.788732
 20
5.811268
 42
0.152599
  0
VERTEX
  8
0
 10
186.189758
 20
5.077354
 42
0.229078
  0
VERTEX
  8
0
 10
187.496024
 20
5.439869
 42
0.153674
  0
VERTEX
  8
0
 10
188.393121
 20
6.920486
 42
0.072635
  0
VERTEX
  8
0
 10
188.606676
 20
9.167252
 42
0.083940
  0
VERTEX
  8
0
 10
188.142851
 20
11.263689
 42
0.137565
  0
VERTEX
  8
0
 10
187.037389
 20
12.692071
 42
0.220805
  0
VERTEX
  8
0
 10
185.724446
 20
12.963837
 42
0.199249
  0
SEQEND
  0
POLYLINE
  8
0
 66
1
 70
1
  0
VERTEX
  8
0
 10
191.413102
 20
10.507720
 42
0.070267
  0
VERTEX
  8
0
 10
190.475056
 20
8.513825
 42
0.124201
  0
VERTEX
  8
0
 10
190.380562
 20
6.708630
 42
0.177221
  0
VERTEX
  8
0
 10
191.125324
 20
5.481915
 42
0.170205
  0
VERTEX
  8
0
 10
192.500000
 20
5.000000
 42
0.169155
  0
VERTEX
  8
0
 10
193.870825
 20
5.477425
 42
0.161210
  0
VERTEX
  8
0
 10
194.681514
 20
6.712508
 42
0.152192
  0
VERTEX
  8
0
 10
194.618832
 20
8.244728
 42
0.150233
  0
VERTEX
  8
0
 10
193.697278
 20
9.479405
 42
-0.040551
  0
VERTEX
  8
0
 10
192.956373
 20
10.119369
 42
-0.146900
  0
VERTEX
  8
0
 10
192.668823
 20
10.664234
 42
-0.179690
  0
VERTEX
  8
0
 10
192.757677
 20
11.208923
 42
-0.067128
  0
VERTEX
  8
0
 10
193.234798
 20
11.834798
 42
0.027494
  0
VERTEX
  8
0
 10
193.636168
 20
12.282915
 42
0.069774
  0
VERTEX
  8
0
 10
193.858869
 20
12.657722
 42
0.177388
  0
VERTEX
  8
0
 10
193.869603
 20
12.892546
 42
0.327331
  0
VERTEX
  8
0
 10
193.723053
 20
13.000000
 42
0.185549
  0
VERTEX
  8
0
 10
193.369753
 20
12.864216
 42
0.022378
  0
VERTEX
  8
0
 10
192.765264
 20
12.267893
 42
0.024182
  0
VERTEX
  8
0
 10
192.087942
 20
11.462269
 42
0.017677
  0
SEQEND
  0
POLYLINE
  8
0
 66
1
 70
1
  0
VERTEX
  8
0
 10
194.000000
 20
7.500000
 42
-0.099038
  0
VERTEX
  8
0
 10
193.885486
 20
6.927543
 42
-0.097945
  0
VERTEX
  8
0
 10
193.559375
 20
6.440625
 42
-0.097945
  0
VERTEX
  8
0
 10
193.072457
 20
6.114514
 42
-0.099038
  0
VERTEX
  8
0
 10
192.500000
 20
6.000000
 42
-0.099038
  0
VERTEX
  8
0
 10
191.927543
 20
6.114514
 42
-0.097945
  0
VERTEX
  8
0
 10
191.440625
 20
6.440625
 42
-0.097945
  0
VERTEX
  8
0
 10
191.114514
 20
6.927543
 42
-0.099038
  0
VERTEX
  8
0
 10
191.000000
 20
7.500000
 42
-0.099038
  0
VERTEX
  8
0
 10
191.114514
 20
8.072457
 42
-0.097945
  0
VERTEX
  8
0
 10
191.440625
 20
8.559375
 42
-0.097945
  0
VERTEX
  8
0
 10
191.927543
 20
8.885486
 42
-0.099038
  0
VERTEX
  8
0
 10
192.500000
 20
9.000000
 42
-0.099038
  0
VERTEX
  8
0
 10
193.072457
 20
8.885486
 42
-0.097945
  0
VERTEX
  8
0
 10
193.559375
 20
8.559375
 42
-0.097945
  0
VERTEX
  8
0
 10
193.885486
 20
8.072457
 42
-0.099038
  0
SEQEND
  0
POLYLINE
  8
0
 66
1
 70
1
  0
VERTEX
  8
0
 10
197.872445
 20
11.308042
 42
0.003836
  0
VERTEX
  8
0
 10
197.083559
 20
10.320100
 42
0.171666
  0
VERTEX
  8
0
 10
197.000574
 20
10.074743
 42
0.565945
  0
VERTEX
  8
0
 10
197.116120
 20
10.007520
 42
0.009784
  0
VERTEX
  8
0
 10
197.884348
 20
10.450090
 42
-0.099826
  0
VERTEX
  8
0
 10
198.532524
 20
10.681733
 42
-0.346591
  0
VERTEX
  8
0
 10
198.892710
 20
10.474052
 42
-0.118062
  0
VERTEX
  8
0
 10
198.998125
 20
9.754476
 42
-0.014039
  0
VERTEX
  8
0
 10
198.807540
 20
8.142048
 42
0.027624
  0
VERTEX
  8
0
 10
198.690458
 20
6.851760
 42
0.059278
  0
VERTEX
  8
0
 10
198.773329
 20
5.857508
 42
0.094820
  0
VERTEX
  8
0
 10
199.033934
 20
5.224686
 42
0.252966
  0
VERTEX
  8
0
 10
199.449619
 20
5.000000
 42
0.281312
  0
VERTEX
  8
0
 10
199.883386
 20
5.265020
 42
0.073978
  0
VERTEX
  8
0
 10
200.155702
 20
6.069985
 42
0.047604
  0
VERTEX
  8
0
 10
200.260808
 20
7.327566
 42
0.020834
  0
VERTEX
  8
0
 10
200.171390
 20
9.000000
 42
0.006328
  0
VERTEX
  8
0
 10
200.005524
 20
10.533644
 42
0.010419
  0
VERTEX
  8
0
 10
199.821931
 20
11.825000
 42
0.004305
  0
VERTEX
  8
0
 10
199.636573
 20
12.900491
 42
0.362627
  0
VERTEX
  8
0
 10
199.517409
 20
13.000000
 42
0.193690
  0
VERTEX
  8
0
 10
199.356756
 20
12.935340
 42
0.008549
  0
VERTEX
  8
0
 10
198.921786
 20
12.502987
 42
0.013393
  0
VERTEX
  8
0
 10
198.418098
 20
11.956353
 42
0.009061
  0
SEQEND
  0
POLYLINE
  8
0
 66
1
 70
1
  0
VERTEX
  8
0
 10
205.087703
 20
13.000000
 42
0.080134
  0
VERTEX
  8
0
 10
204.988418
 20
12.648269
 42
0.004756
  0
VERTEX
  8
0
 10
204.871402
 20
11.545137
 42
0.007064
  0
VERTEX
  8
0
 10
204.762648
 20
10.222507
 42
0.005145
  0
VERTEX
  8
0
 10
204.677666
 20
8.749402
 42
0.017957
  0
VERTEX
  8
0
 10
204.654453
 20
6.717630
 42
0.107783
  0
VERTEX
  8
0
 10
204.903466
 20
5.696641
 42
0.197126
  0
VERTEX
  8
0
 10
205.477865
 20
5.185103
 42
0.086784
  0
VERTEX
  8
0
 10
206.500000
 20
5.014715
 42
0.024327
  0
VERTEX
  8
0
 10
207.301312
 20
5.060118
 42
0.160074
  0
VERTEX
  8
0
 10
207.662983
 20
5.222803
 42
0.397226
  0
VERTEX
  8
0
 10
207.680865
 20
5.462661
 42
0.080779
  0
VERTEX
  8
0
 10
207.331352
 20
5.774051
 42
-0.128366
  0
VERTEX
  8
0
 10
206.852623
 20
6.289076
 42
-0.033608
  0
VERTEX
  8
0
 10
206.382234
 20
7.324654
 42
-0.031867
  0
VERTEX
  8
0
 10
205.988653
 20
8.617749
 42
-0.027921
  0
VERTEX
  8
0
 10
205.741390
 20
10.008738
 42
0.007759
  0
VERTEX
  8
0
 10
205.563231
 20
11.314399
 42
0.016006
  0
VERTEX
  8
0
 10
205.375577
 20
12.327567
 42
0.019818
  0
VERTEX
  8
0
 10
205.202555
 20
12.991911
 42
0.688601
  0
SEQEND
  0
POLYLINE
  8
0
 66
1
 70
1
  0
VERTEX
  8
0
 10
210.512410
 20
11.833158
 42
0.039377
  0
VERTEX
  8
0
 10
209.772981
 20
9.188287
 42
0.094760
  0
VERTEX
  8
0
 10
209.762974
 20
7.163322
 42
0.149801
  0
VERTEX
  8
0
 10
210.456125
 20
5.836451
 42
0.163821
  0
VERTEX
  8
0
 10
211.750000
 20
5.183684
 42
0.040099
  0
VERTEX
  8
0
 10
212.611838
 20
5.129892
 42
0.064468
  0
VERTEX
  8
0
 10
213.339063
 20
5.237258
 42
0.091246
  0
VERTEX
  8
0
 10
213.828496
 20
5.478119
 42
0.237174
  0
VERTEX
  8
0
 10
214.000000
 20
5.819338
 42
0.134994
  0
VERTEX
  8
0
 10
213.902560
 20
6.173665
 42
0.113923
  0
VERTEX
  8
0
 10
213.632812
 20
6.455437
 42
0.097780
  0
VERTEX
  8
0
 10
213.227596
 20
6.619824
 42
0.075419
  0
VERTEX
  8
0
 10
212.750000
 20
6.638889
 42
-0.078962
  0
VERTEX
  8
0
 10
212.272518
 20
6.661319
 42
-0.100004
  0
VERTEX
  8
0
 10
211.867188
 20
6.834549
 42
-0.113932
  0
VERTEX
  8
0
 10
211.597262
 20
7.129762
 42
-0.129160
  0
VERTEX
  8
0
 10
211.500000
 20
7.500000
 42
-0.135334
  0
VERTEX
  8
0
 10
211.601855
 20
7.869417
 42
-0.114219
  0
VERTEX
  8
0
 10
211.883702
 20
8.162699
 42
-0.097886
  0
VERTEX
  8
0
 10
212.307138
 20
8.333140
 42
-0.075278
  0
VERTEX
  8
0
 10
212.806218
 20
8.351741
 42
0.340723
  0
VERTEX
  8
0
 10
213.621509
 20
8.844620
 42
0.124592
  0
VERTEX
  8
0
 10
213.796863
 20
10.270505
 42
0.093542
  0
VERTEX
  8
0
 10
213.269562
 20
11.904911
 42
0.190773
  0
VERTEX
  8
0
 10
212.250526
 20
12.754830
 42
0.106068
  0
VERTEX
  8
0
 10
211.736376
 20
12.809948
 42
0.096048
  0
VERTEX
  8
0
 10
211.224546
 20
12.653827
 42
0.092703
  0
VERTEX
  8
0
 10
210.793869
 20
12.310902
 42
0.090785
  0
SEQEND
  0
POLYLINE
  8
0
 66
1
 70
1
  0
VERTEX
  8
0
 10
213.000000
 20
11.000000
 42
-0.099038
  0
VERTEX
  8
0
 10
212.923658
 20
10.618362
 42
-0.097945
  0
VERTEX
  8
0
 10
212.706250
 20
10.293750
 42
-0.097945
  0
VERTEX
  8
0
 10
212.381638
 20
10.076342
 42
-0.099038
  0
VERTEX
  8
0
 10
212.000000
 20
10.000000
 42
-0.099038
  0
VERTEX
  8
0
 10
211.618362
 20
10.076342
 42
-0.097945
  0
VERTEX
  8
0
 10
211.293750
 20
10.293750
 42
-0.097945
  0
VERTEX
  8
0
 10
211.076342
 20
10.618362
 42
-0.099038
  0
VERTEX
  8
0
 10
211.000000
 20
11.000000
 42
-0.099038
  0
VERTEX
  8
0
 10
211.076342
 20
11.381638
 42
-0.097945
  0
VERTEX
  8
0
 10
211.293750
 20
11.706250
 42
-0.097945
  0
VERTEX
  8
0
 10
211.618362
 20
11.923658
 42
-0.099038
  0
VERTEX
  8
0
 10
212.000000
 20
12.000000
 42
-0.099038
  0
VERTEX
  8
0
 10
212.381638
 20
11.923658
 42
-0.097945
  0
VERTEX
  8
0
 10
212.706250
 20
11.706250
 42
-0.097945
  0
VERTEX
  8
0
 10
212.923658
 20
11.381638
 42
-0.099038
  0
SEQEND
  0
POLYLINE
  8
0
 66
1
 70
1
  0
VERTEX
  8
0
 10
216.666667
 20
12.333333
 42
0.125796
  0
VERTEX
  8
0
 10
216.083853
 20
11.350208
 42
0.128981
  0
VERTEX
  8
0
 10
216.051798
 20
10.217789
 42
0.151543
  0
VERTEX
  8
0
 10
216.564795
 20
9.340323
 42
0.187387
  0
VERTEX
  8
0
 10
217.440983
 20
9.000000
 42
-0.103296
  0
VERTEX
  8
0
 10
218.864779
 20
8.702684
 42
-0.264150
  0
VERTEX
  8
0
 10
219.474177
 20
7.888579
 42
-0.240857
  0
VERTEX
  8
0
 10
219.109318
 20
6.878526
 42
-0.092770
  0
VERTEX
  8
0
 10
217.814245
 20
6.054928
 42
0.017802
  0
VERTEX
  8
0
 10
216.940237
 20
5.667737
 42
0.115893
  0
VERTEX
  8
0
 10
216.569932
 20
5.366210
 42
0.486130
  0
VERTEX
  8
0
 10
216.621360
 20
5.163380
 42
0.094435
  0
VERTEX
  8
0
 10
217.050000
 20
5.063386
 42
0.063195
  0
VERTEX
  8
0
 10
217.725609
 20
5.121190
 42
0.041427
  0
VERTEX
  8
0
 10
218.474232
 20
5.348165
 42
0.041299
  0
VERTEX
  8
0
 10
219.178726
 20
5.696975
 42
0.060852
  0
VERTEX
  8
0
 10
219.721855
 20
6.121855
 42
0.141688
  0
VERTEX
  8
0
 10
220.353860
 20
7.268096
 42
0.139011
  0
VERTEX
  8
0
 10
220.282915
 20
8.584046
 42
0.147947
  0
VERTEX
  8
0
 10
219.544462
 20
9.609996
 42
0.164756
  0
VERTEX
  8
0
 10
218.393011
 20
10.000000
 42
-0.131291
  0
VERTEX
  8
0
 10
217.369023
 20
10.273597
 42
-0.309858
  0
VERTEX
  8
0
 10
217.043474
 20
10.951565
 42
-0.206657
  0
VERTEX
  8
0
 10
217.553398
 20
11.763356
 42
-0.086905
  0
VERTEX
  8
0
 10
218.750000
 20
12.310674
 42
0.004951
  0
VERTEX
  8
0
 10
219.704115
 20
12.570130
 42
0.258667
  0
VERTEX
  8
0
 10
219.834849
 20
12.699888
 42
0.467942
  0
VERTEX
  8
0
 10
219.761113
 20
12.809436
 42
0.007468
  0
VERTEX
  8
0
 10
218.916667
 20
12.883999
 42
0.040297
  0
VERTEX
  8
0
 10
218.261577
 20
12.879139
 42
0.038032
  0
VERTEX
  8
0
 10
217.602604
 20
12.770091
 42
0.040400
  0
VERTEX
  8
0
 10
217.034112
 20
12.581208
 42
0.096261
  0
SEQEND
  0
POLYLINE
  8
0
 66
1
 70
1
  0
VERTEX
  8
0
 10
222.417895
 20
11.646633
 42
0.080422
  0
VERTEX
  8
0
 10
221.980146
 20
9.550833
 42
0.090195
  0
VERTEX
  8
0
 10
222.256196
 20
7.510688
 42
0.114023
  0
VERTEX
  8
0
 10
223.139738
 20
6.041587
 42
0.203301
  0
VERTEX
  8
0
 10
224.416667
 20
5.500000
 42
0.063054
  0
VERTEX
  8
0
 10
225.168720
 20
5.595219
 42
0.069696
  0
VERTEX
  8
0
 10
225.846198
 20
5.874531
 42
0.079114
  0
VERTEX
  8
0
 10
226.348865
 20
6.287811
 42
0.131976
  0
VERTEX
  8
0
 10
226.591667
 20
6.775000
 42
0.013819
  0
VERTEX
  8
0
 10
226.671476
 20
7.233682
 42
0.236791
  0
VERTEX
  8
0
 10
226.624792
 20
7.374375
 42
0.485648
  0
VERTEX
  8
0
 10
226.528020
 20
7.362824
 42
0.021854
  0
VERTEX
  8
0
 10
226.341667
 20
7.025000
 42
-0.156246
  0
VERTEX
  8
0
 10
225.378467
 20
6.032419
 42
-0.261803
  0
VERTEX
  8
0
 10
224.247899
 20
6.056933
 42
-0.173838
  0
VERTEX
  8
0
 10
223.321669
 20
7.172872
 42
-0.087354
  0
VERTEX
  8
0
 10
223.000000
 20
9.000000
 42
-0.087509
  0
VERTEX
  8
0
 10
223.348333
 20
10.975025
 42
-0.220049
  0
VERTEX
  8
0
 10
224.354472
 20
11.987333
 42
-0.298549
  0
VERTEX
  8
0
 10
225.514541
 20
11.721834
 42
-0.120293
  0
VERTEX
  8
0
 10
226.369258
 20
10.250000
 42
0.002628
  0
VERTEX
  8
0
 10
226.656245
 20
9.295050
 42
0.522694
  0
VERTEX
  8
0
 10
226.737042
 20
9.269139
 42
0.258596
  0
VERTEX
  8
0
 10
226.789516
 20
9.389298
 42
0.001975
  0
VERTEX
  8
0
 10
226.681099
 20
10.488516
 42
0.150919
  0
VERTEX
  8
0
 10
226.071481
 20
11.923024
 42
0.152190
  0
VERTEX
  8
0
 10
224.760950
 20
12.758076
 42
0.175993
  0
VERTEX
  8
0
 10
223.348884
 20
12.640368
 42
0.195641
  0
SEQEND
  0
POLYLINE
  8
0
 66
1
 70
1
  0
VERTEX
  8
0
 10
230.000000
 20
12.000000
 42
0.021149
  0
VERTEX
  8
0
 10
229.378141
 20
11.559769
 42
0.167501
  0
VERTEX
  8
0
 10
229.187500
 20
11.269141
 42
0.405416
  0
VERTEX
  8
0
 10
229.295085
 20
11.081977
 42
0.066727
  0
VERTEX
  8
0
 10
229.750000
 20
11.015313
 42
-0.184554
  0
VERTEX
  8
0
 10
230.227303
 20
10.826192
 42
-0.088674
  0
VERTEX
  8
0
 10
230.632812
 20
10.294602
 42
-0.069139
  0
VERTEX
  8
0
 10
230.907730
 20
9.509224
 42
-0.049705
  0
VERTEX
  8
0
 10
231.000000
 20
8.583333
 42
-0.048059
  0
VERTEX
  8
0
 10
230.907335
 20
7.621490
 42
-0.053115
  0
VERTEX
  8
0
 10
230.632812
 20
6.728399
 42
-0.060057
  0
VERTEX
  8
0
 10
230.229096
 20
6.030300
 42
-0.136586
  0
VERTEX
  8
0
 10
229.750000
 20
5.662281
 42
0.099595
  0
VERTEX
  8
0
 10
229.450031
 20
5.464865
 42
0.457610
  0
VERTEX
  8
0
 10
229.462450
 20
5.282867
 42
0.129105
  0
VERTEX
  8
0
 10
229.813468
 20
5.139585
 42
0.022958
  0
VERTEX
  8
0
 10
230.526426
 20
5.078947
 42
0.081746
  0
VERTEX
  8
0
 10
231.589591
 20
5.211666
 42
0.225262
  0
VERTEX
  8
0
 10
232.137949
 20
5.702843
 42
0.109622
  0
VERTEX
  8
0
 10
232.324190
 20
6.733053
 42
0.013889
  0
VERTEX
  8
0
 10
232.171390
 20
9.000000
 42
0.003400
  0
VERTEX
  8
0
 10
232.014702
 20
10.532690
 42
0.005669
  0
VERTEX
  8
0
 10
231.859400
 20
11.820502
 42
0.001290
  0
VERTEX
  8
0
 10
231.709335
 20
12.934261
 42
0.405085
  0
VERTEX
  8
0
 10
231.644965
 20
12.984687
 42
0.106662
  0
VERTEX
  8
0
 10
231.545819
 20
12.952078
 42
0.002278
  0
VERTEX
  8
0
 10
231.101958
 20
12.689119
 42
0.005148
  0
VERTEX
  8
0
 10
230.585319
 20
12.372584
 42
0.003437
  0
SEQEND
  0
POLYLINE
  8
0
 66
1
 70
1
  0
VERTEX
  8
0
 10
236.740367
 20
12.295529
 42
-0.032445
  0
VERTEX
  8
0
 10
238.046448
 20
11.954509
 42
-0.262806
  0
VERTEX
  8
0
 10
238.446914
 20
11.512867
 42
-0.164335
  0
VERTEX
  8
0
 10
238.372332
 20
10.792786
 42
-0.012072
  0
VERTEX
  8
0
 10
237.490367
 20
8.981371
 42
0.007546
  0
VERTEX
  8
0
 10
236.070295
 20
6.130613
 42
0.235736
  0
VERTEX
  8
0
 10
236.082498
 20
5.365803
 42
0.588601
  0
VERTEX
  8
0
 10
236.493042
 20
5.354375
 42
0.008433
  0
VERTEX
  8
0
 10
238.000000
 20
8.000000
 42
0.009773
  0
VERTEX
  8
0
 10
239.607811
 20
11.078095
 42
0.154924
  0
VERTEX
  8
0
 10
239.787123
 20
12.230122
 42
0.338282
  0
VERTEX
  8
0
 10
239.191788
 20
12.802117
 42
0.040645
  0
VERTEX
  8
0
 10
237.250000
 20
12.863818
 42
0.002124
  0
VERTEX
  8
0
 10
235.611114
 20
12.775679
 42
0.197973
  0
VERTEX
  8
0
 10
235.400505
 20
12.674237
 42
0.577905
  0
VERTEX
  8
0
 10
235.439024
 20
12.556823
 42
0.003810
  0
SEQEND
  0
POLYLINE
  8
0
 66
1
 70
1
  0
VERTEX
  8
0
 10
102.839024
 20
11.505691
 42
0.220168
  0
VERTEX
  8
0
 10
102.487457
 20
10.548452
 42
0.020533
  0
VERTEX
  8
0
 10
102.802684
 20
7.988103
 42
0.018624
  0
VERTEX
  8
0
 10
103.315281
 20
5.469791
 42
0.346090
  0
VERTEX
  8
0
 10
103.912699
 20
5.000000
 42
0.354395
  0
VERTEX
  8
0
 10
104.156782
 20
5.197853
 42
0.032374
  0
VERTEX
  8
0
 10
104.276946
 20
6.028125
 42
0.030600
  0
VERTEX
  8
0
 10
104.297088
 20
7.158107
 42
0.018217
  0
VERTEX
  8
0
 10
104.189793
 20
8.500000
 42
0.004392
  0
VERTEX
  8
0
 10
103.888536
 20
10.897449
 42
0.072268
  0
VERTEX
  8
0
 10
103.667484
 20
11.671799
 42
0.384612
  0
VERTEX
  8
0
 10
103.340890
 20
11.815340
 42
0.116815
  0
SEQEND
  0
POLYLINE
  8
0
 66
1
 70
1
  0
VERTEX
  8
0
 10
106.839024
 20
11.505691
 42
0.220168
  0
VERTEX
  8
0
 10
106.487457
 20
10.548452
 42
0.020533
  0
VERTEX
  8
0
 10
106.802684
 20
7.988103
 42
0.018624
  0
VERTEX
  8
0
 10
107.315281
 20
5.469791
 42
0.346090
  0
VERTEX
  8
0
 10
107.912699
 20
5.000000
 42
0.354395
  0
VERTEX
  8
0
 10
108.156782
 20
5.197853
 42
0.032374
  0
VERTEX
  8
0
 10
108.276946
 20
6.028125
 42
0.030600
  0
VERTEX
  8
0
 10
108.297088
 20
7.158107
 42
0.018217
  0
VERTEX
  8
0
 10
108.189793
 20
8.500000
 42
0.004392
  0
VERTEX
  8
0
 10
107.888536
 20
10.897449
 42
0.072268
  0
VERTEX
  8
0
 10
107.667484
 20
11.671799
 42
0.384612
  0
VERTEX
  8
0
 10
107.340890
 20
11.815340
 42
0.116815
  0
SEQEND
  0
POLYLINE
  8
0
 66
1
 70
1
  0
VERTEX
  8
0
 10
125.000000
 20
8.559017
 42
0.022774
  0
VERTEX
  8
0
 10
125.080503
 20
6.792529
 42
0.092165
  0
VERTEX
  8
0
 10
125.371852
 20
5.759497
 42
0.162074
  0
VERTEX
  8
0
 10
125.914243
 20
5.211280
 42
0.120106
  0
VERTEX
  8
0
 10
126.750000
 20
5.015313
 42
0.014295
  0
VERTEX
  8
0
 10
127.657336
 20
5.049207
 42
0.289375
  0
VERTEX
  8
0
 10
127.870360
 20
5.204294
 42
0.341310
  0
VERTEX
  8
0
 10
127.803419
 20
5.437370
 42
0.017202
  0
VERTEX
  8
0
 10
127.106601
 20
5.912955
 42
-0.104575
  0
VERTEX
  8
0
 10
126.590978
 20
6.415830
 42
-0.078634
  0
VERTEX
  8
0
 10
126.257950
 20
7.137072
 42
-0.071255
  0
VERTEX
  8
0
 10
126.142772
 20
7.995593
 42
-0.061796
  0
VERTEX
  8
0
 10
126.262721
 20
8.896646
 42
0.043970
  0
VERTEX
  8
0
 10
126.406011
 20
9.742064
 42
0.053353
  0
VERTEX
  8
0
 10
126.384646
 20
10.545237
 42
0.062368
  0
VERTEX
  8
0
 10
126.214069
 20
11.192251
 42
0.160065
  0
VERTEX
  8
0
 10
125.906120
 20
11.558021
 42
0.388745
  0
VERTEX
  8
0
 10
125.561050
 20
11.492388
 42
0.087192
  0
VERTEX
  8
0
 10
125.266173
 20
10.908069
 42
0.049227
  0
VERTEX
  8
0
 10
125.064170
 20
9.885563
 42
0.024173
  0
SEQEND
  0
POLYLINE
  8
0
 66
1
 70
1
  0
VERTEX
  8
0
 10
85.458881
 20
9.933469
 42
0.049364
  0
VERTEX
  8
0
 10
85.242038
 20
9.490157
 42
0.059701
  0
VERTEX
  8
0
 10
85.133355
 20
9.040231
 42
0.070517
  0
VERTEX
  8
0
 10
85.142323
 20
8.651151
 42
0.156651
  0
VERTEX
  8
0
 10
85.276326
 20
8.390341
 42
0.281567
  0
VERTEX
  8
0
 10
85.505460
 20
8.335123
 42
0.118528
  0
VERTEX
  8
0
 10
85.786868
 20
8.507038
 42
0.069269
  0
VERTEX
  8
0
 10
86.083816
 20
8.899181
 42
0.035865
  0
VERTEX
  8
0
 10
86.345077
 20
9.456872
 42
0.029555
  0
VERTEX
  8
0
 10
86.696703
 20
10.564815
 42
0.344086
  0
VERTEX
  8
0
 10
86.525317
 20
10.954259
 42
0.361950
  0
VERTEX
  8
0
 10
86.120758
 20
10.871774
 42
0.030391
  0
SEQEND
  0
POLYLINE
  8
0
 66
1
 70
1
  0
VERTEX
  8
0
 10
92.642392
 20
10.000000
 42
-0.034221
  0
VERTEX
  8
0
 10
93.115763
 20
9.281353
 42
-0.019319
  0
VERTEX
  8
0
 10
93.593615
 20
8.353125
 42
-0.019214
  0
VERTEX
  8
0
 10
94.005227
 20
7.375104
 42
-0.029737
  0
VERTEX
  8
0
 10
94.276390
 20
6.500000
 42
0.001837
  0
VERTEX
  8
0
 10
94.611622
 20
5.157476
 42
0.402126
  0
VERTEX
  8
0
 10
94.713978
 20
5.093625
 42
0.337721
  0
VERTEX
  8
0
 10
94.801102
 20
5.194480
 42
0.001656
  0
VERTEX
  8
0
 10
94.883999
 20
6.627555
 42
0.073363
  0
VERTEX
  8
0
 10
94.799554
 20
7.542895
 42
0.049622
  0
VERTEX
  8
0
 10
94.451862
 20
8.533297
 42
0.049248
  0
VERTEX
  8
0
 10
93.911095
 20
9.445335
 42
0.068134
  0
VERTEX
  8
0
 10
93.250000
 20
10.127555
 42
0.002075
  0
VERTEX
  8
0
 10
92.179061
 20
10.960290
 42
0.219342
  0
VERTEX
  8
0
 10
92.002866
 20
11.000602
 42
0.546600
  0
VERTEX
  8
0
 10
91.965325
 20
10.901889
 42
0.003459
  0
SEQEND
  0
POLYLINE
  8
0
 66
1
 70
1
  0
VERTEX
  8
0
 10
111.151607
 20
10.114860
 42
0.177266
  0
VERTEX
  8
0
 10
110.299540
 20
9.005713
 42
0.121882
  0
VERTEX
  8
0
 10
110.200959
 20
7.407498
 42
0.128797
  0
VERTEX
  8
0
 10
110.853850
 20
6.010342
 42
0.204060
  0
VERTEX
  8
0
 10
112.011484
 20
5.415192
 42
0.010809
  0
VERTEX
  8
0
 10
112.585050
 20
5.386110
 42
0.241247
  0
VERTEX
  8
0
 10
112.730861
 20
5.455540
 42
0.493409
  0
VERTEX
  8
0
 10
112.703203
 20
5.557952
 42
0.016609
  0
VERTEX
  8
0
 10
112.250000
 20
5.727033
 42
-0.155575
  0
VERTEX
  8
0
 10
111.385137
 20
6.360999
 42
-0.155561
  0
VERTEX
  8
0
 10
111.046866
 20
7.378619
 42
-0.121607
  0
VERTEX
  8
0
 10
111.334832
 20
8.609872
 42
-0.078566
  0
VERTEX
  8
0
 10
112.200000
 20
9.800000
 42
0.021766
  0
VERTEX
  8
0
 10
113.004256
 20
10.677502
 42
0.538984
  0
VERTEX
  8
0
 10
112.925582
 20
10.940810
 42
0.204510
  0
VERTEX
  8
0
 10
112.438305
 20
10.886153
 42
0.012424
  0
SEQEND
  0
POLYLINE
  8
0
 66
1
 70
1
  0
VERTEX
  8
0
 10
117.250000
 20
10.337719
 42
0.151847
  0
VERTEX
  8
0
 10
116.778955
 20
9.952955
 42
0.060335
  0
VERTEX
  8
0
 10
116.401263
 20
9.198163
 42
0.052325
  0
VERTEX
  8
0
 10
116.164078
 20
8.224237
 42
0.044480
  0
VERTEX
  8
0
 10
116.116001
 20
7.166667
 42
0.004273
  0
VERTEX
  8
0
 10
116.189942
 20
5.746555
 42
0.171276
  0
VERTEX
  8
0
 10
116.309553
 20
5.463511
 42
0.586718
  0
VERTEX
  8
0
 10
116.456390
 20
5.497812
 42
0.009775
  0
VERTEX
  8
0
 10
116.723610
 20
6.500000
 42
-0.027989
  0
VERTEX
  8
0
 10
116.985953
 20
7.357218
 42
-0.020275
  0
VERTEX
  8
0
 10
117.368915
 20
8.279687
 42
-0.020582
  0
VERTEX
  8
0
 10
117.805673
 20
9.128547
 42
-0.041419
  0
VERTEX
  8
0
 10
118.230053
 20
9.750000
 42
0.009654
  0
VERTEX
  8
0
 10
118.922586
 20
10.637494
 42
0.444754
  0
VERTEX
  8
0
 10
118.882876
 20
10.839994
 42
0.229884
  0
VERTEX
  8
0
 10
118.596076
 20
10.865375
 42
0.004970
  0
SEQEND
  0
POLYLINE
  8
0
 66
1
 70
1
  0
VERTEX
  8
0
 10
120.500000
 20
10.000000
 42
0.145013
  0
VERTEX
  8
0
 10
120.235029
 20
9.025770
 42
0.131355
  0
VERTEX
  8
0
 10
120.527732
 20
8.021779
 42
0.127684
  0
VERTEX
  8
0
 10
121.292153
 20
7.277704
 42
0.133478
  0
VERTEX
  8
0
 10
122.309017
 20
7.015313
 42
0.062466
  0
VERTEX
  8
0
 10
122.742976
 20
7.075417
 42
0.398269
  0
VERTEX
  8
0
 10
122.848863
 20
7.247977
 42
0.178934
  0
VERTEX
  8
0
 10
122.682951
 20
7.511572
 42
0.022578
  0
VERTEX
  8
0
 10
122.121885
 20
7.903509
 42
-0.078477
  0
VERTEX
  8
0
 10
121.647270
 20
8.320824
 42
-0.089711
  0
VERTEX
  8
0
 10
121.350436
 20
8.846576
 42
-0.099558
  0
VERTEX
  8
0
 10
121.274791
 20
9.397018
 42
-0.123544
  0
VERTEX
  8
0
 10
121.430902
 20
9.888197
 42
0.031142
  0
VERTEX
  8
0
 10
121.659266
 20
10.314988
 42
0.065668
  0
VERTEX
  8
0
 10
121.769314
 20
10.673408
 42
0.126282
  0
VERTEX
  8
0
 10
121.749567
 20
10.906585
 42
0.318971
  0
VERTEX
  8
0
 10
121.618034
 20
11.000000
 42
0.141258
  0
VERTEX
  8
0
 10
121.383687
 20
10.932445
 42
0.042127
  0
VERTEX
  8
0
 10
121.083362
 20
10.706250
 42
0.038548
  0
VERTEX
  8
0
 10
120.773373
 20
10.382710
 42
0.033357
  0
SEQEND
  0
POLYLINE
  8
0
 66
1
 70
1
  0
VERTEX
  8
0
 10
131.890858
 20
9.793805
 42
-0.098748
  0
VERTEX
  8
0
 10
132.580414
 20
8.356314
 42
-0.171562
  0
VERTEX
  8
0
 10
132.463585
 20
7.053055
 42
-0.226665
  0
VERTEX
  8
0
 10
131.617313
 20
6.346335
 42
-0.155329
  0
VERTEX
  8
0
 10
130.346912
 20
6.420372
 42
0.041869
  0
VERTEX
  8
0
 10
129.820692
 20
6.573238
 42
0.170102
  0
VERTEX
  8
0
 10
129.495242
 20
6.528056
 42
0.316285
  0
VERTEX
  8
0
 10
129.387979
 20
6.323626
 42
0.106430
  0
VERTEX
  8
0
 10
129.507079
 20
5.988546
 42
0.148791
  0
VERTEX
  8
0
 10
130.395416
 20
5.206569
 42
0.151202
  0
VERTEX
  8
0
 10
131.562704
 20
5.058399
 42
0.138953
  0
VERTEX
  8
0
 10
132.683746
 20
5.599936
 42
0.120134
  0
VERTEX
  8
0
 10
133.429755
 20
6.677541
 42
0.097655
  0
VERTEX
  8
0
 10
133.566310
 20
7.464949
 42
0.075174
  0
VERTEX
  8
0
 10
133.415807
 20
8.325992
 42
0.068573
  0
VERTEX
  8
0
 10
132.994871
 20
9.175512
 42
0.059235
  0
VERTEX
  8
0
 10
132.341513
 20
9.927541
 42
0.000871
  0
VERTEX
  8
0
 10
131.196176
 20
10.963757
 42
0.261252
  0
VERTEX
  8
0
 10
131.077741
 20
10.990564
 42
0.521192
  0
VERTEX
  8
0
 10
131.052680
 20
10.915293
 42
0.001153
  0
SEQEND
  0
POLYLINE
  8
0
 66
1
 70
1
  0
VERTEX
  8
0
 10
149.105192
 20
9.626748
 42
0.135552
  0
VERTEX
  8
0
 10
148.474092
 20
8.225833
 42
0.126816
  0
VERTEX
  8
0
 10
148.628769
 20
6.660340
 42
0.137700
  0
VERTEX
  8
0
 10
149.497622
 20
5.454678
 42
0.169771
  0
VERTEX
  8
0
 10
150.798118
 20
5.000000
 42
0.036013
  0
VERTEX
  8
0
 10
151.558193
 20
5.054817
 42
0.438286
  0
VERTEX
  8
0
 10
151.705634
 20
5.270025
 42
0.169569
  0
VERTEX
  8
0
 10
151.482254
 20
5.625203
 42
0.010516
  0
VERTEX
  8
0
 10
150.478876
 20
6.391787
 42
-0.031378
  0
VERTEX
  8
0
 10
149.500130
 20
7.206362
 42
-0.157948
  0
VERTEX
  8
0
 10
149.162833
 20
7.822831
 42
-0.179145
  0
VERTEX
  8
0
 10
149.272795
 20
8.474395
 42
-0.042777
  0
VERTEX
  8
0
 10
149.910192
 20
9.391787
 42
0.017370
  0
VERTEX
  8
0
 10
150.387512
 20
10.009370
 42
0.036141
  0
VERTEX
  8
0
 10
150.705947
 20
10.527588
 42
0.060845
  0
VERTEX
  8
0
 10
150.838120
 20
10.881731
 42
0.485050
  0
VERTEX
  8
0
 10
150.744889
 20
11.000000
 42
0.150695
  0
VERTEX
  8
0
 10
150.483631
 20
10.919429
 42
0.024734
  0
VERTEX
  8
0
 10
150.056978
 20
10.596607
 42
0.025298
  0
VERTEX
  8
0
 10
149.578193
 20
10.152555
 42
0.019930
  0
SEQEND
  0
POLYLINE
  8
0
 66
1
 70
1
  0
VERTEX
  8
0
 10
156.890858
 20
9.793805
 42
-0.098748
  0
VERTEX
  8
0
 10
157.580414
 20
8.356314
 42
-0.171562
  0
VERTEX
  8
0
 10
157.463585
 20
7.053055
 42
-0.226665
  0
VERTEX
  8
0
 10
156.617313
 20
6.346335
 42
-0.155329
  0
VERTEX
  8
0
 10
155.346912
 20
6.420372
 42
0.041869
  0
VERTEX
  8
0
 10
154.820692
 20
6.573238
 42
0.170102
  0
VERTEX
  8
0
 10
154.495242
 20
6.528056
 42
0.316285
  0
VERTEX
  8
0
 10
154.387979
 20
6.323626
 42
0.106430
  0
VERTEX
  8
0
 10
154.507079
 20
5.988546
 42
0.148791
  0
VERTEX
  8
0
 10
155.395416
 20
5.206569
 42
0.151202
  0
VERTEX
  8
0
 10
156.562704
 20
5.058399
 42
0.138953
  0
VERTEX
  8
0
 10
157.683746
 20
5.599936
 42
0.120134
  0
VERTEX
  8
0
 10
158.429755
 20
6.677541
 42
0.097655
  0
VERTEX
  8
0
 10
158.566310
 20
7.464949
 42
0.075174
  0
VERTEX
  8
0
 10
158.415807
 20
8.325992
 42
0.068573
  0
VERTEX
  8
0
 10
157.994871
 20
9.175512
 42
0.059235
  0
VERTEX
  8
0
 10
157.341513
 20
9.927541
 42
0.000871
  0
VERTEX
  8
0
 10
156.196176
 20
10.963757
 42
0.261252
  0
VERTEX
  8
0
 10
156.077741
 20
10.990564
 42
0.521192
  0
VERTEX
  8
0
 10
156.052680
 20
10.915293
 42
0.001153
  0
SEQEND
  0
POLYLINE
  8
0
 66
1
 70
1
  0
VERTEX
  8
0
 10
162.876985
 20
7.568155
 42
0.003193
  0
VERTEX
  8
0
 10
163.189528
 20
5.639904
 42
0.196935
  0
VERTEX
  8
0
 10
163.369339
 20
5.350514
 42
0.522033
  0
VERTEX
  8
0
 10
163.560245
 20
5.417251
 42
0.007264
  0
VERTEX
  8
0
 10
163.927103
 20
6.809017
 42
-0.038403
  0
VERTEX
  8
0
 10
164.219954
 20
7.692814
 42
-0.050357
  0
VERTEX
  8
0
 10
164.625462
 20
8.439760
 42
-0.060037
  0
VERTEX
  8
0
 10
165.075603
 20
8.955147
 42
-0.185313
  0
VERTEX
  8
0
 10
165.500000
 20
9.118034
 42
-0.181969
  0
VERTEX
  8
0
 10
165.929738
 20
8.956280
 42
-0.057628
  0
VERTEX
  8
0
 10
166.397281
 20
8.439760
 42
-0.048866
  0
VERTEX
  8
0
 10
166.827828
 20
7.692807
 42
-0.037693
  0
VERTEX
  8
0
 10
167.150320
 20
6.809017
 42
0.001423
  0
VERTEX
  8
0
 10
167.609953
 20
5.194673
 42
0.291476
  0
VERTEX
  8
0
 10
167.728439
 20
5.090052
 42
0.444761
  0
VERTEX
  8
0
 10
167.825352
 20
5.168563
 42
0.001869
  0
VERTEX
  8
0
 10
167.900320
 20
6.690983
 42
0.089379
  0
VERTEX
  8
0
 10
167.696346
 20
8.217664
 42
0.122499
  0
VERTEX
  8
0
 10
166.969014
 20
9.391068
 42
0.110912
  0
VERTEX
  8
0
 10
165.712320
 20
10.163640
 42
0.064275
  0
VERTEX
  8
0
 10
163.967463
 20
10.520815
 42
0.121835
  0
VERTEX
  8
0
 10
163.248567
 20
10.398199
 42
0.204169
  0
VERTEX
  8
0
 10
162.834474
 20
9.959528
 42
0.105172
  0
VERTEX
  8
0
 10
162.708747
 20
9.093740
 42
0.022239
  0
SEQEND
  0
POLYLINE
  8
0
 66
1
 70
1
  0
VERTEX
  8
0
 10
96.315355
 20
8.078328
 42
0.056164
  0
VERTEX
  8
0
 10
96.497575
 20
7.122135
 42
0.059325
  0
VERTEX
  8
0
 10
96.886386
 20
6.249212
 42
0.066347
  0
VERTEX
  8
0
 10
97.412324
 20
5.585420
 42
0.126894
  0
VERTEX
  8
0
 10
98.000000
 20
5.252197
 42
0.013610
  0
VERTEX
  8
0
 10
98.649851
 20
5.095811
 42
0.272814
  0
VERTEX
  8
0
 10
98.835562
 20
5.158122
 42
0.416731
  0
VERTEX
  8
0
 10
98.823911
 20
5.312588
 42
0.019089
  0
VERTEX
  8
0
 10
98.365682
 20
5.673869
 42
-0.069438
  0
VERTEX
  8
0
 10
97.891304
 20
6.132136
 42
-0.031629
  0
VERTEX
  8
0
 10
97.402912
 20
6.844824
 42
-0.030559
  0
VERTEX
  8
0
 10
96.975126
 20
7.673704
 42
-0.036723
  0
VERTEX
  8
0
 10
96.681037
 20
8.500000
 42
0.003585
  0
VERTEX
  8
0
 10
96.376764
 20
9.575582
 42
0.594116
  0
VERTEX
  8
0
 10
96.280874
 20
9.596600
 42
0.197969
  0
VERTEX
  8
0
 10
96.219428
 20
9.413346
 42
0.002184
  0
SEQEND
  0
POLYLINE
  8
0
 66
1
 70
1
  0
VERTEX
  8
0
 10
100.194949
 20
7.500000
 42
0.012823
  0
VERTEX
  8
0
 10
100.235556
 20
6.431793
 42
0.080377
  0
VERTEX
  8
0
 10
100.356533
 20
5.900903
 42
0.597527
  0
VERTEX
  8
0
 10
100.516660
 20
5.883358
 42
0.087174
  0
VERTEX
  8
0
 10
100.692991
 20
6.269032
 42
0.037336
  0
VERTEX
  8
0
 10
100.832894
 20
7.036634
 42
0.029507
  0
VERTEX
  8
0
 10
100.872264
 20
7.880008
 42
0.030339
  0
VERTEX
  8
0
 10
100.814405
 20
8.671085
 42
0.062780
  0
VERTEX
  8
0
 10
100.655937
 20
9.269032
 42
0.313180
  0
VERTEX
  8
0
 10
100.477130
 20
9.386009
 42
0.333666
  0
VERTEX
  8
0
 10
100.315079
 20
9.257153
 42
0.052471
  0
VERTEX
  8
0
 10
100.212705
 20
8.580113
 42
0.014395
  0
SEQEND
  0
POLYLINE
  8
0
 66
1
 70
1
  0
VERTEX
  8
0
 10
135.401717
 20
7.510216
 42
0.082224
  0
VERTEX
  8
0
 10
135.581571
 20
6.680373
 42
0.096779
  0
VERTEX
  8
0
 10
136.015200
 20
6.004549
 42
0.096335
  0
VERTEX
  8
0
 10
136.673166
 20
5.539480
 42
0.080715
  0
VERTEX
  8
0
 10
137.500000
 20
5.317633
 42
0.003125
  0
VERTEX
  8
0
 10
138.496767
 20
5.222852
 42
0.217658
  0
VERTEX
  8
0
 10
138.651209
 20
5.277497
 42
0.567172
  0
VERTEX
  8
0
 10
138.630538
 20
5.365870
 42
0.004763
  0
VERTEX
  8
0
 10
137.811494
 20
5.618899
 42
-0.074802
  0
VERTEX
  8
0
 10
137.135195
 20
5.936816
 42
-0.054709
  0
VERTEX
  8
0
 10
136.498615
 20
6.470896
 42
-0.054866
  0
VERTEX
  8
0
 10
135.994987
 20
7.128185
 42
-0.076674
  0
VERTEX
  8
0
 10
135.713211
 20
7.811481
 42
0.005318
  0
VERTEX
  8
0
 10
135.510930
 20
8.607942
 42
0.572612
  0
VERTEX
  8
0
 10
135.423280
 20
8.632329
 42
0.212555
  0
VERTEX
  8
0
 10
135.360602
 20
8.476856
 42
0.003423
  0
SEQEND
  0
POLYLINE
  8
0
 66
1
 70
1
  0
VERTEX
  8
0
 10
160.194949
 20
7.500000
 42
0.012823
  0
VERTEX
  8
0
 10
160.235556
 20
6.431793
 42
0.080377
  0
VERTEX
  8
0
 10
160.356533
 20
5.900903
 42
0.597527
  0
VERTEX
  8
0
 10
160.516660
 20
5.883358
 42
0.087174
  0
VERTEX
  8
0
 10
160.692991
 20
6.269032
 42
0.037336
  0
VERTEX
  8
0
 10
160.832894
 20
7.036634
 42
0.029507
  0
VERTEX
  8
0
 10
160.872264
 20
7.880008
 42
0.030339
  0
VERTEX
  8
0
 10
160.814405
 20
8.671085
 42
0.062780
  0
VERTEX
  8
0
 10
160.655937
 20
9.269032
 42
0.313180
  0
VERTEX
  8
0
 10
160.477130
 20
9.386009
 42
0.333666
  0
VERTEX
  8
0
 10
160.315079
 20
9.257153
 42
0.052471
  0
VERTEX
  8
0
 10
160.212705
 20
8.580113
 42
0.014395
  0
SEQEND
  0
POLYLINE
  8
0
 66
1
 70
1
  0
VERTEX
  8
0
 10
87.357734
 20
7.230190
 42
-0.154850
  0
VERTEX
  8
0
 10
87.470095
 20
6.783288
 42
-0.140367
  0
VERTEX
  8
0
 10
87.310969
 20
6.333238
 42
-0.107657
  0
VERTEX
  8
0
 10
86.886635
 20
5.947692
 42
-0.067073
  0
VERTEX
  8
0
 10
86.262243
 20
5.691683
 42
0.002793
  0
VERTEX
  8
0
 10
85.164260
 20
5.398714
 42
0.304222
  0
VERTEX
  8
0
 10
85.068900
 20
5.288622
 42
0.426192
  0
VERTEX
  8
0
 10
85.144941
 20
5.195089
 42
0.003485
  0
VERTEX
  8
0
 10
86.190983
 20
5.116001
 42
0.094417
  0
VERTEX
  8
0
 10
87.529643
 20
5.277121
 42
0.168541
  0
VERTEX
  8
0
 10
88.407806
 20
5.933686
 42
0.244124
  0
VERTEX
  8
0
 10
88.508898
 20
6.801478
 42
0.165053
  0
VERTEX
  8
0
 10
87.861803
 20
7.585410
 42
0.028374
  0
VERTEX
  8
0
 10
87.408069
 20
7.831429
 42
0.269769
  0
VERTEX
  8
0
 10
87.196655
 20
7.813014
 42
0.353950
  0
VERTEX
  8
0
 10
87.146670
 20
7.636893
 42
0.037452
  0
SEQEND
  0
POLYLINE
  8
0
 66
1
 70
1
  0
VERTEX
  8
0
 10
120.812500
 20
5.316886
 42
0.051402
  0
VERTEX
  8
0
 10
121.359369
 20
5.160852
 42
0.054150
  0
VERTEX
  8
0
 10
121.916927
 20
5.123424
 42
0.060344
  0
VERTEX
  8
0
 10
122.402231
 20
5.202593
 42
0.126455
  0
VERTEX
  8
0
 10
122.729167
 20
5.395833
 42
0.296942
  0
VERTEX
  8
0
 10
122.775380
 20
5.614691
 42
0.208169
  0
VERTEX
  8
0
 10
122.592839
 20
5.799335
 42
0.077125
  0
VERTEX
  8
0
 10
122.112848
 20
5.910055
 42
0.028489
  0
VERTEX
  8
0
 10
121.416667
 20
5.921053
 42
0.018894
  0
VERTEX
  8
0
 10
120.670344
 20
5.862007
 42
0.168741
  0
VERTEX
  8
0
 10
120.378580
 20
5.720685
 42
0.470617
  0
VERTEX
  8
0
 10
120.395823
 20
5.538436
 42
0.054073
  0
SEQEND
  0
POLYLINE
  8
0
 66
1
 70
1
  0
VERTEX
  8
0
 10
153.500000
 20
152.341153
 42
0.112333
  0
VERTEX
  8
0
 10
145.130556
 20
145.174104
 42
0.124962
  0
VERTEX
  8
0
 10
141.091881
 20
135.356551
 42
0.128043
  0
VERTEX
  8
0
 10
142.269284
 20
124.987289
 42
0.121214
  0
VERTEX
  8
0
 10
148.355315
 20
116.261178
 42
0.141026
  0
VERTEX
  8
0
 10
158.794492
 20
111.342417
 42
0.136075
  0
VERTEX
  8
0
 10
170.411045
 20
112.629683
 42
0.136464
  0
VERTEX
  8
0
 10
179.682343
 20
119.708589
 42
0.142121
  0
VERTEX
  8
0
 10
183.787256
 20
130.448126
 42
0.097203
  0
VERTEX
  8
0
 10
182.765980
 20
139.606130
 42
0.111194
  0
VERTEX
  8
0
 10
178.347222
 20
147.211536
 42
0.110934
  0
VERTEX
  8
0
 10
171.085383
 20
152.201201
 42
0.096383
  0
VERTEX
  8
0
 10
162.000000
 20
153.938000
 42
0.024570
  0
VERTEX
  8
0
 10
159.666718
 20
153.815586
 42
0.021041
  0
VERTEX
  8
0
 10
157.231315
 20
153.463381
 42
0.021626
  0
VERTEX
  8
0
 10
155.036973
 20
152.952031
 42
0.053110
  0
SEQEND
  0
ENDSEC
  0
EOF
