  0
SECTION
  2
HEADER
  9
$ACADVER
  1
AC1009
  9
$FILLMODE
 70
 0
  9
$SPLFRAME
 70
 1
  9
$EXTMIN
 10
0
 20
0
 30
0.0
  9
$EXTMAX
 10
41.6667
 20
41.6667
 30
0.0
  0
ENDSEC
  0
SECTION
  2
TABLES
  0
TABLE
  2
LAYER
 70
1
  0
LAYER
  2
0
 70
     0
 62
     7
  6
CONTINUOUS
  0
ENDTAB
  0
ENDSEC
  0
SECTION
  2
ENTITIES
  0
POLYLINE
  8
0
 62
     7
 66
     1
 10
0
 20
0
 30
0.0
 70
     1
 40
0
 41
0
  0
VERTEX
  8
0
 10
0
 20
41.6806
 30
0.0
 40
0
 41
0
  0
VERTEX
  8
0
 10
41.6667
 20
41.6806
 30
0.0
 40
0
 41
0
  0
VERTEX
  8
0
 10
41.6667
 20
0.0138889
 30
0.0
 40
0
 41
0
  0
VERTEX
  8
0
 10
0
 20
0.0138889
 30
0.0
 40
0
 41
0
  0
VERTEX
  8
0
 10
0
 20
41.6806
 30
0.0
 40
0
 41
0
  0
SEQEND
 8
0
  0
POLYLINE
  8
0
 62
     0
 66
     1
 10
0
 20
0
 30
0.0
 70
     1
 40
0
 41
0
  0
VERTEX
  8
0
 10
14.0524
 20
34.4099
 30
0.0
 40
0
 41
0
  0
VERTEX
  8
0
 10
14.0521
 20
34.4099
 30
0.0
 40
0
 41
0
  0
VERTEX
  8
0
 10
14.0513
 20
34.4099
 30
0.0
 40
0
 41
0
  0
VERTEX
  8
0
 10
14.0511
 20
34.4097
 30
0.0
 40
0
 41
0
  0
VERTEX
  8
0
 10
14.0499
 20
34.4097
 30
0.0
 40
0
 41
0
  0
VERTEX
  8
0
 10
14.0083
 20
34.3461
 30
0.0
 40
0
 41
0
  0
VERTEX
  8
0
 10
13.8257
 20
34.0392
 30
0.0
 40
0
 41
0
  0
VERTEX
  8
0
 10
13.6764
 20
33.7471
 30
0.0
 40
0
 41
0
  0
VERTEX
  8
0
 10
13.6516
 20
33.691
 30
0.0
 40
0
 41
0
  0
VERTEX
  8
0
 10
13.6389
 20
33.6629
 30
0.0
 40
0
 41
0
  0
VERTEX
  8
0
 10
13.5308
 20
33.3901
 30
0.0
 40
0
 41
0
  0
VERTEX
  8
0
 10
13.5218
 20
33.3637
 30
0.0
 40
0
 41
0
  0
VERTEX
  8
0
 10
13.515
 20
33.3494
 30
0.0
 40
0
 41
0
  0
VERTEX
  8
0
 10
13.4995
 20
33.3033
 30
0.0
 40
0
 41
0
  0
VERTEX
  8
0
 10
13.4736
 20
33.2079
 30
0.0
 40
0
 41
0
  0
VERTEX
  8
0
 10
13.4438
 20
33.0774
 30
0.0
 40
0
 41
0
  0
VERTEX
  8
0
 10
13.4184
 20
32.9533
 30
0.0
 40
0
 41
0
  0
VERTEX
  8
0
 10
13.4104
 20
32.9118
 30
0.0
 40
0
 41
0
  0
VERTEX
  8
0
 10
13.4059
 20
32.8844
 30
0.0
 40
0
 41
0
  0
VERTEX
  8
0
 10
13.3753
 20
32.5926
 30
0.0
 40
0
 41
0
  0
VERTEX
  8
0
 10
13.3736
 20
32.5615
 30
0.0
 40
0
 41
0
  0
VERTEX
  8
0
 10
13.371
 20
32.5483
 30
0.0
 40
0
 41
0
  0
VERTEX
  8
0
 10
13.3683
 20
32.4939
 30
0.0
 40
0
 41
0
  0
VERTEX
  8
0
 10
13.3679
 20
32.3697
 30
0.0
 40
0
 41
0
  0
VERTEX
  8
0
 10
13.3724
 20
32.1893
 30
0.0
 40
0
 41
0
  0
VERTEX
  8
0
 10
13.3793
 20
32.0117
 30
0.0
 40
0
 41
0
  0
VERTEX
  8
0
 10
13.3819
 20
31.9524
 30
0.0
 40
0
 41
0
  0
VERTEX
  8
0
 10
13.3863
 20
31.8906
 30
0.0
 40
0
 41
0
  0
VERTEX
  8
0
 10
13.4202
 20
31.5649
 30
0.0
 40
0
 41
0
  0
VERTEX
  8
0
 10
13.4702
 20
31.2181
 30
0.0
 40
0
 41
0
  0
VERTEX
  8
0
 10
13.4826
 20
31.1454
 30
0.0
 40
0
 41
0
  0
VERTEX
  8
0
 10
13.4826
 20
31.1454
 30
0.0
 40
0
 41
0
  0
VERTEX
  8
0
 10
13.3535
 20
31.0003
 30
0.0
 40
0
 41
0
  0
VERTEX
  8
0
 10
12.9794
 20
30.5532
 30
0.0
 40
0
 41
0
  0
VERTEX
  8
0
 10
12.5315
 20
29.9701
 30
0.0
 40
0
 41
0
  0
VERTEX
  8
0
 10
12.1387
 20
29.3963
 30
0.0
 40
0
 41
0
  0
VERTEX
  8
0
 10
11.8807
 20
28.9753
 30
0.0
 40
0
 41
0
  0
VERTEX
  8
0
 10
11.8011
 20
28.8314
 30
0.0
 40
0
 41
0
  0
VERTEX
  8
0
 10
11.8525
 20
28.8825
 30
0.0
 40
0
 41
0
  0
VERTEX
  8
0
 10
12.0077
 20
29.0344
 30
0.0
 40
0
 41
0
  0
VERTEX
  8
0
 10
12.1998
 20
29.2192
 30
0.0
 40
0
 41
0
  0
VERTEX
  8
0
 10
12.3775
 20
29.3857
 30
0.0
 40
0
 41
0
  0
VERTEX
  8
0
 10
12.5408
 20
29.5339
 30
0.0
 40
0
 41
0
  0
VERTEX
  8
0
 10
12.6898
 20
29.6639
 30
0.0
 40
0
 41
0
  0
VERTEX
  8
0
 10
12.8243
 20
29.7757
 30
0.0
 40
0
 41
0
  0
VERTEX
  8
0
 10
12.9444
 20
29.8692
 30
0.0
 40
0
 41
0
  0
VERTEX
  8
0
 10
13.0232
 20
29.9264
 30
0.0
 40
0
 41
0
  0
VERTEX
  8
0
 10
13.0502
 20
29.9444
 30
0.0
 40
0
 41
0
  0
VERTEX
  8
0
 10
13.1054
 20
29.9889
 30
0.0
 40
0
 41
0
  0
VERTEX
  8
0
 10
13.284
 20
30.1061
 30
0.0
 40
0
 41
0
  0
VERTEX
  8
0
 10
13.5272
 20
30.2217
 30
0.0
 40
0
 41
0
  0
VERTEX
  8
0
 10
13.7798
 20
30.2911
 30
0.0
 40
0
 41
0
  0
VERTEX
  8
0
 10
13.9762
 20
30.3142
 30
0.0
 40
0
 41
0
  0
VERTEX
  8
0
 10
14.0418
 20
30.3142
 30
0.0
 40
0
 41
0
  0
VERTEX
  8
0
 10
14.0939
 20
30.3142
 30
0.0
 40
0
 41
0
  0
VERTEX
  8
0
 10
14.2328
 20
30.3026
 30
0.0
 40
0
 41
0
  0
VERTEX
  8
0
 10
14.2504
 20
30.3004
 30
0.0
 40
0
 41
0
  0
VERTEX
  8
0
 10
14.2764
 20
30.3535
 30
0.0
 40
0
 41
0
  0
VERTEX
  8
0
 10
14.3715
 20
30.5043
 30
0.0
 40
0
 41
0
  0
VERTEX
  8
0
 10
14.5231
 20
30.6832
 30
0.0
 40
0
 41
0
  0
VERTEX
  8
0
 10
14.705
 20
30.8371
 30
0.0
 40
0
 41
0
  0
VERTEX
  8
0
 10
14.8622
 20
30.9378
 30
0.0
 40
0
 41
0
  0
VERTEX
  8
0
 10
14.9174
 20
30.966
 30
0.0
 40
0
 41
0
  0
VERTEX
  8
0
 10
14.9435
 20
30.9756
 30
0.0
 40
0
 41
0
  0
VERTEX
  8
0
 10
15.0729
 20
31.0092
 30
0.0
 40
0
 41
0
  0
VERTEX
  8
0
 10
15.1885
 20
31.0236
 30
0.0
 40
0
 41
0
  0
VERTEX
  8
0
 10
15.2271
 20
31.0236
 30
0.0
 40
0
 41
0
  0
VERTEX
  8
0
 10
15.2842
 20
31.0236
 30
0.0
 40
0
 41
0
  0
VERTEX
  8
0
 10
15.4554
 20
30.9914
 30
0.0
 40
0
 41
0
  0
VERTEX
  8
0
 10
15.6807
 20
30.8946
 30
0.0
 40
0
 41
0
  0
VERTEX
  8
0
 10
15.9032
 20
30.7332
 30
0.0
 40
0
 41
0
  0
VERTEX
  8
0
 10
16.0721
 20
30.5675
 30
0.0
 40
0
 41
0
  0
VERTEX
  8
0
 10
16.1228
 20
30.5075
 30
0.0
 40
0
 41
0
  0
VERTEX
  8
0
 10
16.11
 20
30.5719
 30
0.0
 40
0
 41
0
  0
VERTEX
  8
0
 10
16.0915
 20
30.7694
 30
0.0
 40
0
 41
0
  0
VERTEX
  8
0
 10
16.1047
 20
31.0172
 30
0.0
 40
0
 41
0
  0
VERTEX
  8
0
 10
16.1621
 20
31.2507
 30
0.0
 40
0
 41
0
  0
VERTEX
  8
0
 10
16.2333
 20
31.4179
 30
0.0
 40
0
 41
0
  0
VERTEX
  8
0
 10
16.2637
 20
31.4699
 30
0.0
 40
0
 41
0
  0
VERTEX
  8
0
 10
16.291
 20
31.5085
 30
0.0
 40
0
 41
0
  0
VERTEX
  8
0
 10
16.375
 20
31.6229
 30
0.0
 40
0
 41
0
  0
VERTEX
  8
0
 10
16.4681
 20
31.7399
 30
0.0
 40
0
 41
0
  0
VERTEX
  8
0
 10
16.5429
 20
31.8207
 30
0.0
 40
0
 41
0
  0
VERTEX
  8
0
 10
16.5842
 20
31.8567
 30
0.0
 40
0
 41
0
  0
VERTEX
  8
0
 10
16.5997
 20
31.8653
 30
0.0
 40
0
 41
0
  0
VERTEX
  8
0
 10
16.8372
 20
32.0376
 30
0.0
 40
0
 41
0
  0
VERTEX
  8
0
 10
16.8762
 20
32.0646
 30
0.0
 40
0
 41
0
  0
VERTEX
  8
0
 10
17.2575
 20
32.3011
 30
0.0
 40
0
 41
0
  0
VERTEX
  8
0
 10
17.2946
 20
32.3212
 30
0.0
 40
0
 41
0
  0
VERTEX
  8
0
 10
17.3689
 20
32.3618
 30
0.0
 40
0
 41
0
  0
VERTEX
  8
0
 10
17.7287
 20
32.5239
 30
0.0
 40
0
 41
0
  0
VERTEX
  8
0
 10
18.0731
 20
32.6319
 30
0.0
 40
0
 41
0
  0
VERTEX
  8
0
 10
18.1396
 20
32.6456
 30
0.0
 40
0
 41
0
  0
VERTEX
  8
0
 10
18.1729
 20
32.6522
 30
0.0
 40
0
 41
0
  0
VERTEX
  8
0
 10
18.4385
 20
32.686
 30
0.0
 40
0
 41
0
  0
VERTEX
  8
0
 10
18.5271
 20
32.686
 30
0.0
 40
0
 41
0
  0
VERTEX
  8
0
 10
19.3582
 20
32.68
 30
0.0
 40
0
 41
0
  0
VERTEX
  8
0
 10
19.2032
 20
32.7551
 30
0.0
 40
0
 41
0
  0
VERTEX
  8
0
 10
18.7274
 20
32.9586
 30
0.0
 40
0
 41
0
  0
VERTEX
  8
0
 10
18.1257
 20
33.169
 30
0.0
 40
0
 41
0
  0
VERTEX
  8
0
 10
17.5531
 20
33.3114
 30
0.0
 40
0
 41
0
  0
VERTEX
  8
0
 10
17.1463
 20
33.3751
 30
0.0
 40
0
 41
0
  0
VERTEX
  8
0
 10
17.0099
 20
33.3854
 30
0.0
 40
0
 41
0
  0
VERTEX
  8
0
 10
16.9067
 20
33.3835
 30
0.0
 40
0
 41
0
  0
VERTEX
  8
0
 10
16.8525
 20
33.3815
 30
0.0
 40
0
 41
0
  0
VERTEX
  8
0
 10
16.6901
 20
33.3679
 30
0.0
 40
0
 41
0
  0
VERTEX
  8
0
 10
16.46
 20
33.3365
 30
0.0
 40
0
 41
0
  0
VERTEX
  8
0
 10
16.2162
 20
33.2897
 30
0.0
 40
0
 41
0
  0
VERTEX
  8
0
 10
16.0228
 20
33.244
 30
0.0
 40
0
 41
0
  0
VERTEX
  8
0
 10
15.9589
 20
33.2271
 30
0.0
 40
0
 41
0
  0
VERTEX
  8
0
 10
15.9531
 20
33.2242
 30
0.0
 40
0
 41
0
  0
VERTEX
  8
0
 10
15.9336
 20
33.2104
 30
0.0
 40
0
 41
0
  0
VERTEX
  8
0
 10
15.9272
 20
33.1979
 30
0.0
 40
0
 41
0
  0
VERTEX
  8
0
 10
15.9279
 20
33.1954
 30
0.0
 40
0
 41
0
  0
VERTEX
  8
0
 10
15.9472
 20
33.1813
 30
0.0
 40
0
 41
0
  0
VERTEX
  8
0
 10
16.0008
 20
33.1324
 30
0.0
 40
0
 41
0
  0
VERTEX
  8
0
 10
16.0464
 20
33.0714
 30
0.0
 40
0
 41
0
  0
VERTEX
  8
0
 10
16.0644
 20
33.0126
 30
0.0
 40
0
 41
0
  0
VERTEX
  8
0
 10
16.0604
 20
32.969
 30
0.0
 40
0
 41
0
  0
VERTEX
  8
0
 10
16.0551
 20
32.9561
 30
0.0
 40
0
 41
0
  0
VERTEX
  8
0
 10
16.0511
 20
32.9347
 30
0.0
 40
0
 41
0
  0
VERTEX
  8
0
 10
16.0261
 20
32.8728
 30
0.0
 40
0
 41
0
  0
VERTEX
  8
0
 10
15.97
 20
32.7874
 30
0.0
 40
0
 41
0
  0
VERTEX
  8
0
 10
15.8867
 20
32.6999
 30
0.0
 40
0
 41
0
  0
VERTEX
  8
0
 10
15.8049
 20
32.6312
 30
0.0
 40
0
 41
0
  0
VERTEX
  8
0
 10
15.7763
 20
32.6103
 30
0.0
 40
0
 41
0
  0
VERTEX
  8
0
 10
15.7372
 20
32.585
 30
0.0
 40
0
 41
0
  0
VERTEX
  8
0
 10
15.6092
 20
32.526
 30
0.0
 40
0
 41
0
  0
VERTEX
  8
0
 10
15.3903
 20
32.456
 30
0.0
 40
0
 41
0
  0
VERTEX
  8
0
 10
15.1197
 20
32.4004
 30
0.0
 40
0
 41
0
  0
VERTEX
  8
0
 10
14.8782
 20
32.3671
 30
0.0
 40
0
 41
0
  0
VERTEX
  8
0
 10
14.7975
 20
32.3592
 30
0.0
 40
0
 41
0
  0
VERTEX
  8
0
 10
14.7933
 20
32.3622
 30
0.0
 40
0
 41
0
  0
VERTEX
  8
0
 10
14.7528
 20
32.3944
 30
0.0
 40
0
 41
0
  0
VERTEX
  8
0
 10
14.7488
 20
32.3978
 30
0.0
 40
0
 41
0
  0
VERTEX
  8
0
 10
14.639
 20
32.499
 30
0.0
 40
0
 41
0
  0
VERTEX
  8
0
 10
14.6212
 20
32.5174
 30
0.0
 40
0
 41
0
  0
VERTEX
  8
0
 10
14.4528
 20
32.7251
 30
0.0
 40
0
 41
0
  0
VERTEX
  8
0
 10
14.4369
 20
32.7485
 30
0.0
 40
0
 41
0
  0
VERTEX
  8
0
 10
14.4114
 20
32.7883
 30
0.0
 40
0
 41
0
  0
VERTEX
  8
0
 10
14.3432
 20
32.9132
 30
0.0
 40
0
 41
0
  0
VERTEX
  8
0
 10
14.2599
 20
33.0997
 30
0.0
 40
0
 41
0
  0
VERTEX
  8
0
 10
14.1868
 20
33.3076
 30
0.0
 40
0
 41
0
  0
VERTEX
  8
0
 10
14.1379
 20
33.4794
 30
0.0
 40
0
 41
0
  0
VERTEX
  8
0
 10
14.124
 20
33.5372
 30
0.0
 40
0
 41
0
  0
VERTEX
  8
0
 10
14.1178
 20
33.5621
 30
0.0
 40
0
 41
0
  0
VERTEX
  8
0
 10
14.09
 20
33.7147
 30
0.0
 40
0
 41
0
  0
VERTEX
  8
0
 10
14.0657
 20
33.9047
 30
0.0
 40
0
 41
0
  0
VERTEX
  8
0
 10
14.0615
 20
33.9483
 30
0.0
 40
0
 41
0
  0
VERTEX
  8
0
 10
14.0589
 20
33.9792
 30
0.0
 40
0
 41
0
  0
VERTEX
  8
0
 10
14.0533
 20
34.1529
 30
0.0
 40
0
 41
0
  0
VERTEX
  8
0
 10
14.0575
 20
34.3526
 30
0.0
 40
0
 41
0
  0
VERTEX
  8
0
 10
14.0599
 20
34.3964
 30
0.0
 40
0
 41
0
  0
VERTEX
  8
0
 10
14.0596
 20
34.3987
 30
0.0
 40
0
 41
0
  0
VERTEX
  8
0
 10
14.0542
 20
34.4099
 30
0.0
 40
0
 41
0
  0
VERTEX
  8
0
 10
14.0524
 20
34.4099
 30
0.0
 40
0
 41
0
  0
SEQEND
 8
0
  0
POLYLINE
  8
0
 62
     0
 66
     1
 10
0
 20
0
 30
0.0
 70
     1
 40
0
 41
0
  0
VERTEX
  8
0
 10
11.8011
 20
28.8314
 30
0.0
 40
0
 41
0
  0
VERTEX
  8
0
 10
11.8011
 20
28.8314
 30
0.0
 40
0
 41
0
  0
SEQEND
 8
0
  0
POLYLINE
  8
0
 62
     0
 66
     1
 10
0
 20
0
 30
0.0
 70
     1
 40
0
 41
0
  0
VERTEX
  8
0
 10
11.8011
 20
28.8314
 30
0.0
 40
0
 41
0
  0
VERTEX
  8
0
 10
11.8011
 20
28.8314
 30
0.0
 40
0
 41
0
  0
SEQEND
 8
0
  0
POLYLINE
  8
0
 62
     0
 66
     1
 10
0
 20
0
 30
0.0
 70
     1
 40
0
 41
0
  0
VERTEX
  8
0
 10
16.4981
 20
30.9493
 30
0.0
 40
0
 41
0
  0
VERTEX
  8
0
 10
16.4425
 20
30.9472
 30
0.0
 40
0
 41
0
  0
VERTEX
  8
0
 10
16.4303
 20
30.9356
 30
0.0
 40
0
 41
0
  0
VERTEX
  8
0
 10
16.3743
 20
30.8674
 30
0.0
 40
0
 41
0
  0
VERTEX
  8
0
 10
16.3249
 20
30.7872
 30
0.0
 40
0
 41
0
  0
VERTEX
  8
0
 10
16.3161
 20
30.7693
 30
0.0
 40
0
 41
0
  0
VERTEX
  8
0
 10
16.2679
 20
30.6532
 30
0.0
 40
0
 41
0
  0
VERTEX
  8
0
 10
16.2607
 20
30.6324
 30
0.0
 40
0
 41
0
  0
VERTEX
  8
0
 10
16.2296
 20
30.519
 30
0.0
 40
0
 41
0
  0
VERTEX
  8
0
 10
16.2051
 20
30.3936
 30
0.0
 40
0
 41
0
  0
VERTEX
  8
0
 10
16.2014
 20
30.3667
 30
0.0
 40
0
 41
0
  0
VERTEX
  8
0
 10
16.1951
 20
30.3243
 30
0.0
 40
0
 41
0
  0
VERTEX
  8
0
 10
16.1831
 20
30.1962
 30
0.0
 40
0
 41
0
  0
VERTEX
  8
0
 10
16.1747
 20
30.0078
 30
0.0
 40
0
 41
0
  0
VERTEX
  8
0
 10
16.1764
 20
29.8012
 30
0.0
 40
0
 41
0
  0
VERTEX
  8
0
 10
16.184
 20
29.6326
 30
0.0
 40
0
 41
0
  0
VERTEX
  8
0
 10
16.1881
 20
29.5765
 30
0.0
 40
0
 41
0
  0
VERTEX
  8
0
 10
16.2068
 20
29.5046
 30
0.0
 40
0
 41
0
  0
VERTEX
  8
0
 10
16.326
 20
29.1729
 30
0.0
 40
0
 41
0
  0
VERTEX
  8
0
 10
16.4785
 20
28.879
 30
0.0
 40
0
 41
0
  0
VERTEX
  8
0
 10
16.5139
 20
28.8258
 30
0.0
 40
0
 41
0
  0
VERTEX
  8
0
 10
16.5317
 20
28.7993
 30
0.0
 40
0
 41
0
  0
VERTEX
  8
0
 10
16.7297
 20
28.5572
 30
0.0
 40
0
 41
0
  0
VERTEX
  8
0
 10
16.7517
 20
28.5353
 30
0.0
 40
0
 41
0
  0
VERTEX
  8
0
 10
16.8893
 20
28.4114
 30
0.0
 40
0
 41
0
  0
VERTEX
  8
0
 10
16.9131
 20
28.3922
 30
0.0
 40
0
 41
0
  0
VERTEX
  8
0
 10
17.1754
 20
28.2179
 30
0.0
 40
0
 41
0
  0
VERTEX
  8
0
 10
17.2042
 20
28.2022
 30
0.0
 40
0
 41
0
  0
VERTEX
  8
0
 10
17.2054
 20
28.1997
 30
0.0
 40
0
 41
0
  0
VERTEX
  8
0
 10
17.2046
 20
28.1851
 30
0.0
 40
0
 41
0
  0
VERTEX
  8
0
 10
17.1947
 20
28.1679
 30
0.0
 40
0
 41
0
  0
VERTEX
  8
0
 10
17.1914
 20
28.164
 30
0.0
 40
0
 41
0
  0
VERTEX
  8
0
 10
17.019
 20
27.9911
 30
0.0
 40
0
 41
0
  0
VERTEX
  8
0
 10
17.0765
 20
27.9643
 30
0.0
 40
0
 41
0
  0
VERTEX
  8
0
 10
17.2528
 20
27.8907
 30
0.0
 40
0
 41
0
  0
VERTEX
  8
0
 10
17.4714
 20
27.8151
 30
0.0
 40
0
 41
0
  0
VERTEX
  8
0
 10
17.675
 20
27.7643
 30
0.0
 40
0
 41
0
  0
VERTEX
  8
0
 10
17.8161
 20
27.7419
 30
0.0
 40
0
 41
0
  0
VERTEX
  8
0
 10
17.8635
 20
27.7383
 30
0.0
 40
0
 41
0
  0
VERTEX
  8
0
 10
17.8815
 20
27.7368
 30
0.0
 40
0
 41
0
  0
VERTEX
  8
0
 10
18.0435
 20
27.7294
 30
0.0
 40
0
 41
0
  0
VERTEX
  8
0
 10
18.0974
 20
27.7294
 30
0.0
 40
0
 41
0
  0
VERTEX
  8
0
 10
18.1811
 20
27.7294
 30
0.0
 40
0
 41
0
  0
VERTEX
  8
0
 10
18.4325
 20
27.7431
 30
0.0
 40
0
 41
0
  0
VERTEX
  8
0
 10
18.7506
 20
27.7747
 30
0.0
 40
0
 41
0
  0
VERTEX
  8
0
 10
18.8193
 20
27.7838
 30
0.0
 40
0
 41
0
  0
VERTEX
  8
0
 10
18.8342
 20
27.7833
 30
0.0
 40
0
 41
0
  0
VERTEX
  8
0
 10
18.8789
 20
27.7807
 30
0.0
 40
0
 41
0
  0
VERTEX
  8
0
 10
18.9268
 20
27.7754
 30
0.0
 40
0
 41
0
  0
VERTEX
  8
0
 10
18.9633
 20
27.7676
 30
0.0
 40
0
 41
0
  0
VERTEX
  8
0
 10
18.9824
 20
27.7607
 30
0.0
 40
0
 41
0
  0
VERTEX
  8
0
 10
18.9881
 20
27.7572
 30
0.0
 40
0
 41
0
  0
VERTEX
  8
0
 10
18.9958
 20
27.7551
 30
0.0
 40
0
 41
0
  0
VERTEX
  8
0
 10
19.0332
 20
27.7361
 30
0.0
 40
0
 41
0
  0
VERTEX
  8
0
 10
19.0694
 20
27.7057
 30
0.0
 40
0
 41
0
  0
VERTEX
  8
0
 10
19.0765
 20
27.6979
 30
0.0
 40
0
 41
0
  0
VERTEX
  8
0
 10
19.1178
 20
27.6431
 30
0.0
 40
0
 41
0
  0
VERTEX
  8
0
 10
19.1246
 20
27.6325
 30
0.0
 40
0
 41
0
  0
VERTEX
  8
0
 10
19.1574
 20
27.5711
 30
0.0
 40
0
 41
0
  0
VERTEX
  8
0
 10
19.1889
 20
27.4985
 30
0.0
 40
0
 41
0
  0
VERTEX
  8
0
 10
19.195
 20
27.4824
 30
0.0
 40
0
 41
0
  0
VERTEX
  8
0
 10
19.2072
 20
27.4499
 30
0.0
 40
0
 41
0
  0
VERTEX
  8
0
 10
19.2646
 20
27.2542
 30
0.0
 40
0
 41
0
  0
VERTEX
  8
0
 10
19.3171
 20
27.0132
 30
0.0
 40
0
 41
0
  0
VERTEX
  8
0
 10
19.3269
 20
26.9582
 30
0.0
 40
0
 41
0
  0
VERTEX
  8
0
 10
19.35
 20
27.0058
 30
0.0
 40
0
 41
0
  0
VERTEX
  8
0
 10
19.4079
 20
27.1542
 30
0.0
 40
0
 41
0
  0
VERTEX
  8
0
 10
19.4668
 20
27.3624
 30
0.0
 40
0
 41
0
  0
VERTEX
  8
0
 10
19.5038
 20
27.5828
 30
0.0
 40
0
 41
0
  0
VERTEX
  8
0
 10
19.5176
 20
27.7572
 30
0.0
 40
0
 41
0
  0
VERTEX
  8
0
 10
19.5186
 20
27.8154
 30
0.0
 40
0
 41
0
  0
VERTEX
  8
0
 10
19.5192
 20
27.8551
 30
0.0
 40
0
 41
0
  0
VERTEX
  8
0
 10
19.5113
 20
28.0604
 30
0.0
 40
0
 41
0
  0
VERTEX
  8
0
 10
19.4887
 20
28.2737
 30
0.0
 40
0
 41
0
  0
VERTEX
  8
0
 10
19.4819
 20
28.3176
 30
0.0
 40
0
 41
0
  0
VERTEX
  8
0
 10
19.4753
 20
28.3617
 30
0.0
 40
0
 41
0
  0
VERTEX
  8
0
 10
19.4306
 20
28.5872
 30
0.0
 40
0
 41
0
  0
VERTEX
  8
0
 10
19.3711
 20
28.8211
 30
0.0
 40
0
 41
0
  0
VERTEX
  8
0
 10
19.3571
 20
28.869
 30
0.0
 40
0
 41
0
  0
VERTEX
  8
0
 10
19.2615
 20
29.1632
 30
0.0
 40
0
 41
0
  0
VERTEX
  8
0
 10
19.2436
 20
29.1149
 30
0.0
 40
0
 41
0
  0
VERTEX
  8
0
 10
19.145
 20
28.8981
 30
0.0
 40
0
 41
0
  0
VERTEX
  8
0
 10
19.0349
 20
28.7136
 30
0.0
 40
0
 41
0
  0
VERTEX
  8
0
 10
19.0111
 20
28.6815
 30
0.0
 40
0
 41
0
  0
VERTEX
  8
0
 10
18.9992
 20
28.6656
 30
0.0
 40
0
 41
0
  0
VERTEX
  8
0
 10
18.9375
 20
28.5915
 30
0.0
 40
0
 41
0
  0
VERTEX
  8
0
 10
18.8728
 20
28.5256
 30
0.0
 40
0
 41
0
  0
VERTEX
  8
0
 10
18.8594
 20
28.5136
 30
0.0
 40
0
 41
0
  0
VERTEX
  8
0
 10
18.846
 20
28.5017
 30
0.0
 40
0
 41
0
  0
VERTEX
  8
0
 10
18.7771
 20
28.4479
 30
0.0
 40
0
 41
0
  0
VERTEX
  8
0
 10
18.7051
 20
28.4022
 30
0.0
 40
0
 41
0
  0
VERTEX
  8
0
 10
18.6903
 20
28.3942
 30
0.0
 40
0
 41
0
  0
VERTEX
  8
0
 10
18.5992
 20
28.3528
 30
0.0
 40
0
 41
0
  0
VERTEX
  8
0
 10
18.5667
 20
28.3412
 30
0.0
 40
0
 41
0
  0
VERTEX
  8
0
 10
18.404
 20
28.3008
 30
0.0
 40
0
 41
0
  0
VERTEX
  8
0
 10
18.2569
 20
28.2835
 30
0.0
 40
0
 41
0
  0
VERTEX
  8
0
 10
18.2079
 20
28.2835
 30
0.0
 40
0
 41
0
  0
VERTEX
  8
0
 10
18.1632
 20
28.2835
 30
0.0
 40
0
 41
0
  0
VERTEX
  8
0
 10
18.029
 20
28.2978
 30
0.0
 40
0
 41
0
  0
VERTEX
  8
0
 10
17.8494
 20
28.3407
 30
0.0
 40
0
 41
0
  0
VERTEX
  8
0
 10
17.669
 20
28.4122
 30
0.0
 40
0
 41
0
  0
VERTEX
  8
0
 10
17.5315
 20
28.4847
 30
0.0
 40
0
 41
0
  0
VERTEX
  8
0
 10
17.4879
 20
28.5122
 30
0.0
 40
0
 41
0
  0
VERTEX
  8
0
 10
17.4393
 20
28.5514
 30
0.0
 40
0
 41
0
  0
VERTEX
  8
0
 10
17.2169
 20
28.751
 30
0.0
 40
0
 41
0
  0
VERTEX
  8
0
 10
17.0214
 20
28.9558
 30
0.0
 40
0
 41
0
  0
VERTEX
  8
0
 10
16.9863
 20
28.9976
 30
0.0
 40
0
 41
0
  0
VERTEX
  8
0
 10
16.7957
 20
29.2524
 30
0.0
 40
0
 41
0
  0
VERTEX
  8
0
 10
16.6456
 20
29.5151
 30
0.0
 40
0
 41
0
  0
VERTEX
  8
0
 10
16.5354
 20
29.786
 30
0.0
 40
0
 41
0
  0
VERTEX
  8
0
 10
16.4658
 20
30.0647
 30
0.0
 40
0
 41
0
  0
VERTEX
  8
0
 10
16.4363
 20
30.3515
 30
0.0
 40
0
 41
0
  0
VERTEX
  8
0
 10
16.4469
 20
30.6464
 30
0.0
 40
0
 41
0
  0
VERTEX
  8
0
 10
16.4981
 20
30.9493
 30
0.0
 40
0
 41
0
  0
SEQEND
 8
0
  0
POLYLINE
  8
0
 62
     0
 66
     1
 10
0
 20
0
 30
0.0
 70
     1
 40
0
 41
0
  0
VERTEX
  8
0
 10
15.8836
 20
29.8071
 30
0.0
 40
0
 41
0
  0
VERTEX
  8
0
 10
15.8407
 20
29.5288
 30
0.0
 40
0
 41
0
  0
VERTEX
  8
0
 10
15.8221
 20
29.4028
 30
0.0
 40
0
 41
0
  0
VERTEX
  8
0
 10
15.7726
 20
29.0237
 30
0.0
 40
0
 41
0
  0
VERTEX
  8
0
 10
15.7279
 20
28.5876
 30
0.0
 40
0
 41
0
  0
VERTEX
  8
0
 10
15.7068
 20
28.2204
 30
0.0
 40
0
 41
0
  0
VERTEX
  8
0
 10
15.7051
 20
27.9965
 30
0.0
 40
0
 41
0
  0
VERTEX
  8
0
 10
15.709
 20
27.9221
 30
0.0
 40
0
 41
0
  0
VERTEX
  8
0
 10
15.709
 20
27.8867
 30
0.0
 40
0
 41
0
  0
VERTEX
  8
0
 10
15.7132
 20
27.7806
 30
0.0
 40
0
 41
0
  0
VERTEX
  8
0
 10
15.7264
 20
27.62
 30
0.0
 40
0
 41
0
  0
VERTEX
  8
0
 10
15.7486
 20
27.4404
 30
0.0
 40
0
 41
0
  0
VERTEX
  8
0
 10
15.7799
 20
27.2421
 30
0.0
 40
0
 41
0
  0
VERTEX
  8
0
 10
15.8201
 20
27.0246
 30
0.0
 40
0
 41
0
  0
VERTEX
  8
0
 10
15.8696
 20
26.7883
 30
0.0
 40
0
 41
0
  0
VERTEX
  8
0
 10
15.9281
 20
26.5329
 30
0.0
 40
0
 41
0
  0
VERTEX
  8
0
 10
15.9782
 20
26.3271
 30
0.0
 40
0
 41
0
  0
VERTEX
  8
0
 10
15.9957
 20
26.2586
 30
0.0
 40
0
 41
0
  0
VERTEX
  8
0
 10
15.9981
 20
26.2543
 30
0.0
 40
0
 41
0
  0
VERTEX
  8
0
 10
16.0186
 20
26.2326
 30
0.0
 40
0
 41
0
  0
VERTEX
  8
0
 10
16.0254
 20
26.2326
 30
0.0
 40
0
 41
0
  0
VERTEX
  8
0
 10
16.0292
 20
26.2326
 30
0.0
 40
0
 41
0
  0
VERTEX
  8
0
 10
16.0394
 20
26.2378
 30
0.0
 40
0
 41
0
  0
VERTEX
  8
0
 10
16.0407
 20
26.2387
 30
0.0
 40
0
 41
0
  0
VERTEX
  8
0
 10
16.0635
 20
26.2707
 30
0.0
 40
0
 41
0
  0
VERTEX
  8
0
 10
16.1349
 20
26.364
 30
0.0
 40
0
 41
0
  0
VERTEX
  8
0
 10
16.2129
 20
26.4535
 30
0.0
 40
0
 41
0
  0
VERTEX
  8
0
 10
16.275
 20
26.5071
 30
0.0
 40
0
 41
0
  0
VERTEX
  8
0
 10
16.3094
 20
26.525
 30
0.0
 40
0
 41
0
  0
VERTEX
  8
0
 10
16.321
 20
26.525
 30
0.0
 40
0
 41
0
  0
VERTEX
  8
0
 10
16.3254
 20
26.525
 30
0.0
 40
0
 41
0
  0
VERTEX
  8
0
 10
16.3371
 20
26.5211
 30
0.0
 40
0
 41
0
  0
VERTEX
  8
0
 10
16.3383
 20
26.5203
 30
0.0
 40
0
 41
0
  0
VERTEX
  8
0
 10
16.3519
 20
26.4653
 30
0.0
 40
0
 41
0
  0
VERTEX
  8
0
 10
16.4031
 20
26.3029
 30
0.0
 40
0
 41
0
  0
VERTEX
  8
0
 10
16.4919
 20
26.0769
 30
0.0
 40
0
 41
0
  0
VERTEX
  8
0
 10
16.6049
 20
25.8422
 30
0.0
 40
0
 41
0
  0
VERTEX
  8
0
 10
16.7058
 20
25.6585
 30
0.0
 40
0
 41
0
  0
VERTEX
  8
0
 10
16.7418
 20
25.5987
 30
0.0
 40
0
 41
0
  0
VERTEX
  8
0
 10
16.7968
 20
25.5325
 30
0.0
 40
0
 41
0
  0
VERTEX
  8
0
 10
16.9611
 20
25.3331
 30
0.0
 40
0
 41
0
  0
VERTEX
  8
0
 10
17.1604
 20
25.0886
 30
0.0
 40
0
 41
0
  0
VERTEX
  8
0
 10
17.3397
 20
24.8654
 30
0.0
 40
0
 41
0
  0
VERTEX
  8
0
 10
17.4989
 20
24.6635
 30
0.0
 40
0
 41
0
  0
VERTEX
  8
0
 10
17.6382
 20
24.4829
 30
0.0
 40
0
 41
0
  0
VERTEX
  8
0
 10
17.7572
 20
24.3235
 30
0.0
 40
0
 41
0
  0
VERTEX
  8
0
 10
17.8563
 20
24.1853
 30
0.0
 40
0
 41
0
  0
VERTEX
  8
0
 10
17.9161
 20
24.0979
 30
0.0
 40
0
 41
0
  0
VERTEX
  8
0
 10
17.9353
 20
24.0683
 30
0.0
 40
0
 41
0
  0
VERTEX
  8
0
 10
17.9758
 20
24.0067
 30
0.0
 40
0
 41
0
  0
VERTEX
  8
0
 10
18.0925
 20
23.8185
 30
0.0
 40
0
 41
0
  0
VERTEX
  8
0
 10
18.2258
 20
23.584
 30
0.0
 40
0
 41
0
  0
VERTEX
  8
0
 10
18.3351
 20
23.3651
 30
0.0
 40
0
 41
0
  0
VERTEX
  8
0
 10
18.4011
 20
23.2133
 30
0.0
 40
0
 41
0
  0
VERTEX
  8
0
 10
18.4206
 20
23.1617
 30
0.0
 40
0
 41
0
  0
VERTEX
  8
0
 10
18.4353
 20
23.125
 30
0.0
 40
0
 41
0
  0
VERTEX
  8
0
 10
18.5668
 20
22.745
 30
0.0
 40
0
 41
0
  0
VERTEX
  8
0
 10
18.5785
 20
22.7056
 30
0.0
 40
0
 41
0
  0
VERTEX
  8
0
 10
18.5862
 20
22.6876
 30
0.0
 40
0
 41
0
  0
VERTEX
  8
0
 10
18.6064
 20
22.6185
 30
0.0
 40
0
 41
0
  0
VERTEX
  8
0
 10
18.6437
 20
22.4649
 30
0.0
 40
0
 41
0
  0
VERTEX
  8
0
 10
18.6904
 20
22.2449
 30
0.0
 40
0
 41
0
  0
VERTEX
  8
0
 10
18.7329
 20
22.03
 30
0.0
 40
0
 41
0
  0
VERTEX
  8
0
 10
18.7465
 20
21.9583
 30
0.0
 40
0
 41
0
  0
VERTEX
  8
0
 10
18.791
 20
22.07
 30
0.0
 40
0
 41
0
  0
VERTEX
  8
0
 10
18.9744
 20
22.6261
 30
0.0
 40
0
 41
0
  0
VERTEX
  8
0
 10
19.106
 20
23.1792
 30
0.0
 40
0
 41
0
  0
VERTEX
  8
0
 10
19.1244
 20
23.2893
 30
0.0
 40
0
 41
0
  0
VERTEX
  8
0
 10
19.1704
 20
23.6193
 30
0.0
 40
0
 41
0
  0
VERTEX
  8
0
 10
19.1764
 20
23.6742
 30
0.0
 40
0
 41
0
  0
VERTEX
  8
0
 10
19.2042
 20
24.2213
 30
0.0
 40
0
 41
0
  0
VERTEX
  8
0
 10
19.2038
 20
24.2758
 30
0.0
 40
0
 41
0
  0
VERTEX
  8
0
 10
19.2032
 20
24.3303
 30
0.0
 40
0
 41
0
  0
VERTEX
  8
0
 10
19.1662
 20
24.8736
 30
0.0
 40
0
 41
0
  0
VERTEX
  8
0
 10
19.1593
 20
24.9276
 30
0.0
 40
0
 41
0
  0
VERTEX
  8
0
 10
19.1326
 20
24.874
 30
0.0
 40
0
 41
0
  0
VERTEX
  8
0
 10
19.0379
 20
24.7201
 30
0.0
 40
0
 41
0
  0
VERTEX
  8
0
 10
18.909
 20
24.5719
 30
0.0
 40
0
 41
0
  0
VERTEX
  8
0
 10
18.7725
 20
24.4829
 30
0.0
 40
0
 41
0
  0
VERTEX
  8
0
 10
18.6642
 20
24.4533
 30
0.0
 40
0
 41
0
  0
VERTEX
  8
0
 10
18.6282
 20
24.4533
 30
0.0
 40
0
 41
0
  0
VERTEX
  8
0
 10
18.6114
 20
24.4533
 30
0.0
 40
0
 41
0
  0
VERTEX
  8
0
 10
18.5667
 20
24.4583
 30
0.0
 40
0
 41
0
  0
VERTEX
  8
0
 10
18.561
 20
24.4593
 30
0.0
 40
0
 41
0
  0
VERTEX
  8
0
 10
18.5604
 20
24.4593
 30
0.0
 40
0
 41
0
  0
VERTEX
  8
0
 10
18.5554
 20
24.459
 30
0.0
 40
0
 41
0
  0
VERTEX
  8
0
 10
18.5539
 20
24.459
 30
0.0
 40
0
 41
0
  0
VERTEX
  8
0
 10
18.5215
 20
24.459
 30
0.0
 40
0
 41
0
  0
VERTEX
  8
0
 10
18.4246
 20
24.4976
 30
0.0
 40
0
 41
0
  0
VERTEX
  8
0
 10
18.2679
 20
24.6133
 30
0.0
 40
0
 41
0
  0
VERTEX
  8
0
 10
18.0839
 20
24.8063
 30
0.0
 40
0
 41
0
  0
VERTEX
  8
0
 10
17.9229
 20
25.0071
 30
0.0
 40
0
 41
0
  0
VERTEX
  8
0
 10
17.8725
 20
25.0763
 30
0.0
 40
0
 41
0
  0
VERTEX
  8
0
 10
17.8326
 20
25.1364
 30
0.0
 40
0
 41
0
  0
VERTEX
  8
0
 10
17.7407
 20
25.3353
 30
0.0
 40
0
 41
0
  0
VERTEX
  8
0
 10
17.6704
 20
25.6215
 30
0.0
 40
0
 41
0
  0
VERTEX
  8
0
 10
17.6615
 20
25.9347
 30
0.0
 40
0
 41
0
  0
VERTEX
  8
0
 10
17.6944
 20
26.1917
 30
0.0
 40
0
 41
0
  0
VERTEX
  8
0
 10
17.714
 20
26.2753
 30
0.0
 40
0
 41
0
  0
VERTEX
  8
0
 10
17.4194
 20
26.4614
 30
0.0
 40
0
 41
0
  0
VERTEX
  8
0
 10
17.3726
 20
26.4954
 30
0.0
 40
0
 41
0
  0
VERTEX
  8
0
 10
17.1522
 20
26.6835
 30
0.0
 40
0
 41
0
  0
VERTEX
  8
0
 10
16.9501
 20
26.8956
 30
0.0
 40
0
 41
0
  0
VERTEX
  8
0
 10
16.9125
 20
26.9415
 30
0.0
 40
0
 41
0
  0
VERTEX
  8
0
 10
16.8749
 20
26.9875
 30
0.0
 40
0
 41
0
  0
VERTEX
  8
0
 10
16.7001
 20
27.2354
 30
0.0
 40
0
 41
0
  0
VERTEX
  8
0
 10
16.5438
 20
27.5072
 30
0.0
 40
0
 41
0
  0
VERTEX
  8
0
 10
16.5151
 20
27.5651
 30
0.0
 40
0
 41
0
  0
VERTEX
  8
0
 10
16.4867
 20
27.6232
 30
0.0
 40
0
 41
0
  0
VERTEX
  8
0
 10
16.3576
 20
27.9308
 30
0.0
 40
0
 41
0
  0
VERTEX
  8
0
 10
16.2468
 20
28.2625
 30
0.0
 40
0
 41
0
  0
VERTEX
  8
0
 10
16.2274
 20
28.3324
 30
0.0
 40
0
 41
0
  0
VERTEX
  8
0
 10
16.2079
 20
28.4024
 30
0.0
 40
0
 41
0
  0
VERTEX
  8
0
 10
16.1246
 20
28.77
 30
0.0
 40
0
 41
0
  0
VERTEX
  8
0
 10
16.0594
 20
29.1614
 30
0.0
 40
0
 41
0
  0
VERTEX
  8
0
 10
16.0492
 20
29.2433
 30
0.0
 40
0
 41
0
  0
VERTEX
  8
0
 10
15.8836
 20
29.8071
 30
0.0
 40
0
 41
0
  0
SEQEND
 8
0
  0
POLYLINE
  8
0
 62
     0
 66
     1
 10
0
 20
0
 30
0.0
 70
     1
 40
0
 41
0
  0
VERTEX
  8
0
 10
13.5503
 20
29.9339
 30
0.0
 40
0
 41
0
  0
VERTEX
  8
0
 10
13.2349
 20
29.7501
 30
0.0
 40
0
 41
0
  0
VERTEX
  8
0
 10
13.0758
 20
29.654
 30
0.0
 40
0
 41
0
  0
VERTEX
  8
0
 10
12.6112
 20
29.3446
 30
0.0
 40
0
 41
0
  0
VERTEX
  8
0
 10
11.9969
 20
28.8881
 30
0.0
 40
0
 41
0
  0
VERTEX
  8
0
 10
11.3921
 20
28.3807
 30
0.0
 40
0
 41
0
  0
VERTEX
  8
0
 10
10.9418
 20
27.966
 30
0.0
 40
0
 41
0
  0
VERTEX
  8
0
 10
10.7968
 20
27.8226
 30
0.0
 40
0
 41
0
  0
VERTEX
  8
0
 10
10.7941
 20
27.819
 30
0.0
 40
0
 41
0
  0
VERTEX
  8
0
 10
10.7927
 20
27.8031
 30
0.0
 40
0
 41
0
  0
VERTEX
  8
0
 10
10.8087
 20
27.7912
 30
0.0
 40
0
 41
0
  0
VERTEX
  8
0
 10
10.8146
 20
27.7894
 30
0.0
 40
0
 41
0
  0
VERTEX
  8
0
 10
10.8263
 20
27.7904
 30
0.0
 40
0
 41
0
  0
VERTEX
  8
0
 10
10.9109
 20
27.7947
 30
0.0
 40
0
 41
0
  0
VERTEX
  8
0
 10
10.9392
 20
27.7947
 30
0.0
 40
0
 41
0
  0
VERTEX
  8
0
 10
10.9595
 20
27.7947
 30
0.0
 40
0
 41
0
  0
VERTEX
  8
0
 10
11.0204
 20
27.7908
 30
0.0
 40
0
 41
0
  0
VERTEX
  8
0
 10
11.0699
 20
27.7818
 30
0.0
 40
0
 41
0
  0
VERTEX
  8
0
 10
11.0774
 20
27.7792
 30
0.0
 40
0
 41
0
  0
VERTEX
  8
0
 10
11.0892
 20
27.7765
 30
0.0
 40
0
 41
0
  0
VERTEX
  8
0
 10
11.143
 20
27.7517
 30
0.0
 40
0
 41
0
  0
VERTEX
  8
0
 10
11.1897
 20
27.7108
 30
0.0
 40
0
 41
0
  0
VERTEX
  8
0
 10
11.1981
 20
27.7004
 30
0.0
 40
0
 41
0
  0
VERTEX
  8
0
 10
11.21
 20
27.6892
 30
0.0
 40
0
 41
0
  0
VERTEX
  8
0
 10
11.2322
 20
27.6408
 30
0.0
 40
0
 41
0
  0
VERTEX
  8
0
 10
11.2513
 20
27.541
 30
0.0
 40
0
 41
0
  0
VERTEX
  8
0
 10
11.2552
 20
27.4006
 30
0.0
 40
0
 41
0
  0
VERTEX
  8
0
 10
11.2481
 20
27.2647
 30
0.0
 40
0
 41
0
  0
VERTEX
  8
0
 10
11.2439
 20
27.2197
 30
0.0
 40
0
 41
0
  0
VERTEX
  8
0
 10
11.2342
 20
27.161
 30
0.0
 40
0
 41
0
  0
VERTEX
  8
0
 10
11.1979
 20
26.9857
 30
0.0
 40
0
 41
0
  0
VERTEX
  8
0
 10
11.1415
 20
26.7764
 30
0.0
 40
0
 41
0
  0
VERTEX
  8
0
 10
11.0749
 20
26.5918
 30
0.0
 40
0
 41
0
  0
VERTEX
  8
0
 10
11.0195
 20
26.4706
 30
0.0
 40
0
 41
0
  0
VERTEX
  8
0
 10
10.998
 20
26.4318
 30
0.0
 40
0
 41
0
  0
VERTEX
  8
0
 10
10.9693
 20
26.3714
 30
0.0
 40
0
 41
0
  0
VERTEX
  8
0
 10
10.7943
 20
26.0481
 30
0.0
 40
0
 41
0
  0
VERTEX
  8
0
 10
10.5774
 20
25.6967
 30
0.0
 40
0
 41
0
  0
VERTEX
  8
0
 10
10.5277
 20
25.6221
 30
0.0
 40
0
 41
0
  0
VERTEX
  8
0
 10
10.5273
 20
25.6217
 30
0.0
 40
0
 41
0
  0
VERTEX
  8
0
 10
10.524
 20
25.6193
 30
0.0
 40
0
 41
0
  0
VERTEX
  8
0
 10
10.523
 20
25.6193
 30
0.0
 40
0
 41
0
  0
VERTEX
  8
0
 10
10.5214
 20
25.6193
 30
0.0
 40
0
 41
0
  0
VERTEX
  8
0
 10
10.5168
 20
25.6272
 30
0.0
 40
0
 41
0
  0
VERTEX
  8
0
 10
10.5133
 20
25.6458
 30
0.0
 40
0
 41
0
  0
VERTEX
  8
0
 10
10.5128
 20
25.6511
 30
0.0
 40
0
 41
0
  0
VERTEX
  8
0
 10
10.5166
 20
25.68
 30
0.0
 40
0
 41
0
  0
VERTEX
  8
0
 10
10.5199
 20
25.7681
 30
0.0
 40
0
 41
0
  0
VERTEX
  8
0
 10
10.515
 20
25.9207
 30
0.0
 40
0
 41
0
  0
VERTEX
  8
0
 10
10.4982
 20
26.1092
 30
0.0
 40
0
 41
0
  0
VERTEX
  8
0
 10
10.4775
 20
26.2776
 30
0.0
 40
0
 41
0
  0
VERTEX
  8
0
 10
10.4696
 20
26.3336
 30
0.0
 40
0
 41
0
  0
VERTEX
  8
0
 10
10.461
 20
26.3817
 30
0.0
 40
0
 41
0
  0
VERTEX
  8
0
 10
10.4148
 20
26.5779
 30
0.0
 40
0
 41
0
  0
VERTEX
  8
0
 10
10.3634
 20
26.7146
 30
0.0
 40
0
 41
0
  0
VERTEX
  8
0
 10
10.3524
 20
26.7331
 30
0.0
 40
0
 41
0
  0
VERTEX
  8
0
 10
10.3495
 20
26.7374
 30
0.0
 40
0
 41
0
  0
VERTEX
  8
0
 10
10.3254
 20
26.7589
 30
0.0
 40
0
 41
0
  0
VERTEX
  8
0
 10
10.3174
 20
26.7589
 30
0.0
 40
0
 41
0
  0
VERTEX
  8
0
 10
10.3105
 20
26.7589
 30
0.0
 40
0
 41
0
  0
VERTEX
  8
0
 10
10.2897
 20
26.7438
 30
0.0
 40
0
 41
0
  0
VERTEX
  8
0
 10
10.2659
 20
26.7085
 30
0.0
 40
0
 41
0
  0
VERTEX
  8
0
 10
10.2611
 20
26.6983
 30
0.0
 40
0
 41
0
  0
VERTEX
  8
0
 10
10.124
 20
26.2257
 30
0.0
 40
0
 41
0
  0
VERTEX
  8
0
 10
10.0962
 20
26.1214
 30
0.0
 40
0
 41
0
  0
VERTEX
  8
0
 10
10.0188
 20
25.8071
 30
0.0
 40
0
 41
0
  0
VERTEX
  8
0
 10
9.93033
 20
25.4033
 30
0.0
 40
0
 41
0
  0
VERTEX
  8
0
 10
9.85846
 20
25.0144
 30
0.0
 40
0
 41
0
  0
VERTEX
  8
0
 10
9.80322
 20
24.6403
 30
0.0
 40
0
 41
0
  0
VERTEX
  8
0
 10
9.76465
 20
24.2811
 30
0.0
 40
0
 41
0
  0
VERTEX
  8
0
 10
9.74274
 20
23.9367
 30
0.0
 40
0
 41
0
  0
VERTEX
  8
0
 10
9.73747
 20
23.6072
 30
0.0
 40
0
 41
0
  0
VERTEX
  8
0
 10
9.74382
 20
23.371
 30
0.0
 40
0
 41
0
  0
VERTEX
  8
0
 10
9.74886
 20
23.2925
 30
0.0
 40
0
 41
0
  0
VERTEX
  8
0
 10
9.75657
 20
23.1933
 30
0.0
 40
0
 41
0
  0
VERTEX
  8
0
 10
9.79981
 20
22.7185
 30
0.0
 40
0
 41
0
  0
VERTEX
  8
0
 10
9.84918
 20
22.2714
 30
0.0
 40
0
 41
0
  0
VERTEX
  8
0
 10
9.86003
 20
22.1863
 30
0.0
 40
0
 41
0
  0
VERTEX
  8
0
 10
9.87056
 20
22.115
 30
0.0
 40
0
 41
0
  0
VERTEX
  8
0
 10
9.90278
 20
21.9015
 30
0.0
 40
0
 41
0
  0
VERTEX
  8
0
 10
9.94174
 20
21.65
 30
0.0
 40
0
 41
0
  0
VERTEX
  8
0
 10
9.97694
 20
21.4317
 30
0.0
 40
0
 41
0
  0
VERTEX
  8
0
 10
10.0084
 20
21.2468
 30
0.0
 40
0
 41
0
  0
VERTEX
  8
0
 10
10.0361
 20
21.095
 30
0.0
 40
0
 41
0
  0
VERTEX
  8
0
 10
10.06
 20
20.9767
 30
0.0
 40
0
 41
0
  0
VERTEX
  8
0
 10
10.0801
 20
20.8915
 30
0.0
 40
0
 41
0
  0
VERTEX
  8
0
 10
10.0914
 20
20.8522
 30
0.0
 40
0
 41
0
  0
VERTEX
  8
0
 10
10.0966
 20
20.8396
 30
0.0
 40
0
 41
0
  0
VERTEX
  8
0
 10
10.1186
 20
20.7478
 30
0.0
 40
0
 41
0
  0
VERTEX
  8
0
 10
10.194
 20
20.4742
 30
0.0
 40
0
 41
0
  0
VERTEX
  8
0
 10
10.3008
 20
20.1504
 30
0.0
 40
0
 41
0
  0
VERTEX
  8
0
 10
10.4168
 20
19.8683
 30
0.0
 40
0
 41
0
  0
VERTEX
  8
0
 10
10.5077
 20
19.6863
 30
0.0
 40
0
 41
0
  0
VERTEX
  8
0
 10
10.5422
 20
19.6281
 30
0.0
 40
0
 41
0
  0
VERTEX
  8
0
 10
10.5423
 20
19.6279
 30
0.0
 40
0
 41
0
  0
VERTEX
  8
0
 10
10.5438
 20
19.6275
 30
0.0
 40
0
 41
0
  0
VERTEX
  8
0
 10
10.5443
 20
19.6275
 30
0.0
 40
0
 41
0
  0
VERTEX
  8
0
 10
10.5463
 20
19.6275
 30
0.0
 40
0
 41
0
  0
VERTEX
  8
0
 10
10.5524
 20
19.6389
 30
0.0
 40
0
 41
0
  0
VERTEX
  8
0
 10
10.5567
 20
19.6728
 30
0.0
 40
0
 41
0
  0
VERTEX
  8
0
 10
10.5574
 20
19.7292
 30
0.0
 40
0
 41
0
  0
VERTEX
  8
0
 10
10.5554
 20
19.7885
 30
0.0
 40
0
 41
0
  0
VERTEX
  8
0
 10
10.5544
 20
19.8082
 30
0.0
 40
0
 41
0
  0
VERTEX
  8
0
 10
10.5442
 20
19.8908
 30
0.0
 40
0
 41
0
  0
VERTEX
  8
0
 10
10.5149
 20
20.1389
 30
0.0
 40
0
 41
0
  0
VERTEX
  8
0
 10
10.4857
 20
20.406
 30
0.0
 40
0
 41
0
  0
VERTEX
  8
0
 10
10.4668
 20
20.6093
 30
0.0
 40
0
 41
0
  0
VERTEX
  8
0
 10
10.4592
 20
20.714
 30
0.0
 40
0
 41
0
  0
VERTEX
  8
0
 10
10.4581
 20
20.749
 30
0.0
 40
0
 41
0
  0
VERTEX
  8
0
 10
10.4553
 20
20.8093
 30
0.0
 40
0
 41
0
  0
VERTEX
  8
0
 10
10.451
 20
21.1183
 30
0.0
 40
0
 41
0
  0
VERTEX
  8
0
 10
10.4592
 20
21.4375
 30
0.0
 40
0
 41
0
  0
VERTEX
  8
0
 10
10.4628
 20
21.5028
 30
0.0
 40
0
 41
0
  0
VERTEX
  8
0
 10
10.47
 20
21.5835
 30
0.0
 40
0
 41
0
  0
VERTEX
  8
0
 10
10.4962
 20
21.8251
 30
0.0
 40
0
 41
0
  0
VERTEX
  8
0
 10
10.5342
 20
22.0993
 30
0.0
 40
0
 41
0
  0
VERTEX
  8
0
 10
10.5766
 20
22.3253
 30
0.0
 40
0
 41
0
  0
VERTEX
  8
0
 10
10.6095
 20
22.4592
 30
0.0
 40
0
 41
0
  0
VERTEX
  8
0
 10
10.6235
 20
22.5028
 30
0.0
 40
0
 41
0
  0
VERTEX
  8
0
 10
10.6412
 20
22.5704
 30
0.0
 40
0
 41
0
  0
VERTEX
  8
0
 10
10.7463
 20
22.911
 30
0.0
 40
0
 41
0
  0
VERTEX
  8
0
 10
10.8737
 20
23.2544
 30
0.0
 40
0
 41
0
  0
VERTEX
  8
0
 10
10.9025
 20
23.3236
 30
0.0
 40
0
 41
0
  0
VERTEX
  8
0
 10
10.8866
 20
23.3279
 30
0.0
 40
0
 41
0
  0
VERTEX
  8
0
 10
10.8426
 20
23.3549
 30
0.0
 40
0
 41
0
  0
VERTEX
  8
0
 10
10.798
 20
23.4126
 30
0.0
 40
0
 41
0
  0
VERTEX
  8
0
 10
10.7688
 20
23.4972
 30
0.0
 40
0
 41
0
  0
VERTEX
  8
0
 10
10.7549
 20
23.6085
 30
0.0
 40
0
 41
0
  0
VERTEX
  8
0
 10
10.7563
 20
23.7465
 30
0.0
 40
0
 41
0
  0
VERTEX
  8
0
 10
10.773
 20
23.9111
 30
0.0
 40
0
 41
0
  0
VERTEX
  8
0
 10
10.8051
 20
24.1025
 30
0.0
 40
0
 41
0
  0
VERTEX
  8
0
 10
10.8396
 20
24.2663
 30
0.0
 40
0
 41
0
  0
VERTEX
  8
0
 10
10.8525
 20
24.3204
 30
0.0
 40
0
 41
0
  0
VERTEX
  8
0
 10
10.8755
 20
24.3947
 30
0.0
 40
0
 41
0
  0
VERTEX
  8
0
 10
10.9711
 20
24.6092
 30
0.0
 40
0
 41
0
  0
VERTEX
  8
0
 10
11.153
 20
24.9124
 30
0.0
 40
0
 41
0
  0
VERTEX
  8
0
 10
11.398
 20
25.2301
 30
0.0
 40
0
 41
0
  0
VERTEX
  8
0
 10
11.6261
 20
25.4825
 30
0.0
 40
0
 41
0
  0
VERTEX
  8
0
 10
11.7062
 20
25.5625
 30
0.0
 40
0
 41
0
  0
VERTEX
  8
0
 10
11.7051
 20
25.6592
 30
0.0
 40
0
 41
0
  0
VERTEX
  8
0
 10
11.7108
 20
25.9492
 30
0.0
 40
0
 41
0
  0
VERTEX
  8
0
 10
11.7336
 20
26.3219
 30
0.0
 40
0
 41
0
  0
VERTEX
  8
0
 10
11.7745
 20
26.6807
 30
0.0
 40
0
 41
0
  0
VERTEX
  8
0
 10
11.8337
 20
27.0256
 30
0.0
 40
0
 41
0
  0
VERTEX
  8
0
 10
11.911
 20
27.3564
 30
0.0
 40
0
 41
0
  0
VERTEX
  8
0
 10
12.0065
 20
27.6733
 30
0.0
 40
0
 41
0
  0
VERTEX
  8
0
 10
12.1201
 20
27.9764
 30
0.0
 40
0
 41
0
  0
VERTEX
  8
0
 10
12.2165
 20
28.1944
 30
0.0
 40
0
 41
0
  0
VERTEX
  8
0
 10
12.252
 20
28.2654
 30
0.0
 40
0
 41
0
  0
VERTEX
  8
0
 10
12.2833
 20
28.3281
 30
0.0
 40
0
 41
0
  0
VERTEX
  8
0
 10
12.4561
 20
28.629
 30
0.0
 40
0
 41
0
  0
VERTEX
  8
0
 10
12.6504
 20
28.9135
 30
0.0
 40
0
 41
0
  0
VERTEX
  8
0
 10
12.6925
 20
28.9679
 30
0.0
 40
0
 41
0
  0
VERTEX
  8
0
 10
12.7014
 20
28.9799
 30
0.0
 40
0
 41
0
  0
VERTEX
  8
0
 10
12.7297
 20
29.0147
 30
0.0
 40
0
 41
0
  0
VERTEX
  8
0
 10
12.7868
 20
29.0826
 30
0.0
 40
0
 41
0
  0
VERTEX
  8
0
 10
12.864
 20
29.1718
 30
0.0
 40
0
 41
0
  0
VERTEX
  8
0
 10
12.9613
 20
29.2819
 30
0.0
 40
0
 41
0
  0
VERTEX
  8
0
 10
13.0784
 20
29.4132
 30
0.0
 40
0
 41
0
  0
VERTEX
  8
0
 10
13.2157
 20
29.5657
 30
0.0
 40
0
 41
0
  0
VERTEX
  8
0
 10
13.373
 20
29.7392
 30
0.0
 40
0
 41
0
  0
VERTEX
  8
0
 10
13.506
 20
29.8853
 30
0.0
 40
0
 41
0
  0
VERTEX
  8
0
 10
13.5503
 20
29.9339
 30
0.0
 40
0
 41
0
  0
VERTEX
  8
0
 10
13.5503
 20
29.9339
 30
0.0
 40
0
 41
0
  0
SEQEND
 8
0
  0
POLYLINE
  8
0
 62
     0
 66
     1
 10
0
 20
0
 30
0.0
 70
     1
 40
0
 41
0
  0
VERTEX
  8
0
 10
14.8007
 20
30.3769
 30
0.0
 40
0
 41
0
  0
VERTEX
  8
0
 10
14.6657
 20
30.1854
 30
0.0
 40
0
 41
0
  0
VERTEX
  8
0
 10
14.6142
 20
30.0971
 30
0.0
 40
0
 41
0
  0
VERTEX
  8
0
 10
14.4674
 20
29.8276
 30
0.0
 40
0
 41
0
  0
VERTEX
  8
0
 10
14.3089
 20
29.5046
 30
0.0
 40
0
 41
0
  0
VERTEX
  8
0
 10
14.1903
 20
29.2161
 30
0.0
 40
0
 41
0
  0
VERTEX
  8
0
 10
14.1275
 20
29.0267
 30
0.0
 40
0
 41
0
  0
VERTEX
  8
0
 10
14.1115
 20
28.9622
 30
0.0
 40
0
 41
0
  0
VERTEX
  8
0
 10
14.025
 20
28.6646
 30
0.0
 40
0
 41
0
  0
VERTEX
  8
0
 10
14.0111
 20
28.6135
 30
0.0
 40
0
 41
0
  0
VERTEX
  8
0
 10
13.8872
 20
28.0732
 30
0.0
 40
0
 41
0
  0
VERTEX
  8
0
 10
13.8761
 20
28.0161
 30
0.0
 40
0
 41
0
  0
VERTEX
  8
0
 10
13.8702
 20
27.9693
 30
0.0
 40
0
 41
0
  0
VERTEX
  8
0
 10
13.8536
 20
27.8285
 30
0.0
 40
0
 41
0
  0
VERTEX
  8
0
 10
13.8394
 20
27.6878
 30
0.0
 40
0
 41
0
  0
VERTEX
  8
0
 10
13.8333
 20
27.5939
 30
0.0
 40
0
 41
0
  0
VERTEX
  8
0
 10
13.8333
 20
27.5549
 30
0.0
 40
0
 41
0
  0
VERTEX
  8
0
 10
13.8354
 20
27.5469
 30
0.0
 40
0
 41
0
  0
VERTEX
  8
0
 10
14.0919
 20
27.8071
 30
0.0
 40
0
 41
0
  0
VERTEX
  8
0
 10
14.1017
 20
27.8146
 30
0.0
 40
0
 41
0
  0
VERTEX
  8
0
 10
14.1317
 20
27.8361
 30
0.0
 40
0
 41
0
  0
VERTEX
  8
0
 10
14.1654
 20
27.8568
 30
0.0
 40
0
 41
0
  0
VERTEX
  8
0
 10
14.1932
 20
27.8693
 30
0.0
 40
0
 41
0
  0
VERTEX
  8
0
 10
14.2096
 20
27.8733
 30
0.0
 40
0
 41
0
  0
VERTEX
  8
0
 10
14.2151
 20
27.8733
 30
0.0
 40
0
 41
0
  0
VERTEX
  8
0
 10
14.2207
 20
27.8733
 30
0.0
 40
0
 41
0
  0
VERTEX
  8
0
 10
14.2361
 20
27.8647
 30
0.0
 40
0
 41
0
  0
VERTEX
  8
0
 10
14.2374
 20
27.8629
 30
0.0
 40
0
 41
0
  0
VERTEX
  8
0
 10
14.204
 20
27.7515
 30
0.0
 40
0
 41
0
  0
VERTEX
  8
0
 10
14.1276
 20
27.4097
 30
0.0
 40
0
 41
0
  0
VERTEX
  8
0
 10
14.0726
 20
26.9678
 30
0.0
 40
0
 41
0
  0
VERTEX
  8
0
 10
14.0724
 20
26.5371
 30
0.0
 40
0
 41
0
  0
VERTEX
  8
0
 10
14.1064
 20
26.221
 30
0.0
 40
0
 41
0
  0
VERTEX
  8
0
 10
14.1268
 20
26.1175
 30
0.0
 40
0
 41
0
  0
VERTEX
  8
0
 10
14.1414
 20
26.0489
 30
0.0
 40
0
 41
0
  0
VERTEX
  8
0
 10
14.2281
 20
25.7033
 30
0.0
 40
0
 41
0
  0
VERTEX
  8
0
 10
14.3336
 20
25.3537
 30
0.0
 40
0
 41
0
  0
VERTEX
  8
0
 10
14.3576
 20
25.2832
 30
0.0
 40
0
 41
0
  0
VERTEX
  8
0
 10
15.4426
 20
22.2011
 30
0.0
 40
0
 41
0
  0
VERTEX
  8
0
 10
15.4936
 20
22.0438
 30
0.0
 40
0
 41
0
  0
VERTEX
  8
0
 10
15.6439
 20
21.5707
 30
0.0
 40
0
 41
0
  0
VERTEX
  8
0
 10
15.8153
 20
21.0167
 30
0.0
 40
0
 41
0
  0
VERTEX
  8
0
 10
15.9567
 20
20.5388
 30
0.0
 40
0
 41
0
  0
VERTEX
  8
0
 10
16.0414
 20
20.2376
 30
0.0
 40
0
 41
0
  0
VERTEX
  8
0
 10
16.0682
 20
20.1369
 30
0.0
 40
0
 41
0
  0
VERTEX
  8
0
 10
16.0832
 20
20.0782
 30
0.0
 40
0
 41
0
  0
VERTEX
  8
0
 10
16.2146
 20
19.4979
 30
0.0
 40
0
 41
0
  0
VERTEX
  8
0
 10
16.2258
 20
19.4407
 30
0.0
 40
0
 41
0
  0
VERTEX
  8
0
 10
16.2337
 20
19.4111
 30
0.0
 40
0
 41
0
  0
VERTEX
  8
0
 10
16.2532
 20
19.3113
 30
0.0
 40
0
 41
0
  0
VERTEX
  8
0
 10
16.2875
 20
19.1001
 30
0.0
 40
0
 41
0
  0
VERTEX
  8
0
 10
16.3286
 20
18.8078
 30
0.0
 40
0
 41
0
  0
VERTEX
  8
0
 10
16.3651
 20
18.5274
 30
0.0
 40
0
 41
0
  0
VERTEX
  8
0
 10
16.3768
 20
18.4337
 30
0.0
 40
0
 41
0
  0
VERTEX
  8
0
 10
16.3878
 20
18.3244
 30
0.0
 40
0
 41
0
  0
VERTEX
  8
0
 10
16.4203
 20
17.7874
 30
0.0
 40
0
 41
0
  0
VERTEX
  8
0
 10
16.4224
 20
17.2636
 30
0.0
 40
0
 41
0
  0
VERTEX
  8
0
 10
16.4182
 20
17.1608
 30
0.0
 40
0
 41
0
  0
VERTEX
  8
0
 10
16.4921
 20
17.2699
 30
0.0
 40
0
 41
0
  0
VERTEX
  8
0
 10
16.6868
 20
17.6151
 30
0.0
 40
0
 41
0
  0
VERTEX
  8
0
 10
16.9253
 20
18.1399
 30
0.0
 40
0
 41
0
  0
VERTEX
  8
0
 10
17.1335
 20
18.735
 30
0.0
 40
0
 41
0
  0
VERTEX
  8
0
 10
17.2725
 20
19.2331
 30
0.0
 40
0
 41
0
  0
VERTEX
  8
0
 10
17.3115
 20
19.4007
 30
0.0
 40
0
 41
0
  0
VERTEX
  8
0
 10
17.3296
 20
19.4797
 30
0.0
 40
0
 41
0
  0
VERTEX
  8
0
 10
17.3779
 20
19.7183
 30
0.0
 40
0
 41
0
  0
VERTEX
  8
0
 10
17.4256
 20
20.0118
 30
0.0
 40
0
 41
0
  0
VERTEX
  8
0
 10
17.4544
 20
20.281
 30
0.0
 40
0
 41
0
  0
VERTEX
  8
0
 10
17.4643
 20
20.4649
 30
0.0
 40
0
 41
0
  0
VERTEX
  8
0
 10
17.4646
 20
20.5261
 30
0.0
 40
0
 41
0
  0
VERTEX
  8
0
 10
17.4672
 20
20.6131
 30
0.0
 40
0
 41
0
  0
VERTEX
  8
0
 10
17.4583
 20
21.0553
 30
0.0
 40
0
 41
0
  0
VERTEX
  8
0
 10
17.4193
 20
21.5072
 30
0.0
 40
0
 41
0
  0
VERTEX
  8
0
 10
17.4069
 20
21.5992
 30
0.0
 40
0
 41
0
  0
VERTEX
  8
0
 10
17.4008
 20
21.6451
 30
0.0
 40
0
 41
0
  0
VERTEX
  8
0
 10
17.3203
 20
22.1106
 30
0.0
 40
0
 41
0
  0
VERTEX
  8
0
 10
17.3103
 20
22.1576
 30
0.0
 40
0
 41
0
  0
VERTEX
  8
0
 10
17.3087
 20
22.1625
 30
0.0
 40
0
 41
0
  0
VERTEX
  8
0
 10
17.3007
 20
22.1792
 30
0.0
 40
0
 41
0
  0
VERTEX
  8
0
 10
17.2936
 20
22.1863
 30
0.0
 40
0
 41
0
  0
VERTEX
  8
0
 10
17.2912
 20
22.1863
 30
0.0
 40
0
 41
0
  0
VERTEX
  8
0
 10
17.2907
 20
22.1863
 30
0.0
 40
0
 41
0
  0
VERTEX
  8
0
 10
17.2893
 20
22.186
 30
0.0
 40
0
 41
0
  0
VERTEX
  8
0
 10
17.2892
 20
22.1858
 30
0.0
 40
0
 41
0
  0
VERTEX
  8
0
 10
17.2876
 20
22.1853
 30
0.0
 40
0
 41
0
  0
VERTEX
  8
0
 10
17.2803
 20
22.1754
 30
0.0
 40
0
 41
0
  0
VERTEX
  8
0
 10
17.2732
 20
22.1563
 30
0.0
 40
0
 41
0
  0
VERTEX
  8
0
 10
17.2718
 20
22.1511
 30
0.0
 40
0
 41
0
  0
VERTEX
  8
0
 10
17.2726
 20
22.1082
 30
0.0
 40
0
 41
0
  0
VERTEX
  8
0
 10
17.2633
 20
21.8637
 30
0.0
 40
0
 41
0
  0
VERTEX
  8
0
 10
17.2361
 20
21.5793
 30
0.0
 40
0
 41
0
  0
VERTEX
  8
0
 10
17.2279
 20
21.5164
 30
0.0
 40
0
 41
0
  0
VERTEX
  8
0
 10
17.2229
 20
21.485
 30
0.0
 40
0
 41
0
  0
VERTEX
  8
0
 10
17.189
 20
21.3407
 30
0.0
 40
0
 41
0
  0
VERTEX
  8
0
 10
17.1443
 20
21.2135
 30
0.0
 40
0
 41
0
  0
VERTEX
  8
0
 10
17.1338
 20
21.1904
 30
0.0
 40
0
 41
0
  0
VERTEX
  8
0
 10
17.1328
 20
21.1894
 30
0.0
 40
0
 41
0
  0
VERTEX
  8
0
 10
17.1225
 20
21.1839
 30
0.0
 40
0
 41
0
  0
VERTEX
  8
0
 10
17.1192
 20
21.1839
 30
0.0
 40
0
 41
0
  0
VERTEX
  8
0
 10
17.1094
 20
21.1839
 30
0.0
 40
0
 41
0
  0
VERTEX
  8
0
 10
17.0806
 20
21.2007
 30
0.0
 40
0
 41
0
  0
VERTEX
  8
0
 10
17.0228
 20
21.2514
 30
0.0
 40
0
 41
0
  0
VERTEX
  8
0
 10
16.9461
 20
21.3357
 30
0.0
 40
0
 41
0
  0
VERTEX
  8
0
 10
16.8738
 20
21.4238
 30
0.0
 40
0
 41
0
  0
VERTEX
  8
0
 10
16.8504
 20
21.4536
 30
0.0
 40
0
 41
0
  0
VERTEX
  8
0
 10
16.7386
 20
21.5965
 30
0.0
 40
0
 41
0
  0
VERTEX
  8
0
 10
16.4292
 20
22.0456
 30
0.0
 40
0
 41
0
  0
VERTEX
  8
0
 10
16.0539
 20
22.6853
 30
0.0
 40
0
 41
0
  0
VERTEX
  8
0
 10
15.7244
 20
23.3731
 30
0.0
 40
0
 41
0
  0
VERTEX
  8
0
 10
15.505
 20
23.9225
 30
0.0
 40
0
 41
0
  0
VERTEX
  8
0
 10
15.4411
 20
24.1089
 30
0.0
 40
0
 41
0
  0
VERTEX
  8
0
 10
15.4358
 20
24.1212
 30
0.0
 40
0
 41
0
  0
VERTEX
  8
0
 10
15.4226
 20
24.1594
 30
0.0
 40
0
 41
0
  0
VERTEX
  8
0
 10
15.3989
 20
24.2361
 30
0.0
 40
0
 41
0
  0
VERTEX
  8
0
 10
15.37
 20
24.339
 30
0.0
 40
0
 41
0
  0
VERTEX
  8
0
 10
15.336
 20
24.4679
 30
0.0
 40
0
 41
0
  0
VERTEX
  8
0
 10
15.2967
 20
24.6231
 30
0.0
 40
0
 41
0
  0
VERTEX
  8
0
 10
15.2522
 20
24.8043
 30
0.0
 40
0
 41
0
  0
VERTEX
  8
0
 10
15.2026
 20
25.0117
 30
0.0
 40
0
 41
0
  0
VERTEX
  8
0
 10
15.1614
 20
25.1868
 30
0.0
 40
0
 41
0
  0
VERTEX
  8
0
 10
15.1478
 20
25.2451
 30
0.0
 40
0
 41
0
  0
VERTEX
  8
0
 10
15.1317
 20
25.3181
 30
0.0
 40
0
 41
0
  0
VERTEX
  8
0
 10
15.0569
 20
25.7026
 30
0.0
 40
0
 41
0
  0
VERTEX
  8
0
 10
14.9899
 20
26.1143
 30
0.0
 40
0
 41
0
  0
VERTEX
  8
0
 10
14.9776
 20
26.2007
 30
0.0
 40
0
 41
0
  0
VERTEX
  8
0
 10
14.9097
 20
26.7392
 30
0.0
 40
0
 41
0
  0
VERTEX
  8
0
 10
14.8936
 20
26.8838
 30
0.0
 40
0
 41
0
  0
VERTEX
  8
0
 10
14.8532
 20
27.3185
 30
0.0
 40
0
 41
0
  0
VERTEX
  8
0
 10
14.8082
 20
27.9381
 30
0.0
 40
0
 41
0
  0
VERTEX
  8
0
 10
14.7746
 20
28.5985
 30
0.0
 40
0
 41
0
  0
VERTEX
  8
0
 10
14.7564
 20
29.124
 30
0.0
 40
0
 41
0
  0
VERTEX
  8
0
 10
14.7525
 20
29.2992
 30
0.0
 40
0
 41
0
  0
VERTEX
  8
0
 10
14.7418
 20
30.0407
 30
0.0
 40
0
 41
0
  0
VERTEX
  8
0
 10
14.8007
 20
30.3769
 30
0.0
 40
0
 41
0
  0
SEQEND
 8
0
  0
POLYLINE
  8
0
 62
     0
 66
     1
 10
0
 20
0
 30
0.0
 70
     1
 40
0
 41
0
  0
VERTEX
  8
0
 10
13.9413
 20
29.8501
 30
0.0
 40
0
 41
0
  0
VERTEX
  8
0
 10
13.7969
 20
29.7462
 30
0.0
 40
0
 41
0
  0
VERTEX
  8
0
 10
13.7598
 20
29.7154
 30
0.0
 40
0
 41
0
  0
VERTEX
  8
0
 10
13.6561
 20
29.6132
 30
0.0
 40
0
 41
0
  0
VERTEX
  8
0
 10
13.5188
 20
29.451
 30
0.0
 40
0
 41
0
  0
VERTEX
  8
0
 10
13.3851
 20
29.2596
 30
0.0
 40
0
 41
0
  0
VERTEX
  8
0
 10
13.2856
 20
29.0953
 30
0.0
 40
0
 41
0
  0
VERTEX
  8
0
 10
13.2549
 20
29.039
 30
0.0
 40
0
 41
0
  0
VERTEX
  8
0
 10
13.249
 20
29.0319
 30
0.0
 40
0
 41
0
  0
VERTEX
  8
0
 10
13.2342
 20
29.0082
 30
0.0
 40
0
 41
0
  0
VERTEX
  8
0
 10
13.2061
 20
28.9564
 30
0.0
 40
0
 41
0
  0
VERTEX
  8
0
 10
13.1708
 20
28.8833
 30
0.0
 40
0
 41
0
  0
VERTEX
  8
0
 10
13.1283
 20
28.7893
 30
0.0
 40
0
 41
0
  0
VERTEX
  8
0
 10
13.0785
 20
28.6742
 30
0.0
 40
0
 41
0
  0
VERTEX
  8
0
 10
13.0214
 20
28.5381
 30
0.0
 40
0
 41
0
  0
VERTEX
  8
0
 10
12.9571
 20
28.3807
 30
0.0
 40
0
 41
0
  0
VERTEX
  8
0
 10
12.9034
 20
28.2471
 30
0.0
 40
0
 41
0
  0
VERTEX
  8
0
 10
12.8856
 20
28.2024
 30
0.0
 40
0
 41
0
  0
VERTEX
  8
0
 10
12.7696
 20
27.8651
 30
0.0
 40
0
 41
0
  0
VERTEX
  8
0
 10
12.769
 20
27.8599
 30
0.0
 40
0
 41
0
  0
VERTEX
  8
0
 10
12.7683
 20
27.8383
 30
0.0
 40
0
 41
0
  0
VERTEX
  8
0
 10
12.7706
 20
27.8239
 30
0.0
 40
0
 41
0
  0
VERTEX
  8
0
 10
12.7716
 20
27.8221
 30
0.0
 40
0
 41
0
  0
VERTEX
  8
0
 10
13.0828
 20
27.8772
 30
0.0
 40
0
 41
0
  0
VERTEX
  8
0
 10
13.0828
 20
27.8772
 30
0.0
 40
0
 41
0
  0
VERTEX
  8
0
 10
13.0706
 20
27.8644
 30
0.0
 40
0
 41
0
  0
VERTEX
  8
0
 10
13.0367
 20
27.8107
 30
0.0
 40
0
 41
0
  0
VERTEX
  8
0
 10
12.9718
 20
27.6878
 30
0.0
 40
0
 41
0
  0
VERTEX
  8
0
 10
12.8881
 20
27.5086
 30
0.0
 40
0
 41
0
  0
VERTEX
  8
0
 10
12.8107
 20
27.3322
 30
0.0
 40
0
 41
0
  0
VERTEX
  8
0
 10
12.7856
 20
27.2731
 30
0.0
 40
0
 41
0
  0
VERTEX
  8
0
 10
12.7586
 20
27.2001
 30
0.0
 40
0
 41
0
  0
VERTEX
  8
0
 10
12.647
 20
26.8113
 30
0.0
 40
0
 41
0
  0
VERTEX
  8
0
 10
12.5673
 20
26.3911
 30
0.0
 40
0
 41
0
  0
VERTEX
  8
0
 10
12.5562
 20
26.3022
 30
0.0
 40
0
 41
0
  0
VERTEX
  8
0
 10
12.5461
 20
26.22
 30
0.0
 40
0
 41
0
  0
VERTEX
  8
0
 10
12.5246
 20
25.9721
 30
0.0
 40
0
 41
0
  0
VERTEX
  8
0
 10
12.5086
 20
25.6242
 30
0.0
 40
0
 41
0
  0
VERTEX
  8
0
 10
12.5081
 20
25.2588
 30
0.0
 40
0
 41
0
  0
VERTEX
  8
0
 10
12.5177
 20
24.9713
 30
0.0
 40
0
 41
0
  0
VERTEX
  8
0
 10
12.5233
 20
24.8756
 30
0.0
 40
0
 41
0
  0
VERTEX
  8
0
 10
12.5247
 20
24.8422
 30
0.0
 40
0
 41
0
  0
VERTEX
  8
0
 10
12.5315
 20
24.7424
 30
0.0
 40
0
 41
0
  0
VERTEX
  8
0
 10
12.5461
 20
24.5644
 30
0.0
 40
0
 41
0
  0
VERTEX
  8
0
 10
12.5673
 20
24.3417
 30
0.0
 40
0
 41
0
  0
VERTEX
  8
0
 10
12.5949
 20
24.0742
 30
0.0
 40
0
 41
0
  0
VERTEX
  8
0
 10
12.6291
 20
23.7619
 30
0.0
 40
0
 41
0
  0
VERTEX
  8
0
 10
12.6697
 20
23.405
 30
0.0
 40
0
 41
0
  0
VERTEX
  8
0
 10
12.7167
 20
23.0032
 30
0.0
 40
0
 41
0
  0
VERTEX
  8
0
 10
12.7568
 20
22.6683
 30
0.0
 40
0
 41
0
  0
VERTEX
  8
0
 10
12.7703
 20
22.5567
 30
0.0
 40
0
 41
0
  0
VERTEX
  8
0
 10
12.7758
 20
22.5042
 30
0.0
 40
0
 41
0
  0
VERTEX
  8
0
 10
12.7982
 20
22.2188
 30
0.0
 40
0
 41
0
  0
VERTEX
  8
0
 10
12.8141
 20
21.9031
 30
0.0
 40
0
 41
0
  0
VERTEX
  8
0
 10
12.8163
 20
21.8353
 30
0.0
 40
0
 41
0
  0
VERTEX
  8
0
 10
12.8198
 20
21.7263
 30
0.0
 40
0
 41
0
  0
VERTEX
  8
0
 10
12.8238
 20
21.399
 30
0.0
 40
0
 41
0
  0
VERTEX
  8
0
 10
12.8196
 20
20.9182
 30
0.0
 40
0
 41
0
  0
VERTEX
  8
0
 10
12.8037
 20
20.3928
 30
0.0
 40
0
 41
0
  0
VERTEX
  8
0
 10
12.7842
 20
19.9653
 30
0.0
 40
0
 41
0
  0
VERTEX
  8
0
 10
12.7762
 20
19.8228
 30
0.0
 40
0
 41
0
  0
VERTEX
  8
0
 10
12.7642
 20
19.6701
 30
0.0
 40
0
 41
0
  0
VERTEX
  8
0
 10
12.6834
 20
18.934
 30
0.0
 40
0
 41
0
  0
VERTEX
  8
0
 10
12.5743
 20
18.2342
 30
0.0
 40
0
 41
0
  0
VERTEX
  8
0
 10
12.5483
 20
18.0997
 30
0.0
 40
0
 41
0
  0
VERTEX
  8
0
 10
12.5352
 20
18.0325
 30
0.0
 40
0
 41
0
  0
VERTEX
  8
0
 10
12.3872
 20
17.3825
 30
0.0
 40
0
 41
0
  0
VERTEX
  8
0
 10
12.3706
 20
17.3199
 30
0.0
 40
0
 41
0
  0
VERTEX
  8
0
 10
12.3678
 20
17.3043
 30
0.0
 40
0
 41
0
  0
VERTEX
  8
0
 10
12.3572
 20
17.2583
 30
0.0
 40
0
 41
0
  0
VERTEX
  8
0
 10
12.3353
 20
17.1761
 30
0.0
 40
0
 41
0
  0
VERTEX
  8
0
 10
12.3048
 20
17.0735
 30
0.0
 40
0
 41
0
  0
VERTEX
  8
0
 10
12.2658
 20
16.9504
 30
0.0
 40
0
 41
0
  0
VERTEX
  8
0
 10
12.2182
 20
16.8067
 30
0.0
 40
0
 41
0
  0
VERTEX
  8
0
 10
12.1621
 20
16.6424
 30
0.0
 40
0
 41
0
  0
VERTEX
  8
0
 10
12.0975
 20
16.4575
 30
0.0
 40
0
 41
0
  0
VERTEX
  8
0
 10
12.0428
 20
16.3035
 30
0.0
 40
0
 41
0
  0
VERTEX
  8
0
 10
12.0244
 20
16.2522
 30
0.0
 40
0
 41
0
  0
VERTEX
  8
0
 10
12.0912
 20
16.3132
 30
0.0
 40
0
 41
0
  0
VERTEX
  8
0
 10
12.2848
 20
16.5039
 30
0.0
 40
0
 41
0
  0
VERTEX
  8
0
 10
12.5399
 20
16.7789
 30
0.0
 40
0
 41
0
  0
VERTEX
  8
0
 10
12.7896
 20
17.0772
 30
0.0
 40
0
 41
0
  0
VERTEX
  8
0
 10
12.9747
 20
17.3171
 30
0.0
 40
0
 41
0
  0
VERTEX
  8
0
 10
13.034
 20
17.3987
 30
0.0
 40
0
 41
0
  0
VERTEX
  8
0
 10
13.0693
 20
17.4508
 30
0.0
 40
0
 41
0
  0
VERTEX
  8
0
 10
13.175
 20
17.6072
 30
0.0
 40
0
 41
0
  0
VERTEX
  8
0
 10
13.3008
 20
17.7956
 30
0.0
 40
0
 41
0
  0
VERTEX
  8
0
 10
13.4112
 20
17.9638
 30
0.0
 40
0
 41
0
  0
VERTEX
  8
0
 10
13.5065
 20
18.1119
 30
0.0
 40
0
 41
0
  0
VERTEX
  8
0
 10
13.5865
 20
18.2399
 30
0.0
 40
0
 41
0
  0
VERTEX
  8
0
 10
13.6512
 20
18.3478
 30
0.0
 40
0
 41
0
  0
VERTEX
  8
0
 10
13.7006
 20
18.4357
 30
0.0
 40
0
 41
0
  0
VERTEX
  8
0
 10
13.7268
 20
18.4861
 30
0.0
 40
0
 41
0
  0
VERTEX
  8
0
 10
13.7347
 20
18.5033
 30
0.0
 40
0
 41
0
  0
VERTEX
  8
0
 10
13.7723
 20
18.5706
 30
0.0
 40
0
 41
0
  0
VERTEX
  8
0
 10
13.9576
 20
18.9182
 30
0.0
 40
0
 41
0
  0
VERTEX
  8
0
 10
14.1392
 20
19.2813
 30
0.0
 40
0
 41
0
  0
VERTEX
  8
0
 10
14.175
 20
19.3561
 30
0.0
 40
0
 41
0
  0
VERTEX
  8
0
 10
14.175
 20
19.3561
 30
0.0
 40
0
 41
0
  0
VERTEX
  8
0
 10
13.7674
 20
19.175
 30
0.0
 40
0
 41
0
  0
VERTEX
  8
0
 10
13.7661
 20
19.1749
 30
0.0
 40
0
 41
0
  0
VERTEX
  8
0
 10
13.7562
 20
19.1738
 30
0.0
 40
0
 41
0
  0
VERTEX
  8
0
 10
13.753
 20
19.1738
 30
0.0
 40
0
 41
0
  0
VERTEX
  8
0
 10
13.7471
 20
19.1738
 30
0.0
 40
0
 41
0
  0
VERTEX
  8
0
 10
13.7294
 20
19.1783
 30
0.0
 40
0
 41
0
  0
VERTEX
  8
0
 10
13.7118
 20
19.1922
 30
0.0
 40
0
 41
0
  0
VERTEX
  8
0
 10
13.7001
 20
19.2153
 30
0.0
 40
0
 41
0
  0
VERTEX
  8
0
 10
13.695
 20
19.2393
 30
0.0
 40
0
 41
0
  0
VERTEX
  8
0
 10
13.6944
 20
19.2475
 30
0.0
 40
0
 41
0
  0
VERTEX
  8
0
 10
13.6858
 20
19.3564
 30
0.0
 40
0
 41
0
  0
VERTEX
  8
0
 10
13.6668
 20
19.6837
 30
0.0
 40
0
 41
0
  0
VERTEX
  8
0
 10
13.6596
 20
20.0421
 30
0.0
 40
0
 41
0
  0
VERTEX
  8
0
 10
13.6727
 20
20.3225
 30
0.0
 40
0
 41
0
  0
VERTEX
  8
0
 10
13.693
 20
20.4757
 30
0.0
 40
0
 41
0
  0
VERTEX
  8
0
 10
13.7062
 20
20.525
 30
0.0
 40
0
 41
0
  0
VERTEX
  8
0
 10
13.718
 20
20.5836
 30
0.0
 40
0
 41
0
  0
VERTEX
  8
0
 10
13.7785
 20
20.7544
 30
0.0
 40
0
 41
0
  0
VERTEX
  8
0
 10
13.901
 20
20.9757
 30
0.0
 40
0
 41
0
  0
VERTEX
  8
0
 10
14.0735
 20
21.1887
 30
0.0
 40
0
 41
0
  0
VERTEX
  8
0
 10
14.2375
 20
21.3463
 30
0.0
 40
0
 41
0
  0
VERTEX
  8
0
 10
14.2961
 20
21.3937
 30
0.0
 40
0
 41
0
  0
VERTEX
  8
0
 10
14.2682
 20
21.434
 30
0.0
 40
0
 41
0
  0
VERTEX
  8
0
 10
14.1358
 20
21.6499
 30
0.0
 40
0
 41
0
  0
VERTEX
  8
0
 10
14.0136
 20
21.8847
 30
0.0
 40
0
 41
0
  0
VERTEX
  8
0
 10
13.9906
 20
21.9346
 30
0.0
 40
0
 41
0
  0
VERTEX
  8
0
 10
13.8604
 20
22.2478
 30
0.0
 40
0
 41
0
  0
VERTEX
  8
0
 10
13.84
 20
22.3025
 30
0.0
 40
0
 41
0
  0
VERTEX
  8
0
 10
13.7452
 20
22.5897
 30
0.0
 40
0
 41
0
  0
VERTEX
  8
0
 10
13.6605
 20
22.8961
 30
0.0
 40
0
 41
0
  0
VERTEX
  8
0
 10
13.6451
 20
22.9603
 30
0.0
 40
0
 41
0
  0
VERTEX
  8
0
 10
13.6296
 20
23.0244
 30
0.0
 40
0
 41
0
  0
VERTEX
  8
0
 10
13.5599
 20
23.3594
 30
0.0
 40
0
 41
0
  0
VERTEX
  8
0
 10
13.5003
 20
23.7135
 30
0.0
 40
0
 41
0
  0
VERTEX
  8
0
 10
13.4899
 20
23.7871
 30
0.0
 40
0
 41
0
  0
VERTEX
  8
0
 10
13.4347
 20
24.2435
 30
0.0
 40
0
 41
0
  0
VERTEX
  8
0
 10
13.3947
 20
24.7283
 30
0.0
 40
0
 41
0
  0
VERTEX
  8
0
 10
13.389
 20
24.9574
 30
0.0
 40
0
 41
0
  0
VERTEX
  8
0
 10
13.3867
 20
25.0701
 30
0.0
 40
0
 41
0
  0
VERTEX
  8
0
 10
13.386
 20
25.6063
 30
0.0
 40
0
 41
0
  0
VERTEX
  8
0
 10
13.3994
 20
26.1043
 30
0.0
 40
0
 41
0
  0
VERTEX
  8
0
 10
13.4042
 20
26.1982
 30
0.0
 40
0
 41
0
  0
VERTEX
  8
0
 10
13.408
 20
26.2756
 30
0.0
 40
0
 41
0
  0
VERTEX
  8
0
 10
13.4231
 20
26.5075
 30
0.0
 40
0
 41
0
  0
VERTEX
  8
0
 10
13.4523
 20
26.8833
 30
0.0
 40
0
 41
0
  0
VERTEX
  8
0
 10
13.4918
 20
27.3257
 30
0.0
 40
0
 41
0
  0
VERTEX
  8
0
 10
13.5288
 20
27.7072
 30
0.0
 40
0
 41
0
  0
VERTEX
  8
0
 10
13.5417
 20
27.8343
 30
0.0
 40
0
 41
0
  0
VERTEX
  8
0
 10
13.5564
 20
27.9606
 30
0.0
 40
0
 41
0
  0
VERTEX
  8
0
 10
13.6024
 20
28.339
 30
0.0
 40
0
 41
0
  0
VERTEX
  8
0
 10
13.6571
 20
28.7631
 30
0.0
 40
0
 41
0
  0
VERTEX
  8
0
 10
13.7057
 20
29.1067
 30
0.0
 40
0
 41
0
  0
VERTEX
  8
0
 10
13.7368
 20
29.3043
 30
0.0
 40
0
 41
0
  0
VERTEX
  8
0
 10
13.7484
 20
29.3699
 30
0.0
 40
0
 41
0
  0
VERTEX
  8
0
 10
13.9413
 20
29.8501
 30
0.0
 40
0
 41
0
  0
SEQEND
 8
0
  0
POLYLINE
  8
0
 62
     0
 66
     1
 10
0
 20
0
 30
0.0
 70
     1
 40
0
 41
0
  0
VERTEX
  8
0
 10
9.33669
 20
24.1547
 30
0.0
 40
0
 41
0
  0
VERTEX
  8
0
 10
9.25765
 20
24.0014
 30
0.0
 40
0
 41
0
  0
VERTEX
  8
0
 10
9.23622
 20
23.9549
 30
0.0
 40
0
 41
0
  0
VERTEX
  8
0
 10
9.17925
 20
23.8115
 30
0.0
 40
0
 41
0
  0
VERTEX
  8
0
 10
9.10157
 20
23.5851
 30
0.0
 40
0
 41
0
  0
VERTEX
  8
0
 10
9.02453
 20
23.3221
 30
0.0
 40
0
 41
0
  0
VERTEX
  8
0
 10
8.94814
 20
23.0225
 30
0.0
 40
0
 41
0
  0
VERTEX
  8
0
 10
8.87244
 20
22.6863
 30
0.0
 40
0
 41
0
  0
VERTEX
  8
0
 10
8.79736
 20
22.3135
 30
0.0
 40
0
 41
0
  0
VERTEX
  8
0
 10
8.72299
 20
21.904
 30
0.0
 40
0
 41
0
  0
VERTEX
  8
0
 10
8.66694
 20
21.5697
 30
0.0
 40
0
 41
0
  0
VERTEX
  8
0
 10
8.64931
 20
21.4581
 30
0.0
 40
0
 41
0
  0
VERTEX
  8
0
 10
8.64638
 20
21.4507
 30
0.0
 40
0
 41
0
  0
VERTEX
  8
0
 10
8.63226
 20
21.4303
 30
0.0
 40
0
 41
0
  0
VERTEX
  8
0
 10
8.60553
 20
21.4088
 30
0.0
 40
0
 41
0
  0
VERTEX
  8
0
 10
8.56901
 20
21.3933
 30
0.0
 40
0
 41
0
  0
VERTEX
  8
0
 10
8.53444
 20
21.3856
 30
0.0
 40
0
 41
0
  0
VERTEX
  8
0
 10
8.52285
 20
21.3842
 30
0.0
 40
0
 41
0
  0
VERTEX
  8
0
 10
8.48699
 20
21.3963
 30
0.0
 40
0
 41
0
  0
VERTEX
  8
0
 10
8.37885
 20
21.4301
 30
0.0
 40
0
 41
0
  0
VERTEX
  8
0
 10
8.26079
 20
21.4631
 30
0.0
 40
0
 41
0
  0
VERTEX
  8
0
 10
8.16862
 20
21.4826
 30
0.0
 40
0
 41
0
  0
VERTEX
  8
0
 10
8.11893
 20
21.4892
 30
0.0
 40
0
 41
0
  0
VERTEX
  8
0
 10
8.10237
 20
21.4892
 30
0.0
 40
0
 41
0
  0
VERTEX
  8
0
 10
8.09196
 20
21.4892
 30
0.0
 40
0
 41
0
  0
VERTEX
  8
0
 10
8.06082
 20
21.4821
 30
0.0
 40
0
 41
0
  0
VERTEX
  8
0
 10
8.04736
 20
21.4656
 30
0.0
 40
0
 41
0
  0
VERTEX
  8
0
 10
8.04747
 20
21.4607
 30
0.0
 40
0
 41
0
  0
VERTEX
  8
0
 10
8.10092
 20
21.3683
 30
0.0
 40
0
 41
0
  0
VERTEX
  8
0
 10
8.26069
 20
21.0906
 30
0.0
 40
0
 41
0
  0
VERTEX
  8
0
 10
8.45019
 20
20.7588
 30
0.0
 40
0
 41
0
  0
VERTEX
  8
0
 10
8.616
 20
20.4654
 30
0.0
 40
0
 41
0
  0
VERTEX
  8
0
 10
8.75803
 20
20.2104
 30
0.0
 40
0
 41
0
  0
VERTEX
  8
0
 10
8.87642
 20
19.9939
 30
0.0
 40
0
 41
0
  0
VERTEX
  8
0
 10
8.97103
 20
19.8157
 30
0.0
 40
0
 41
0
  0
VERTEX
  8
0
 10
9.04189
 20
19.6761
 30
0.0
 40
0
 41
0
  0
VERTEX
  8
0
 10
9.07801
 20
19.6004
 30
0.0
 40
0
 41
0
  0
VERTEX
  8
0
 10
9.08908
 20
19.5747
 30
0.0
 40
0
 41
0
  0
VERTEX
  8
0
 10
9.12592
 20
19.4879
 30
0.0
 40
0
 41
0
  0
VERTEX
  8
0
 10
9.22754
 20
19.2237
 30
0.0
 40
0
 41
0
  0
VERTEX
  8
0
 10
9.34022
 20
18.8831
 30
0.0
 40
0
 41
0
  0
VERTEX
  8
0
 10
9.42703
 20
18.5529
 30
0.0
 40
0
 41
0
  0
VERTEX
  8
0
 10
9.47569
 20
18.3137
 30
0.0
 40
0
 41
0
  0
VERTEX
  8
0
 10
9.48801
 20
18.2333
 30
0.0
 40
0
 41
0
  0
VERTEX
  8
0
 10
9.49729
 20
18.1875
 30
0.0
 40
0
 41
0
  0
VERTEX
  8
0
 10
9.52083
 20
18.0492
 30
0.0
 40
0
 41
0
  0
VERTEX
  8
0
 10
9.53456
 20
17.9135
 30
0.0
 40
0
 41
0
  0
VERTEX
  8
0
 10
9.52924
 20
17.8258
 30
0.0
 40
0
 41
0
  0
VERTEX
  8
0
 10
9.51357
 20
17.7904
 30
0.0
 40
0
 41
0
  0
VERTEX
  8
0
 10
9.50483
 20
17.7865
 30
0.0
 40
0
 41
0
  0
VERTEX
  8
0
 10
8.72428
 20
17.8944
 30
0.0
 40
0
 41
0
  0
VERTEX
  8
0
 10
8.70856
 20
17.8931
 30
0.0
 40
0
 41
0
  0
VERTEX
  8
0
 10
8.662
 20
17.8832
 30
0.0
 40
0
 41
0
  0
VERTEX
  8
0
 10
8.61692
 20
17.8617
 30
0.0
 40
0
 41
0
  0
VERTEX
  8
0
 10
8.58903
 20
17.8299
 30
0.0
 40
0
 41
0
  0
VERTEX
  8
0
 10
8.57878
 20
17.7983
 30
0.0
 40
0
 41
0
  0
VERTEX
  8
0
 10
8.57835
 20
17.7878
 30
0.0
 40
0
 41
0
  0
VERTEX
  8
0
 10
8.5779
 20
17.7517
 30
0.0
 40
0
 41
0
  0
VERTEX
  8
0
 10
8.58328
 20
17.6429
 30
0.0
 40
0
 41
0
  0
VERTEX
  8
0
 10
8.60101
 20
17.4628
 30
0.0
 40
0
 41
0
  0
VERTEX
  8
0
 10
8.63151
 20
17.2472
 30
0.0
 40
0
 41
0
  0
VERTEX
  8
0
 10
8.67469
 20
16.9962
 30
0.0
 40
0
 41
0
  0
VERTEX
  8
0
 10
8.73068
 20
16.71
 30
0.0
 40
0
 41
0
  0
VERTEX
  8
0
 10
8.79937
 20
16.3883
 30
0.0
 40
0
 41
0
  0
VERTEX
  8
0
 10
8.88081
 20
16.0314
 30
0.0
 40
0
 41
0
  0
VERTEX
  8
0
 10
8.95101
 20
15.7369
 30
0.0
 40
0
 41
0
  0
VERTEX
  8
0
 10
8.97504
 20
15.6389
 30
0.0
 40
0
 41
0
  0
VERTEX
  8
0
 10
9.03717
 20
15.3928
 30
0.0
 40
0
 41
0
  0
VERTEX
  8
0
 10
9.25396
 20
14.6619
 30
0.0
 40
0
 41
0
  0
VERTEX
  8
0
 10
9.60314
 20
13.6619
 30
0.0
 40
0
 41
0
  0
VERTEX
  8
0
 10
10.0226
 20
12.6391
 30
0.0
 40
0
 41
0
  0
VERTEX
  8
0
 10
10.3839
 20
11.8519
 30
0.0
 40
0
 41
0
  0
VERTEX
  8
0
 10
10.5123
 20
11.5934
 30
0.0
 40
0
 41
0
  0
VERTEX
  8
0
 10
10.5997
 20
11.4173
 30
0.0
 40
0
 41
0
  0
VERTEX
  8
0
 10
11.0722
 20
10.5249
 30
0.0
 40
0
 41
0
  0
VERTEX
  8
0
 10
11.5915
 20
9.61729
 30
0.0
 40
0
 41
0
  0
VERTEX
  8
0
 10
11.7024
 20
9.43349
 30
0.0
 40
0
 41
0
  0
VERTEX
  8
0
 10
12.4027
 20
8.31922
 30
0.0
 40
0
 41
0
  0
VERTEX
  8
0
 10
12.5253
 20
8.13162
 30
0.0
 40
0
 41
0
  0
VERTEX
  8
0
 10
13.1733
 20
7.18218
 30
0.0
 40
0
 41
0
  0
VERTEX
  8
0
 10
13.8682
 20
6.21739
 30
0.0
 40
0
 41
0
  0
VERTEX
  8
0
 10
14.0143
 20
6.02214
 30
0.0
 40
0
 41
0
  0
VERTEX
  8
0
 10
13.9011
 20
6.21029
 30
0.0
 40
0
 41
0
  0
VERTEX
  8
0
 10
13.5833
 20
6.78782
 30
0.0
 40
0
 41
0
  0
VERTEX
  8
0
 10
13.2071
 20
7.56093
 30
0.0
 40
0
 41
0
  0
VERTEX
  8
0
 10
12.8855
 20
8.34142
 30
0.0
 40
0
 41
0
  0
VERTEX
  8
0
 10
12.6788
 20
8.93039
 30
0.0
 40
0
 41
0
  0
VERTEX
  8
0
 10
12.6185
 20
9.12935
 30
0.0
 40
0
 41
0
  0
VERTEX
  8
0
 10
12.5786
 20
9.26129
 30
0.0
 40
0
 41
0
  0
VERTEX
  8
0
 10
12.4061
 20
9.92469
 30
0.0
 40
0
 41
0
  0
VERTEX
  8
0
 10
12.2702
 20
10.5931
 30
0.0
 40
0
 41
0
  0
VERTEX
  8
0
 10
12.2485
 20
10.7275
 30
0.0
 40
0
 41
0
  0
VERTEX
  8
0
 10
12.1454
 20
11.5377
 30
0.0
 40
0
 41
0
  0
VERTEX
  8
0
 10
12.1328
 20
11.6734
 30
0.0
 40
0
 41
0
  0
VERTEX
  8
0
 10
12.0969
 20
12.3554
 30
0.0
 40
0
 41
0
  0
VERTEX
  8
0
 10
12.0976
 20
13.0423
 30
0.0
 40
0
 41
0
  0
VERTEX
  8
0
 10
12.1032
 20
13.1804
 30
0.0
 40
0
 41
0
  0
VERTEX
  8
0
 10
12.1031
 20
13.1804
 30
0.0
 40
0
 41
0
  0
VERTEX
  8
0
 10
12.0571
 20
13.1469
 30
0.0
 40
0
 41
0
  0
VERTEX
  8
0
 10
11.8321
 20
13.0296
 30
0.0
 40
0
 41
0
  0
VERTEX
  8
0
 10
11.6361
 20
12.9793
 30
0.0
 40
0
 41
0
  0
VERTEX
  8
0
 10
11.5708
 20
12.9793
 30
0.0
 40
0
 41
0
  0
VERTEX
  8
0
 10
11.5283
 20
12.9793
 30
0.0
 40
0
 41
0
  0
VERTEX
  8
0
 10
11.401
 20
13.0019
 30
0.0
 40
0
 41
0
  0
VERTEX
  8
0
 10
11.2355
 20
13.0698
 30
0.0
 40
0
 41
0
  0
VERTEX
  8
0
 10
11.0745
 20
13.1829
 30
0.0
 40
0
 41
0
  0
VERTEX
  8
0
 10
10.9178
 20
13.3412
 30
0.0
 40
0
 41
0
  0
VERTEX
  8
0
 10
10.7655
 20
13.5448
 30
0.0
 40
0
 41
0
  0
VERTEX
  8
0
 10
10.6175
 20
13.7936
 30
0.0
 40
0
 41
0
  0
VERTEX
  8
0
 10
10.474
 20
14.0876
 30
0.0
 40
0
 41
0
  0
VERTEX
  8
0
 10
10.3672
 20
14.3412
 30
0.0
 40
0
 41
0
  0
VERTEX
  8
0
 10
10.3348
 20
14.4268
 30
0.0
 40
0
 41
0
  0
VERTEX
  8
0
 10
10.3202
 20
14.48
 30
0.0
 40
0
 41
0
  0
VERTEX
  8
0
 10
10.2882
 20
14.6428
 30
0.0
 40
0
 41
0
  0
VERTEX
  8
0
 10
10.2618
 20
14.8786
 30
0.0
 40
0
 41
0
  0
VERTEX
  8
0
 10
10.2558
 20
15.1343
 30
0.0
 40
0
 41
0
  0
VERTEX
  8
0
 10
10.2641
 20
15.3412
 30
0.0
 40
0
 41
0
  0
VERTEX
  8
0
 10
10.27
 20
15.41
 30
0.0
 40
0
 41
0
  0
VERTEX
  8
0
 10
10.2653
 20
15.4192
 30
0.0
 40
0
 41
0
  0
VERTEX
  8
0
 10
10.268
 20
15.4551
 30
0.0
 40
0
 41
0
  0
VERTEX
  8
0
 10
10.2826
 20
15.55
 30
0.0
 40
0
 41
0
  0
VERTEX
  8
0
 10
10.3139
 20
15.6944
 30
0.0
 40
0
 41
0
  0
VERTEX
  8
0
 10
10.3617
 20
15.8885
 30
0.0
 40
0
 41
0
  0
VERTEX
  8
0
 10
10.4262
 20
16.1322
 30
0.0
 40
0
 41
0
  0
VERTEX
  8
0
 10
10.5073
 20
16.4254
 30
0.0
 40
0
 41
0
  0
VERTEX
  8
0
 10
10.605
 20
16.7683
 30
0.0
 40
0
 41
0
  0
VERTEX
  8
0
 10
10.6906
 20
17.0628
 30
0.0
 40
0
 41
0
  0
VERTEX
  8
0
 10
10.7194
 20
17.1608
 30
0.0
 40
0
 41
0
  0
VERTEX
  8
0
 10
10.6653
 20
17.2637
 30
0.0
 40
0
 41
0
  0
VERTEX
  8
0
 10
10.511
 20
17.5767
 30
0.0
 40
0
 41
0
  0
VERTEX
  8
0
 10
10.3146
 20
18.0082
 30
0.0
 40
0
 41
0
  0
VERTEX
  8
0
 10
10.1303
 20
18.4557
 30
0.0
 40
0
 41
0
  0
VERTEX
  8
0
 10
9.95796
 20
18.919
 30
0.0
 40
0
 41
0
  0
VERTEX
  8
0
 10
9.79769
 20
19.3981
 30
0.0
 40
0
 41
0
  0
VERTEX
  8
0
 10
9.64947
 20
19.8931
 30
0.0
 40
0
 41
0
  0
VERTEX
  8
0
 10
9.51329
 20
20.4039
 30
0.0
 40
0
 41
0
  0
VERTEX
  8
0
 10
9.41829
 20
20.7983
 30
0.0
 40
0
 41
0
  0
VERTEX
  8
0
 10
9.38917
 20
20.9304
 30
0.0
 40
0
 41
0
  0
VERTEX
  8
0
 10
9.36768
 20
21.0342
 30
0.0
 40
0
 41
0
  0
VERTEX
  8
0
 10
9.31125
 20
21.3468
 30
0.0
 40
0
 41
0
  0
VERTEX
  8
0
 10
9.25456
 20
21.7406
 30
0.0
 40
0
 41
0
  0
VERTEX
  8
0
 10
9.21912
 20
22.1118
 30
0.0
 40
0
 41
0
  0
VERTEX
  8
0
 10
9.20589
 20
22.3732
 30
0.0
 40
0
 41
0
  0
VERTEX
  8
0
 10
9.20497
 20
22.4603
 30
0.0
 40
0
 41
0
  0
VERTEX
  8
0
 10
9.20731
 20
22.6801
 30
0.0
 40
0
 41
0
  0
VERTEX
  8
0
 10
9.33669
 20
24.1547
 30
0.0
 40
0
 41
0
  0
SEQEND
 8
0
  0
POLYLINE
  8
0
 62
     0
 66
     1
 10
0
 20
0
 30
0.0
 70
     1
 40
0
 41
0
  0
VERTEX
  8
0
 10
28.6894
 20
34.4099
 30
0.0
 40
0
 41
0
  0
VERTEX
  8
0
 10
28.6875
 20
34.4099
 30
0.0
 40
0
 41
0
  0
VERTEX
  8
0
 10
28.6821
 20
34.3987
 30
0.0
 40
0
 41
0
  0
VERTEX
  8
0
 10
28.6819
 20
34.3964
 30
0.0
 40
0
 41
0
  0
VERTEX
  8
0
 10
28.6843
 20
34.3526
 30
0.0
 40
0
 41
0
  0
VERTEX
  8
0
 10
28.6885
 20
34.1529
 30
0.0
 40
0
 41
0
  0
VERTEX
  8
0
 10
28.6828
 20
33.9792
 30
0.0
 40
0
 41
0
  0
VERTEX
  8
0
 10
28.6803
 20
33.9483
 30
0.0
 40
0
 41
0
  0
VERTEX
  8
0
 10
28.676
 20
33.9047
 30
0.0
 40
0
 41
0
  0
VERTEX
  8
0
 10
28.6518
 20
33.7147
 30
0.0
 40
0
 41
0
  0
VERTEX
  8
0
 10
28.6239
 20
33.5621
 30
0.0
 40
0
 41
0
  0
VERTEX
  8
0
 10
28.6178
 20
33.5372
 30
0.0
 40
0
 41
0
  0
VERTEX
  8
0
 10
28.6039
 20
33.4794
 30
0.0
 40
0
 41
0
  0
VERTEX
  8
0
 10
28.5549
 20
33.3076
 30
0.0
 40
0
 41
0
  0
VERTEX
  8
0
 10
28.4818
 20
33.0997
 30
0.0
 40
0
 41
0
  0
VERTEX
  8
0
 10
28.3985
 20
32.9132
 30
0.0
 40
0
 41
0
  0
VERTEX
  8
0
 10
28.3304
 20
32.7883
 30
0.0
 40
0
 41
0
  0
VERTEX
  8
0
 10
28.3049
 20
32.7485
 30
0.0
 40
0
 41
0
  0
VERTEX
  8
0
 10
28.289
 20
32.7251
 30
0.0
 40
0
 41
0
  0
VERTEX
  8
0
 10
28.1206
 20
32.5174
 30
0.0
 40
0
 41
0
  0
VERTEX
  8
0
 10
28.1028
 20
32.499
 30
0.0
 40
0
 41
0
  0
VERTEX
  8
0
 10
27.9931
 20
32.3978
 30
0.0
 40
0
 41
0
  0
VERTEX
  8
0
 10
27.989
 20
32.3944
 30
0.0
 40
0
 41
0
  0
VERTEX
  8
0
 10
27.9483
 20
32.3622
 30
0.0
 40
0
 41
0
  0
VERTEX
  8
0
 10
27.9443
 20
32.3592
 30
0.0
 40
0
 41
0
  0
VERTEX
  8
0
 10
27.8635
 20
32.3671
 30
0.0
 40
0
 41
0
  0
VERTEX
  8
0
 10
27.6219
 20
32.4004
 30
0.0
 40
0
 41
0
  0
VERTEX
  8
0
 10
27.3514
 20
32.456
 30
0.0
 40
0
 41
0
  0
VERTEX
  8
0
 10
27.1326
 20
32.526
 30
0.0
 40
0
 41
0
  0
VERTEX
  8
0
 10
27.0046
 20
32.585
 30
0.0
 40
0
 41
0
  0
VERTEX
  8
0
 10
26.9656
 20
32.6103
 30
0.0
 40
0
 41
0
  0
VERTEX
  8
0
 10
26.9368
 20
32.6312
 30
0.0
 40
0
 41
0
  0
VERTEX
  8
0
 10
26.855
 20
32.6999
 30
0.0
 40
0
 41
0
  0
VERTEX
  8
0
 10
26.7718
 20
32.7874
 30
0.0
 40
0
 41
0
  0
VERTEX
  8
0
 10
26.7156
 20
32.8728
 30
0.0
 40
0
 41
0
  0
VERTEX
  8
0
 10
26.6907
 20
32.9347
 30
0.0
 40
0
 41
0
  0
VERTEX
  8
0
 10
26.6867
 20
32.9561
 30
0.0
 40
0
 41
0
  0
VERTEX
  8
0
 10
26.6813
 20
32.969
 30
0.0
 40
0
 41
0
  0
VERTEX
  8
0
 10
26.6772
 20
33.0126
 30
0.0
 40
0
 41
0
  0
VERTEX
  8
0
 10
26.6953
 20
33.0714
 30
0.0
 40
0
 41
0
  0
VERTEX
  8
0
 10
26.7408
 20
33.1324
 30
0.0
 40
0
 41
0
  0
VERTEX
  8
0
 10
26.7944
 20
33.1811
 30
0.0
 40
0
 41
0
  0
VERTEX
  8
0
 10
26.8139
 20
33.1954
 30
0.0
 40
0
 41
0
  0
VERTEX
  8
0
 10
26.8144
 20
33.1979
 30
0.0
 40
0
 41
0
  0
VERTEX
  8
0
 10
26.8081
 20
33.2104
 30
0.0
 40
0
 41
0
  0
VERTEX
  8
0
 10
26.7888
 20
33.2242
 30
0.0
 40
0
 41
0
  0
VERTEX
  8
0
 10
26.7829
 20
33.2271
 30
0.0
 40
0
 41
0
  0
VERTEX
  8
0
 10
26.7189
 20
33.244
 30
0.0
 40
0
 41
0
  0
VERTEX
  8
0
 10
26.5256
 20
33.2897
 30
0.0
 40
0
 41
0
  0
VERTEX
  8
0
 10
26.2818
 20
33.3365
 30
0.0
 40
0
 41
0
  0
VERTEX
  8
0
 10
26.0515
 20
33.3679
 30
0.0
 40
0
 41
0
  0
VERTEX
  8
0
 10
25.8893
 20
33.3815
 30
0.0
 40
0
 41
0
  0
VERTEX
  8
0
 10
25.8351
 20
33.3835
 30
0.0
 40
0
 41
0
  0
VERTEX
  8
0
 10
25.7319
 20
33.3854
 30
0.0
 40
0
 41
0
  0
VERTEX
  8
0
 10
25.5956
 20
33.3751
 30
0.0
 40
0
 41
0
  0
VERTEX
  8
0
 10
25.1886
 20
33.3114
 30
0.0
 40
0
 41
0
  0
VERTEX
  8
0
 10
24.6161
 20
33.169
 30
0.0
 40
0
 41
0
  0
VERTEX
  8
0
 10
24.0144
 20
32.9586
 30
0.0
 40
0
 41
0
  0
VERTEX
  8
0
 10
23.5386
 20
32.7551
 30
0.0
 40
0
 41
0
  0
VERTEX
  8
0
 10
23.3836
 20
32.68
 30
0.0
 40
0
 41
0
  0
VERTEX
  8
0
 10
24.2146
 20
32.686
 30
0.0
 40
0
 41
0
  0
VERTEX
  8
0
 10
24.3115
 20
32.686
 30
0.0
 40
0
 41
0
  0
VERTEX
  8
0
 10
24.5689
 20
32.6522
 30
0.0
 40
0
 41
0
  0
VERTEX
  8
0
 10
24.6022
 20
32.6456
 30
0.0
 40
0
 41
0
  0
VERTEX
  8
0
 10
24.6688
 20
32.6319
 30
0.0
 40
0
 41
0
  0
VERTEX
  8
0
 10
25.0131
 20
32.5239
 30
0.0
 40
0
 41
0
  0
VERTEX
  8
0
 10
25.3728
 20
32.3618
 30
0.0
 40
0
 41
0
  0
VERTEX
  8
0
 10
25.4472
 20
32.3212
 30
0.0
 40
0
 41
0
  0
VERTEX
  8
0
 10
25.4843
 20
32.3011
 30
0.0
 40
0
 41
0
  0
VERTEX
  8
0
 10
25.8656
 20
32.0646
 30
0.0
 40
0
 41
0
  0
VERTEX
  8
0
 10
25.9046
 20
32.0376
 30
0.0
 40
0
 41
0
  0
VERTEX
  8
0
 10
26.1421
 20
31.8653
 30
0.0
 40
0
 41
0
  0
VERTEX
  8
0
 10
26.1575
 20
31.8567
 30
0.0
 40
0
 41
0
  0
VERTEX
  8
0
 10
26.1988
 20
31.8207
 30
0.0
 40
0
 41
0
  0
VERTEX
  8
0
 10
26.2737
 20
31.7399
 30
0.0
 40
0
 41
0
  0
VERTEX
  8
0
 10
26.3668
 20
31.6229
 30
0.0
 40
0
 41
0
  0
VERTEX
  8
0
 10
26.4508
 20
31.5086
 30
0.0
 40
0
 41
0
  0
VERTEX
  8
0
 10
26.4781
 20
31.4699
 30
0.0
 40
0
 41
0
  0
VERTEX
  8
0
 10
26.5083
 20
31.4179
 30
0.0
 40
0
 41
0
  0
VERTEX
  8
0
 10
26.5796
 20
31.2507
 30
0.0
 40
0
 41
0
  0
VERTEX
  8
0
 10
26.6369
 20
31.0172
 30
0.0
 40
0
 41
0
  0
VERTEX
  8
0
 10
26.6501
 20
30.7694
 30
0.0
 40
0
 41
0
  0
VERTEX
  8
0
 10
26.6318
 20
30.5719
 30
0.0
 40
0
 41
0
  0
VERTEX
  8
0
 10
26.619
 20
30.5075
 30
0.0
 40
0
 41
0
  0
VERTEX
  8
0
 10
26.6697
 20
30.5675
 30
0.0
 40
0
 41
0
  0
VERTEX
  8
0
 10
26.8386
 20
30.7332
 30
0.0
 40
0
 41
0
  0
VERTEX
  8
0
 10
27.061
 20
30.8946
 30
0.0
 40
0
 41
0
  0
VERTEX
  8
0
 10
27.2864
 20
30.9914
 30
0.0
 40
0
 41
0
  0
VERTEX
  8
0
 10
27.4576
 20
31.0236
 30
0.0
 40
0
 41
0
  0
VERTEX
  8
0
 10
27.5147
 20
31.0236
 30
0.0
 40
0
 41
0
  0
VERTEX
  8
0
 10
27.5533
 20
31.0236
 30
0.0
 40
0
 41
0
  0
VERTEX
  8
0
 10
27.6689
 20
31.0092
 30
0.0
 40
0
 41
0
  0
VERTEX
  8
0
 10
27.7983
 20
30.9756
 30
0.0
 40
0
 41
0
  0
VERTEX
  8
0
 10
27.8243
 20
30.966
 30
0.0
 40
0
 41
0
  0
VERTEX
  8
0
 10
27.8794
 20
30.9378
 30
0.0
 40
0
 41
0
  0
VERTEX
  8
0
 10
28.0367
 20
30.8371
 30
0.0
 40
0
 41
0
  0
VERTEX
  8
0
 10
28.2188
 20
30.6832
 30
0.0
 40
0
 41
0
  0
VERTEX
  8
0
 10
28.3703
 20
30.5043
 30
0.0
 40
0
 41
0
  0
VERTEX
  8
0
 10
28.4654
 20
30.3535
 30
0.0
 40
0
 41
0
  0
VERTEX
  8
0
 10
28.4914
 20
30.3004
 30
0.0
 40
0
 41
0
  0
VERTEX
  8
0
 10
28.5089
 20
30.3026
 30
0.0
 40
0
 41
0
  0
VERTEX
  8
0
 10
28.6522
 20
30.3142
 30
0.0
 40
0
 41
0
  0
VERTEX
  8
0
 10
28.7
 20
30.3142
 30
0.0
 40
0
 41
0
  0
VERTEX
  8
0
 10
28.7654
 20
30.3142
 30
0.0
 40
0
 41
0
  0
VERTEX
  8
0
 10
28.9619
 20
30.2911
 30
0.0
 40
0
 41
0
  0
VERTEX
  8
0
 10
29.2146
 20
30.2217
 30
0.0
 40
0
 41
0
  0
VERTEX
  8
0
 10
29.4578
 20
30.1061
 30
0.0
 40
0
 41
0
  0
VERTEX
  8
0
 10
29.6364
 20
29.9889
 30
0.0
 40
0
 41
0
  0
VERTEX
  8
0
 10
29.6915
 20
29.9444
 30
0.0
 40
0
 41
0
  0
VERTEX
  8
0
 10
29.7185
 20
29.9264
 30
0.0
 40
0
 41
0
  0
VERTEX
  8
0
 10
29.7972
 20
29.8692
 30
0.0
 40
0
 41
0
  0
VERTEX
  8
0
 10
29.9174
 20
29.7757
 30
0.0
 40
0
 41
0
  0
VERTEX
  8
0
 10
30.0519
 20
29.6639
 30
0.0
 40
0
 41
0
  0
VERTEX
  8
0
 10
30.2008
 20
29.5339
 30
0.0
 40
0
 41
0
  0
VERTEX
  8
0
 10
30.3642
 20
29.3857
 30
0.0
 40
0
 41
0
  0
VERTEX
  8
0
 10
30.5419
 20
29.2192
 30
0.0
 40
0
 41
0
  0
VERTEX
  8
0
 10
30.7342
 20
29.0344
 30
0.0
 40
0
 41
0
  0
VERTEX
  8
0
 10
30.8893
 20
28.8825
 30
0.0
 40
0
 41
0
  0
VERTEX
  8
0
 10
30.9407
 20
28.8314
 30
0.0
 40
0
 41
0
  0
VERTEX
  8
0
 10
30.8611
 20
28.9753
 30
0.0
 40
0
 41
0
  0
VERTEX
  8
0
 10
30.6031
 20
29.3963
 30
0.0
 40
0
 41
0
  0
VERTEX
  8
0
 10
30.2103
 20
29.97
 30
0.0
 40
0
 41
0
  0
VERTEX
  8
0
 10
29.7624
 20
30.5531
 30
0.0
 40
0
 41
0
  0
VERTEX
  8
0
 10
29.3883
 20
31.0003
 30
0.0
 40
0
 41
0
  0
VERTEX
  8
0
 10
29.2593
 20
31.1453
 30
0.0
 40
0
 41
0
  0
VERTEX
  8
0
 10
29.2592
 20
31.1453
 30
0.0
 40
0
 41
0
  0
VERTEX
  8
0
 10
29.2715
 20
31.2179
 30
0.0
 40
0
 41
0
  0
VERTEX
  8
0
 10
29.3215
 20
31.5649
 30
0.0
 40
0
 41
0
  0
VERTEX
  8
0
 10
29.3554
 20
31.8906
 30
0.0
 40
0
 41
0
  0
VERTEX
  8
0
 10
29.3599
 20
31.9524
 30
0.0
 40
0
 41
0
  0
VERTEX
  8
0
 10
29.3625
 20
32.0117
 30
0.0
 40
0
 41
0
  0
VERTEX
  8
0
 10
29.3693
 20
32.1893
 30
0.0
 40
0
 41
0
  0
VERTEX
  8
0
 10
29.3737
 20
32.3697
 30
0.0
 40
0
 41
0
  0
VERTEX
  8
0
 10
29.3735
 20
32.4939
 30
0.0
 40
0
 41
0
  0
VERTEX
  8
0
 10
29.3707
 20
32.5483
 30
0.0
 40
0
 41
0
  0
VERTEX
  8
0
 10
29.3682
 20
32.5615
 30
0.0
 40
0
 41
0
  0
VERTEX
  8
0
 10
29.3665
 20
32.5926
 30
0.0
 40
0
 41
0
  0
VERTEX
  8
0
 10
29.3358
 20
32.8844
 30
0.0
 40
0
 41
0
  0
VERTEX
  8
0
 10
29.3314
 20
32.9118
 30
0.0
 40
0
 41
0
  0
VERTEX
  8
0
 10
29.3233
 20
32.9533
 30
0.0
 40
0
 41
0
  0
VERTEX
  8
0
 10
29.2979
 20
33.0774
 30
0.0
 40
0
 41
0
  0
VERTEX
  8
0
 10
29.2682
 20
33.2079
 30
0.0
 40
0
 41
0
  0
VERTEX
  8
0
 10
29.2422
 20
33.3033
 30
0.0
 40
0
 41
0
  0
VERTEX
  8
0
 10
29.2267
 20
33.3494
 30
0.0
 40
0
 41
0
  0
VERTEX
  8
0
 10
29.22
 20
33.3637
 30
0.0
 40
0
 41
0
  0
VERTEX
  8
0
 10
29.211
 20
33.3901
 30
0.0
 40
0
 41
0
  0
VERTEX
  8
0
 10
29.1029
 20
33.6629
 30
0.0
 40
0
 41
0
  0
VERTEX
  8
0
 10
29.0903
 20
33.691
 30
0.0
 40
0
 41
0
  0
VERTEX
  8
0
 10
29.0653
 20
33.7471
 30
0.0
 40
0
 41
0
  0
VERTEX
  8
0
 10
28.916
 20
34.0392
 30
0.0
 40
0
 41
0
  0
VERTEX
  8
0
 10
28.7335
 20
34.3461
 30
0.0
 40
0
 41
0
  0
VERTEX
  8
0
 10
28.6919
 20
34.4097
 30
0.0
 40
0
 41
0
  0
VERTEX
  8
0
 10
28.6906
 20
34.4097
 30
0.0
 40
0
 41
0
  0
VERTEX
  8
0
 10
28.6904
 20
34.4099
 30
0.0
 40
0
 41
0
  0
VERTEX
  8
0
 10
28.6897
 20
34.4099
 30
0.0
 40
0
 41
0
  0
VERTEX
  8
0
 10
28.6894
 20
34.4099
 30
0.0
 40
0
 41
0
  0
SEQEND
 8
0
  0
POLYLINE
  8
0
 62
     0
 66
     1
 10
0
 20
0
 30
0.0
 70
     1
 40
0
 41
0
  0
VERTEX
  8
0
 10
26.2438
 20
30.9493
 30
0.0
 40
0
 41
0
  0
VERTEX
  8
0
 10
26.2947
 20
30.6464
 30
0.0
 40
0
 41
0
  0
VERTEX
  8
0
 10
26.3056
 20
30.3515
 30
0.0
 40
0
 41
0
  0
VERTEX
  8
0
 10
26.2761
 20
30.0647
 30
0.0
 40
0
 41
0
  0
VERTEX
  8
0
 10
26.2062
 20
29.786
 30
0.0
 40
0
 41
0
  0
VERTEX
  8
0
 10
26.0963
 20
29.5151
 30
0.0
 40
0
 41
0
  0
VERTEX
  8
0
 10
25.9461
 20
29.2524
 30
0.0
 40
0
 41
0
  0
VERTEX
  8
0
 10
25.7556
 20
28.9976
 30
0.0
 40
0
 41
0
  0
VERTEX
  8
0
 10
25.7206
 20
28.9558
 30
0.0
 40
0
 41
0
  0
VERTEX
  8
0
 10
25.5249
 20
28.751
 30
0.0
 40
0
 41
0
  0
VERTEX
  8
0
 10
25.3024
 20
28.5514
 30
0.0
 40
0
 41
0
  0
VERTEX
  8
0
 10
25.2539
 20
28.5122
 30
0.0
 40
0
 41
0
  0
VERTEX
  8
0
 10
25.2101
 20
28.4847
 30
0.0
 40
0
 41
0
  0
VERTEX
  8
0
 10
25.0726
 20
28.4122
 30
0.0
 40
0
 41
0
  0
VERTEX
  8
0
 10
24.8924
 20
28.3407
 30
0.0
 40
0
 41
0
  0
VERTEX
  8
0
 10
24.7128
 20
28.2978
 30
0.0
 40
0
 41
0
  0
VERTEX
  8
0
 10
24.5786
 20
28.2835
 30
0.0
 40
0
 41
0
  0
VERTEX
  8
0
 10
24.5339
 20
28.2835
 30
0.0
 40
0
 41
0
  0
VERTEX
  8
0
 10
24.4849
 20
28.2835
 30
0.0
 40
0
 41
0
  0
VERTEX
  8
0
 10
24.3378
 20
28.3008
 30
0.0
 40
0
 41
0
  0
VERTEX
  8
0
 10
24.1751
 20
28.3412
 30
0.0
 40
0
 41
0
  0
VERTEX
  8
0
 10
24.1426
 20
28.3528
 30
0.0
 40
0
 41
0
  0
VERTEX
  8
0
 10
24.0515
 20
28.3942
 30
0.0
 40
0
 41
0
  0
VERTEX
  8
0
 10
24.0367
 20
28.4022
 30
0.0
 40
0
 41
0
  0
VERTEX
  8
0
 10
23.9647
 20
28.4479
 30
0.0
 40
0
 41
0
  0
VERTEX
  8
0
 10
23.8957
 20
28.5017
 30
0.0
 40
0
 41
0
  0
VERTEX
  8
0
 10
23.8824
 20
28.5136
 30
0.0
 40
0
 41
0
  0
VERTEX
  8
0
 10
23.8689
 20
28.5256
 30
0.0
 40
0
 41
0
  0
VERTEX
  8
0
 10
23.8043
 20
28.5915
 30
0.0
 40
0
 41
0
  0
VERTEX
  8
0
 10
23.7426
 20
28.6656
 30
0.0
 40
0
 41
0
  0
VERTEX
  8
0
 10
23.7307
 20
28.6815
 30
0.0
 40
0
 41
0
  0
VERTEX
  8
0
 10
23.7069
 20
28.7136
 30
0.0
 40
0
 41
0
  0
VERTEX
  8
0
 10
23.5967
 20
28.8981
 30
0.0
 40
0
 41
0
  0
VERTEX
  8
0
 10
23.4982
 20
29.1149
 30
0.0
 40
0
 41
0
  0
VERTEX
  8
0
 10
23.4803
 20
29.1632
 30
0.0
 40
0
 41
0
  0
VERTEX
  8
0
 10
23.3847
 20
28.869
 30
0.0
 40
0
 41
0
  0
VERTEX
  8
0
 10
23.3706
 20
28.8211
 30
0.0
 40
0
 41
0
  0
VERTEX
  8
0
 10
23.3113
 20
28.5872
 30
0.0
 40
0
 41
0
  0
VERTEX
  8
0
 10
23.2665
 20
28.3617
 30
0.0
 40
0
 41
0
  0
VERTEX
  8
0
 10
23.2597
 20
28.3176
 30
0.0
 40
0
 41
0
  0
VERTEX
  8
0
 10
23.2531
 20
28.2737
 30
0.0
 40
0
 41
0
  0
VERTEX
  8
0
 10
23.2304
 20
28.0604
 30
0.0
 40
0
 41
0
  0
VERTEX
  8
0
 10
23.2225
 20
27.8551
 30
0.0
 40
0
 41
0
  0
VERTEX
  8
0
 10
23.2232
 20
27.8154
 30
0.0
 40
0
 41
0
  0
VERTEX
  8
0
 10
23.224
 20
27.7572
 30
0.0
 40
0
 41
0
  0
VERTEX
  8
0
 10
23.2379
 20
27.5828
 30
0.0
 40
0
 41
0
  0
VERTEX
  8
0
 10
23.2749
 20
27.3624
 30
0.0
 40
0
 41
0
  0
VERTEX
  8
0
 10
23.3339
 20
27.1542
 30
0.0
 40
0
 41
0
  0
VERTEX
  8
0
 10
23.3918
 20
27.0058
 30
0.0
 40
0
 41
0
  0
VERTEX
  8
0
 10
23.4149
 20
26.9582
 30
0.0
 40
0
 41
0
  0
VERTEX
  8
0
 10
23.4246
 20
27.0132
 30
0.0
 40
0
 41
0
  0
VERTEX
  8
0
 10
23.4771
 20
27.2542
 30
0.0
 40
0
 41
0
  0
VERTEX
  8
0
 10
23.5344
 20
27.4499
 30
0.0
 40
0
 41
0
  0
VERTEX
  8
0
 10
23.5468
 20
27.4824
 30
0.0
 40
0
 41
0
  0
VERTEX
  8
0
 10
23.5528
 20
27.4985
 30
0.0
 40
0
 41
0
  0
VERTEX
  8
0
 10
23.5843
 20
27.5711
 30
0.0
 40
0
 41
0
  0
VERTEX
  8
0
 10
23.6171
 20
27.6325
 30
0.0
 40
0
 41
0
  0
VERTEX
  8
0
 10
23.6239
 20
27.6431
 30
0.0
 40
0
 41
0
  0
VERTEX
  8
0
 10
23.6653
 20
27.6979
 30
0.0
 40
0
 41
0
  0
VERTEX
  8
0
 10
23.6724
 20
27.7057
 30
0.0
 40
0
 41
0
  0
VERTEX
  8
0
 10
23.7085
 20
27.7361
 30
0.0
 40
0
 41
0
  0
VERTEX
  8
0
 10
23.746
 20
27.7551
 30
0.0
 40
0
 41
0
  0
VERTEX
  8
0
 10
23.7536
 20
27.7572
 30
0.0
 40
0
 41
0
  0
VERTEX
  8
0
 10
23.7593
 20
27.7607
 30
0.0
 40
0
 41
0
  0
VERTEX
  8
0
 10
23.7785
 20
27.7676
 30
0.0
 40
0
 41
0
  0
VERTEX
  8
0
 10
23.8149
 20
27.7754
 30
0.0
 40
0
 41
0
  0
VERTEX
  8
0
 10
23.8629
 20
27.7807
 30
0.0
 40
0
 41
0
  0
VERTEX
  8
0
 10
23.9075
 20
27.7833
 30
0.0
 40
0
 41
0
  0
VERTEX
  8
0
 10
23.9225
 20
27.7838
 30
0.0
 40
0
 41
0
  0
VERTEX
  8
0
 10
23.9913
 20
27.7747
 30
0.0
 40
0
 41
0
  0
VERTEX
  8
0
 10
24.3093
 20
27.7431
 30
0.0
 40
0
 41
0
  0
VERTEX
  8
0
 10
24.5606
 20
27.7294
 30
0.0
 40
0
 41
0
  0
VERTEX
  8
0
 10
24.6443
 20
27.7294
 30
0.0
 40
0
 41
0
  0
VERTEX
  8
0
 10
24.7029
 20
27.7294
 30
0.0
 40
0
 41
0
  0
VERTEX
  8
0
 10
24.8603
 20
27.7368
 30
0.0
 40
0
 41
0
  0
VERTEX
  8
0
 10
24.8783
 20
27.7383
 30
0.0
 40
0
 41
0
  0
VERTEX
  8
0
 10
24.9256
 20
27.7419
 30
0.0
 40
0
 41
0
  0
VERTEX
  8
0
 10
25.0667
 20
27.7643
 30
0.0
 40
0
 41
0
  0
VERTEX
  8
0
 10
25.2703
 20
27.8151
 30
0.0
 40
0
 41
0
  0
VERTEX
  8
0
 10
25.489
 20
27.8907
 30
0.0
 40
0
 41
0
  0
VERTEX
  8
0
 10
25.6651
 20
27.9643
 30
0.0
 40
0
 41
0
  0
VERTEX
  8
0
 10
25.7228
 20
27.9911
 30
0.0
 40
0
 41
0
  0
VERTEX
  8
0
 10
25.5504
 20
28.164
 30
0.0
 40
0
 41
0
  0
VERTEX
  8
0
 10
25.5471
 20
28.1679
 30
0.0
 40
0
 41
0
  0
VERTEX
  8
0
 10
25.5371
 20
28.1851
 30
0.0
 40
0
 41
0
  0
VERTEX
  8
0
 10
25.5364
 20
28.1997
 30
0.0
 40
0
 41
0
  0
VERTEX
  8
0
 10
25.5376
 20
28.2022
 30
0.0
 40
0
 41
0
  0
VERTEX
  8
0
 10
25.5663
 20
28.2179
 30
0.0
 40
0
 41
0
  0
VERTEX
  8
0
 10
25.8288
 20
28.3922
 30
0.0
 40
0
 41
0
  0
VERTEX
  8
0
 10
25.8525
 20
28.4114
 30
0.0
 40
0
 41
0
  0
VERTEX
  8
0
 10
25.9901
 20
28.5353
 30
0.0
 40
0
 41
0
  0
VERTEX
  8
0
 10
26.0119
 20
28.5572
 30
0.0
 40
0
 41
0
  0
VERTEX
  8
0
 10
26.2101
 20
28.7993
 30
0.0
 40
0
 41
0
  0
VERTEX
  8
0
 10
26.2279
 20
28.8258
 30
0.0
 40
0
 41
0
  0
VERTEX
  8
0
 10
26.2633
 20
28.879
 30
0.0
 40
0
 41
0
  0
VERTEX
  8
0
 10
26.4157
 20
29.1729
 30
0.0
 40
0
 41
0
  0
VERTEX
  8
0
 10
26.5349
 20
29.5046
 30
0.0
 40
0
 41
0
  0
VERTEX
  8
0
 10
26.5538
 20
29.5765
 30
0.0
 40
0
 41
0
  0
VERTEX
  8
0
 10
26.5576
 20
29.6326
 30
0.0
 40
0
 41
0
  0
VERTEX
  8
0
 10
26.5654
 20
29.8012
 30
0.0
 40
0
 41
0
  0
VERTEX
  8
0
 10
26.5671
 20
30.0078
 30
0.0
 40
0
 41
0
  0
VERTEX
  8
0
 10
26.5587
 20
30.1962
 30
0.0
 40
0
 41
0
  0
VERTEX
  8
0
 10
26.5465
 20
30.3243
 30
0.0
 40
0
 41
0
  0
VERTEX
  8
0
 10
26.5404
 20
30.3667
 30
0.0
 40
0
 41
0
  0
VERTEX
  8
0
 10
26.5365
 20
30.3936
 30
0.0
 40
0
 41
0
  0
VERTEX
  8
0
 10
26.5122
 20
30.519
 30
0.0
 40
0
 41
0
  0
VERTEX
  8
0
 10
26.4811
 20
30.6324
 30
0.0
 40
0
 41
0
  0
VERTEX
  8
0
 10
26.474
 20
30.6532
 30
0.0
 40
0
 41
0
  0
VERTEX
  8
0
 10
26.4257
 20
30.7693
 30
0.0
 40
0
 41
0
  0
VERTEX
  8
0
 10
26.4168
 20
30.7872
 30
0.0
 40
0
 41
0
  0
VERTEX
  8
0
 10
26.3674
 20
30.8674
 30
0.0
 40
0
 41
0
  0
VERTEX
  8
0
 10
26.3114
 20
30.9356
 30
0.0
 40
0
 41
0
  0
VERTEX
  8
0
 10
26.2993
 20
30.9472
 30
0.0
 40
0
 41
0
  0
VERTEX
  8
0
 10
26.2438
 20
30.9493
 30
0.0
 40
0
 41
0
  0
SEQEND
 8
0
  0
POLYLINE
  8
0
 62
     0
 66
     1
 10
0
 20
0
 30
0.0
 70
     1
 40
0
 41
0
  0
VERTEX
  8
0
 10
26.8582
 20
29.8071
 30
0.0
 40
0
 41
0
  0
VERTEX
  8
0
 10
26.6926
 20
29.2433
 30
0.0
 40
0
 41
0
  0
VERTEX
  8
0
 10
26.6824
 20
29.1614
 30
0.0
 40
0
 41
0
  0
VERTEX
  8
0
 10
26.6172
 20
28.7699
 30
0.0
 40
0
 41
0
  0
VERTEX
  8
0
 10
26.5338
 20
28.4024
 30
0.0
 40
0
 41
0
  0
VERTEX
  8
0
 10
26.5144
 20
28.3324
 30
0.0
 40
0
 41
0
  0
VERTEX
  8
0
 10
26.495
 20
28.2625
 30
0.0
 40
0
 41
0
  0
VERTEX
  8
0
 10
26.3842
 20
27.9308
 30
0.0
 40
0
 41
0
  0
VERTEX
  8
0
 10
26.2551
 20
27.6232
 30
0.0
 40
0
 41
0
  0
VERTEX
  8
0
 10
26.2267
 20
27.5651
 30
0.0
 40
0
 41
0
  0
VERTEX
  8
0
 10
26.1981
 20
27.5072
 30
0.0
 40
0
 41
0
  0
VERTEX
  8
0
 10
26.0417
 20
27.2354
 30
0.0
 40
0
 41
0
  0
VERTEX
  8
0
 10
25.8668
 20
26.9875
 30
0.0
 40
0
 41
0
  0
VERTEX
  8
0
 10
25.8292
 20
26.9415
 30
0.0
 40
0
 41
0
  0
VERTEX
  8
0
 10
25.7915
 20
26.8956
 30
0.0
 40
0
 41
0
  0
VERTEX
  8
0
 10
25.5894
 20
26.6835
 30
0.0
 40
0
 41
0
  0
VERTEX
  8
0
 10
25.369
 20
26.4954
 30
0.0
 40
0
 41
0
  0
VERTEX
  8
0
 10
25.3222
 20
26.4614
 30
0.0
 40
0
 41
0
  0
VERTEX
  8
0
 10
25.0276
 20
26.2753
 30
0.0
 40
0
 41
0
  0
VERTEX
  8
0
 10
25.0474
 20
26.1917
 30
0.0
 40
0
 41
0
  0
VERTEX
  8
0
 10
25.0803
 20
25.9347
 30
0.0
 40
0
 41
0
  0
VERTEX
  8
0
 10
25.0714
 20
25.6215
 30
0.0
 40
0
 41
0
  0
VERTEX
  8
0
 10
25.001
 20
25.3353
 30
0.0
 40
0
 41
0
  0
VERTEX
  8
0
 10
24.9092
 20
25.1364
 30
0.0
 40
0
 41
0
  0
VERTEX
  8
0
 10
24.8693
 20
25.0763
 30
0.0
 40
0
 41
0
  0
VERTEX
  8
0
 10
24.8187
 20
25.0071
 30
0.0
 40
0
 41
0
  0
VERTEX
  8
0
 10
24.6578
 20
24.8063
 30
0.0
 40
0
 41
0
  0
VERTEX
  8
0
 10
24.4737
 20
24.6133
 30
0.0
 40
0
 41
0
  0
VERTEX
  8
0
 10
24.3171
 20
24.4976
 30
0.0
 40
0
 41
0
  0
VERTEX
  8
0
 10
24.2203
 20
24.459
 30
0.0
 40
0
 41
0
  0
VERTEX
  8
0
 10
24.1881
 20
24.459
 30
0.0
 40
0
 41
0
  0
VERTEX
  8
0
 10
24.1861
 20
24.459
 30
0.0
 40
0
 41
0
  0
VERTEX
  8
0
 10
24.1813
 20
24.4593
 30
0.0
 40
0
 41
0
  0
VERTEX
  8
0
 10
24.1807
 20
24.4593
 30
0.0
 40
0
 41
0
  0
VERTEX
  8
0
 10
24.175
 20
24.4583
 30
0.0
 40
0
 41
0
  0
VERTEX
  8
0
 10
24.1289
 20
24.4533
 30
0.0
 40
0
 41
0
  0
VERTEX
  8
0
 10
24.1136
 20
24.4533
 30
0.0
 40
0
 41
0
  0
VERTEX
  8
0
 10
24.0775
 20
24.4533
 30
0.0
 40
0
 41
0
  0
VERTEX
  8
0
 10
23.9693
 20
24.4829
 30
0.0
 40
0
 41
0
  0
VERTEX
  8
0
 10
23.8326
 20
24.5719
 30
0.0
 40
0
 41
0
  0
VERTEX
  8
0
 10
23.7038
 20
24.7201
 30
0.0
 40
0
 41
0
  0
VERTEX
  8
0
 10
23.609
 20
24.874
 30
0.0
 40
0
 41
0
  0
VERTEX
  8
0
 10
23.5825
 20
24.9276
 30
0.0
 40
0
 41
0
  0
VERTEX
  8
0
 10
23.5756
 20
24.8736
 30
0.0
 40
0
 41
0
  0
VERTEX
  8
0
 10
23.5385
 20
24.3303
 30
0.0
 40
0
 41
0
  0
VERTEX
  8
0
 10
23.5381
 20
24.2758
 30
0.0
 40
0
 41
0
  0
VERTEX
  8
0
 10
23.5375
 20
24.2213
 30
0.0
 40
0
 41
0
  0
VERTEX
  8
0
 10
23.5654
 20
23.6742
 30
0.0
 40
0
 41
0
  0
VERTEX
  8
0
 10
23.5714
 20
23.6193
 30
0.0
 40
0
 41
0
  0
VERTEX
  8
0
 10
23.6174
 20
23.2893
 30
0.0
 40
0
 41
0
  0
VERTEX
  8
0
 10
23.6358
 20
23.1792
 30
0.0
 40
0
 41
0
  0
VERTEX
  8
0
 10
23.7674
 20
22.6261
 30
0.0
 40
0
 41
0
  0
VERTEX
  8
0
 10
23.9507
 20
22.07
 30
0.0
 40
0
 41
0
  0
VERTEX
  8
0
 10
23.9951
 20
21.9583
 30
0.0
 40
0
 41
0
  0
VERTEX
  8
0
 10
24.0088
 20
22.03
 30
0.0
 40
0
 41
0
  0
VERTEX
  8
0
 10
24.0512
 20
22.2449
 30
0.0
 40
0
 41
0
  0
VERTEX
  8
0
 10
24.0979
 20
22.4649
 30
0.0
 40
0
 41
0
  0
VERTEX
  8
0
 10
24.1353
 20
22.6185
 30
0.0
 40
0
 41
0
  0
VERTEX
  8
0
 10
24.1556
 20
22.6876
 30
0.0
 40
0
 41
0
  0
VERTEX
  8
0
 10
24.1632
 20
22.7056
 30
0.0
 40
0
 41
0
  0
VERTEX
  8
0
 10
24.1749
 20
22.745
 30
0.0
 40
0
 41
0
  0
VERTEX
  8
0
 10
24.3065
 20
23.125
 30
0.0
 40
0
 41
0
  0
VERTEX
  8
0
 10
24.3213
 20
23.1617
 30
0.0
 40
0
 41
0
  0
VERTEX
  8
0
 10
24.3406
 20
23.2132
 30
0.0
 40
0
 41
0
  0
VERTEX
  8
0
 10
24.4067
 20
23.3651
 30
0.0
 40
0
 41
0
  0
VERTEX
  8
0
 10
24.516
 20
23.584
 30
0.0
 40
0
 41
0
  0
VERTEX
  8
0
 10
24.6492
 20
23.8185
 30
0.0
 40
0
 41
0
  0
VERTEX
  8
0
 10
24.7658
 20
24.0067
 30
0.0
 40
0
 41
0
  0
VERTEX
  8
0
 10
24.8064
 20
24.0683
 30
0.0
 40
0
 41
0
  0
VERTEX
  8
0
 10
24.8256
 20
24.0979
 30
0.0
 40
0
 41
0
  0
VERTEX
  8
0
 10
24.8854
 20
24.1853
 30
0.0
 40
0
 41
0
  0
VERTEX
  8
0
 10
24.9844
 20
24.3235
 30
0.0
 40
0
 41
0
  0
VERTEX
  8
0
 10
25.1036
 20
24.4829
 30
0.0
 40
0
 41
0
  0
VERTEX
  8
0
 10
25.2428
 20
24.6635
 30
0.0
 40
0
 41
0
  0
VERTEX
  8
0
 10
25.4021
 20
24.8654
 30
0.0
 40
0
 41
0
  0
VERTEX
  8
0
 10
25.5812
 20
25.0886
 30
0.0
 40
0
 41
0
  0
VERTEX
  8
0
 10
25.7806
 20
25.3331
 30
0.0
 40
0
 41
0
  0
VERTEX
  8
0
 10
25.945
 20
25.5325
 30
0.0
 40
0
 41
0
  0
VERTEX
  8
0
 10
26
 20
25.5987
 30
0.0
 40
0
 41
0
  0
VERTEX
  8
0
 10
26.036
 20
25.6585
 30
0.0
 40
0
 41
0
  0
VERTEX
  8
0
 10
26.1369
 20
25.8422
 30
0.0
 40
0
 41
0
  0
VERTEX
  8
0
 10
26.2497
 20
26.0769
 30
0.0
 40
0
 41
0
  0
VERTEX
  8
0
 10
26.3386
 20
26.3029
 30
0.0
 40
0
 41
0
  0
VERTEX
  8
0
 10
26.3897
 20
26.4653
 30
0.0
 40
0
 41
0
  0
VERTEX
  8
0
 10
26.4033
 20
26.5203
 30
0.0
 40
0
 41
0
  0
VERTEX
  8
0
 10
26.4046
 20
26.5211
 30
0.0
 40
0
 41
0
  0
VERTEX
  8
0
 10
26.4167
 20
26.525
 30
0.0
 40
0
 41
0
  0
VERTEX
  8
0
 10
26.4207
 20
26.525
 30
0.0
 40
0
 41
0
  0
VERTEX
  8
0
 10
26.4322
 20
26.525
 30
0.0
 40
0
 41
0
  0
VERTEX
  8
0
 10
26.4668
 20
26.5071
 30
0.0
 40
0
 41
0
  0
VERTEX
  8
0
 10
26.5287
 20
26.4535
 30
0.0
 40
0
 41
0
  0
VERTEX
  8
0
 10
26.6069
 20
26.364
 30
0.0
 40
0
 41
0
  0
VERTEX
  8
0
 10
26.6783
 20
26.2707
 30
0.0
 40
0
 41
0
  0
VERTEX
  8
0
 10
26.701
 20
26.2387
 30
0.0
 40
0
 41
0
  0
VERTEX
  8
0
 10
26.7024
 20
26.2378
 30
0.0
 40
0
 41
0
  0
VERTEX
  8
0
 10
26.7128
 20
26.2326
 30
0.0
 40
0
 41
0
  0
VERTEX
  8
0
 10
26.7164
 20
26.2326
 30
0.0
 40
0
 41
0
  0
VERTEX
  8
0
 10
26.7237
 20
26.2326
 30
0.0
 40
0
 41
0
  0
VERTEX
  8
0
 10
26.7438
 20
26.2543
 30
0.0
 40
0
 41
0
  0
VERTEX
  8
0
 10
26.7461
 20
26.2586
 30
0.0
 40
0
 41
0
  0
VERTEX
  8
0
 10
26.7635
 20
26.3271
 30
0.0
 40
0
 41
0
  0
VERTEX
  8
0
 10
26.8136
 20
26.5329
 30
0.0
 40
0
 41
0
  0
VERTEX
  8
0
 10
26.8721
 20
26.7883
 30
0.0
 40
0
 41
0
  0
VERTEX
  8
0
 10
26.9215
 20
27.0246
 30
0.0
 40
0
 41
0
  0
VERTEX
  8
0
 10
26.9618
 20
27.2421
 30
0.0
 40
0
 41
0
  0
VERTEX
  8
0
 10
26.9932
 20
27.4404
 30
0.0
 40
0
 41
0
  0
VERTEX
  8
0
 10
27.0154
 20
27.62
 30
0.0
 40
0
 41
0
  0
VERTEX
  8
0
 10
27.0285
 20
27.7806
 30
0.0
 40
0
 41
0
  0
VERTEX
  8
0
 10
27.0328
 20
27.8867
 30
0.0
 40
0
 41
0
  0
VERTEX
  8
0
 10
27.0326
 20
27.9221
 30
0.0
 40
0
 41
0
  0
VERTEX
  8
0
 10
27.0367
 20
27.9965
 30
0.0
 40
0
 41
0
  0
VERTEX
  8
0
 10
27.035
 20
28.2204
 30
0.0
 40
0
 41
0
  0
VERTEX
  8
0
 10
27.0139
 20
28.5876
 30
0.0
 40
0
 41
0
  0
VERTEX
  8
0
 10
26.9692
 20
29.0237
 30
0.0
 40
0
 41
0
  0
VERTEX
  8
0
 10
26.9197
 20
29.4028
 30
0.0
 40
0
 41
0
  0
VERTEX
  8
0
 10
26.9011
 20
29.5288
 30
0.0
 40
0
 41
0
  0
VERTEX
  8
0
 10
26.8582
 20
29.8071
 30
0.0
 40
0
 41
0
  0
SEQEND
 8
0
  0
POLYLINE
  8
0
 62
     0
 66
     1
 10
0
 20
0
 30
0.0
 70
     1
 40
0
 41
0
  0
VERTEX
  8
0
 10
29.1915
 20
29.9337
 30
0.0
 40
0
 41
0
  0
VERTEX
  8
0
 10
29.2358
 20
29.8851
 30
0.0
 40
0
 41
0
  0
VERTEX
  8
0
 10
29.3688
 20
29.7392
 30
0.0
 40
0
 41
0
  0
VERTEX
  8
0
 10
29.5261
 20
29.5656
 30
0.0
 40
0
 41
0
  0
VERTEX
  8
0
 10
29.6633
 20
29.4132
 30
0.0
 40
0
 41
0
  0
VERTEX
  8
0
 10
29.7806
 20
29.2819
 30
0.0
 40
0
 41
0
  0
VERTEX
  8
0
 10
29.8778
 20
29.1718
 30
0.0
 40
0
 41
0
  0
VERTEX
  8
0
 10
29.9549
 20
29.0826
 30
0.0
 40
0
 41
0
  0
VERTEX
  8
0
 10
30.0121
 20
29.0147
 30
0.0
 40
0
 41
0
  0
VERTEX
  8
0
 10
30.0403
 20
28.9799
 30
0.0
 40
0
 41
0
  0
VERTEX
  8
0
 10
30.0493
 20
28.9679
 30
0.0
 40
0
 41
0
  0
VERTEX
  8
0
 10
30.0914
 20
28.9135
 30
0.0
 40
0
 41
0
  0
VERTEX
  8
0
 10
30.2857
 20
28.629
 30
0.0
 40
0
 41
0
  0
VERTEX
  8
0
 10
30.4585
 20
28.3281
 30
0.0
 40
0
 41
0
  0
VERTEX
  8
0
 10
30.4899
 20
28.2654
 30
0.0
 40
0
 41
0
  0
VERTEX
  8
0
 10
30.5253
 20
28.1944
 30
0.0
 40
0
 41
0
  0
VERTEX
  8
0
 10
30.6217
 20
27.9764
 30
0.0
 40
0
 41
0
  0
VERTEX
  8
0
 10
30.7353
 20
27.6733
 30
0.0
 40
0
 41
0
  0
VERTEX
  8
0
 10
30.8308
 20
27.3564
 30
0.0
 40
0
 41
0
  0
VERTEX
  8
0
 10
30.9081
 20
27.0256
 30
0.0
 40
0
 41
0
  0
VERTEX
  8
0
 10
30.9672
 20
26.6807
 30
0.0
 40
0
 41
0
  0
VERTEX
  8
0
 10
31.0082
 20
26.3219
 30
0.0
 40
0
 41
0
  0
VERTEX
  8
0
 10
31.031
 20
25.9492
 30
0.0
 40
0
 41
0
  0
VERTEX
  8
0
 10
31.0367
 20
25.6592
 30
0.0
 40
0
 41
0
  0
VERTEX
  8
0
 10
31.0356
 20
25.5625
 30
0.0
 40
0
 41
0
  0
VERTEX
  8
0
 10
31.1156
 20
25.4825
 30
0.0
 40
0
 41
0
  0
VERTEX
  8
0
 10
31.3438
 20
25.2301
 30
0.0
 40
0
 41
0
  0
VERTEX
  8
0
 10
31.5887
 20
24.9124
 30
0.0
 40
0
 41
0
  0
VERTEX
  8
0
 10
31.7706
 20
24.6092
 30
0.0
 40
0
 41
0
  0
VERTEX
  8
0
 10
31.8663
 20
24.3947
 30
0.0
 40
0
 41
0
  0
VERTEX
  8
0
 10
31.8892
 20
24.3204
 30
0.0
 40
0
 41
0
  0
VERTEX
  8
0
 10
31.9021
 20
24.2663
 30
0.0
 40
0
 41
0
  0
VERTEX
  8
0
 10
31.9367
 20
24.1025
 30
0.0
 40
0
 41
0
  0
VERTEX
  8
0
 10
31.9688
 20
23.9111
 30
0.0
 40
0
 41
0
  0
VERTEX
  8
0
 10
31.9854
 20
23.7465
 30
0.0
 40
0
 41
0
  0
VERTEX
  8
0
 10
31.9868
 20
23.6085
 30
0.0
 40
0
 41
0
  0
VERTEX
  8
0
 10
31.9729
 20
23.4972
 30
0.0
 40
0
 41
0
  0
VERTEX
  8
0
 10
31.9437
 20
23.4126
 30
0.0
 40
0
 41
0
  0
VERTEX
  8
0
 10
31.8992
 20
23.3549
 30
0.0
 40
0
 41
0
  0
VERTEX
  8
0
 10
31.8551
 20
23.3279
 30
0.0
 40
0
 41
0
  0
VERTEX
  8
0
 10
31.8393
 20
23.3236
 30
0.0
 40
0
 41
0
  0
VERTEX
  8
0
 10
31.8681
 20
23.2544
 30
0.0
 40
0
 41
0
  0
VERTEX
  8
0
 10
31.9954
 20
22.911
 30
0.0
 40
0
 41
0
  0
VERTEX
  8
0
 10
32.1006
 20
22.5704
 30
0.0
 40
0
 41
0
  0
VERTEX
  8
0
 10
32.1182
 20
22.5028
 30
0.0
 40
0
 41
0
  0
VERTEX
  8
0
 10
32.1322
 20
22.4592
 30
0.0
 40
0
 41
0
  0
VERTEX
  8
0
 10
32.1651
 20
22.3253
 30
0.0
 40
0
 41
0
  0
VERTEX
  8
0
 10
32.2076
 20
22.0993
 30
0.0
 40
0
 41
0
  0
VERTEX
  8
0
 10
32.2456
 20
21.8251
 30
0.0
 40
0
 41
0
  0
VERTEX
  8
0
 10
32.2718
 20
21.5835
 30
0.0
 40
0
 41
0
  0
VERTEX
  8
0
 10
32.279
 20
21.5028
 30
0.0
 40
0
 41
0
  0
VERTEX
  8
0
 10
32.2825
 20
21.4375
 30
0.0
 40
0
 41
0
  0
VERTEX
  8
0
 10
32.2907
 20
21.1183
 30
0.0
 40
0
 41
0
  0
VERTEX
  8
0
 10
32.2865
 20
20.8093
 30
0.0
 40
0
 41
0
  0
VERTEX
  8
0
 10
32.2837
 20
20.749
 30
0.0
 40
0
 41
0
  0
VERTEX
  8
0
 10
32.2825
 20
20.714
 30
0.0
 40
0
 41
0
  0
VERTEX
  8
0
 10
32.275
 20
20.6093
 30
0.0
 40
0
 41
0
  0
VERTEX
  8
0
 10
32.256
 20
20.406
 30
0.0
 40
0
 41
0
  0
VERTEX
  8
0
 10
32.2268
 20
20.1389
 30
0.0
 40
0
 41
0
  0
VERTEX
  8
0
 10
32.1975
 20
19.8908
 30
0.0
 40
0
 41
0
  0
VERTEX
  8
0
 10
32.1874
 20
19.8082
 30
0.0
 40
0
 41
0
  0
VERTEX
  8
0
 10
32.1862
 20
19.7885
 30
0.0
 40
0
 41
0
  0
VERTEX
  8
0
 10
32.1843
 20
19.7292
 30
0.0
 40
0
 41
0
  0
VERTEX
  8
0
 10
32.185
 20
19.6728
 30
0.0
 40
0
 41
0
  0
VERTEX
  8
0
 10
32.1894
 20
19.6389
 30
0.0
 40
0
 41
0
  0
VERTEX
  8
0
 10
32.1954
 20
19.6275
 30
0.0
 40
0
 41
0
  0
VERTEX
  8
0
 10
32.1975
 20
19.6275
 30
0.0
 40
0
 41
0
  0
VERTEX
  8
0
 10
32.1979
 20
19.6275
 30
0.0
 40
0
 41
0
  0
VERTEX
  8
0
 10
32.1994
 20
19.6279
 30
0.0
 40
0
 41
0
  0
VERTEX
  8
0
 10
32.1996
 20
19.6281
 30
0.0
 40
0
 41
0
  0
VERTEX
  8
0
 10
32.234
 20
19.6863
 30
0.0
 40
0
 41
0
  0
VERTEX
  8
0
 10
32.3249
 20
19.8683
 30
0.0
 40
0
 41
0
  0
VERTEX
  8
0
 10
32.441
 20
20.1504
 30
0.0
 40
0
 41
0
  0
VERTEX
  8
0
 10
32.5478
 20
20.4742
 30
0.0
 40
0
 41
0
  0
VERTEX
  8
0
 10
32.6231
 20
20.7478
 30
0.0
 40
0
 41
0
  0
VERTEX
  8
0
 10
32.6451
 20
20.8396
 30
0.0
 40
0
 41
0
  0
VERTEX
  8
0
 10
32.6503
 20
20.8521
 30
0.0
 40
0
 41
0
  0
VERTEX
  8
0
 10
32.6615
 20
20.8915
 30
0.0
 40
0
 41
0
  0
VERTEX
  8
0
 10
32.6817
 20
20.9767
 30
0.0
 40
0
 41
0
  0
VERTEX
  8
0
 10
32.7056
 20
21.095
 30
0.0
 40
0
 41
0
  0
VERTEX
  8
0
 10
32.7333
 20
21.2468
 30
0.0
 40
0
 41
0
  0
VERTEX
  8
0
 10
32.7647
 20
21.4317
 30
0.0
 40
0
 41
0
  0
VERTEX
  8
0
 10
32.8
 20
21.65
 30
0.0
 40
0
 41
0
  0
VERTEX
  8
0
 10
32.839
 20
21.9015
 30
0.0
 40
0
 41
0
  0
VERTEX
  8
0
 10
32.8711
 20
22.115
 30
0.0
 40
0
 41
0
  0
VERTEX
  8
0
 10
32.8817
 20
22.1863
 30
0.0
 40
0
 41
0
  0
VERTEX
  8
0
 10
32.8925
 20
22.2714
 30
0.0
 40
0
 41
0
  0
VERTEX
  8
0
 10
32.9419
 20
22.7185
 30
0.0
 40
0
 41
0
  0
VERTEX
  8
0
 10
32.9851
 20
23.1933
 30
0.0
 40
0
 41
0
  0
VERTEX
  8
0
 10
32.9929
 20
23.2925
 30
0.0
 40
0
 41
0
  0
VERTEX
  8
0
 10
32.9979
 20
23.371
 30
0.0
 40
0
 41
0
  0
VERTEX
  8
0
 10
33.0043
 20
23.6072
 30
0.0
 40
0
 41
0
  0
VERTEX
  8
0
 10
32.999
 20
23.9367
 30
0.0
 40
0
 41
0
  0
VERTEX
  8
0
 10
32.9771
 20
24.2811
 30
0.0
 40
0
 41
0
  0
VERTEX
  8
0
 10
32.9385
 20
24.6403
 30
0.0
 40
0
 41
0
  0
VERTEX
  8
0
 10
32.8832
 20
25.0144
 30
0.0
 40
0
 41
0
  0
VERTEX
  8
0
 10
32.8114
 20
25.4033
 30
0.0
 40
0
 41
0
  0
VERTEX
  8
0
 10
32.7229
 20
25.8071
 30
0.0
 40
0
 41
0
  0
VERTEX
  8
0
 10
32.6456
 20
26.1214
 30
0.0
 40
0
 41
0
  0
VERTEX
  8
0
 10
32.6178
 20
26.2257
 30
0.0
 40
0
 41
0
  0
VERTEX
  8
0
 10
32.4807
 20
26.6983
 30
0.0
 40
0
 41
0
  0
VERTEX
  8
0
 10
32.4758
 20
26.7085
 30
0.0
 40
0
 41
0
  0
VERTEX
  8
0
 10
32.4521
 20
26.7438
 30
0.0
 40
0
 41
0
  0
VERTEX
  8
0
 10
32.4313
 20
26.7589
 30
0.0
 40
0
 41
0
  0
VERTEX
  8
0
 10
32.4243
 20
26.7589
 30
0.0
 40
0
 41
0
  0
VERTEX
  8
0
 10
32.4157
 20
26.7589
 30
0.0
 40
0
 41
0
  0
VERTEX
  8
0
 10
32.3922
 20
26.7374
 30
0.0
 40
0
 41
0
  0
VERTEX
  8
0
 10
32.3894
 20
26.7331
 30
0.0
 40
0
 41
0
  0
VERTEX
  8
0
 10
32.3783
 20
26.7146
 30
0.0
 40
0
 41
0
  0
VERTEX
  8
0
 10
32.3269
 20
26.5779
 30
0.0
 40
0
 41
0
  0
VERTEX
  8
0
 10
32.2807
 20
26.3817
 30
0.0
 40
0
 41
0
  0
VERTEX
  8
0
 10
32.2722
 20
26.3336
 30
0.0
 40
0
 41
0
  0
VERTEX
  8
0
 10
32.2642
 20
26.2776
 30
0.0
 40
0
 41
0
  0
VERTEX
  8
0
 10
32.2435
 20
26.1092
 30
0.0
 40
0
 41
0
  0
VERTEX
  8
0
 10
32.2267
 20
25.9207
 30
0.0
 40
0
 41
0
  0
VERTEX
  8
0
 10
32.2219
 20
25.7681
 30
0.0
 40
0
 41
0
  0
VERTEX
  8
0
 10
32.2251
 20
25.68
 30
0.0
 40
0
 41
0
  0
VERTEX
  8
0
 10
32.229
 20
25.6511
 30
0.0
 40
0
 41
0
  0
VERTEX
  8
0
 10
32.2285
 20
25.6458
 30
0.0
 40
0
 41
0
  0
VERTEX
  8
0
 10
32.225
 20
25.6272
 30
0.0
 40
0
 41
0
  0
VERTEX
  8
0
 10
32.2203
 20
25.6193
 30
0.0
 40
0
 41
0
  0
VERTEX
  8
0
 10
32.2188
 20
25.6193
 30
0.0
 40
0
 41
0
  0
VERTEX
  8
0
 10
32.2175
 20
25.6193
 30
0.0
 40
0
 41
0
  0
VERTEX
  8
0
 10
32.2144
 20
25.6217
 30
0.0
 40
0
 41
0
  0
VERTEX
  8
0
 10
32.214
 20
25.6221
 30
0.0
 40
0
 41
0
  0
VERTEX
  8
0
 10
32.1643
 20
25.6967
 30
0.0
 40
0
 41
0
  0
VERTEX
  8
0
 10
31.9474
 20
26.0481
 30
0.0
 40
0
 41
0
  0
VERTEX
  8
0
 10
31.7724
 20
26.3714
 30
0.0
 40
0
 41
0
  0
VERTEX
  8
0
 10
31.7438
 20
26.4318
 30
0.0
 40
0
 41
0
  0
VERTEX
  8
0
 10
31.7222
 20
26.4706
 30
0.0
 40
0
 41
0
  0
VERTEX
  8
0
 10
31.6668
 20
26.5918
 30
0.0
 40
0
 41
0
  0
VERTEX
  8
0
 10
31.6001
 20
26.7764
 30
0.0
 40
0
 41
0
  0
VERTEX
  8
0
 10
31.5439
 20
26.9857
 30
0.0
 40
0
 41
0
  0
VERTEX
  8
0
 10
31.5075
 20
27.161
 30
0.0
 40
0
 41
0
  0
VERTEX
  8
0
 10
31.4978
 20
27.2197
 30
0.0
 40
0
 41
0
  0
VERTEX
  8
0
 10
31.4936
 20
27.2647
 30
0.0
 40
0
 41
0
  0
VERTEX
  8
0
 10
31.4867
 20
27.4006
 30
0.0
 40
0
 41
0
  0
VERTEX
  8
0
 10
31.4906
 20
27.541
 30
0.0
 40
0
 41
0
  0
VERTEX
  8
0
 10
31.5096
 20
27.6408
 30
0.0
 40
0
 41
0
  0
VERTEX
  8
0
 10
31.5318
 20
27.6892
 30
0.0
 40
0
 41
0
  0
VERTEX
  8
0
 10
31.5437
 20
27.7004
 30
0.0
 40
0
 41
0
  0
VERTEX
  8
0
 10
31.5521
 20
27.7108
 30
0.0
 40
0
 41
0
  0
VERTEX
  8
0
 10
31.5988
 20
27.7517
 30
0.0
 40
0
 41
0
  0
VERTEX
  8
0
 10
31.6525
 20
27.7765
 30
0.0
 40
0
 41
0
  0
VERTEX
  8
0
 10
31.6644
 20
27.7792
 30
0.0
 40
0
 41
0
  0
VERTEX
  8
0
 10
31.6719
 20
27.7818
 30
0.0
 40
0
 41
0
  0
VERTEX
  8
0
 10
31.7214
 20
27.7908
 30
0.0
 40
0
 41
0
  0
VERTEX
  8
0
 10
31.7822
 20
27.7947
 30
0.0
 40
0
 41
0
  0
VERTEX
  8
0
 10
31.8026
 20
27.7947
 30
0.0
 40
0
 41
0
  0
VERTEX
  8
0
 10
31.8338
 20
27.7947
 30
0.0
 40
0
 41
0
  0
VERTEX
  8
0
 10
31.9154
 20
27.7904
 30
0.0
 40
0
 41
0
  0
VERTEX
  8
0
 10
31.9272
 20
27.7894
 30
0.0
 40
0
 41
0
  0
VERTEX
  8
0
 10
31.9331
 20
27.7912
 30
0.0
 40
0
 41
0
  0
VERTEX
  8
0
 10
31.949
 20
27.8031
 30
0.0
 40
0
 41
0
  0
VERTEX
  8
0
 10
31.9476
 20
27.819
 30
0.0
 40
0
 41
0
  0
VERTEX
  8
0
 10
31.945
 20
27.8226
 30
0.0
 40
0
 41
0
  0
VERTEX
  8
0
 10
31.7999
 20
27.966
 30
0.0
 40
0
 41
0
  0
VERTEX
  8
0
 10
31.3496
 20
28.3807
 30
0.0
 40
0
 41
0
  0
VERTEX
  8
0
 10
30.7449
 20
28.8881
 30
0.0
 40
0
 41
0
  0
VERTEX
  8
0
 10
30.1306
 20
29.3446
 30
0.0
 40
0
 41
0
  0
VERTEX
  8
0
 10
29.6658
 20
29.654
 30
0.0
 40
0
 41
0
  0
VERTEX
  8
0
 10
29.5068
 20
29.7501
 30
0.0
 40
0
 41
0
  0
VERTEX
  8
0
 10
29.1917
 20
29.9337
 30
0.0
 40
0
 41
0
  0
VERTEX
  8
0
 10
29.1915
 20
29.9337
 30
0.0
 40
0
 41
0
  0
SEQEND
 8
0
  0
POLYLINE
  8
0
 62
     0
 66
     1
 10
0
 20
0
 30
0.0
 70
     1
 40
0
 41
0
  0
VERTEX
  8
0
 10
27.941
 20
30.3769
 30
0.0
 40
0
 41
0
  0
VERTEX
  8
0
 10
28
 20
30.0407
 30
0.0
 40
0
 41
0
  0
VERTEX
  8
0
 10
27.9893
 20
29.2992
 30
0.0
 40
0
 41
0
  0
VERTEX
  8
0
 10
27.9853
 20
29.124
 30
0.0
 40
0
 41
0
  0
VERTEX
  8
0
 10
27.9671
 20
28.5985
 30
0.0
 40
0
 41
0
  0
VERTEX
  8
0
 10
27.9335
 20
27.9381
 30
0.0
 40
0
 41
0
  0
VERTEX
  8
0
 10
27.8885
 20
27.3185
 30
0.0
 40
0
 41
0
  0
VERTEX
  8
0
 10
27.8482
 20
26.8838
 30
0.0
 40
0
 41
0
  0
VERTEX
  8
0
 10
27.8321
 20
26.7392
 30
0.0
 40
0
 41
0
  0
VERTEX
  8
0
 10
27.7642
 20
26.2007
 30
0.0
 40
0
 41
0
  0
VERTEX
  8
0
 10
27.7518
 20
26.1143
 30
0.0
 40
0
 41
0
  0
VERTEX
  8
0
 10
27.6847
 20
25.7026
 30
0.0
 40
0
 41
0
  0
VERTEX
  8
0
 10
27.61
 20
25.3181
 30
0.0
 40
0
 41
0
  0
VERTEX
  8
0
 10
27.594
 20
25.2451
 30
0.0
 40
0
 41
0
  0
VERTEX
  8
0
 10
27.5804
 20
25.1868
 30
0.0
 40
0
 41
0
  0
VERTEX
  8
0
 10
27.5392
 20
25.0117
 30
0.0
 40
0
 41
0
  0
VERTEX
  8
0
 10
27.4894
 20
24.8043
 30
0.0
 40
0
 41
0
  0
VERTEX
  8
0
 10
27.445
 20
24.6231
 30
0.0
 40
0
 41
0
  0
VERTEX
  8
0
 10
27.4058
 20
24.4679
 30
0.0
 40
0
 41
0
  0
VERTEX
  8
0
 10
27.3718
 20
24.339
 30
0.0
 40
0
 41
0
  0
VERTEX
  8
0
 10
27.3428
 20
24.2361
 30
0.0
 40
0
 41
0
  0
VERTEX
  8
0
 10
27.3192
 20
24.1594
 30
0.0
 40
0
 41
0
  0
VERTEX
  8
0
 10
27.3058
 20
24.1212
 30
0.0
 40
0
 41
0
  0
VERTEX
  8
0
 10
27.3007
 20
24.1089
 30
0.0
 40
0
 41
0
  0
VERTEX
  8
0
 10
27.2368
 20
23.9225
 30
0.0
 40
0
 41
0
  0
VERTEX
  8
0
 10
27.0172
 20
23.3731
 30
0.0
 40
0
 41
0
  0
VERTEX
  8
0
 10
26.6879
 20
22.6853
 30
0.0
 40
0
 41
0
  0
VERTEX
  8
0
 10
26.3125
 20
22.0456
 30
0.0
 40
0
 41
0
  0
VERTEX
  8
0
 10
26.0031
 20
21.5965
 30
0.0
 40
0
 41
0
  0
VERTEX
  8
0
 10
25.8914
 20
21.4536
 30
0.0
 40
0
 41
0
  0
VERTEX
  8
0
 10
25.8679
 20
21.4238
 30
0.0
 40
0
 41
0
  0
VERTEX
  8
0
 10
25.7957
 20
21.3357
 30
0.0
 40
0
 41
0
  0
VERTEX
  8
0
 10
25.7189
 20
21.2514
 30
0.0
 40
0
 41
0
  0
VERTEX
  8
0
 10
25.6612
 20
21.2007
 30
0.0
 40
0
 41
0
  0
VERTEX
  8
0
 10
25.6322
 20
21.1839
 30
0.0
 40
0
 41
0
  0
VERTEX
  8
0
 10
25.6226
 20
21.1839
 30
0.0
 40
0
 41
0
  0
VERTEX
  8
0
 10
25.619
 20
21.1839
 30
0.0
 40
0
 41
0
  0
VERTEX
  8
0
 10
25.6089
 20
21.1894
 30
0.0
 40
0
 41
0
  0
VERTEX
  8
0
 10
25.6081
 20
21.1904
 30
0.0
 40
0
 41
0
  0
VERTEX
  8
0
 10
25.5975
 20
21.2135
 30
0.0
 40
0
 41
0
  0
VERTEX
  8
0
 10
25.5526
 20
21.3407
 30
0.0
 40
0
 41
0
  0
VERTEX
  8
0
 10
25.5189
 20
21.485
 30
0.0
 40
0
 41
0
  0
VERTEX
  8
0
 10
25.5139
 20
21.5164
 30
0.0
 40
0
 41
0
  0
VERTEX
  8
0
 10
25.5057
 20
21.5793
 30
0.0
 40
0
 41
0
  0
VERTEX
  8
0
 10
25.4783
 20
21.8637
 30
0.0
 40
0
 41
0
  0
VERTEX
  8
0
 10
25.469
 20
22.1082
 30
0.0
 40
0
 41
0
  0
VERTEX
  8
0
 10
25.4699
 20
22.1511
 30
0.0
 40
0
 41
0
  0
VERTEX
  8
0
 10
25.4685
 20
22.1563
 30
0.0
 40
0
 41
0
  0
VERTEX
  8
0
 10
25.4614
 20
22.1754
 30
0.0
 40
0
 41
0
  0
VERTEX
  8
0
 10
25.4542
 20
22.1853
 30
0.0
 40
0
 41
0
  0
VERTEX
  8
0
 10
25.4526
 20
22.1858
 30
0.0
 40
0
 41
0
  0
VERTEX
  8
0
 10
25.4524
 20
22.186
 30
0.0
 40
0
 41
0
  0
VERTEX
  8
0
 10
25.451
 20
22.1863
 30
0.0
 40
0
 41
0
  0
VERTEX
  8
0
 10
25.4504
 20
22.1863
 30
0.0
 40
0
 41
0
  0
VERTEX
  8
0
 10
25.4481
 20
22.1863
 30
0.0
 40
0
 41
0
  0
VERTEX
  8
0
 10
25.441
 20
22.1792
 30
0.0
 40
0
 41
0
  0
VERTEX
  8
0
 10
25.4331
 20
22.1625
 30
0.0
 40
0
 41
0
  0
VERTEX
  8
0
 10
25.4315
 20
22.1576
 30
0.0
 40
0
 41
0
  0
VERTEX
  8
0
 10
25.4215
 20
22.1106
 30
0.0
 40
0
 41
0
  0
VERTEX
  8
0
 10
25.341
 20
21.6451
 30
0.0
 40
0
 41
0
  0
VERTEX
  8
0
 10
25.3349
 20
21.5992
 30
0.0
 40
0
 41
0
  0
VERTEX
  8
0
 10
25.3225
 20
21.5072
 30
0.0
 40
0
 41
0
  0
VERTEX
  8
0
 10
25.2833
 20
21.0553
 30
0.0
 40
0
 41
0
  0
VERTEX
  8
0
 10
25.2744
 20
20.6131
 30
0.0
 40
0
 41
0
  0
VERTEX
  8
0
 10
25.2772
 20
20.5261
 30
0.0
 40
0
 41
0
  0
VERTEX
  8
0
 10
25.2774
 20
20.4649
 30
0.0
 40
0
 41
0
  0
VERTEX
  8
0
 10
25.2872
 20
20.281
 30
0.0
 40
0
 41
0
  0
VERTEX
  8
0
 10
25.3163
 20
20.0118
 30
0.0
 40
0
 41
0
  0
VERTEX
  8
0
 10
25.3639
 20
19.7183
 30
0.0
 40
0
 41
0
  0
VERTEX
  8
0
 10
25.4121
 20
19.4797
 30
0.0
 40
0
 41
0
  0
VERTEX
  8
0
 10
25.4303
 20
19.4007
 30
0.0
 40
0
 41
0
  0
VERTEX
  8
0
 10
25.4693
 20
19.2331
 30
0.0
 40
0
 41
0
  0
VERTEX
  8
0
 10
25.6082
 20
18.735
 30
0.0
 40
0
 41
0
  0
VERTEX
  8
0
 10
25.8164
 20
18.1399
 30
0.0
 40
0
 41
0
  0
VERTEX
  8
0
 10
26.0549
 20
17.6151
 30
0.0
 40
0
 41
0
  0
VERTEX
  8
0
 10
26.2497
 20
17.2699
 30
0.0
 40
0
 41
0
  0
VERTEX
  8
0
 10
26.3236
 20
17.1608
 30
0.0
 40
0
 41
0
  0
VERTEX
  8
0
 10
26.3194
 20
17.2636
 30
0.0
 40
0
 41
0
  0
VERTEX
  8
0
 10
26.3214
 20
17.7875
 30
0.0
 40
0
 41
0
  0
VERTEX
  8
0
 10
26.354
 20
18.3244
 30
0.0
 40
0
 41
0
  0
VERTEX
  8
0
 10
26.3651
 20
18.4337
 30
0.0
 40
0
 41
0
  0
VERTEX
  8
0
 10
26.3767
 20
18.5274
 30
0.0
 40
0
 41
0
  0
VERTEX
  8
0
 10
26.4131
 20
18.8078
 30
0.0
 40
0
 41
0
  0
VERTEX
  8
0
 10
26.4543
 20
19.1001
 30
0.0
 40
0
 41
0
  0
VERTEX
  8
0
 10
26.4886
 20
19.3113
 30
0.0
 40
0
 41
0
  0
VERTEX
  8
0
 10
26.5079
 20
19.4111
 30
0.0
 40
0
 41
0
  0
VERTEX
  8
0
 10
26.516
 20
19.4407
 30
0.0
 40
0
 41
0
  0
VERTEX
  8
0
 10
26.5272
 20
19.4979
 30
0.0
 40
0
 41
0
  0
VERTEX
  8
0
 10
26.6586
 20
20.0782
 30
0.0
 40
0
 41
0
  0
VERTEX
  8
0
 10
26.6736
 20
20.1369
 30
0.0
 40
0
 41
0
  0
VERTEX
  8
0
 10
26.7004
 20
20.2376
 30
0.0
 40
0
 41
0
  0
VERTEX
  8
0
 10
26.785
 20
20.5388
 30
0.0
 40
0
 41
0
  0
VERTEX
  8
0
 10
26.9264
 20
21.0167
 30
0.0
 40
0
 41
0
  0
VERTEX
  8
0
 10
27.0978
 20
21.5707
 30
0.0
 40
0
 41
0
  0
VERTEX
  8
0
 10
27.2483
 20
22.0438
 30
0.0
 40
0
 41
0
  0
VERTEX
  8
0
 10
27.2992
 20
22.2011
 30
0.0
 40
0
 41
0
  0
VERTEX
  8
0
 10
28.3842
 20
25.2832
 30
0.0
 40
0
 41
0
  0
VERTEX
  8
0
 10
28.4082
 20
25.3537
 30
0.0
 40
0
 41
0
  0
VERTEX
  8
0
 10
28.5136
 20
25.7033
 30
0.0
 40
0
 41
0
  0
VERTEX
  8
0
 10
28.6004
 20
26.0489
 30
0.0
 40
0
 41
0
  0
VERTEX
  8
0
 10
28.615
 20
26.1175
 30
0.0
 40
0
 41
0
  0
VERTEX
  8
0
 10
28.6354
 20
26.221
 30
0.0
 40
0
 41
0
  0
VERTEX
  8
0
 10
28.6694
 20
26.5371
 30
0.0
 40
0
 41
0
  0
VERTEX
  8
0
 10
28.6692
 20
26.9678
 30
0.0
 40
0
 41
0
  0
VERTEX
  8
0
 10
28.6142
 20
27.4097
 30
0.0
 40
0
 41
0
  0
VERTEX
  8
0
 10
28.5376
 20
27.7515
 30
0.0
 40
0
 41
0
  0
VERTEX
  8
0
 10
28.5044
 20
27.8629
 30
0.0
 40
0
 41
0
  0
VERTEX
  8
0
 10
28.5056
 20
27.8647
 30
0.0
 40
0
 41
0
  0
VERTEX
  8
0
 10
28.5214
 20
27.8733
 30
0.0
 40
0
 41
0
  0
VERTEX
  8
0
 10
28.5267
 20
27.8733
 30
0.0
 40
0
 41
0
  0
VERTEX
  8
0
 10
28.5321
 20
27.8733
 30
0.0
 40
0
 41
0
  0
VERTEX
  8
0
 10
28.5485
 20
27.8693
 30
0.0
 40
0
 41
0
  0
VERTEX
  8
0
 10
28.5763
 20
27.8568
 30
0.0
 40
0
 41
0
  0
VERTEX
  8
0
 10
28.6101
 20
27.8361
 30
0.0
 40
0
 41
0
  0
VERTEX
  8
0
 10
28.6401
 20
27.8146
 30
0.0
 40
0
 41
0
  0
VERTEX
  8
0
 10
28.6499
 20
27.8071
 30
0.0
 40
0
 41
0
  0
VERTEX
  8
0
 10
28.9064
 20
27.5469
 30
0.0
 40
0
 41
0
  0
VERTEX
  8
0
 10
28.9085
 20
27.5549
 30
0.0
 40
0
 41
0
  0
VERTEX
  8
0
 10
28.9085
 20
27.5939
 30
0.0
 40
0
 41
0
  0
VERTEX
  8
0
 10
28.9024
 20
27.6878
 30
0.0
 40
0
 41
0
  0
VERTEX
  8
0
 10
28.8881
 20
27.8285
 30
0.0
 40
0
 41
0
  0
VERTEX
  8
0
 10
28.8715
 20
27.9693
 30
0.0
 40
0
 41
0
  0
VERTEX
  8
0
 10
28.8656
 20
28.0161
 30
0.0
 40
0
 41
0
  0
VERTEX
  8
0
 10
28.8546
 20
28.0732
 30
0.0
 40
0
 41
0
  0
VERTEX
  8
0
 10
28.7306
 20
28.6135
 30
0.0
 40
0
 41
0
  0
VERTEX
  8
0
 10
28.7168
 20
28.6646
 30
0.0
 40
0
 41
0
  0
VERTEX
  8
0
 10
28.6303
 20
28.9622
 30
0.0
 40
0
 41
0
  0
VERTEX
  8
0
 10
28.6143
 20
29.0267
 30
0.0
 40
0
 41
0
  0
VERTEX
  8
0
 10
28.5515
 20
29.2161
 30
0.0
 40
0
 41
0
  0
VERTEX
  8
0
 10
28.4328
 20
29.5046
 30
0.0
 40
0
 41
0
  0
VERTEX
  8
0
 10
28.2744
 20
29.8276
 30
0.0
 40
0
 41
0
  0
VERTEX
  8
0
 10
28.1275
 20
30.0971
 30
0.0
 40
0
 41
0
  0
VERTEX
  8
0
 10
28.0761
 20
30.1854
 30
0.0
 40
0
 41
0
  0
VERTEX
  8
0
 10
27.941
 20
30.3769
 30
0.0
 40
0
 41
0
  0
SEQEND
 8
0
  0
POLYLINE
  8
0
 62
     0
 66
     1
 10
0
 20
0
 30
0.0
 70
     1
 40
0
 41
0
  0
VERTEX
  8
0
 10
28.8006
 20
29.8501
 30
0.0
 40
0
 41
0
  0
VERTEX
  8
0
 10
28.9933
 20
29.3699
 30
0.0
 40
0
 41
0
  0
VERTEX
  8
0
 10
29.005
 20
29.3043
 30
0.0
 40
0
 41
0
  0
VERTEX
  8
0
 10
29.036
 20
29.1067
 30
0.0
 40
0
 41
0
  0
VERTEX
  8
0
 10
29.0847
 20
28.7631
 30
0.0
 40
0
 41
0
  0
VERTEX
  8
0
 10
29.1394
 20
28.339
 30
0.0
 40
0
 41
0
  0
VERTEX
  8
0
 10
29.1853
 20
27.9606
 30
0.0
 40
0
 41
0
  0
VERTEX
  8
0
 10
29.2001
 20
27.8343
 30
0.0
 40
0
 41
0
  0
VERTEX
  8
0
 10
29.2131
 20
27.7072
 30
0.0
 40
0
 41
0
  0
VERTEX
  8
0
 10
29.25
 20
27.3257
 30
0.0
 40
0
 41
0
  0
VERTEX
  8
0
 10
29.2894
 20
26.8833
 30
0.0
 40
0
 41
0
  0
VERTEX
  8
0
 10
29.3187
 20
26.5075
 30
0.0
 40
0
 41
0
  0
VERTEX
  8
0
 10
29.3338
 20
26.2756
 30
0.0
 40
0
 41
0
  0
VERTEX
  8
0
 10
29.3375
 20
26.1982
 30
0.0
 40
0
 41
0
  0
VERTEX
  8
0
 10
29.3424
 20
26.1043
 30
0.0
 40
0
 41
0
  0
VERTEX
  8
0
 10
29.3558
 20
25.6063
 30
0.0
 40
0
 41
0
  0
VERTEX
  8
0
 10
29.355
 20
25.0701
 30
0.0
 40
0
 41
0
  0
VERTEX
  8
0
 10
29.3528
 20
24.9574
 30
0.0
 40
0
 41
0
  0
VERTEX
  8
0
 10
29.3471
 20
24.7283
 30
0.0
 40
0
 41
0
  0
VERTEX
  8
0
 10
29.3071
 20
24.2435
 30
0.0
 40
0
 41
0
  0
VERTEX
  8
0
 10
29.2519
 20
23.7871
 30
0.0
 40
0
 41
0
  0
VERTEX
  8
0
 10
29.2415
 20
23.7135
 30
0.0
 40
0
 41
0
  0
VERTEX
  8
0
 10
29.1818
 20
23.3594
 30
0.0
 40
0
 41
0
  0
VERTEX
  8
0
 10
29.1121
 20
23.0244
 30
0.0
 40
0
 41
0
  0
VERTEX
  8
0
 10
29.0967
 20
22.9603
 30
0.0
 40
0
 41
0
  0
VERTEX
  8
0
 10
29.0813
 20
22.8961
 30
0.0
 40
0
 41
0
  0
VERTEX
  8
0
 10
28.9965
 20
22.5897
 30
0.0
 40
0
 41
0
  0
VERTEX
  8
0
 10
28.9018
 20
22.3025
 30
0.0
 40
0
 41
0
  0
VERTEX
  8
0
 10
28.8814
 20
22.2478
 30
0.0
 40
0
 41
0
  0
VERTEX
  8
0
 10
28.7511
 20
21.9346
 30
0.0
 40
0
 41
0
  0
VERTEX
  8
0
 10
28.7282
 20
21.8847
 30
0.0
 40
0
 41
0
  0
VERTEX
  8
0
 10
28.6058
 20
21.6499
 30
0.0
 40
0
 41
0
  0
VERTEX
  8
0
 10
28.4736
 20
21.434
 30
0.0
 40
0
 41
0
  0
VERTEX
  8
0
 10
28.4457
 20
21.3937
 30
0.0
 40
0
 41
0
  0
VERTEX
  8
0
 10
28.5042
 20
21.3463
 30
0.0
 40
0
 41
0
  0
VERTEX
  8
0
 10
28.6682
 20
21.1887
 30
0.0
 40
0
 41
0
  0
VERTEX
  8
0
 10
28.8407
 20
20.9757
 30
0.0
 40
0
 41
0
  0
VERTEX
  8
0
 10
28.9632
 20
20.7544
 30
0.0
 40
0
 41
0
  0
VERTEX
  8
0
 10
29.0237
 20
20.5836
 30
0.0
 40
0
 41
0
  0
VERTEX
  8
0
 10
29.0357
 20
20.525
 30
0.0
 40
0
 41
0
  0
VERTEX
  8
0
 10
29.0488
 20
20.4757
 30
0.0
 40
0
 41
0
  0
VERTEX
  8
0
 10
29.069
 20
20.3225
 30
0.0
 40
0
 41
0
  0
VERTEX
  8
0
 10
29.0821
 20
20.0421
 30
0.0
 40
0
 41
0
  0
VERTEX
  8
0
 10
29.0749
 20
19.6837
 30
0.0
 40
0
 41
0
  0
VERTEX
  8
0
 10
29.056
 20
19.3564
 30
0.0
 40
0
 41
0
  0
VERTEX
  8
0
 10
29.0474
 20
19.2475
 30
0.0
 40
0
 41
0
  0
VERTEX
  8
0
 10
29.0467
 20
19.2393
 30
0.0
 40
0
 41
0
  0
VERTEX
  8
0
 10
29.0415
 20
19.2153
 30
0.0
 40
0
 41
0
  0
VERTEX
  8
0
 10
29.03
 20
19.1922
 30
0.0
 40
0
 41
0
  0
VERTEX
  8
0
 10
29.0124
 20
19.1783
 30
0.0
 40
0
 41
0
  0
VERTEX
  8
0
 10
28.9947
 20
19.1738
 30
0.0
 40
0
 41
0
  0
VERTEX
  8
0
 10
28.9889
 20
19.1738
 30
0.0
 40
0
 41
0
  0
VERTEX
  8
0
 10
28.9851
 20
19.1738
 30
0.0
 40
0
 41
0
  0
VERTEX
  8
0
 10
28.9757
 20
19.1749
 30
0.0
 40
0
 41
0
  0
VERTEX
  8
0
 10
28.9744
 20
19.175
 30
0.0
 40
0
 41
0
  0
VERTEX
  8
0
 10
28.5669
 20
19.3561
 30
0.0
 40
0
 41
0
  0
VERTEX
  8
0
 10
28.5668
 20
19.3561
 30
0.0
 40
0
 41
0
  0
VERTEX
  8
0
 10
28.6025
 20
19.2811
 30
0.0
 40
0
 41
0
  0
VERTEX
  8
0
 10
28.7842
 20
18.9181
 30
0.0
 40
0
 41
0
  0
VERTEX
  8
0
 10
28.9694
 20
18.5706
 30
0.0
 40
0
 41
0
  0
VERTEX
  8
0
 10
29.0071
 20
18.5033
 30
0.0
 40
0
 41
0
  0
VERTEX
  8
0
 10
29.0149
 20
18.4861
 30
0.0
 40
0
 41
0
  0
VERTEX
  8
0
 10
29.0411
 20
18.4357
 30
0.0
 40
0
 41
0
  0
VERTEX
  8
0
 10
29.0906
 20
18.3478
 30
0.0
 40
0
 41
0
  0
VERTEX
  8
0
 10
29.1553
 20
18.2399
 30
0.0
 40
0
 41
0
  0
VERTEX
  8
0
 10
29.2353
 20
18.1119
 30
0.0
 40
0
 41
0
  0
VERTEX
  8
0
 10
29.3304
 20
17.9638
 30
0.0
 40
0
 41
0
  0
VERTEX
  8
0
 10
29.441
 20
17.7956
 30
0.0
 40
0
 41
0
  0
VERTEX
  8
0
 10
29.5667
 20
17.6072
 30
0.0
 40
0
 41
0
  0
VERTEX
  8
0
 10
29.6724
 20
17.4508
 30
0.0
 40
0
 41
0
  0
VERTEX
  8
0
 10
29.7078
 20
17.3987
 30
0.0
 40
0
 41
0
  0
VERTEX
  8
0
 10
29.7671
 20
17.3171
 30
0.0
 40
0
 41
0
  0
VERTEX
  8
0
 10
29.9521
 20
17.0772
 30
0.0
 40
0
 41
0
  0
VERTEX
  8
0
 10
30.2018
 20
16.7789
 30
0.0
 40
0
 41
0
  0
VERTEX
  8
0
 10
30.4569
 20
16.5039
 30
0.0
 40
0
 41
0
  0
VERTEX
  8
0
 10
30.6506
 20
16.3132
 30
0.0
 40
0
 41
0
  0
VERTEX
  8
0
 10
30.7175
 20
16.2522
 30
0.0
 40
0
 41
0
  0
VERTEX
  8
0
 10
30.699
 20
16.3035
 30
0.0
 40
0
 41
0
  0
VERTEX
  8
0
 10
30.6443
 20
16.4575
 30
0.0
 40
0
 41
0
  0
VERTEX
  8
0
 10
30.5796
 20
16.6424
 30
0.0
 40
0
 41
0
  0
VERTEX
  8
0
 10
30.5235
 20
16.8067
 30
0.0
 40
0
 41
0
  0
VERTEX
  8
0
 10
30.476
 20
16.9504
 30
0.0
 40
0
 41
0
  0
VERTEX
  8
0
 10
30.4369
 20
17.0735
 30
0.0
 40
0
 41
0
  0
VERTEX
  8
0
 10
30.4065
 20
17.1761
 30
0.0
 40
0
 41
0
  0
VERTEX
  8
0
 10
30.3846
 20
17.2583
 30
0.0
 40
0
 41
0
  0
VERTEX
  8
0
 10
30.3739
 20
17.3043
 30
0.0
 40
0
 41
0
  0
VERTEX
  8
0
 10
30.3712
 20
17.3199
 30
0.0
 40
0
 41
0
  0
VERTEX
  8
0
 10
30.3546
 20
17.3825
 30
0.0
 40
0
 41
0
  0
VERTEX
  8
0
 10
30.2065
 20
18.0325
 30
0.0
 40
0
 41
0
  0
VERTEX
  8
0
 10
30.1935
 20
18.0997
 30
0.0
 40
0
 41
0
  0
VERTEX
  8
0
 10
30.1674
 20
18.2342
 30
0.0
 40
0
 41
0
  0
VERTEX
  8
0
 10
30.0583
 20
18.934
 30
0.0
 40
0
 41
0
  0
VERTEX
  8
0
 10
29.9775
 20
19.6701
 30
0.0
 40
0
 41
0
  0
VERTEX
  8
0
 10
29.9657
 20
19.8228
 30
0.0
 40
0
 41
0
  0
VERTEX
  8
0
 10
29.9576
 20
19.9653
 30
0.0
 40
0
 41
0
  0
VERTEX
  8
0
 10
29.9381
 20
20.3928
 30
0.0
 40
0
 41
0
  0
VERTEX
  8
0
 10
29.9221
 20
20.9182
 30
0.0
 40
0
 41
0
  0
VERTEX
  8
0
 10
29.9179
 20
21.399
 30
0.0
 40
0
 41
0
  0
VERTEX
  8
0
 10
29.9219
 20
21.7263
 30
0.0
 40
0
 41
0
  0
VERTEX
  8
0
 10
29.9256
 20
21.8353
 30
0.0
 40
0
 41
0
  0
VERTEX
  8
0
 10
29.9276
 20
21.9031
 30
0.0
 40
0
 41
0
  0
VERTEX
  8
0
 10
29.9435
 20
22.2188
 30
0.0
 40
0
 41
0
  0
VERTEX
  8
0
 10
29.966
 20
22.5042
 30
0.0
 40
0
 41
0
  0
VERTEX
  8
0
 10
29.9715
 20
22.5567
 30
0.0
 40
0
 41
0
  0
VERTEX
  8
0
 10
29.985
 20
22.6683
 30
0.0
 40
0
 41
0
  0
VERTEX
  8
0
 10
30.025
 20
23.0032
 30
0.0
 40
0
 41
0
  0
VERTEX
  8
0
 10
30.0721
 20
23.405
 30
0.0
 40
0
 41
0
  0
VERTEX
  8
0
 10
30.1126
 20
23.7619
 30
0.0
 40
0
 41
0
  0
VERTEX
  8
0
 10
30.1468
 20
24.0742
 30
0.0
 40
0
 41
0
  0
VERTEX
  8
0
 10
30.1744
 20
24.3417
 30
0.0
 40
0
 41
0
  0
VERTEX
  8
0
 10
30.1956
 20
24.5644
 30
0.0
 40
0
 41
0
  0
VERTEX
  8
0
 10
30.2103
 20
24.7424
 30
0.0
 40
0
 41
0
  0
VERTEX
  8
0
 10
30.2171
 20
24.8422
 30
0.0
 40
0
 41
0
  0
VERTEX
  8
0
 10
30.2185
 20
24.8756
 30
0.0
 40
0
 41
0
  0
VERTEX
  8
0
 10
30.224
 20
24.9713
 30
0.0
 40
0
 41
0
  0
VERTEX
  8
0
 10
30.2336
 20
25.2588
 30
0.0
 40
0
 41
0
  0
VERTEX
  8
0
 10
30.2332
 20
25.6242
 30
0.0
 40
0
 41
0
  0
VERTEX
  8
0
 10
30.2171
 20
25.9721
 30
0.0
 40
0
 41
0
  0
VERTEX
  8
0
 10
30.1957
 20
26.22
 30
0.0
 40
0
 41
0
  0
VERTEX
  8
0
 10
30.1856
 20
26.3022
 30
0.0
 40
0
 41
0
  0
VERTEX
  8
0
 10
30.1744
 20
26.3911
 30
0.0
 40
0
 41
0
  0
VERTEX
  8
0
 10
30.0947
 20
26.8113
 30
0.0
 40
0
 41
0
  0
VERTEX
  8
0
 10
29.9832
 20
27.2001
 30
0.0
 40
0
 41
0
  0
VERTEX
  8
0
 10
29.9561
 20
27.2731
 30
0.0
 40
0
 41
0
  0
VERTEX
  8
0
 10
29.9311
 20
27.3322
 30
0.0
 40
0
 41
0
  0
VERTEX
  8
0
 10
29.8536
 20
27.5085
 30
0.0
 40
0
 41
0
  0
VERTEX
  8
0
 10
29.77
 20
27.6876
 30
0.0
 40
0
 41
0
  0
VERTEX
  8
0
 10
29.705
 20
27.8106
 30
0.0
 40
0
 41
0
  0
VERTEX
  8
0
 10
29.6711
 20
27.8644
 30
0.0
 40
0
 41
0
  0
VERTEX
  8
0
 10
29.659
 20
27.8772
 30
0.0
 40
0
 41
0
  0
VERTEX
  8
0
 10
29.6592
 20
27.8772
 30
0.0
 40
0
 41
0
  0
VERTEX
  8
0
 10
29.9703
 20
27.8221
 30
0.0
 40
0
 41
0
  0
VERTEX
  8
0
 10
29.9711
 20
27.8239
 30
0.0
 40
0
 41
0
  0
VERTEX
  8
0
 10
29.9735
 20
27.8383
 30
0.0
 40
0
 41
0
  0
VERTEX
  8
0
 10
29.9728
 20
27.8599
 30
0.0
 40
0
 41
0
  0
VERTEX
  8
0
 10
29.9722
 20
27.8651
 30
0.0
 40
0
 41
0
  0
VERTEX
  8
0
 10
29.8561
 20
28.2024
 30
0.0
 40
0
 41
0
  0
VERTEX
  8
0
 10
29.8383
 20
28.2471
 30
0.0
 40
0
 41
0
  0
VERTEX
  8
0
 10
29.7846
 20
28.3807
 30
0.0
 40
0
 41
0
  0
VERTEX
  8
0
 10
29.7203
 20
28.5381
 30
0.0
 40
0
 41
0
  0
VERTEX
  8
0
 10
29.6632
 20
28.6742
 30
0.0
 40
0
 41
0
  0
VERTEX
  8
0
 10
29.6135
 20
28.7893
 30
0.0
 40
0
 41
0
  0
VERTEX
  8
0
 10
29.571
 20
28.8833
 30
0.0
 40
0
 41
0
  0
VERTEX
  8
0
 10
29.5357
 20
28.9564
 30
0.0
 40
0
 41
0
  0
VERTEX
  8
0
 10
29.5076
 20
29.0082
 30
0.0
 40
0
 41
0
  0
VERTEX
  8
0
 10
29.4928
 20
29.0319
 30
0.0
 40
0
 41
0
  0
VERTEX
  8
0
 10
29.4868
 20
29.039
 30
0.0
 40
0
 41
0
  0
VERTEX
  8
0
 10
29.4561
 20
29.0953
 30
0.0
 40
0
 41
0
  0
VERTEX
  8
0
 10
29.3567
 20
29.2596
 30
0.0
 40
0
 41
0
  0
VERTEX
  8
0
 10
29.2229
 20
29.451
 30
0.0
 40
0
 41
0
  0
VERTEX
  8
0
 10
29.0856
 20
29.6132
 30
0.0
 40
0
 41
0
  0
VERTEX
  8
0
 10
28.9819
 20
29.7154
 30
0.0
 40
0
 41
0
  0
VERTEX
  8
0
 10
28.9449
 20
29.7462
 30
0.0
 40
0
 41
0
  0
VERTEX
  8
0
 10
28.8006
 20
29.8501
 30
0.0
 40
0
 41
0
  0
SEQEND
 8
0
  0
POLYLINE
  8
0
 62
     0
 66
     1
 10
0
 20
0
 30
0.0
 70
     1
 40
0
 41
0
  0
VERTEX
  8
0
 10
33.4051
 20
24.1547
 30
0.0
 40
0
 41
0
  0
VERTEX
  8
0
 10
33.5344
 20
22.6801
 30
0.0
 40
0
 41
0
  0
VERTEX
  8
0
 10
33.5368
 20
22.4603
 30
0.0
 40
0
 41
0
  0
VERTEX
  8
0
 10
33.5358
 20
22.3732
 30
0.0
 40
0
 41
0
  0
VERTEX
  8
0
 10
33.5226
 20
22.1118
 30
0.0
 40
0
 41
0
  0
VERTEX
  8
0
 10
33.4871
 20
21.7406
 30
0.0
 40
0
 41
0
  0
VERTEX
  8
0
 10
33.4304
 20
21.3468
 30
0.0
 40
0
 41
0
  0
VERTEX
  8
0
 10
33.374
 20
21.0342
 30
0.0
 40
0
 41
0
  0
VERTEX
  8
0
 10
33.3526
 20
20.9304
 30
0.0
 40
0
 41
0
  0
VERTEX
  8
0
 10
33.3235
 20
20.7983
 30
0.0
 40
0
 41
0
  0
VERTEX
  8
0
 10
33.2285
 20
20.4039
 30
0.0
 40
0
 41
0
  0
VERTEX
  8
0
 10
33.0922
 20
19.8931
 30
0.0
 40
0
 41
0
  0
VERTEX
  8
0
 10
32.944
 20
19.3981
 30
0.0
 40
0
 41
0
  0
VERTEX
  8
0
 10
32.7837
 20
18.919
 30
0.0
 40
0
 41
0
  0
VERTEX
  8
0
 10
32.6115
 20
18.4557
 30
0.0
 40
0
 41
0
  0
VERTEX
  8
0
 10
32.4271
 20
18.0082
 30
0.0
 40
0
 41
0
  0
VERTEX
  8
0
 10
32.2307
 20
17.5767
 30
0.0
 40
0
 41
0
  0
VERTEX
  8
0
 10
32.0764
 20
17.2637
 30
0.0
 40
0
 41
0
  0
VERTEX
  8
0
 10
32.0224
 20
17.1608
 30
0.0
 40
0
 41
0
  0
VERTEX
  8
0
 10
32.0511
 20
17.0628
 30
0.0
 40
0
 41
0
  0
VERTEX
  8
0
 10
32.1367
 20
16.7683
 30
0.0
 40
0
 41
0
  0
VERTEX
  8
0
 10
32.2344
 20
16.4254
 30
0.0
 40
0
 41
0
  0
VERTEX
  8
0
 10
32.3156
 20
16.1322
 30
0.0
 40
0
 41
0
  0
VERTEX
  8
0
 10
32.38
 20
15.8885
 30
0.0
 40
0
 41
0
  0
VERTEX
  8
0
 10
32.4279
 20
15.6944
 30
0.0
 40
0
 41
0
  0
VERTEX
  8
0
 10
32.4592
 20
15.55
 30
0.0
 40
0
 41
0
  0
VERTEX
  8
0
 10
32.4738
 20
15.4551
 30
0.0
 40
0
 41
0
  0
VERTEX
  8
0
 10
32.4764
 20
15.4192
 30
0.0
 40
0
 41
0
  0
VERTEX
  8
0
 10
32.4718
 20
15.41
 30
0.0
 40
0
 41
0
  0
VERTEX
  8
0
 10
32.4776
 20
15.3412
 30
0.0
 40
0
 41
0
  0
VERTEX
  8
0
 10
32.486
 20
15.1343
 30
0.0
 40
0
 41
0
  0
VERTEX
  8
0
 10
32.4799
 20
14.8786
 30
0.0
 40
0
 41
0
  0
VERTEX
  8
0
 10
32.4536
 20
14.6428
 30
0.0
 40
0
 41
0
  0
VERTEX
  8
0
 10
32.4217
 20
14.48
 30
0.0
 40
0
 41
0
  0
VERTEX
  8
0
 10
32.4069
 20
14.4268
 30
0.0
 40
0
 41
0
  0
VERTEX
  8
0
 10
32.3746
 20
14.3412
 30
0.0
 40
0
 41
0
  0
VERTEX
  8
0
 10
32.2678
 20
14.0876
 30
0.0
 40
0
 41
0
  0
VERTEX
  8
0
 10
32.1243
 20
13.7936
 30
0.0
 40
0
 41
0
  0
VERTEX
  8
0
 10
31.9763
 20
13.5448
 30
0.0
 40
0
 41
0
  0
VERTEX
  8
0
 10
31.8239
 20
13.3412
 30
0.0
 40
0
 41
0
  0
VERTEX
  8
0
 10
31.6672
 20
13.1829
 30
0.0
 40
0
 41
0
  0
VERTEX
  8
0
 10
31.5062
 20
13.0698
 30
0.0
 40
0
 41
0
  0
VERTEX
  8
0
 10
31.3408
 20
13.0019
 30
0.0
 40
0
 41
0
  0
VERTEX
  8
0
 10
31.2135
 20
12.9793
 30
0.0
 40
0
 41
0
  0
VERTEX
  8
0
 10
31.171
 20
12.9793
 30
0.0
 40
0
 41
0
  0
VERTEX
  8
0
 10
31.1057
 20
12.9793
 30
0.0
 40
0
 41
0
  0
VERTEX
  8
0
 10
30.9097
 20
13.0296
 30
0.0
 40
0
 41
0
  0
VERTEX
  8
0
 10
30.6847
 20
13.1469
 30
0.0
 40
0
 41
0
  0
VERTEX
  8
0
 10
30.6388
 20
13.1803
 30
0.0
 40
0
 41
0
  0
VERTEX
  8
0
 10
30.6386
 20
13.1803
 30
0.0
 40
0
 41
0
  0
VERTEX
  8
0
 10
30.6442
 20
13.0422
 30
0.0
 40
0
 41
0
  0
VERTEX
  8
0
 10
30.6449
 20
12.3553
 30
0.0
 40
0
 41
0
  0
VERTEX
  8
0
 10
30.6089
 20
11.6734
 30
0.0
 40
0
 41
0
  0
VERTEX
  8
0
 10
30.5964
 20
11.5377
 30
0.0
 40
0
 41
0
  0
VERTEX
  8
0
 10
30.4933
 20
10.7275
 30
0.0
 40
0
 41
0
  0
VERTEX
  8
0
 10
30.4715
 20
10.5931
 30
0.0
 40
0
 41
0
  0
VERTEX
  8
0
 10
30.3356
 20
9.92469
 30
0.0
 40
0
 41
0
  0
VERTEX
  8
0
 10
30.1632
 20
9.26129
 30
0.0
 40
0
 41
0
  0
VERTEX
  8
0
 10
30.1233
 20
9.12935
 30
0.0
 40
0
 41
0
  0
VERTEX
  8
0
 10
30.0631
 20
8.93039
 30
0.0
 40
0
 41
0
  0
VERTEX
  8
0
 10
29.8562
 20
8.34142
 30
0.0
 40
0
 41
0
  0
VERTEX
  8
0
 10
29.5347
 20
7.56093
 30
0.0
 40
0
 41
0
  0
VERTEX
  8
0
 10
29.1585
 20
6.78782
 30
0.0
 40
0
 41
0
  0
VERTEX
  8
0
 10
28.8407
 20
6.21029
 30
0.0
 40
0
 41
0
  0
VERTEX
  8
0
 10
28.7275
 20
6.02214
 30
0.0
 40
0
 41
0
  0
VERTEX
  8
0
 10
28.8735
 20
6.21739
 30
0.0
 40
0
 41
0
  0
VERTEX
  8
0
 10
29.5683
 20
7.18218
 30
0.0
 40
0
 41
0
  0
VERTEX
  8
0
 10
30.2164
 20
8.13162
 30
0.0
 40
0
 41
0
  0
VERTEX
  8
0
 10
30.339
 20
8.31922
 30
0.0
 40
0
 41
0
  0
VERTEX
  8
0
 10
31.0394
 20
9.43349
 30
0.0
 40
0
 41
0
  0
VERTEX
  8
0
 10
31.1503
 20
9.61729
 30
0.0
 40
0
 41
0
  0
VERTEX
  8
0
 10
31.6696
 20
10.5249
 30
0.0
 40
0
 41
0
  0
VERTEX
  8
0
 10
32.1419
 20
11.4173
 30
0.0
 40
0
 41
0
  0
VERTEX
  8
0
 10
32.2294
 20
11.5934
 30
0.0
 40
0
 41
0
  0
VERTEX
  8
0
 10
32.3578
 20
11.8519
 30
0.0
 40
0
 41
0
  0
VERTEX
  8
0
 10
32.7192
 20
12.6391
 30
0.0
 40
0
 41
0
  0
VERTEX
  8
0
 10
33.1386
 20
13.6619
 30
0.0
 40
0
 41
0
  0
VERTEX
  8
0
 10
33.4878
 20
14.6619
 30
0.0
 40
0
 41
0
  0
VERTEX
  8
0
 10
33.7046
 20
15.3928
 30
0.0
 40
0
 41
0
  0
VERTEX
  8
0
 10
33.7668
 20
15.6389
 30
0.0
 40
0
 41
0
  0
VERTEX
  8
0
 10
33.7907
 20
15.7369
 30
0.0
 40
0
 41
0
  0
VERTEX
  8
0
 10
33.861
 20
16.0314
 30
0.0
 40
0
 41
0
  0
VERTEX
  8
0
 10
33.9424
 20
16.3883
 30
0.0
 40
0
 41
0
  0
VERTEX
  8
0
 10
34.0111
 20
16.71
 30
0.0
 40
0
 41
0
  0
VERTEX
  8
0
 10
34.0671
 20
16.9962
 30
0.0
 40
0
 41
0
  0
VERTEX
  8
0
 10
34.1103
 20
17.2472
 30
0.0
 40
0
 41
0
  0
VERTEX
  8
0
 10
34.1407
 20
17.4628
 30
0.0
 40
0
 41
0
  0
VERTEX
  8
0
 10
34.1585
 20
17.6429
 30
0.0
 40
0
 41
0
  0
VERTEX
  8
0
 10
34.1639
 20
17.7517
 30
0.0
 40
0
 41
0
  0
VERTEX
  8
0
 10
34.1635
 20
17.7878
 30
0.0
 40
0
 41
0
  0
VERTEX
  8
0
 10
34.1629
 20
17.7983
 30
0.0
 40
0
 41
0
  0
VERTEX
  8
0
 10
34.1528
 20
17.8299
 30
0.0
 40
0
 41
0
  0
VERTEX
  8
0
 10
34.1247
 20
17.8617
 30
0.0
 40
0
 41
0
  0
VERTEX
  8
0
 10
34.0797
 20
17.8832
 30
0.0
 40
0
 41
0
  0
VERTEX
  8
0
 10
34.0332
 20
17.8931
 30
0.0
 40
0
 41
0
  0
VERTEX
  8
0
 10
34.0175
 20
17.8944
 30
0.0
 40
0
 41
0
  0
VERTEX
  8
0
 10
33.2369
 20
17.7865
 30
0.0
 40
0
 41
0
  0
VERTEX
  8
0
 10
33.2282
 20
17.7904
 30
0.0
 40
0
 41
0
  0
VERTEX
  8
0
 10
33.2125
 20
17.8258
 30
0.0
 40
0
 41
0
  0
VERTEX
  8
0
 10
33.2071
 20
17.9135
 30
0.0
 40
0
 41
0
  0
VERTEX
  8
0
 10
33.221
 20
18.0492
 30
0.0
 40
0
 41
0
  0
VERTEX
  8
0
 10
33.2444
 20
18.1875
 30
0.0
 40
0
 41
0
  0
VERTEX
  8
0
 10
33.2538
 20
18.2333
 30
0.0
 40
0
 41
0
  0
VERTEX
  8
0
 10
33.2661
 20
18.3137
 30
0.0
 40
0
 41
0
  0
VERTEX
  8
0
 10
33.3147
 20
18.5529
 30
0.0
 40
0
 41
0
  0
VERTEX
  8
0
 10
33.4015
 20
18.8831
 30
0.0
 40
0
 41
0
  0
VERTEX
  8
0
 10
33.5142
 20
19.2237
 30
0.0
 40
0
 41
0
  0
VERTEX
  8
0
 10
33.6158
 20
19.4879
 30
0.0
 40
0
 41
0
  0
VERTEX
  8
0
 10
33.6526
 20
19.5747
 30
0.0
 40
0
 41
0
  0
VERTEX
  8
0
 10
33.6638
 20
19.6004
 30
0.0
 40
0
 41
0
  0
VERTEX
  8
0
 10
33.6999
 20
19.6761
 30
0.0
 40
0
 41
0
  0
VERTEX
  8
0
 10
33.7707
 20
19.8157
 30
0.0
 40
0
 41
0
  0
VERTEX
  8
0
 10
33.8653
 20
19.9939
 30
0.0
 40
0
 41
0
  0
VERTEX
  8
0
 10
33.9838
 20
20.2104
 30
0.0
 40
0
 41
0
  0
VERTEX
  8
0
 10
34.1257
 20
20.4654
 30
0.0
 40
0
 41
0
  0
VERTEX
  8
0
 10
34.2915
 20
20.7588
 30
0.0
 40
0
 41
0
  0
VERTEX
  8
0
 10
34.4811
 20
21.0906
 30
0.0
 40
0
 41
0
  0
VERTEX
  8
0
 10
34.6408
 20
21.3683
 30
0.0
 40
0
 41
0
  0
VERTEX
  8
0
 10
34.6943
 20
21.4607
 30
0.0
 40
0
 41
0
  0
VERTEX
  8
0
 10
34.6944
 20
21.4656
 30
0.0
 40
0
 41
0
  0
VERTEX
  8
0
 10
34.6808
 20
21.4821
 30
0.0
 40
0
 41
0
  0
VERTEX
  8
0
 10
34.6497
 20
21.4892
 30
0.0
 40
0
 41
0
  0
VERTEX
  8
0
 10
34.6394
 20
21.4892
 30
0.0
 40
0
 41
0
  0
VERTEX
  8
0
 10
34.6228
 20
21.4892
 30
0.0
 40
0
 41
0
  0
VERTEX
  8
0
 10
34.5731
 20
21.4826
 30
0.0
 40
0
 41
0
  0
VERTEX
  8
0
 10
34.481
 20
21.4631
 30
0.0
 40
0
 41
0
  0
VERTEX
  8
0
 10
34.3629
 20
21.4301
 30
0.0
 40
0
 41
0
  0
VERTEX
  8
0
 10
34.2547
 20
21.3963
 30
0.0
 40
0
 41
0
  0
VERTEX
  8
0
 10
34.219
 20
21.3842
 30
0.0
 40
0
 41
0
  0
VERTEX
  8
0
 10
34.2074
 20
21.3856
 30
0.0
 40
0
 41
0
  0
VERTEX
  8
0
 10
34.1728
 20
21.3933
 30
0.0
 40
0
 41
0
  0
VERTEX
  8
0
 10
34.1363
 20
21.4088
 30
0.0
 40
0
 41
0
  0
VERTEX
  8
0
 10
34.1094
 20
21.4303
 30
0.0
 40
0
 41
0
  0
VERTEX
  8
0
 10
34.0954
 20
21.4507
 30
0.0
 40
0
 41
0
  0
VERTEX
  8
0
 10
34.0925
 20
21.4581
 30
0.0
 40
0
 41
0
  0
VERTEX
  8
0
 10
34.0749
 20
21.5697
 30
0.0
 40
0
 41
0
  0
VERTEX
  8
0
 10
34.0188
 20
21.904
 30
0.0
 40
0
 41
0
  0
VERTEX
  8
0
 10
33.9443
 20
22.3135
 30
0.0
 40
0
 41
0
  0
VERTEX
  8
0
 10
33.8693
 20
22.6863
 30
0.0
 40
0
 41
0
  0
VERTEX
  8
0
 10
33.7936
 20
23.0225
 30
0.0
 40
0
 41
0
  0
VERTEX
  8
0
 10
33.7172
 20
23.3221
 30
0.0
 40
0
 41
0
  0
VERTEX
  8
0
 10
33.6401
 20
23.5851
 30
0.0
 40
0
 41
0
  0
VERTEX
  8
0
 10
33.5625
 20
23.8115
 30
0.0
 40
0
 41
0
  0
VERTEX
  8
0
 10
33.5054
 20
23.9549
 30
0.0
 40
0
 41
0
  0
VERTEX
  8
0
 10
33.4842
 20
24.0014
 30
0.0
 40
0
 41
0
  0
VERTEX
  8
0
 10
33.4051
 20
24.1547
 30
0.0
 40
0
 41
0
  0
SEQEND
 8
0
  0
ENDSEC
  0
EOF
